<svg xmlns="http://www.w3.org/2000/svg" width="247.577" height="368.891" viewBox="0 0 247.577 368.891">
  <g id="Group_10376" data-name="Group 10376" transform="translate(0.614 0.46)">
    <g id="Group_10340" data-name="Group 10340" transform="translate(0 0)">
      <path id="Path_13962" data-name="Path 13962" d="M678.581,197.167c0-11.047,16.982-22.739,8.635-42.024-11.3-26.1-37.2-8.286-49.8-9.786C601.153,141.039,606.334,97,606.334,97" transform="translate(-606.079 5.617)" fill="none" stroke="#31b7bc" stroke-miterlimit="10" stroke-width="1" stroke-dasharray="7"/>
      <g id="Group_10339" data-name="Group 10339" transform="translate(35.281)">
        <path id="Path_13957" data-name="Path 13957" d="M343.352,48.333s37.433,15.941,14.593,41.916c-15.835,18.009-98.966-9.184-135.375,32.913-9.935,11.488-2.483,27.789-2.483,27.789" transform="translate(-154.255 -48.333)" fill="none" stroke="#31b7bc" stroke-miterlimit="10" stroke-width="1" stroke-dasharray="7"/>
        <path id="Path_13958" data-name="Path 13958" d="M664.735,178.038c0-8.937,13.739-18.4,6.986-34-9.139-21.113-30.094-6.7-40.286-7.918C602.094,132.629,606.286,97,606.286,97" transform="translate(-568.787 107.381)" fill="none" stroke="#31b7bc" stroke-miterlimit="10" stroke-width="1" stroke-dasharray="7"/>
        <path id="Path_13961" data-name="Path 13961" d="M614.932,178.038c0-8.937-13.739-18.4-6.986-34,9.139-21.113,30.094-6.7,40.286-7.917C677.573,132.629,673.381,97,673.381,97" transform="translate(-606.079 12.152)" fill="none" stroke="#31b7bc" stroke-miterlimit="10" stroke-width="1" stroke-dasharray="7"/>
        <path id="Path_13959" data-name="Path 13959" d="M261.667,354.75c22.239,4.774,28.031,25.4,39.975,27.556,24.064,4.347,31.283-9.159,28.255-16.145-2.885-6.655-12.3-10.938-27.324-8.073-11.8,2.251-21.767,12.74-24.14,24.607-10.79,53.948,58.139,54.568,58.139,54.568" transform="translate(-166.725 -69.332)" fill="none" stroke="#31b7bc" stroke-miterlimit="10" stroke-width="1" stroke-dasharray="7"/>
      </g>
    </g>
  </g>
</svg>
