<svg xmlns="http://www.w3.org/2000/svg" xmlns:xlink="http://www.w3.org/1999/xlink" width="478" height="478" viewBox="0 0 478 478">
  <defs>
    <linearGradient id="linear-gradient" x1="0.58" y1="1.828" x2="1.724" y2="1.828" gradientUnits="objectBoundingBox">
      <stop offset="0" stop-color="#191fd1"/>
      <stop offset="0.063" stop-color="#182ad1"/>
      <stop offset="0.177" stop-color="#1749d2"/>
      <stop offset="0.326" stop-color="#157bd4"/>
      <stop offset="0.41" stop-color="#149bd6"/>
      <stop offset="1" stop-color="#20c7a9"/>
    </linearGradient>
    <linearGradient id="linear-gradient-2" y1="0.5" x2="1" y2="0.5" gradientUnits="objectBoundingBox">
      <stop offset="0" stop-color="#31b7bc"/>
      <stop offset="0.073" stop-color="#31b7bc"/>
      <stop offset="0.204" stop-color="#31b7bc"/>
      <stop offset="0.377" stop-color="#31b7bc"/>
      <stop offset="0.473" stop-color="#31b7bc"/>
      <stop offset="1" stop-color="#20c7a9"/>
    </linearGradient>
    <linearGradient id="linear-gradient-3" y1="0.5" x2="1" y2="0.5" gradientUnits="objectBoundingBox">
      <stop offset="0" stop-color="#31b7bc"/>
      <stop offset="0.473" stop-color="#31b7bc"/>
      <stop offset="1" stop-color="#20c7a9"/>
    </linearGradient>
    <linearGradient id="linear-gradient-5" x1="0.066" y1="0.585" x2="1.082" y2="0.585" gradientUnits="objectBoundingBox">
      <stop offset="0" stop-color="#31b7bc"/>
      <stop offset="0.121" stop-color="#31b7bc"/>
      <stop offset="0.337" stop-color="#31b7bc"/>
      <stop offset="0.622" stop-color="#31b7bc"/>
      <stop offset="0.782" stop-color="#31b7bc"/>
      <stop offset="1" stop-color="#31b7bc"/>
    </linearGradient>
    <linearGradient id="linear-gradient-6" x1="0.851" y1="0.903" x2="0.149" y2="0.097" gradientUnits="objectBoundingBox">
      <stop offset="0" stop-color="#31b7bc"/>
      <stop offset="0.073" stop-color="#31b7bc"/>
      <stop offset="0.204" stop-color="#31b7bc"/>
      <stop offset="0.377" stop-color="#31b7bc"/>
      <stop offset="0.473" stop-color="#31b7bc"/>
      <stop offset="1" stop-color="#31b7bc"/>
    </linearGradient>
    <clipPath id="clip-path">
      <path id="Path_13888" data-name="Path 13888" d="M584.782,335.9a1.54,1.54,0,0,1-1.891,1.083l-55.964-15.809a1.541,1.541,0,0,1-1.044-1.913L559.237,201.19a1.541,1.541,0,0,1,1.89-1.084l55.964,15.809a1.54,1.54,0,0,1,1.044,1.913Z" transform="translate(-525.823 -200.049)" fill="#fff" stroke="#20154c" stroke-miterlimit="10" stroke-width="1"/>
    </clipPath>
    <linearGradient id="linear-gradient-7" x1="0.58" y1="1.828" x2="1.724" y2="1.828" gradientUnits="objectBoundingBox">
      <stop offset="0" stop-color="#31b7bc"/>
      <stop offset="0.063" stop-color="#31b7bc"/>
      <stop offset="0.177" stop-color="#31b7bc"/>
      <stop offset="0.326" stop-color="#31b7bc"/>
      <stop offset="0.41" stop-color="#31b7bc"/>
      <stop offset="1" stop-color="#31b7bc"/>
    </linearGradient>
    <clipPath id="clip-path-2">
      <path id="Path_13902" data-name="Path 13902" d="M319.419,262.006c-3.862,6.5-7.386,17.144-7.824,23.27a18.335,18.335,0,0,0,1.2,5.639c4.593,9.514,16.107,24.33,22.69,31.95a285.764,285.764,0,0,0,35.863,33.469,267.522,267.522,0,0,0,38.8,24.4c9,4.46,26.181,11.882,36.5,13.923a18.006,18.006,0,0,0,5.727-.269c5.776-1.988,15.107-8.129,20.374-13.543a90.372,90.372,0,0,0,8.658-11.276c.2-.314.653-1.158-.355-1.442-10.786-3.049-43.677-8.26-43.677-8.26s-3.509-.708-4.609-.354c-2.868.923-5.831,4.9-11.164,4.547-4.4-.29-10.135-4.315-10.135-4.315L389.13,342.364l.007-.008-2.479-1.916-1.964-1.528-.005.007-29.36-22.686s-5.332-4.549-6.732-8.758c-1.7-5.1,1.368-8.992,1.524-12.017.06-1.161-1.514-4.394-1.514-4.394s-13.4-30.662-19.076-40.376c-.531-.908-1.226-.251-1.477.022A90.375,90.375,0,0,0,319.419,262.006Z" transform="translate(-311.589 -250.224)" stroke="#20154c" stroke-miterlimit="10" stroke-width="1" fill="url(#linear-gradient)"/>
    </clipPath>
    <clipPath id="clip-path-3">
      <path id="Path_13906" data-name="Path 13906" d="M468.286,373.193a2.932,2.932,0,0,1,3.315-2.487l48,9.079a2.947,2.947,0,0,1,2.19,3.528l-1.968,10.525a2.931,2.931,0,0,1-3.315,2.486l-48-9.079a2.947,2.947,0,0,1-2.191-3.527Z" transform="translate(-466.261 -370.66)" fill="#fff" stroke="#20154c" stroke-miterlimit="10" stroke-width="1"/>
    </clipPath>
    <clipPath id="clip-path-4">
      <path id="Path_13910" data-name="Path 13910" d="M368.945,289.7a2.953,2.953,0,0,0,1.545-3.858L349.524,241.46a2.922,2.922,0,0,0-3.951-1.232l-9.616,4.6a2.953,2.953,0,0,0-1.545,3.858l20.967,44.377a2.92,2.92,0,0,0,3.95,1.232Z" transform="translate(-334.159 -239.909)" fill="#fff" stroke="#20154c" stroke-miterlimit="10" stroke-width="1"/>
    </clipPath>
  </defs>
  <g id="Group_10348" data-name="Group 10348" transform="translate(51 -4938)">
    <g id="Group_9414" data-name="Group 9414" transform="translate(-256.589 4937.333)">
      <g id="Group_9409" data-name="Group 9409" transform="translate(311.589 155.611)">
        <g id="Group_9392" data-name="Group 9392" transform="translate(58.491)">
          <path id="Path_13877" data-name="Path 13877" d="M387.578,229.671l51.865-61.878L509.151,208.2Z" transform="translate(-387.504 -167.793)" stroke="#20154c" stroke-linecap="round" stroke-linejoin="round" stroke-width="1" fill="url(#linear-gradient-2)"/>
          <rect id="Rectangle_20018" data-name="Rectangle 20018" width="123.535" height="61.534" transform="matrix(0.985, -0.174, 0.174, 0.985, 0, 61.721)" fill="#20154c"/>
          <rect id="Rectangle_20019" data-name="Rectangle 20019" width="106.286" height="70.276" transform="matrix(0.985, -0.174, 0.174, 0.985, 4.107, 36.734)" fill="#fff" stroke="#20154c" stroke-linecap="round" stroke-linejoin="round" stroke-width="1"/>
          <g id="Group_9390" data-name="Group 9390" transform="translate(0.041 61.951)">
            <path id="Path_13878" data-name="Path 13878" d="M452.154,312.5l-51.644,9.123-12.975-73.45,59.321,31.652Z" transform="translate(-387.535 -248.176)" fill="url(#linear-gradient-3)"/>
            <path id="Path_13879" data-name="Path 13879" d="M452.154,312.5l-51.644,9.123-12.975-73.45,59.321,31.652Z" transform="translate(-387.535 -248.176)" fill="none" stroke="#20154c" stroke-linecap="round" stroke-linejoin="round" stroke-width="1"/>
          </g>
          <g id="Group_9391" data-name="Group 9391" transform="translate(76.806 40.46)">
            <path id="Path_13880" data-name="Path 13880" d="M493.357,302.865,545,293.742l-12.975-73.45L487.14,270.352Z" transform="translate(-487.14 -220.292)" fill="url(#linear-gradient-3)"/>
            <path id="Path_13881" data-name="Path 13881" d="M493.357,302.865,545,293.742l-12.975-73.45L487.14,270.352Z" transform="translate(-487.14 -220.292)" fill="none" stroke="#20154c" stroke-linecap="round" stroke-linejoin="round" stroke-width="1"/>
          </g>
          <path id="Path_13882" data-name="Path 13882" d="M404.547,323.635l50.87-67.091,70.778,45.6Z" transform="translate(-391.395 -188.144)" stroke="#20154c" stroke-linecap="round" stroke-linejoin="round" stroke-width="1" fill="url(#linear-gradient-5)"/>
          <rect id="Rectangle_20020" data-name="Rectangle 20020" width="70.508" height="7.459" rx="1.815" transform="matrix(0.985, -0.174, 0.174, 0.985, 22.601, 52.995)" fill="#fff"/>
          <rect id="Rectangle_20021" data-name="Rectangle 20021" width="70.508" height="7.459" rx="1.815" transform="translate(26.005 53.202) rotate(-10.018)" fill="#c2e5f4" stroke="#20154c" stroke-miterlimit="10" stroke-width="1"/>
          <rect id="Rectangle_20022" data-name="Rectangle 20022" width="70.508" height="7.459" rx="1.815" transform="matrix(0.985, -0.174, 0.174, 0.985, 24.148, 42.676)" fill="#c2e5f4" stroke="#20154c" stroke-miterlimit="10" stroke-width="1"/>
          <rect id="Rectangle_20023" data-name="Rectangle 20023" width="70.508" height="7.459" rx="1.815" transform="matrix(0.985, -0.174, 0.174, 0.985, 27.985, 63.74)" fill="#c2e5f4" stroke="#20154c" stroke-miterlimit="10" stroke-width="1"/>
        </g>
        <g id="Group_9401" data-name="Group 9401" transform="translate(158.332 12.933)">
          <g id="Group_9397" data-name="Group 9397">
            <g id="Group_9393" data-name="Group 9393">
              <path id="Path_13883" data-name="Path 13883" d="M586.832,338.416a9.031,9.031,0,0,1-11.234,6.07l-51.844-14.645a9.031,9.031,0,0,1-6.4-11.051L553.457,191a9.031,9.031,0,0,1,11.234-6.07l51.844,14.645a9.031,9.031,0,0,1,6.4,11.051Z" transform="translate(-517.029 -184.574)" stroke="#20154c" stroke-linecap="round" stroke-linejoin="round" stroke-width="1" fill="url(#linear-gradient-6)"/>
              <path id="Path_13884" data-name="Path 13884" d="M591.59,197.95a1.2,1.2,0,1,1-.838-1.447A1.183,1.183,0,0,1,591.59,197.95Z" transform="translate(-533.587 -187.298)" fill="#fff" stroke="#20154c" stroke-miterlimit="10" stroke-width="1"/>
              <path id="Path_13885" data-name="Path 13885" d="M630.535,208.952a1.2,1.2,0,1,1-.838-1.447A1.183,1.183,0,0,1,630.535,208.952Z" transform="translate(-542.518 -189.821)" fill="#fff" stroke="#20154c" stroke-miterlimit="10" stroke-width="1"/>
              <path id="Path_13886" data-name="Path 13886" d="M617.541,205.333a.591.591,0,0,1-.735.4l-18.366-5.188a.591.591,0,0,1-.418-.724h0a.591.591,0,0,1,.735-.4l18.366,5.188a.591.591,0,0,1,.419.724Z" transform="translate(-535.596 -187.973)" fill="#fff" stroke="#20154c" stroke-miterlimit="10" stroke-width="1"/>
            </g>
            <g id="Group_9395" data-name="Group 9395" transform="translate(6.777 11.927)">
              <path id="Path_13887" data-name="Path 13887" d="M584.782,335.9a1.54,1.54,0,0,1-1.891,1.083l-55.964-15.809a1.541,1.541,0,0,1-1.044-1.913L559.237,201.19a1.541,1.541,0,0,1,1.89-1.084l55.964,15.809a1.54,1.54,0,0,1,1.044,1.913Z" transform="translate(-525.823 -200.049)" fill="#fff"/>
              <g id="Group_9394" data-name="Group 9394" clip-path="url(#clip-path)">
                <line id="Line_38" data-name="Line 38" x2="82.207" y2="24.148" transform="translate(17.092 6.641)" fill="none" stroke="#20154c" stroke-miterlimit="10" stroke-width="1"/>
                <line id="Line_39" data-name="Line 39" x2="82.207" y2="24.148" transform="translate(-4.167 99.703)" fill="none" stroke="#20154c" stroke-miterlimit="10" stroke-width="1"/>
              </g>
              <path id="Path_13889" data-name="Path 13889" d="M584.782,335.9a1.54,1.54,0,0,1-1.891,1.083l-55.964-15.809a1.541,1.541,0,0,1-1.044-1.913L559.237,201.19a1.541,1.541,0,0,1,1.89-1.084l55.964,15.809a1.54,1.54,0,0,1,1.044,1.913Z" transform="translate(-525.823 -200.049)" fill="none" stroke="#20154c" stroke-miterlimit="10" stroke-width="1"/>
            </g>
            <g id="Group_9396" data-name="Group 9396" transform="translate(15.779 140.483)">
              <path id="Path_13890" data-name="Path 13890" d="M561.541,374.355a1.636,1.636,0,1,1-1.142-1.974A1.613,1.613,0,0,1,561.541,374.355Z" transform="translate(-542.28 -368.108)" fill="none" stroke="#fff" stroke-miterlimit="10" stroke-width="1"/>
              <path id="Path_13891" data-name="Path 13891" d="M539.942,369.262c-.143.5-.57.607-.948.227l-1.268-1.27c-.378-.379-.262-.792.259-.917l1.745-.419c.522-.125.832.185.689.69Z" transform="translate(-537.503 -366.855)" fill="none" stroke="#fff" stroke-linecap="round" stroke-linejoin="round" stroke-width="1"/>
              <path id="Path_13892" data-name="Path 13892" d="M580.886,381.054a.322.322,0,0,1-.4.217l-2.2-.623a.322.322,0,0,1-.229-.395l.677-2.395a.322.322,0,0,1,.4-.217l2.2.623a.323.323,0,0,1,.229.395Z" transform="translate(-546.799 -369.326)" fill="none" stroke="#fff" stroke-linecap="round" stroke-linejoin="round" stroke-width="1"/>
            </g>
          </g>
          <g id="Group_9400" data-name="Group 9400" transform="translate(15.268 37.015)">
            <g id="Group_9398" data-name="Group 9398" transform="translate(14.626)">
              <path id="Path_13893" data-name="Path 13893" d="M613.4,243.955l-39.933-11.313a1.056,1.056,0,0,0-1.3.728l-2.684,9.476a1.054,1.054,0,0,0,.728,1.3l3.722,1.055,1.185.335,1.793,2.7.576-2.031,32.657,9.252a1.056,1.056,0,0,0,1.3-.728l2.684-9.475A1.056,1.056,0,0,0,613.4,243.955Z" transform="translate(-558.941 -232.602)" fill="#c2e5f4" stroke="#20154c" stroke-miterlimit="10" stroke-width="1"/>
              <path id="Path_13894" data-name="Path 13894" d="M610.233,267.7a1.04,1.04,0,0,0-.378-.2l-30.2-8.557a1.03,1.03,0,0,0-.426-.029,1.068,1.068,0,0,0-.88.768l-2.69,9.495a1.061,1.061,0,0,0,.724,1.314l26.488,7.5,1.09,2.092.467-1.65,2.158.611a1.062,1.062,0,0,0,1.306-.739l2.69-9.495A1.067,1.067,0,0,0,610.233,267.7Z" transform="translate(-560.357 -238.633)" fill="#c2e5f4" stroke="#20154c" stroke-miterlimit="10" stroke-width="1"/>
              <path id="Path_13895" data-name="Path 13895" d="M559.846,280.724l39.933,11.313a1.055,1.055,0,0,1,.728,1.3l-2.684,9.476a1.055,1.055,0,0,1-1.3.727l-3.722-1.054-1.185-.335-2.944,1.359.576-2.03-32.657-9.252a1.055,1.055,0,0,1-.728-1.3l2.684-9.476A1.055,1.055,0,0,1,559.846,280.724Z" transform="translate(-555.818 -243.627)" fill="#c2e5f4" stroke="#20154c" stroke-miterlimit="10" stroke-width="1"/>
              <path id="Path_13896" data-name="Path 13896" d="M596.611,315.779a1.034,1.034,0,0,0-.378-.2l-30.2-8.557a1.03,1.03,0,0,0-.426-.029,1.067,1.067,0,0,0-.879.768l-2.69,9.495a1.061,1.061,0,0,0,.724,1.314l26.488,7.5,1.09,2.091.468-1.649,2.157.611a1.061,1.061,0,0,0,1.306-.739l2.69-9.495A1.067,1.067,0,0,0,596.611,315.779Z" transform="translate(-557.234 -249.658)" fill="#c2e5f4" stroke="#20154c" stroke-miterlimit="10" stroke-width="1"/>
              <rect id="Rectangle_20024" data-name="Rectangle 20024" width="1.935" height="34.997" transform="translate(15.702 7.502) rotate(-74.182)" fill="#fff"/>
              <rect id="Rectangle_20025" data-name="Rectangle 20025" width="1.934" height="34.997" transform="translate(5.06 45.066) rotate(-74.182)" fill="#fff"/>
              <rect id="Rectangle_20026" data-name="Rectangle 20026" width="1.935" height="24.27" transform="translate(20.894 28.531) rotate(-74.182)" fill="#fff"/>
              <rect id="Rectangle_20027" data-name="Rectangle 20027" width="1.935" height="24.27" transform="translate(10.444 65.419) rotate(-74.182)" fill="#fff"/>
            </g>
            <g id="Group_9399" data-name="Group 9399" transform="translate(0 84.375)">
              <path id="Path_13897" data-name="Path 13897" d="M583.523,358.148a3.963,3.963,0,0,1-4.893,2.733l-38.906-11.022a3.962,3.962,0,0,1-2.733-4.893h0a3.963,3.963,0,0,1,4.893-2.733l38.906,11.022a3.964,3.964,0,0,1,2.733,4.894Z" transform="translate(-536.84 -342.081)" fill="#fff" stroke="#20154c" stroke-miterlimit="10" stroke-width="1"/>
              <path id="Path_13898" data-name="Path 13898" d="M543.4,347.593a1.608,1.608,0,1,1-1.109-1.985A1.608,1.608,0,0,1,543.4,347.593Z" transform="translate(-537.621 -342.875)" fill="none" stroke="#20154c" stroke-miterlimit="10" stroke-width="1"/>
            </g>
          </g>
        </g>
        <g id="Group_9408" data-name="Group 9408" transform="translate(0 55.58)">
          <g id="Group_9403" data-name="Group 9403" transform="translate(0 7.949)">
            <path id="Path_13899" data-name="Path 13899" d="M319.419,262.006c-3.862,6.5-7.386,17.144-7.824,23.27a18.335,18.335,0,0,0,1.2,5.639c4.593,9.514,16.107,24.33,22.69,31.95a285.764,285.764,0,0,0,35.863,33.469,267.522,267.522,0,0,0,38.8,24.4c9,4.46,26.181,11.882,36.5,13.923a18.006,18.006,0,0,0,5.727-.269c5.776-1.988,15.107-8.129,20.374-13.543a90.372,90.372,0,0,0,8.658-11.276c.2-.314.653-1.158-.355-1.442-10.786-3.049-43.677-8.26-43.677-8.26s-3.509-.708-4.609-.354c-2.868.923-5.831,4.9-11.164,4.547-4.4-.29-10.135-4.315-10.135-4.315L389.13,342.364l.007-.008-2.479-1.916-1.964-1.528-.005.007-29.36-22.686s-5.332-4.549-6.732-8.758c-1.7-5.1,1.368-8.992,1.524-12.017.06-1.161-1.514-4.394-1.514-4.394s-13.4-30.662-19.076-40.376c-.531-.908-1.226-.251-1.477.022A90.375,90.375,0,0,0,319.419,262.006Z" transform="translate(-311.589 -250.224)" fill="url(#linear-gradient-7)"/>
            <g id="Group_9402" data-name="Group 9402" clip-path="url(#clip-path-2)">
              <path id="Path_13900" data-name="Path 13900" d="M349.511,297.387c-.1,3.067-3.167,6.962-1.327,12.17,1.52,4.3,7.078,9.026,7.078,9.026L385.824,342.2l.005-.006,2.044,1.59,2.581,1.995-.006.008,23.25,18.086s5.959,4.2,10.481,4.583c5.477.462,8.438-3.513,11.361-4.393,1.122-.338,4.735.451,4.735.451s29.928,5.259,42.745,8.638c1.149-1.567,2.183-3.062,2.893-4.185.2-.314.653-1.158-.359-1.445-10.818-3.074-43.8-8.356-43.8-8.356s-3.518-.716-4.621-.363c-2.873.919-5.836,4.892-11.183,4.532-4.415-.3-10.169-4.341-10.169-4.341l-22.422-17.445.007-.008-2.489-1.923-1.971-1.534-.005.006-29.476-22.776s-5.353-4.566-6.766-8.784c-1.71-5.107,3.781-7.536,3.932-10.565.058-1.162-3.954-5.87-3.954-5.87s-13.487-30.733-19.2-40.472c-.534-.91-1.23-.253-1.481.019-.9.977-2.072,2.365-3.286,3.882,6.516,11.6,19.2,39.372,19.2,39.372S349.55,296.21,349.511,297.387Z" transform="translate(-315.505 -249.98)" fill="#20154c" opacity="0.2"/>
              <path id="Path_13901" data-name="Path 13901" d="M319.594,286.06s-.973,6.7-.717,9.066a13.875,13.875,0,0,0,1.645,4.949c1.263,1.763,5.5,6.488,5.5,6.488Z" transform="translate(-313.25 -258.441)" fill="#fff"/>
            </g>
            <path id="Path_13903" data-name="Path 13903" d="M319.419,262.006c-3.862,6.5-7.386,17.144-7.824,23.27a18.335,18.335,0,0,0,1.2,5.639c4.593,9.514,16.107,24.33,22.69,31.95a285.764,285.764,0,0,0,35.863,33.469,267.522,267.522,0,0,0,38.8,24.4c9,4.46,26.181,11.882,36.5,13.923a18.006,18.006,0,0,0,5.727-.269c5.776-1.988,15.107-8.129,20.374-13.543a90.372,90.372,0,0,0,8.658-11.276c.2-.314.653-1.158-.355-1.442-10.786-3.049-43.677-8.26-43.677-8.26s-3.509-.708-4.609-.354c-2.868.923-5.831,4.9-11.164,4.547-4.4-.29-10.135-4.315-10.135-4.315L389.13,342.364l.007-.008-2.479-1.916-1.964-1.528-.005.007-29.36-22.686s-5.332-4.549-6.732-8.758c-1.7-5.1,1.368-8.992,1.524-12.017.06-1.161-1.514-4.394-1.514-4.394s-13.4-30.662-19.076-40.376c-.531-.908-1.226-.251-1.477.022A90.375,90.375,0,0,0,319.419,262.006Z" transform="translate(-311.589 -250.224)" fill="none" stroke="#20154c" stroke-miterlimit="10" stroke-width="1"/>
          </g>
          <g id="Group_9405" data-name="Group 9405" transform="translate(119.205 100.769)">
            <path id="Path_13904" data-name="Path 13904" d="M468.286,373.193a2.932,2.932,0,0,1,3.315-2.487l48,9.079a2.947,2.947,0,0,1,2.19,3.528l-1.968,10.525a2.931,2.931,0,0,1-3.315,2.486l-48-9.079a2.947,2.947,0,0,1-2.191-3.527Z" transform="translate(-466.261 -370.66)" fill="#fff"/>
            <g id="Group_9404" data-name="Group 9404" clip-path="url(#clip-path-3)">
              <path id="Path_13905" data-name="Path 13905" d="M459.216,376.333,534.1,389.949l-.949,4.567-74.891-13.73Z" transform="translate(-464.427 -371.961)" fill="#c2e5f4" stroke="#20154c" stroke-miterlimit="10" stroke-width="1"/>
            </g>
            <path id="Path_13907" data-name="Path 13907" d="M468.286,373.193a2.932,2.932,0,0,1,3.315-2.487l48,9.079a2.947,2.947,0,0,1,2.19,3.528l-1.968,10.525a2.931,2.931,0,0,1-3.315,2.486l-48-9.079a2.947,2.947,0,0,1-2.191-3.527Z" transform="translate(-466.261 -370.66)" fill="none" stroke="#20154c" stroke-miterlimit="10" stroke-width="1"/>
          </g>
          <g id="Group_9407" data-name="Group 9407" transform="translate(17.395)">
            <path id="Path_13908" data-name="Path 13908" d="M368.945,289.7a2.953,2.953,0,0,0,1.545-3.858L349.524,241.46a2.922,2.922,0,0,0-3.951-1.232l-9.616,4.6a2.953,2.953,0,0,0-1.545,3.858l20.967,44.377a2.92,2.92,0,0,0,3.95,1.232Z" transform="translate(-334.159 -239.909)" fill="#fff"/>
            <g id="Group_9406" data-name="Group 9406" clip-path="url(#clip-path-4)">
              <path id="Path_13909" data-name="Path 13909" d="M368.431,293.662l-32.369-70.037-3.853,1.83,32.08,70.133Z" transform="translate(-333.712 -236.175)" fill="#c2e5f4" stroke="#20154c" stroke-miterlimit="10" stroke-width="1"/>
            </g>
            <path id="Path_13911" data-name="Path 13911" d="M368.945,289.7a2.953,2.953,0,0,0,1.545-3.858L349.524,241.46a2.922,2.922,0,0,0-3.951-1.232l-9.616,4.6a2.953,2.953,0,0,0-1.545,3.858l20.967,44.377a2.92,2.92,0,0,0,3.95,1.232Z" transform="translate(-334.159 -239.909)" fill="none" stroke="#20154c" stroke-miterlimit="10" stroke-width="1"/>
          </g>
        </g>
      </g>
      <g id="Group_9413" data-name="Group 9413" transform="translate(314.884 114.667)">
        <g id="Group_9410" data-name="Group 9410" transform="translate(125.128 13.744)">
          <path id="Path_13912" data-name="Path 13912" d="M535.156,132.5H482.749a4.624,4.624,0,0,0-4.624,4.624v14.643a4.624,4.624,0,0,0,4.624,4.624h21.416l.1,14.9,7.254-14.9h23.638a4.624,4.624,0,0,0,4.624-4.624V137.124A4.624,4.624,0,0,0,535.156,132.5Z" transform="translate(-478.125 -132.5)" fill="none" stroke="#20154c" stroke-linecap="round" stroke-linejoin="round" stroke-width="1"/>
          <text id="مرحبا" transform="translate(18.993 12.3)" fill="#3c3c3b" font-size="8" font-family="Cairo-Bold, Cairo" font-weight="700" letter-spacing="0.1em"><tspan x="0" y="0">مرحبا</tspan></text>
        </g>
        <g id="Group_9411" data-name="Group 9411" transform="translate(0 28.639)">
          <text id="Can_I_help_you_" data-name="Can I help you?" transform="translate(16.538 6.74) rotate(19.029)" fill="#191fd1" font-size="12" font-family="Poppins-Bold, Poppins" font-weight="700" letter-spacing="0.1em"><tspan x="0" y="13">Can I </tspan><tspan x="0" y="27.4">help </tspan></text>
          <path id="Path_13913" data-name="Path 13913" d="M391.365,172.771l-59.986-20.689a4.624,4.624,0,0,0-5.88,2.864l-9.381,27.2a4.623,4.623,0,0,0,2.864,5.879l21.218,7.318.788,17.12,5.194-15.057,32.786,11.308a4.624,4.624,0,0,0,5.879-2.864l9.382-27.2A4.625,4.625,0,0,0,391.365,172.771Z" transform="translate(-315.864 -151.827)" fill="#fff" stroke="#20154c" stroke-linecap="round" stroke-linejoin="round" stroke-width="1"/>
          <text id="كيف_يمكني_مساعدتك_" data-name="كيف يمكني 
مساعدتك ؟" transform="translate(30.568 5.127) rotate(19.029)" fill="#20154c" font-size="12" font-family="Cairo-Bold, Cairo" font-weight="700" letter-spacing="0.1em"><tspan x="0" y="16">كيف</tspan><tspan y="16"> </tspan><tspan x="0" y="28">يمكني</tspan><tspan y="28"> </tspan></text>
        </g>
        <g id="Group_9412" data-name="Group 9412" transform="translate(72.421)">
          <path id="Path_13914" data-name="Path 13914" d="M434.5,114.667H414.457a4.624,4.624,0,0,0-4.624,4.624v19.524a4.624,4.624,0,0,0,4.624,4.624h11.13l5.44,8.67-.167-8.67H434.5a4.624,4.624,0,0,0,4.624-4.624V119.291A4.624,4.624,0,0,0,434.5,114.667Z" transform="translate(-409.833 -114.667)" fill="#fff" stroke="#20154c" stroke-linecap="round" stroke-linejoin="round" stroke-width="1"/>
          <text id="اهلا" transform="translate(6.174 16.247)" fill="#20154c" font-size="8" font-family="Cairo-Bold, Cairo" font-weight="700" letter-spacing="0.1em"><tspan x="0" y="0">اهلا</tspan></text>
        </g>
      </g>
    </g>
    <circle id="Ellipse_57" data-name="Ellipse 57" cx="89" cy="89" r="89" transform="translate(99 5088)" fill="#31b7bc" opacity="0.26"/>
  </g>
</svg>
