<svg id="Group_10370" data-name="Group 10370" xmlns="http://www.w3.org/2000/svg" xmlns:xlink="http://www.w3.org/1999/xlink" width="392.166" height="425.771" viewBox="0 0 392.166 425.771">
  <defs>
    <filter id="Rectangle_20002" x="9.689" y="58.311" width="109.116" height="151.67" filterUnits="userSpaceOnUse">
      <feOffset dy="3" input="SourceAlpha"/>
      <feGaussianBlur stdDeviation="3" result="blur"/>
      <feFlood flood-opacity="0.161"/>
      <feComposite operator="in" in2="blur"/>
      <feComposite in="SourceGraphic"/>
    </filter>
    <clipPath id="clip-path">
      <rect id="Rectangle_19977" data-name="Rectangle 19977" width="12.015" height="12.015" transform="translate(0 0)" fill="#fff"/>
    </clipPath>
    <clipPath id="clip-path-2">
      <rect id="Rectangle_19979" data-name="Rectangle 19979" width="32.041" height="32.041" transform="translate(0 0)" fill="#fff"/>
    </clipPath>
  </defs>
  <g transform="matrix(1, 0, 0, 1, 0, 0)" filter="url(#Rectangle_20002)">
    <rect id="Rectangle_20002-2" data-name="Rectangle 20002" width="91.116" height="133.67" rx="5" transform="translate(18.69 64.31)" fill="rgba(233,238,239,0.34)"/>
  </g>
  <line id="Line_25" data-name="Line 25" y2="268.092" transform="translate(302.301 98.605)" fill="none" stroke="#707070" stroke-width="1" stroke-dasharray="5 8"/>
  <line id="Line_24" data-name="Line 24" x1="15.52" transform="translate(302.551 98.855)" fill="none" stroke="#707070" stroke-width="1" stroke-dasharray="5 8"/>
  <rect id="Rectangle_19974" data-name="Rectangle 19974" width="69.088" height="104.133" rx="10" transform="translate(323.077 66.814)" fill="#b94191"/>
  <g id="Ellipse_299" data-name="Ellipse 299" transform="translate(316.069 95.35)" fill="#fff" stroke="#707070" stroke-width="1">
    <ellipse cx="3.504" cy="3.504" rx="3.504" ry="3.504" stroke="none"/>
    <ellipse cx="3.504" cy="3.504" rx="3.004" ry="3.004" fill="none"/>
  </g>
  <g id="Ellipse_300" data-name="Ellipse 300" transform="translate(221.949 213.501)" fill="#fff" stroke="#707070" stroke-width="1">
    <ellipse cx="3.504" cy="3.504" rx="3.504" ry="3.504" stroke="none"/>
    <ellipse cx="3.504" cy="3.504" rx="3.004" ry="3.004" fill="none"/>
  </g>
  <g id="Ellipse_302" data-name="Ellipse 302" transform="translate(199.42 141.91)" fill="#fff" stroke="#707070" stroke-width="1">
    <ellipse cx="2.253" cy="2.253" rx="2.253" ry="2.253" stroke="none"/>
    <ellipse cx="2.253" cy="2.253" rx="1.753" ry="1.753" fill="none"/>
  </g>
  <g id="Ellipse_307" data-name="Ellipse 307" transform="translate(236.968 61.307)" fill="#fff" stroke="#707070" stroke-width="1">
    <ellipse cx="2.253" cy="2.253" rx="2.253" ry="2.253" stroke="none"/>
    <ellipse cx="2.253" cy="2.253" rx="1.753" ry="1.753" fill="none"/>
  </g>
  <g id="Ellipse_304" data-name="Ellipse 304" transform="translate(211.936 61.808)" fill="#fff" stroke="#707070" stroke-width="1">
    <ellipse cx="2.253" cy="2.253" rx="2.253" ry="2.253" stroke="none"/>
    <ellipse cx="2.253" cy="2.253" rx="1.753" ry="1.753" fill="none"/>
  </g>
  <g id="Group_9307" data-name="Group 9307" transform="translate(296.845 256.957)">
    <line id="Line_26" data-name="Line 26" y1="11.413" x2="11.413" transform="translate(0 0)" fill="none" stroke="#3c3c3b" stroke-miterlimit="10" stroke-width="2.693"/>
    <line id="Line_27" data-name="Line 27" x2="11.413" y2="11.413" transform="translate(0 0)" fill="none" stroke="#3c3c3b" stroke-miterlimit="10" stroke-width="2.693"/>
  </g>
  <g id="Rectangle_19975" data-name="Rectangle 19975" transform="translate(273.514 370.201)" fill="#fbba00" stroke="#fff" stroke-width="3">
    <rect width="57.573" height="55.571" rx="5" stroke="none"/>
    <rect x="1.5" y="1.5" width="54.573" height="52.571" rx="3.5" fill="none"/>
  </g>
  <text id="AI" transform="translate(313.065 402.708)" fill="#fff" font-size="21" font-family="Cairo-Bold, Cairo" font-weight="700"><tspan x="-18.417" y="0">AI</tspan></text>
  <line id="Line_28" data-name="Line 28" x1="203.76" transform="translate(98.541 262.563)" fill="none" stroke="#707070" stroke-width="1" stroke-dasharray="5 8"/>
  <line id="Line_29" data-name="Line 29" y2="88.613" transform="translate(98.792 262.563)" fill="none" stroke="#707070" stroke-width="1" stroke-dasharray="5 8"/>
  <g id="Rectangle_19976" data-name="Rectangle 19976" transform="translate(79.767 358.185)" fill="#07f" stroke="#fff" stroke-width="3">
    <rect width="38.049" height="33.543" rx="5" stroke="none"/>
    <rect x="1.5" y="1.5" width="35.049" height="30.543" rx="3.5" fill="none"/>
  </g>
  <g id="Rectangle_19978" data-name="Rectangle 19978" transform="translate(185.903 146.415)" fill="#31b7bc" stroke="#fff" stroke-width="3">
    <rect width="76.598" height="67.085" rx="5" stroke="none"/>
    <rect x="1.5" y="1.5" width="73.598" height="64.085" rx="3.5" fill="none"/>
  </g>
  <g id="Ellipse_301" data-name="Ellipse 301" transform="translate(95.287 351.176)" fill="#fff" stroke="#707070" stroke-width="1">
    <ellipse cx="3.504" cy="3.504" rx="3.504" ry="3.504" stroke="none"/>
    <ellipse cx="3.504" cy="3.504" rx="3.004" ry="3.004" fill="none"/>
  </g>
  <g id="Ellipse_303" data-name="Ellipse 303" transform="translate(298.546 363.192)" fill="#fff" stroke="#707070" stroke-width="1">
    <ellipse cx="3.504" cy="3.504" rx="3.504" ry="3.504" stroke="none"/>
    <ellipse cx="3.504" cy="3.504" rx="3.004" ry="3.004" fill="none"/>
  </g>
  <g id="Mask_Group_588" data-name="Mask Group 588" transform="translate(92.784 369.199)" clip-path="url(#clip-path)">
    <path id="project-management" d="M12.015,0H3.731V5.2a.445.445,0,0,1,.367.437v.121H5.116V5.642A.446.446,0,0,1,5.562,5.2h.272a.446.446,0,0,1,.446.445v.121h.28a.738.738,0,0,1,.761.712V11.7a.671.671,0,0,1-.077.312h4.772ZM0,11.7v-4.1H6.92v4.1a.343.343,0,0,1-.36.312H.361A.339.339,0,0,1,0,11.7ZM3.652,5.6a.046.046,0,0,1,.045.045v.79a.046.046,0,0,1-.045.045H3.38a.046.046,0,0,1-.045-.045v-.79A.046.046,0,0,1,3.38,5.6Zm2.182.879H5.562a.046.046,0,0,1-.045-.045v-.79A.046.046,0,0,1,5.562,5.6h.272a.046.046,0,0,1,.045.045v.79A.046.046,0,0,1,5.834,6.477Zm-2.9-.314v.269a.446.446,0,0,0,.446.445h.272A.446.446,0,0,0,4.1,6.432V6.163H5.117v.269a.446.446,0,0,0,.446.445h.272a.446.446,0,0,0,.446-.445V6.163h.28a.339.339,0,0,1,.36.311v.733H0V6.475a.339.339,0,0,1,.36-.311H.753v.269a.446.446,0,0,0,.446.445H1.47a.446.446,0,0,0,.446-.445V6.163Zm-1.419.269a.046.046,0,0,1-.045.045H1.2a.046.046,0,0,1-.045-.045v-.79A.046.046,0,0,1,1.2,5.6H1.47a.046.046,0,0,1,.045.045ZM1.234,11v-.626h.627V11Zm-.2-1.027a.2.2,0,0,0-.2.2V11.2a.2.2,0,0,0,.2.2H2.061a.2.2,0,0,0,.2-.2V10.175a.2.2,0,0,0-.2-.2Zm.2-.727V8.622h.627v.627Zm-.2-1.027a.2.2,0,0,0-.2.2V9.448a.2.2,0,0,0,.2.2H2.061a.2.2,0,0,0,.2-.2V8.422a.2.2,0,0,0-.2-.2ZM3.165,11v-.626h.626V11Zm-.2-1.027a.2.2,0,0,0-.2.2V11.2a.2.2,0,0,0,.2.2H3.991a.2.2,0,0,0,.2-.2V10.175a.2.2,0,0,0-.2-.2ZM5.059,11v-.626h.627V11Zm-.2-1.027a.2.2,0,0,0-.2.2V11.2a.2.2,0,0,0,.2.2H5.886a.2.2,0,0,0,.2-.2V10.175a.2.2,0,0,0-.2-.2ZM3.165,9.248V8.622h.626v.627Zm-.2-1.027a.2.2,0,0,0-.2.2V9.448a.2.2,0,0,0,.2.2H3.991a.2.2,0,0,0,.2-.2V8.422a.2.2,0,0,0-.2-.2ZM5.059,9.248V8.622h.627v.627Zm-.4-.827V9.448a.2.2,0,0,0,.2.2H5.886a.2.2,0,0,0,.2-.2V8.421a.2.2,0,0,0-.2-.2H4.859A.2.2,0,0,0,4.659,8.421ZM7.12,2.3h-2.6a.2.2,0,0,1,0-.4h2.6a.2.2,0,1,1,0,.4Zm0-1.075h-2.6a.2.2,0,0,1,0-.4h2.6a.2.2,0,1,1,0,.4ZM8.4,9.216l.966.876.321-.321a.2.2,0,1,1,.283.283l-.456.456a.2.2,0,0,1-.276.007l-.372-.338v.609h1.925V9.037H8.662a.2.2,0,0,1,0-.4h2.325a.2.2,0,0,1,.2.2v2.15a.2.2,0,0,1-.2.2H8.662a.2.2,0,0,1-.2-.2V9.815l-.334-.3a.2.2,0,0,1,.269-.3Zm2.591-1.933H8.662a.2.2,0,0,1-.2-.2V5.911l-.335-.3a.2.2,0,1,1,.269-.3l.966.877.321-.321a.2.2,0,1,1,.283.283l-.456.456a.2.2,0,0,1-.276.007l-.372-.338v.608h1.925V5.133H8.662a.2.2,0,0,1,0-.4h2.325a.2.2,0,0,1,.2.2v2.15a.2.2,0,0,1-.2.2Zm0-3.9H8.662a.2.2,0,0,1-.2-.2V2.006l-.335-.3a.2.2,0,1,1,.269-.3l.966.877.321-.321a.2.2,0,0,1,.283.283L9.51,2.7a.2.2,0,0,1-.276.007L8.862,2.37v.609h1.925V1.228H8.662a.2.2,0,1,1,0-.4h2.325a.2.2,0,0,1,.2.2V3.179A.2.2,0,0,1,10.987,3.379Z" transform="translate(0 0)" fill="#fff" fill-rule="evenodd"/>
  </g>
  <g id="Mask_Group_587" data-name="Mask Group 587" transform="translate(207.931 163.938)" clip-path="url(#clip-path-2)">
    <g id="multiple-users-silhouette" transform="translate(0 2.538)">
      <path id="Path_13838" data-name="Path 13838" d="M12.706,9.7A5.822,5.822,0,0,0,10,14.023,4.7,4.7,0,1,1,12.706,9.7Zm3.079,9.621a4.7,4.7,0,1,1,4.7-4.7A4.7,4.7,0,0,1,15.784,19.32Zm-1.993.32h3.987a6.024,6.024,0,0,1,6.017,6.017v4.876l-.012.076-.336.105a27.388,27.388,0,0,1-8.181,1.319,16.8,16.8,0,0,1-7.143-1.341l-.314-.159H7.775V25.657A6.022,6.022,0,0,1,13.791,19.64ZM6.016,14.789H9.973a5.791,5.791,0,0,0,1.787,4.034,7.149,7.149,0,0,0-5.107,6.842v1.5A16.191,16.191,0,0,1,.347,25.842l-.314-.159H0V20.805A6.023,6.023,0,0,1,6.016,14.789Zm18.013-.32a4.668,4.668,0,0,1-2.5-.725,5.816,5.816,0,0,0-2.186-3.709c0-.088-.013-.175-.013-.264a4.7,4.7,0,1,1,4.7,4.7Zm-4.22,4.354A5.8,5.8,0,0,0,21.6,14.811c.147-.011.292-.022.441-.022h3.987a6.023,6.023,0,0,1,6.017,6.016v4.877l-.012.075-.336.106a28.21,28.21,0,0,1-6.776,1.274V25.664A7.151,7.151,0,0,0,19.809,18.823Z" transform="translate(0 -5.07)" fill="#fff"/>
    </g>
  </g>
  <line id="Line_30" data-name="Line 30" y2="44.807" transform="translate(225.703 220.26)" fill="none" stroke="#707070" stroke-width="1" stroke-dasharray="5 8"/>
  <line id="Line_34" data-name="Line 34" x1="24.031" transform="translate(239.721 64.061)" fill="none" stroke="#707070" stroke-width="1" stroke-dasharray="5 8"/>
  <g id="Rectangle_19980" data-name="Rectangle 19980" transform="translate(208.932 49.292)" fill="#ffaa2e" stroke="#fff" stroke-width="1">
    <rect width="28.036" height="28.036" stroke="none"/>
    <rect x="0.5" y="0.5" width="27.036" height="27.036" fill="none"/>
  </g>
  <line id="Line_35" data-name="Line 35" x1="63.08" transform="translate(136.339 98.855)" fill="none" stroke="#707070" stroke-width="1" stroke-dasharray="5 8"/>
  <rect id="Rectangle_19982" data-name="Rectangle 19982" width="129.665" height="155.698" rx="5" transform="translate(0 37.777)" fill="#fff"/>
  <g id="Ellipse_305" data-name="Ellipse 305" transform="translate(129.331 95.35)" fill="#fff" stroke="#707070" stroke-width="1">
    <ellipse cx="3.504" cy="3.504" rx="3.504" ry="3.504" stroke="none"/>
    <ellipse cx="3.504" cy="3.504" rx="3.004" ry="3.004" fill="none"/>
  </g>
  <text id="B2b" transform="translate(224.461 64.298)" fill="#fff" font-size="8" font-family="Cairo-Bold, Cairo" font-weight="700"><tspan x="-6.844" y="0">B2b</tspan></text>
  <g id="Group_10371" data-name="Group 10371" transform="translate(18.665 0)">
    <g id="Group_9308" data-name="Group 9308" transform="translate(183.007 64.061)">
      <line id="Line_31" data-name="Line 31" y2="41.803" transform="translate(0 36.046)" fill="none" stroke="#707070" stroke-width="1" stroke-dasharray="5 8"/>
      <line id="Line_32" data-name="Line 32" x2="62.079" transform="translate(0 35.045)" fill="none" stroke="#707070" stroke-width="1" stroke-dasharray="5 8"/>
      <line id="Line_33" data-name="Line 33" y2="37.548" transform="translate(62.079)" fill="none" stroke="#707070" stroke-width="1" stroke-dasharray="5 8"/>
    </g>
    <text id="Our_start_is_just_an_idea_then_becomes_a_project" data-name="Our start is just an idea, 
then becomes a project" transform="translate(46 114.985)" fill="#3c3c3b" font-size="9" font-family="Cairo-SemiBold, Cairo" font-weight="600" opacity="0.7"><tspan x="-46.048" y="0">Our start is just an idea, </tspan><tspan x="-44.424" y="18">then becomes a project</tspan></text>
    <g id="Group_9334" data-name="Group 9334" transform="translate(7.867)">
      <g id="Group_9325" data-name="Group 9325" transform="translate(17.847 7.758)">
        <g id="Group_9315" data-name="Group 9315" transform="translate(7.244 7.244)">
          <path id="Path_13815" data-name="Path 13815" d="M427.592,170.122a3.362,3.362,0,0,1-6.725,0h-1.389v-5.771h9.5v5.771Z" transform="translate(-413.034 -139.365)" fill="#75777f"/>
          <path id="Path_13816" data-name="Path 13816" d="M418.425,115.693a10.57,10.57,0,0,0-8.192,17.249,11.109,11.109,0,0,1,3.049,7.111h10.287a11.11,11.11,0,0,1,3.049-7.111,10.57,10.57,0,0,0-8.192-17.249Z" transform="translate(-407.229 -115.067)" fill="#ffcf00"/>
          <g id="Group_9311" data-name="Group 9311" transform="translate(5.213 30.131)">
            <rect id="Rectangle_19983" data-name="Rectangle 19983" width="11.965" height="1.252" fill="#3e4354"/>
          </g>
          <g id="Group_9312" data-name="Group 9312">
            <path id="Path_13817" data-name="Path 13817" d="M412.658,140.055h10.934l-.022-.647a10.638,10.638,0,0,1,2.89-6.674,11.195,11.195,0,1,0-17.337-.02,10.675,10.675,0,0,1,2.909,6.7l-.017.642Zm9.689-1.252h-9.093a12.228,12.228,0,0,0-3.179-6.9,9.945,9.945,0,1,1,15.433.02A12.179,12.179,0,0,0,422.347,138.8Z" transform="translate(-406.605 -114.443)" fill="#3e4354"/>
          </g>
          <g id="Group_9313" data-name="Group 9313" transform="translate(7.968 32.523)">
            <path id="Path_13818" data-name="Path 13818" d="M425.749,181.628a4.535,4.535,0,0,0,3.228-1.337l-.885-.885a3.314,3.314,0,0,1-4.686,0l-.885.885A4.535,4.535,0,0,0,425.749,181.628Z" transform="translate(-422.521 -179.406)" fill="#3e4354"/>
          </g>
          <g id="Group_9314" data-name="Group 9314" transform="translate(5.213 27.237)">
            <rect id="Rectangle_19984" data-name="Rectangle 19984" width="11.965" height="1.252" fill="#3e4354"/>
          </g>
          <path id="Path_13819" data-name="Path 13819" d="M414.437,130.661c.619,1.79,2.2,2.87,3.52,2.412s1.9-2.281,1.278-4.072-2.2-2.87-3.521-2.412S413.817,128.87,414.437,130.661Z" transform="translate(-400.888 -120.456)" fill="#fff"/>
        </g>
        <g id="Group_9316" data-name="Group 9316" transform="translate(17.814 0)">
          <rect id="Rectangle_19985" data-name="Rectangle 19985" width="1.252" height="4.846" transform="translate(0)" fill="#3e4354"/>
        </g>
        <g id="Group_9317" data-name="Group 9317" transform="translate(24.695 2.158)">
          <rect id="Rectangle_19986" data-name="Rectangle 19986" width="1.251" height="4.847" transform="matrix(-0.866, -0.5, 0.5, -0.866, 1.084, 4.823)" fill="#3e4354"/>
        </g>
        <g id="Group_9318" data-name="Group 9318" transform="translate(29.899 8.678)">
          <rect id="Rectangle_19987" data-name="Rectangle 19987" width="1.252" height="4.847" transform="matrix(-0.5, -0.866, 0.866, -0.5, 0.626, 3.507)" fill="#3e4354"/>
        </g>
        <g id="Group_9319" data-name="Group 9319" transform="translate(32.034 17.814)">
          <rect id="Rectangle_19988" data-name="Rectangle 19988" width="4.846" height="1.252" transform="translate(0)" fill="#3e4354"/>
        </g>
        <g id="Group_9320" data-name="Group 9320" transform="translate(29.899 24.695)">
          <rect id="Rectangle_19989" data-name="Rectangle 19989" width="4.847" height="1.252" transform="matrix(-0.866, -0.5, 0.5, -0.866, 4.197, 3.507)" fill="#3e4354"/>
        </g>
        <g id="Group_9321" data-name="Group 9321" transform="translate(2.158 24.695)">
          <rect id="Rectangle_19990" data-name="Rectangle 19990" width="1.252" height="4.847" transform="translate(0.626 3.507) rotate(-120)" fill="#3e4354"/>
        </g>
        <g id="Group_9322" data-name="Group 9322" transform="translate(8.678 2.158)">
          <rect id="Rectangle_19991" data-name="Rectangle 19991" width="4.847" height="1.251" transform="translate(2.424 4.823) rotate(-120.011)" fill="#3e4354"/>
        </g>
        <g id="Group_9323" data-name="Group 9323" transform="translate(2.158 8.678)">
          <rect id="Rectangle_19992" data-name="Rectangle 19992" width="4.847" height="1.252" transform="translate(4.197 3.507) rotate(-149.999)" fill="#3e4354"/>
        </g>
        <g id="Group_9324" data-name="Group 9324" transform="translate(0 17.814)">
          <rect id="Rectangle_19993" data-name="Rectangle 19993" width="4.847" height="1.252" fill="#3e4354"/>
        </g>
      </g>
      <g id="Group_9329" data-name="Group 9329" transform="translate(9.477 54.292)">
        <g id="Group_9326" data-name="Group 9326" transform="translate(26.802 40.289)">
          <path id="Path_13820" data-name="Path 13820" d="M426.473,274.169h1.252q0-.39-.012-.771l-1.251.04Q426.473,273.8,426.473,274.169Z" transform="translate(-426.462 -273.398)" fill="#3e4354"/>
        </g>
        <g id="Group_9327" data-name="Group 9327" transform="translate(0 2.352)">
          <path id="Path_13821" data-name="Path 13821" d="M404.945,234.136l1.246-.124c-.052-.516-.121-1.031-.206-1.534l-1.234.21C404.831,233.162,404.9,233.649,404.945,234.136Zm-.491-2.875,1.215-.3c-.124-.5-.269-1-.43-1.491l-1.189.393C404.2,230.319,404.336,230.79,404.453,231.26Zm-.915-2.762,1.153-.485c-.2-.475-.421-.949-.658-1.407l-1.112.575C403.144,227.61,403.352,228.053,403.539,228.5Zm15.223-.545.243,0c.383-.007.778-.034,1.175-.081l-.148-1.243a10.406,10.406,0,0,1-1.05.073l-.22,0h-.154l-.012,1.252Zm-1.741-.111.159-1.242a12.324,12.324,0,0,1-1.409-.263l-.3,1.216A13.775,13.775,0,0,0,417.021,227.843Zm4.713-.254a14.26,14.26,0,0,0,1.508-.453l-.425-1.177a13.182,13.182,0,0,1-1.376.414Zm-35.622-.446q.384,0,.781-.021l-.065-1.25a13.33,13.33,0,0,1-1.437,0l-.072,1.25C385.579,227.136,385.843,227.144,386.112,227.144Zm27.851-.055.437-1.172a12.048,12.048,0,0,1-1.309-.578l-.574,1.112A13.154,13.154,0,0,0,413.963,227.089Zm-25.514-.123q.336-.049.68-.113c.281-.053.577-.123.877-.21l-.348-1.2c-.261.076-.516.137-.759.182-.213.04-.424.075-.631.106Zm-4.7-.035.231-1.23a8.638,8.638,0,0,1-1.353-.367l-.429,1.176A9.8,9.8,0,0,0,383.745,226.931Zm40.947-.409a13.732,13.732,0,0,0,1.376-.772l-.675-1.054a12.5,12.5,0,0,1-1.25.7Zm-33.2-.42c.45-.194.922-.423,1.4-.681l-.592-1.1c-.45.242-.89.455-1.307.634Zm10.709-.187,1.063-.661c-.27-.435-.564-.867-.872-1.286l-1.008.741C401.675,225.1,401.95,225.508,402.2,225.916Zm-21.482-.118.668-1.059a4.674,4.674,0,0,1-1.014-.849l-.938.828A5.925,5.925,0,0,0,380.722,225.8Zm30.434-.165.716-1.027a8.321,8.321,0,0,1-1.08-.889l-.879.891A9.562,9.562,0,0,0,411.155,225.633Zm16.193-.82a10.541,10.541,0,0,0,1.146-1.116l-.942-.825a9.289,9.289,0,0,1-1.009.984Zm-33.111-.163c.414-.254.847-.535,1.288-.833l-.7-1.036q-.617.419-1.242.8Zm6.24-1.08.949-.817c-.334-.388-.69-.771-1.056-1.137l-.885.885C399.829,222.845,400.163,223.205,400.478,223.57Zm8.4-.3,1.106-.586a1.417,1.417,0,0,1-.186-.556c-.007-.1-.011-.2-.011-.3s0-.182.009-.271l-1.249-.083c-.008.117-.012.235-.012.354s0,.253.013.382A2.669,2.669,0,0,0,408.878,223.271Zm-30.335-.027,1.172-.439a3.235,3.235,0,0,1-.163-.613,4.51,4.51,0,0,1-.062-.656l-1.252.028a5.93,5.93,0,0,0,.079.832A4.535,4.535,0,0,0,378.543,223.244Zm18.232-.306c.414-.3.821-.606,1.22-.911l-.759-.994c-.391.3-.791.6-1.2.892Zm32.673-.549a7.349,7.349,0,0,0,.678-1.5l-1.192-.382a6,6,0,0,1-.563,1.239Zm-10.25-.321a6.1,6.1,0,0,0,.668-.039l-.141-1.244a4.407,4.407,0,0,1-.944.01c-.136-.014-.268-.03-.4-.048l-.176,1.239q.218.032.448.054A5.143,5.143,0,0,0,419.2,222.067Zm-2.565-.45.4-1.185a5.921,5.921,0,0,1-1.23-.576l-.657,1.065A7.2,7.2,0,0,0,416.632,221.617Zm4.855,0a4.6,4.6,0,0,0,1.468-.931l-.876-.894a3.345,3.345,0,0,1-1.066.667Zm-23.072-.11.576-.666.2.254c.408-.323.8-.64,1.182-.947l-.787-.973c-.331.268-.675.544-1.028.825-.176-.141-.354-.278-.533-.412l-.75,1C397.664,220.879,398.047,221.187,398.415,221.505Zm11.677-1.2a4.461,4.461,0,0,1,.691-1.118l-.96-.8a5.684,5.684,0,0,0-.884,1.434Zm-30.423-.045a3.786,3.786,0,0,1,.6-1.135l-.993-.761a5.043,5.043,0,0,0-.8,1.509Zm34.188-.341.863-.907a10.076,10.076,0,0,1-.949-1.051l-.981.777A11.266,11.266,0,0,0,413.857,219.92Zm-17.782-.168.68-1.051c-.433-.28-.88-.548-1.328-.8L394.82,219C395.243,219.234,395.665,219.487,396.075,219.753Zm34.358-.487c.008-.13.012-.261.012-.393a6.777,6.777,0,0,0-.085-1.061c-.01-.064-.022-.134-.035-.2l-1.23.237c.01.053.02.105.028.158a5.511,5.511,0,0,1,.07.868c0,.106,0,.211-.01.315Zm-28.888-.065c.422-.339.815-.651,1.172-.925l-.761-.993c-.364.278-.764.6-1.2.943Zm22.212-.264v-.062a2.684,2.684,0,0,0-.681-1.744l-.953.811a1.438,1.438,0,0,1,.382.934Zm-30.241-.607.533-1.132c-.469-.221-.948-.427-1.424-.612l-.454,1.166C392.621,217.928,393.074,218.122,393.516,218.33Zm18.259-.074a8.044,8.044,0,0,1,1.186-.734l-.293-.575.244-.166c-.267-.393-.538-.809-.819-1.245l-1.052.678q.233.363.46.707-.249.162-.48.336Zm-30.551-.058a6.77,6.77,0,0,1,1.185-.7l-.532-1.133a8.051,8.051,0,0,0-1.4.833Zm22.689-.791c.377-.261.79-.537,1.235-.82l-.671-1.056c-.46.292-.887.577-1.276.847Zm-13.123-.134.366-1.2c-.508-.155-1.015-.289-1.508-.4l-.266,1.224C389.842,217,390.316,217.128,390.791,217.274Zm30.331-.09.578-1.111a7.407,7.407,0,0,0-1.537-.579l-.317,1.211A6.113,6.113,0,0,1,421.122,217.184Zm-37.395-.177a10.623,10.623,0,0,1,1.39-.3l-.181-1.239a11.913,11.913,0,0,0-1.555.334Zm30.54-.03a10.748,10.748,0,0,1,1.375-.365l-.24-1.229a12.089,12.089,0,0,0-1.535.408Zm-26.308-.314.144-1.244a11.939,11.939,0,0,0-1.366-.083l-.219,0,.019,1.252.2,0A10.681,10.681,0,0,1,387.959,216.664Zm40.723-.1,1.133-.53a6.966,6.966,0,0,0-.874-1.4l-.977.784A5.7,5.7,0,0,1,428.682,216.566Zm-10.221-.1.121-1.246c-.251-.024-.509-.04-.772-.047s-.547,0-.828.013l.069,1.25c.243-.014.483-.018.722-.011S418.237,216.444,418.461,216.466Zm-12.046-.646c.413-.24.845-.481,1.3-.717l-.583-1.108c-.467.245-.915.495-1.342.743Zm3.813-.869,1.049-.682c-.266-.409-.545-.831-.842-1.265l-.312.213-.221-.531c-.466.194-.938.4-1.4.623l.534,1.132q.328-.155.659-.3C409.878,214.414,410.056,214.686,410.229,214.951ZM427,214.443l.8-.964a9.721,9.721,0,0,0-1.323-.916l-.627,1.083A8.366,8.366,0,0,1,427,214.443Zm-15.237-1.134c.469-.167.939-.321,1.4-.456l-.353-1.2c-.481.142-.974.3-1.465.478Zm12.81-.285.474-1.159a13.925,13.925,0,0,0-1.492-.51l-.339,1.2A12.748,12.748,0,0,1,424.57,213.023Zm-27.605-.074c.146,0,.292-.005.438-.015l-.083-1.249a5.5,5.5,0,0,1-1.347-.079l-.225,1.231A6.823,6.823,0,0,0,396.965,212.95Zm2.09-.378a4.766,4.766,0,0,0,.905-.47q.273-.183.53-.37l-.742-1.008q-.232.171-.482.337a3.5,3.5,0,0,1-.668.346Zm9.491-.073,1-.745c-.284-.383-.6-.792-.936-1.211l-.976.783C407.965,211.732,408.271,212.128,408.546,212.5Zm6.03-.016c.481-.11.964-.2,1.436-.275l-.193-1.237c-.5.078-1.012.176-1.521.292Zm-20.409-.136.516-1.14a3.979,3.979,0,0,1-1.082-.7l-.862.908A5.16,5.16,0,0,0,394.167,212.347Zm27.637-.109.219-1.233c-.5-.089-1.025-.157-1.549-.2l-.108,1.247C420.854,212.092,421.337,212.155,421.8,212.238Zm-4.346-.2c.139-.011.277-.02.416-.028.328-.018.654-.026.979-.026h.062v-1.252h-.062q-.52,0-1.046.028-.222.012-.444.029Zm-15.754-1.326a10.838,10.838,0,0,0,1.067-1.186l-.989-.766a9.61,9.61,0,0,1-.945,1.048Zm4.983-.527.946-.82c-.334-.385-.678-.768-1.027-1.138l-.911.858C406.033,209.444,406.366,209.814,406.689,210.187Zm-14.882-.36,1.218-.291a2.608,2.608,0,0,1-.07-.609,2.807,2.807,0,0,1,.066-.6l-1.222-.271a4.039,4.039,0,0,0-.1.875A3.874,3.874,0,0,0,391.807,209.827Zm11.844-1.632c.131-.234.255-.478.371-.728q.309.265.638.577l.861-.908c-.414-.391-.811-.737-1.181-1.028l-.393.5-.788-.307a10.621,10.621,0,0,1-.6,1.285ZM393.54,207.2a4.175,4.175,0,0,1,.94-.905l-.729-1.018a5.467,5.467,0,0,0-1.217,1.179Zm8.859-.886.6-1.1a10.345,10.345,0,0,0-1.46-.658l-.425,1.177A9.143,9.143,0,0,1,402.4,206.317Zm-6.735-.672a6.136,6.136,0,0,1,1.316-.358l-.2-1.236a7.415,7.415,0,0,0-1.584.433Zm4.092-.283.242-1.228a9.837,9.837,0,0,0-1.6-.183l-.038,1.251A8.572,8.572,0,0,1,399.756,205.362Zm5.056-.1c.128-.478.242-.99.337-1.521l-1.232-.222c-.089.5-.195.974-.314,1.417Zm.562-3.048c.056-.478.1-.992.144-1.526l-1.249-.091c-.038.516-.084,1.011-.138,1.471Zm.231-3.049q.031-.736.046-1.519l-1.252-.025q-.015.769-.045,1.491Z" transform="translate(-378.238 -197.62)" fill="#3e4354"/>
        </g>
        <g id="Group_9328" data-name="Group 9328" transform="translate(26.182)">
          <path id="Path_13822" data-name="Path 13822" d="M428.97,193.677l0-.755h-1.252l0,.747Z" transform="translate(-427.719 -192.923)" fill="#3e4354"/>
        </g>
      </g>
      <path id="Path_13823" data-name="Path 13823" d="M368.63,165.679a3.5,3.5,0,1,0-3.5-3.5A3.5,3.5,0,0,0,368.63,165.679Zm0-5.74a2.244,2.244,0,1,1-2.244,2.244A2.246,2.246,0,0,1,368.63,159.94Z" transform="translate(-303.88 -121.535)" fill="#ffcf00"/>
      <path id="Path_13824" data-name="Path 13824" d="M367.993,96.561a2.843,2.843,0,1,0-2.843-2.843A2.846,2.846,0,0,0,367.993,96.561Zm0-4.434a1.591,1.591,0,1,1-1.592,1.591A1.593,1.593,0,0,1,367.993,92.128Z" transform="translate(-302.599 -87.673)" fill="#91b0c9"/>
      <path id="Path_13825" data-name="Path 13825" d="M473.19,178.657a2.023,2.023,0,1,0-2.023-2.023A2.025,2.025,0,0,0,473.19,178.657Zm0-2.794a.771.771,0,1,1-.771.771A.772.772,0,0,1,473.19,175.863Z" transform="translate(-460.052 -129.487)" fill="#ffcf00"/>
      <g id="Group_9330" data-name="Group 9330" transform="translate(0 23.41)">
        <rect id="Rectangle_19994" data-name="Rectangle 19994" width="1.251" height="4.789" transform="translate(0.885 4.271) rotate(-135.002)" fill="#b3cfe0"/>
      </g>
      <g id="Group_9331" data-name="Group 9331" transform="translate(48.762 49.369)">
        <rect id="Rectangle_19995" data-name="Rectangle 19995" width="4.789" height="1.251" transform="matrix(-0.707, -0.707, 0.707, -0.707, 3.387, 4.271)" fill="#91b0c9"/>
      </g>
      <g id="Group_9332" data-name="Group 9332" transform="translate(71.493 21.717)">
        <rect id="Rectangle_19996" data-name="Rectangle 19996" width="4.789" height="1.251" transform="translate(3.386 4.271) rotate(-135)" fill="#b3cfe0"/>
      </g>
      <g id="Group_9333" data-name="Group 9333" transform="translate(15.711 0)">
        <rect id="Rectangle_19997" data-name="Rectangle 19997" width="4.789" height="1.251" transform="translate(3.387 4.271) rotate(-135)" fill="#ffcf00"/>
      </g>
    </g>
  </g>
</svg>
