<svg xmlns="http://www.w3.org/2000/svg" width="121.562" height="121.562" viewBox="0 0 121.562 121.562">
  <g id="Group_10055" data-name="Group 10055" transform="translate(-106.454 -106.455)">
    <g id="BG" transform="translate(106.454 106.455)">
      <circle id="Ellipse_262" data-name="Ellipse 262" cx="60.781" cy="60.781" r="60.781" transform="translate(0)" fill="#fff" opacity="0.37"/>
    </g>
    <g id="Objects" transform="translate(126.99 117.045)">
      <g id="Group_9293" data-name="Group 9293" transform="translate(0 0)">
        <g id="Group_9290" data-name="Group 9290" transform="translate(13.983 16.544)">
          <g id="Group_9289" data-name="Group 9289">
            <path id="Path_13773" data-name="Path 13773" d="M417.521,335.837a26.462,26.462,0,1,0-45.2,18.684,30.034,30.034,0,0,1,7.775,13.35l2.134,7.892h17.347l2.021-7.474a30.1,30.1,0,0,1,8.013-13.583A26.381,26.381,0,0,0,417.521,335.837Z" transform="translate(-364.597 -309.375)" fill="#f4d242"/>
            <path id="Path_13774" data-name="Path 13774" d="M503.352,792.024h-8.458a4.488,4.488,0,0,1-4.583-4.015l-.714-8.666,19.155-.123-.818,8.789A4.488,4.488,0,0,1,503.352,792.024Z" transform="translate(-472.883 -716.393)" fill="#59595b"/>
          </g>
          <path id="Path_13775" data-name="Path 13775" d="M513.651,807.48c-5.351.229-10.72-.045-16.071.191a.365.365,0,0,0,.027.73c5.354.178,10.723-.154,16.078.016C514.286,808.436,514.259,807.454,513.651,807.48Z" transform="translate(-479.503 -740.874)" fill="#808183"/>
          <path id="Path_13776" data-name="Path 13776" d="M513.651,824.861c-5.351.229-10.72-.045-16.071.191a.365.365,0,0,0,.027.73c5.354.178,10.723-.154,16.078.016C514.286,825.817,514.259,824.835,513.651,824.861Z" transform="translate(-479.503 -755.93)" fill="#808183"/>
        </g>
        <g id="Group_9291" data-name="Group 9291">
          <path id="Path_13777" data-name="Path 13777" d="M552.388,188.742c0,1.705-.907,7.836-2.025,7.836s-2.025-6.13-2.025-7.836.907-3.088,2.025-3.088S552.388,187.036,552.388,188.742Z" transform="translate(-509.786 -185.654)" fill="#f4d242"/>
          <path id="Path_13778" data-name="Path 13778" d="M736.826,272.709c-1.293,1.111-5.352,5.794-4.623,6.643s5.97-2.459,7.263-3.571,1.751-2.7,1.022-3.548S738.12,271.6,736.826,272.709Z" transform="translate(-668.99 -260.206)" fill="#f4d242"/>
          <path id="Path_13779" data-name="Path 13779" d="M788.865,457.477c-1.692.215-7.888.088-8.029-1.022s5.826-2.781,7.518-3,3.177.51,3.318,1.62S790.556,457.262,788.865,457.477Z" transform="translate(-711.193 -417.616)" fill="#f4d242"/>
          <path id="Path_13780" data-name="Path 13780" d="M351.147,258.173c1.343,1.051,5.61,5.545,4.92,6.426s-6.075-2.185-7.418-3.237-1.872-2.618-1.182-3.5S349.8,257.122,351.147,258.173Z" transform="translate(-335.513 -247.706)" fill="#f4d242"/>
          <path id="Path_13781" data-name="Path 13781" d="M262.848,424.7c1.692.215,7.888.088,8.028-1.022s-5.826-2.781-7.518-3-3.177.511-3.318,1.62S261.156,424.486,262.848,424.7Z" transform="translate(-260.029 -389.222)" fill="#f4d242"/>
        </g>
        <g id="Group_9292" data-name="Group 9292" transform="translate(27.753 43.118)">
          <path id="Path_13782" data-name="Path 13782" d="M504.638,521.467a6.809,6.809,0,0,1-1.993-2.353,8.339,8.339,0,0,0,1.558-4.259,26.673,26.673,0,0,0,.152-2.724,2.343,2.343,0,0,0-.845-2.17c-.663-.487-1.548-.048-2.057.425a4.918,4.918,0,0,0-1.1,2.183,9.8,9.8,0,0,0-.162,4.645,9.224,9.224,0,0,0,.442,1.567,4.071,4.071,0,0,1-1.271.677c-1.446.463-2.543-.37-3.212-1.6-.11-.2-.214-.417-.312-.641.114-.3.222-.609.323-.911a19.008,19.008,0,0,0,.887-4.536c.1-1.274.138-2.8-1.088-3.552a.807.807,0,0,0-1.085.284c-1.791,2.485-1.691,5.781-.718,8.6a18.711,18.711,0,0,1-1.089,2.179c-.449.774-1.306,1.967-2.347,1.815-.968-.141-1.743-1.357-2.224-2.108a8.59,8.59,0,0,1-.848-1.751q.185-.485.343-.982a18,18,0,0,0,.752-4.019c.09-1.135.127-2.729-1.115-3.273a.8.8,0,0,0-1.086.285,11.368,11.368,0,0,0-.611,7.657c.023.087.051.173.076.26a16.822,16.822,0,0,1-3.288,5.2c-.624.677.364,1.677,1.013,1.013a17.663,17.663,0,0,0,3.076-4.262,11.152,11.152,0,0,0,.8,1.291,4.54,4.54,0,0,0,3.286,2.253c1.362.074,2.469-1.072,3.207-2.068a10.809,10.809,0,0,0,.939-1.541,4.186,4.186,0,0,0,2.941,2.09,4.843,4.843,0,0,0,3.364-.868,10.044,10.044,0,0,0,2.2,2.6A.893.893,0,1,0,504.638,521.467Zm-9.115-11.037a9.926,9.926,0,0,1-.126,1.8,15.143,15.143,0,0,1-.349,2.084A7.273,7.273,0,0,1,495.524,510.43Zm6.182,3.988a7.536,7.536,0,0,1,.443-1.927,3.974,3.974,0,0,1,.385-.8,1.729,1.729,0,0,1,.125-.154,1.238,1.238,0,0,1,.03.192,13.693,13.693,0,0,1-.548,4.869,4.825,4.825,0,0,1-.221.553A9.047,9.047,0,0,1,501.706,514.418Z" transform="translate(-480.525 -508.105)" fill="#fff"/>
          <path id="Path_13783" data-name="Path 13783" d="M600.744,575.943c-2.814,8.588-5.776,17.133-8.958,25.592a.839.839,0,0,0,1.558.621c3.171-8.472,6.116-17.02,8.757-25.672C602.374,575.591,601.039,575.043,600.744,575.943Z" transform="translate(-575.125 -566.473)" fill="#fff"/>
          <path id="Path_13784" data-name="Path 13784" d="M467.6,569.474c2.246,8.754,4.343,17.551,6.209,26.394a.839.839,0,0,0,1.648-.314c-1.882-8.848-4-17.639-6.421-26.353C468.788,568.3,467.367,568.557,467.6,569.474Z" transform="translate(-467.576 -560.547)" fill="#fff"/>
        </g>
      </g>
    </g>
  </g>
</svg>
