<svg xmlns="http://www.w3.org/2000/svg" width="196.46" height="129.159" viewBox="0 0 196.46 129.159">
  <g id="Group_10053" data-name="Group 10053" transform="translate(58.46 -1642)">
    <g id="Group_9436" data-name="Group 9436" transform="translate(-144.9 1364.473)" opacity="0.24">
      <g id="Group_9433" data-name="Group 9433" transform="translate(86.44 277.528)">
        <circle id="Ellipse_316" data-name="Ellipse 316" cx="4.173" cy="4.173" r="4.173" transform="translate(188.114)" fill="#31b7bc"/>
        <path id="Path_13923" data-name="Path 13923" d="M137.034,281.7a4.173,4.173,0,1,1,4.173,4.173A4.173,4.173,0,0,1,137.034,281.7Z" transform="translate(13.457 -277.527)" fill="#31b7bc"/>
        <circle id="Ellipse_317" data-name="Ellipse 317" cx="4.173" cy="4.173" r="4.173" transform="translate(112.868 0)" fill="#31b7bc"/>
        <circle id="Ellipse_318" data-name="Ellipse 318" cx="4.173" cy="4.173" r="4.173" transform="translate(75.246)" fill="#31b7bc"/>
        <circle id="Ellipse_319" data-name="Ellipse 319" cx="4.173" cy="4.173" r="4.173" transform="translate(37.623)" fill="#31b7bc"/>
        <circle id="Ellipse_320" data-name="Ellipse 320" cx="4.173" cy="4.173" r="4.173" fill="#31b7bc"/>
      </g>
      <g id="Group_9434" data-name="Group 9434" transform="translate(86.44 301.31)">
        <circle id="Ellipse_321" data-name="Ellipse 321" cx="4.173" cy="4.173" r="4.173" transform="translate(188.114 0.001)" fill="#31b7bc"/>
        <path id="Path_13924" data-name="Path 13924" d="M137.034,289.7a4.173,4.173,0,1,1,4.173,4.173A4.173,4.173,0,0,1,137.034,289.7Z" transform="translate(13.457 -285.523)" fill="#31b7bc"/>
        <circle id="Ellipse_322" data-name="Ellipse 322" cx="4.173" cy="4.173" r="4.173" transform="translate(112.868 0.001)" fill="#31b7bc"/>
        <circle id="Ellipse_323" data-name="Ellipse 323" cx="4.173" cy="4.173" r="4.173" transform="translate(75.246 0.001)" fill="#31b7bc"/>
        <circle id="Ellipse_324" data-name="Ellipse 324" cx="4.173" cy="4.173" r="4.173" transform="translate(37.623 0.001)" fill="#31b7bc"/>
        <circle id="Ellipse_325" data-name="Ellipse 325" cx="4.173" cy="4.173" r="4.173" transform="translate(0 0.001)" fill="#31b7bc"/>
      </g>
      <g id="Group_9435" data-name="Group 9435" transform="translate(86.44 325.093)">
        <circle id="Ellipse_326" data-name="Ellipse 326" cx="4.173" cy="4.173" r="4.173" transform="translate(188.114)" fill="#31b7bc"/>
        <path id="Path_13925" data-name="Path 13925" d="M137.034,297.692a4.173,4.173,0,1,1,4.173,4.173A4.173,4.173,0,0,1,137.034,297.692Z" transform="translate(13.457 -293.518)" fill="#31b7bc"/>
        <circle id="Ellipse_327" data-name="Ellipse 327" cx="4.173" cy="4.173" r="4.173" transform="translate(112.868)" fill="#31b7bc"/>
        <circle id="Ellipse_328" data-name="Ellipse 328" cx="4.173" cy="4.173" r="4.173" transform="translate(75.246)" fill="#31b7bc"/>
        <circle id="Ellipse_329" data-name="Ellipse 329" cx="4.173" cy="4.173" r="4.173" transform="translate(37.623)" fill="#31b7bc"/>
        <circle id="Ellipse_330" data-name="Ellipse 330" cx="4.173" cy="4.173" r="4.173" fill="#31b7bc"/>
      </g>
    </g>
    <g id="Group_9437" data-name="Group 9437" transform="translate(-144.9 1437.719)" opacity="0.24">
      <g id="Group_9433-2" data-name="Group 9433" transform="translate(86.44 277.528)">
        <circle id="Ellipse_316-2" data-name="Ellipse 316" cx="4.173" cy="4.173" r="4.173" transform="translate(188.114)" fill="#31b7bc"/>
        <path id="Path_13923-2" data-name="Path 13923" d="M137.034,281.7a4.173,4.173,0,1,1,4.173,4.173A4.173,4.173,0,0,1,137.034,281.7Z" transform="translate(13.457 -277.527)" fill="#31b7bc"/>
        <circle id="Ellipse_317-2" data-name="Ellipse 317" cx="4.173" cy="4.173" r="4.173" transform="translate(112.868 0)" fill="#31b7bc"/>
        <circle id="Ellipse_318-2" data-name="Ellipse 318" cx="4.173" cy="4.173" r="4.173" transform="translate(75.246)" fill="#31b7bc"/>
        <circle id="Ellipse_319-2" data-name="Ellipse 319" cx="4.173" cy="4.173" r="4.173" transform="translate(37.623)" fill="#31b7bc"/>
        <circle id="Ellipse_320-2" data-name="Ellipse 320" cx="4.173" cy="4.173" r="4.173" fill="#31b7bc"/>
      </g>
      <g id="Group_9434-2" data-name="Group 9434" transform="translate(86.44 301.31)">
        <circle id="Ellipse_321-2" data-name="Ellipse 321" cx="4.173" cy="4.173" r="4.173" transform="translate(188.114 0.001)" fill="#31b7bc"/>
        <path id="Path_13924-2" data-name="Path 13924" d="M137.034,289.7a4.173,4.173,0,1,1,4.173,4.173A4.173,4.173,0,0,1,137.034,289.7Z" transform="translate(13.457 -285.523)" fill="#31b7bc"/>
        <circle id="Ellipse_322-2" data-name="Ellipse 322" cx="4.173" cy="4.173" r="4.173" transform="translate(112.868 0.001)" fill="#31b7bc"/>
        <circle id="Ellipse_323-2" data-name="Ellipse 323" cx="4.173" cy="4.173" r="4.173" transform="translate(75.246 0.001)" fill="#31b7bc"/>
        <circle id="Ellipse_324-2" data-name="Ellipse 324" cx="4.173" cy="4.173" r="4.173" transform="translate(37.623 0.001)" fill="#31b7bc"/>
        <circle id="Ellipse_325-2" data-name="Ellipse 325" cx="4.173" cy="4.173" r="4.173" transform="translate(0 0.001)" fill="#31b7bc"/>
      </g>
      <g id="Group_9435-2" data-name="Group 9435" transform="translate(86.44 325.093)">
        <circle id="Ellipse_326-2" data-name="Ellipse 326" cx="4.173" cy="4.173" r="4.173" transform="translate(188.114)" fill="#31b7bc"/>
        <path id="Path_13925-2" data-name="Path 13925" d="M137.034,297.692a4.173,4.173,0,1,1,4.173,4.173A4.173,4.173,0,0,1,137.034,297.692Z" transform="translate(13.457 -293.518)" fill="#31b7bc"/>
        <circle id="Ellipse_327-2" data-name="Ellipse 327" cx="4.173" cy="4.173" r="4.173" transform="translate(112.868)" fill="#31b7bc"/>
        <circle id="Ellipse_328-2" data-name="Ellipse 328" cx="4.173" cy="4.173" r="4.173" transform="translate(75.246)" fill="#31b7bc"/>
        <circle id="Ellipse_329-2" data-name="Ellipse 329" cx="4.173" cy="4.173" r="4.173" transform="translate(37.623)" fill="#31b7bc"/>
        <circle id="Ellipse_330-2" data-name="Ellipse 330" cx="4.173" cy="4.173" r="4.173" fill="#31b7bc"/>
      </g>
    </g>
  </g>
</svg>
