<svg xmlns="http://www.w3.org/2000/svg" width="43.1" height="79.9" viewBox="0 0 43.1 79.9">
  <g id="_x30_1._Facebook" transform="translate(-28.4 -10.1)">
    <path id="Icon_11_" d="M40.4,55.2H30.5c-1.6,0-2.1-.6-2.1-2.1V41c0-1.6.6-2.1,2.1-2.1h9.9V30.1a22.213,22.213,0,0,1,2.7-11.3A16.592,16.592,0,0,1,52,11.4a22.249,22.249,0,0,1,7.7-1.3h9.8c1.4,0,2,.6,2,2V23.5c0,1.4-.6,2-2,2-2.7,0-5.4,0-8.1.1-2.7,0-4.1,1.3-4.1,4.1-.1,3,0,5.9,0,9H68.9c1.6,0,2.2.6,2.2,2.2V53c0,1.6-.5,2.1-2.2,2.1H57.3V87.7c0,1.7-.5,2.3-2.3,2.3H42.5c-1.5,0-2.1-.6-2.1-2.1V55.2Z" fill="#fff"/>
  </g>
</svg>
