<svg xmlns="http://www.w3.org/2000/svg" width="409.601" height="409.61" viewBox="0 0 409.601 409.61">
  <g id="instagram_2_" data-name="instagram (2)" transform="translate(-0.005)">
    <g id="Group_9976" data-name="Group 9976">
      <g id="Group_9975" data-name="Group 9975">
        <path id="Path_14453" data-name="Path 14453" d="M307.2,0H102.4C46.09,0,0,46.085,0,102.4V307.21c0,56.3,46.085,102.4,102.4,102.4h204.8c56.315,0,102.4-46.1,102.4-102.4V102.4C409.605,46.085,363.52,0,307.2,0ZM375.47,307.21a68.341,68.341,0,0,1-68.265,68.265h-204.8A68.351,68.351,0,0,1,34.14,307.21V102.4a68.345,68.345,0,0,1,68.265-68.265h204.8A68.335,68.335,0,0,1,375.47,102.4V307.21Z" fill="#fff"/>
      </g>
    </g>
    <g id="Group_9978" data-name="Group 9978">
      <g id="Group_9977" data-name="Group 9977">
        <circle id="Ellipse_331" data-name="Ellipse 331" cx="25.6" cy="25.6" r="25.6" transform="translate(290.155 68.265)" fill="#fff"/>
      </g>
    </g>
    <g id="Group_9980" data-name="Group 9980">
      <g id="Group_9979" data-name="Group 9979">
        <path id="Path_14454" data-name="Path 14454" d="M204.8,102.4A102.405,102.405,0,1,0,307.2,204.8,102.388,102.388,0,0,0,204.8,102.4Zm0,170.675A68.27,68.27,0,1,1,273.07,204.8,68.271,68.271,0,0,1,204.8,273.075Z" fill="#fff"/>
      </g>
    </g>
  </g>
</svg>
