<svg xmlns="http://www.w3.org/2000/svg" xmlns:xlink="http://www.w3.org/1999/xlink" width="32" height="32" viewBox="0 0 32 32">
  <defs>
    <clipPath id="clip-path">
      <rect id="Rectangle_19476" data-name="Rectangle 19476" width="32" height="32" transform="translate(700 1784)" fill="#fff" stroke="#707070" stroke-width="1"/>
    </clipPath>
  </defs>
  <g id="Mask_Group_558" data-name="Mask Group 558" transform="translate(-700 -1784)" clip-path="url(#clip-path)">
    <g id="SOLID" transform="translate(696.857 1781.714)">
      <path id="Path_12947" data-name="Path 12947" d="M32.453,15.31a.641.641,0,0,0-.906-.906l-1.025,1.025.906.906Z" fill="#fff"/>
      <path id="Path_12948" data-name="Path 12948" d="M10.118,27.261a3.309,3.309,0,0,0-.975,2.355v1.241H28V28.808l-.069-.069a.568.568,0,0,0-.4-.167H26.286a4.025,4.025,0,0,1-2.4-.8l-1.3-.976-2.919,2.919H17.143V27.192l2.53-2.53A1.73,1.73,0,0,1,19.263,24H17.714V22.857h1.559c.006-.015.01-.031.016-.046L20.9,18.792a1.706,1.706,0,0,1,1.592-1.078h3.058a3.985,3.985,0,0,1,.958.116l1.5-1.5V4.571H8.571v16l1.567-1.725a1.991,1.991,0,0,1,.665-.482,1.709,1.709,0,0,1-.518-1.226V14.857A1.716,1.716,0,0,1,12,13.143h1.143v1.143H12a.572.572,0,0,0-.571.571v2.286a.572.572,0,0,0,.571.571h2.286a.572.572,0,0,0,.571-.571V16H16v1.143a1.716,1.716,0,0,1-1.714,1.714H13.091a2.014,2.014,0,0,1,.537,1.156,2.039,2.039,0,0,1-.012.558h.669A1.716,1.716,0,0,1,16,22.286v2.286a1.716,1.716,0,0,1-1.714,1.714H12a1.7,1.7,0,0,1-.982-.311,4.474,4.474,0,0,1-.9,1.286Zm7.6-21.547h8.571V6.857H17.714Zm0,2.286h6.857V9.143H17.714Zm0,5.143h8.571v1.143H17.714Zm0,2.286h5.714v1.143H17.714ZM15.833,6.69,12.976,9.547l-.808-.808,2.857-2.857ZM12.976,16.975l-.808-.808,2.857-2.857.808.808Zm1.31-5.547H12a1.716,1.716,0,0,1-1.714-1.714V7.429A1.716,1.716,0,0,1,12,5.714h1.143V6.857H12a.572.572,0,0,0-.571.571V9.714a.572.572,0,0,0,.571.571h2.286a.572.572,0,0,0,.571-.571V8.571H16V9.714a1.716,1.716,0,0,1-1.714,1.714Z" fill="#fff"/>
      <path id="Path_12949" data-name="Path 12949" d="M14.286,25.143a.572.572,0,0,0,.571-.571V22.286a.572.572,0,0,0-.571-.571H13.031l-1.47,1.762a.572.572,0,0,0-.132.366v.729a.572.572,0,0,0,.571.571Z" fill="#fff"/>
      <path id="Path_12950" data-name="Path 12950" d="M29.714,16.237l-6.507,6.507a1.826,1.826,0,0,1,.2.1l.964.551,6.248-6.248Z" fill="#fff"/>
      <path id="Path_12951" data-name="Path 12951" d="M30.286,19.094l-1.018,1.018,1.018,1.6Z" fill="#fff"/>
      <path id="Path_12952" data-name="Path 12952" d="M10.286,24.1v-.256a1.717,1.717,0,0,1,.4-1.1l1.611-1.932a.875.875,0,0,0,.2-.668.887.887,0,0,0-.353-.612l-.029-.022a.837.837,0,0,0-1.127.107L8.571,22.276v.01H8.562L7.132,23.861a1.143,1.143,0,0,1-1.989-.768V15.429l-.457.343A1.723,1.723,0,0,0,4,17.143V34.286H8v-4.67a4.444,4.444,0,0,1,1.31-3.163,3.309,3.309,0,0,0,.975-2.355Z" fill="#fff"/>
      <path id="Path_12953" data-name="Path 12953" d="M20.8,25.147l-2.519,2.519v.906h.906L21.661,26.1l-.265-.2A1.835,1.835,0,0,1,20.8,25.147Z" fill="#fff"/>
      <path id="Path_12954" data-name="Path 12954" d="M29.143,32h-20v1.143H29.714a.572.572,0,0,0,.571-.571V31.094l-1.143-1.143Z" fill="#fff"/>
      <path id="Path_12955" data-name="Path 12955" d="M30.98,24.931,28.44,20.94l-1.419,1.419.419.628a1.592,1.592,0,0,1-2.114,2.265l-2.484-1.42a.693.693,0,0,0-.76,1.157l2.49,1.868a2.875,2.875,0,0,0,1.714.571h1.241a1.7,1.7,0,0,1,1.212.5l5.547,5.547V28.237Z" fill="#fff"/>
      <path id="Path_12956" data-name="Path 12956" d="M25.4,23.979l.492.281a.449.449,0,0,0,.6-.639l-.292-.438Z" fill="#fff"/>
      <path id="Path_12957" data-name="Path 12957" d="M22.488,18.857a.569.569,0,0,0-.531.359l-1.608,4.02a.575.575,0,0,0,.13.619l5-5Z" fill="#fff"/>
      <path id="Path_12958" data-name="Path 12958" d="M7.429,3.429H29.143V15.192l1.143-1.143V2.857a.572.572,0,0,0-.571-.571H6.857a.572.572,0,0,0-.571.571V23.092l1.143-1.258Z" fill="#fff"/>
    </g>
  </g>
</svg>
