<svg xmlns="http://www.w3.org/2000/svg" xmlns:xlink="http://www.w3.org/1999/xlink" width="24" height="24" viewBox="0 0 24 24">
  <defs>
    <clipPath id="clip-path">
      <rect id="Rectangle_19347" data-name="Rectangle 19347" width="24" height="24" fill="#fff" stroke="#707070" stroke-width="1"/>
    </clipPath>
  </defs>
  <g id="Mask_Group_538" data-name="Mask Group 538" clip-path="url(#clip-path)">
    <g id="arrow" transform="translate(0 1.709)">
      <g id="Group_8465" data-name="Group 8465">
        <path id="Path_12625" data-name="Path 12625" d="M1.443,10.315a1.715,1.715,0,0,1,.3-.022H18.671l-.369-.172a3.434,3.434,0,0,1-.97-.687L12.584,4.687a1.777,1.777,0,0,1-.249-2.275,1.717,1.717,0,0,1,2.576-.223L23.5,10.774a1.717,1.717,0,0,1,0,2.428h0L14.91,21.79a1.717,1.717,0,0,1-2.576-.172,1.777,1.777,0,0,1,.249-2.275l4.739-4.757a3.434,3.434,0,0,1,.859-.627l.515-.232H1.834A1.777,1.777,0,0,1,.022,12.285,1.717,1.717,0,0,1,1.443,10.315Z" transform="translate(0 -1.709)" fill="#fff"/>
      </g>
    </g>
  </g>
</svg>
