<svg xmlns="http://www.w3.org/2000/svg" width="281.024" height="281.026" viewBox="0 0 281.024 281.026">
  <g id="Group_9988" data-name="Group 9988" transform="translate(140.512 140.513)" opacity="0.41">
    <g id="Group_9980" data-name="Group 9980">
      <path id="Path_14453" data-name="Path 14453" d="M0,140.513C-77.479,140.513-140.512,77.479-140.512,0S-77.479-140.513,0-140.513,140.512-77.479,140.512,0,77.479,140.513,0,140.513ZM0-138.705C-76.482-138.705-138.705-76.482-138.705,0S-76.482,138.705,0,138.705,138.705,76.482,138.705,0,76.482-138.705,0-138.705Z" fill="#fbba00"/>
    </g>
    <g id="Group_9981" data-name="Group 9981">
      <path id="Path_14454" data-name="Path 14454" d="M0,123.576A123.716,123.716,0,0,1-123.576,0,123.716,123.716,0,0,1,0-123.576,123.716,123.716,0,0,1,123.576,0,123.716,123.716,0,0,1,0,123.576ZM0-121.769A121.906,121.906,0,0,0-121.768,0,121.906,121.906,0,0,0,0,121.768,121.906,121.906,0,0,0,121.768,0,121.906,121.906,0,0,0,0-121.769Z" fill="#fbba00"/>
    </g>
    <g id="Group_9982" data-name="Group 9982">
      <path id="Path_14455" data-name="Path 14455" d="M0,106.639A106.76,106.76,0,0,1-106.639,0,106.76,106.76,0,0,1,0-106.639,106.76,106.76,0,0,1,106.639,0,106.76,106.76,0,0,1,0,106.639Zm0-211.47A104.951,104.951,0,0,0-104.832,0,104.951,104.951,0,0,0,0,104.832,104.951,104.951,0,0,0,104.832,0,104.951,104.951,0,0,0,0-104.831Z" fill="#fbba00"/>
    </g>
    <g id="Group_9983" data-name="Group 9983">
      <path id="Path_14456" data-name="Path 14456" d="M0,89.7A89.805,89.805,0,0,1-89.7,0,89.805,89.805,0,0,1,0-89.7,89.805,89.805,0,0,1,89.7,0,89.805,89.805,0,0,1,0,89.7Zm0-177.6A88,88,0,0,0-87.895,0,88,88,0,0,0,0,87.895,88,88,0,0,0,87.895,0,88,88,0,0,0,0-87.895Z" fill="#fbba00"/>
    </g>
    <g id="Group_9984" data-name="Group 9984">
      <path id="Path_14457" data-name="Path 14457" d="M0,72.766A72.849,72.849,0,0,1-72.766,0,72.849,72.849,0,0,1,0-72.766,72.849,72.849,0,0,1,72.766,0,72.849,72.849,0,0,1,0,72.766ZM0-70.958A71.038,71.038,0,0,0-70.958,0,71.038,71.038,0,0,0,0,70.958,71.038,71.038,0,0,0,70.958,0,71.038,71.038,0,0,0,0-70.958Z" fill="#fbba00"/>
    </g>
    <g id="Group_9985" data-name="Group 9985">
      <path id="Path_14458" data-name="Path 14458" d="M0,55.829A55.893,55.893,0,0,1-55.829,0,55.893,55.893,0,0,1,0-55.829,55.893,55.893,0,0,1,55.829,0,55.893,55.893,0,0,1,0,55.829ZM0-54.021A54.081,54.081,0,0,0-54.021,0,54.081,54.081,0,0,0,0,54.021,54.081,54.081,0,0,0,54.021,0,54.081,54.081,0,0,0,0-54.021Z" fill="#fbba00"/>
    </g>
    <g id="Group_9986" data-name="Group 9986">
      <path id="Path_14459" data-name="Path 14459" d="M0,38.893A38.938,38.938,0,0,1-38.893,0,38.938,38.938,0,0,1,0-38.893,38.938,38.938,0,0,1,38.893,0,38.938,38.938,0,0,1,0,38.893ZM0-37.085A37.127,37.127,0,0,0-37.085,0,37.127,37.127,0,0,0,0,37.085,37.127,37.127,0,0,0,37.085,0,37.127,37.127,0,0,0,0-37.085Z" fill="#fbba00"/>
    </g>
    <g id="Group_9987" data-name="Group 9987">
      <path id="Path_14460" data-name="Path 14460" d="M0,21.956A21.982,21.982,0,0,1-21.956,0,21.982,21.982,0,0,1,0-21.956,21.982,21.982,0,0,1,21.956,0,21.982,21.982,0,0,1,0,21.956Zm0-42.1A20.17,20.17,0,0,0-20.148,0,20.17,20.17,0,0,0,0,20.148,20.17,20.17,0,0,0,20.148,0,20.17,20.17,0,0,0,0-20.148Z" fill="#fbba00"/>
    </g>
  </g>
</svg>
