<svg xmlns="http://www.w3.org/2000/svg" xmlns:xlink="http://www.w3.org/1999/xlink" width="524.655" height="493.855" viewBox="0 0 524.655 493.855">
  <defs>
    <linearGradient id="linear-gradient" x1="0.58" y1="1.828" x2="1.724" y2="1.828" gradientUnits="objectBoundingBox">
      <stop offset="0" stop-color="#191fd1"/>
      <stop offset="0.063" stop-color="#182ad1"/>
      <stop offset="0.177" stop-color="#1749d2"/>
      <stop offset="0.326" stop-color="#157bd4"/>
      <stop offset="0.41" stop-color="#149bd6"/>
      <stop offset="1" stop-color="#20c7a9"/>
    </linearGradient>
    <linearGradient id="linear-gradient-2" y1="0.5" x2="1" y2="0.5" gradientUnits="objectBoundingBox">
      <stop offset="0" stop-color="#31b7bc"/>
      <stop offset="0.073" stop-color="#31b7bc"/>
      <stop offset="0.204" stop-color="#31b7bc"/>
      <stop offset="0.377" stop-color="#31b7bc"/>
      <stop offset="0.473" stop-color="#31b7bc"/>
      <stop offset="1" stop-color="#20c7a9"/>
    </linearGradient>
    <linearGradient id="linear-gradient-3" y1="0.5" x2="1" y2="0.5" gradientUnits="objectBoundingBox">
      <stop offset="0" stop-color="#31b7bc"/>
      <stop offset="0.473" stop-color="#31b7bc"/>
      <stop offset="1" stop-color="#20c7a9"/>
    </linearGradient>
    <linearGradient id="linear-gradient-5" x1="0.066" y1="0.585" x2="1.082" y2="0.585" gradientUnits="objectBoundingBox">
      <stop offset="0" stop-color="#31b7bc"/>
      <stop offset="0.121" stop-color="#31b7bc"/>
      <stop offset="0.337" stop-color="#31b7bc"/>
      <stop offset="0.622" stop-color="#31b7bc"/>
      <stop offset="0.782" stop-color="#31b7bc"/>
      <stop offset="1" stop-color="#31b7bc"/>
    </linearGradient>
    <linearGradient id="linear-gradient-6" x1="0.851" y1="0.903" x2="0.149" y2="0.097" gradientUnits="objectBoundingBox">
      <stop offset="0" stop-color="#31b7bc"/>
      <stop offset="0.073" stop-color="#31b7bc"/>
      <stop offset="0.204" stop-color="#31b7bc"/>
      <stop offset="0.377" stop-color="#31b7bc"/>
      <stop offset="0.473" stop-color="#31b7bc"/>
      <stop offset="1" stop-color="#31b7bc"/>
    </linearGradient>
    <clipPath id="clip-path">
      <path id="Path_13888" data-name="Path 13888" d="M642.512,468.914a3.049,3.049,0,0,1-3.742,2.145L528.009,439.77a3.05,3.05,0,0,1-2.067-3.786l66.013-233.677a3.049,3.049,0,0,1,3.742-2.145l110.762,31.289a3.049,3.049,0,0,1,2.067,3.786Z" transform="translate(-525.823 -200.049)" fill="#fff" stroke="#20154c" stroke-miterlimit="10" stroke-width="1"/>
    </clipPath>
    <linearGradient id="linear-gradient-7" x1="0.58" y1="1.828" x2="1.724" y2="1.828" gradientUnits="objectBoundingBox">
      <stop offset="0" stop-color="#31b7bc"/>
      <stop offset="0.063" stop-color="#31b7bc"/>
      <stop offset="0.177" stop-color="#31b7bc"/>
      <stop offset="0.326" stop-color="#31b7bc"/>
      <stop offset="0.41" stop-color="#31b7bc"/>
      <stop offset="1" stop-color="#31b7bc"/>
    </linearGradient>
    <clipPath id="clip-path-2">
      <path id="Path_13902" data-name="Path 13902" d="M327.086,273.543c-7.643,12.871-14.619,33.931-15.485,46.054-.166,2.335,1.361,9.053,2.376,11.161,9.089,18.83,31.878,48.153,44.907,63.234,7.872,9.112,37.48,40.414,70.978,66.24,31.733,24.463,67.368,43.617,76.788,48.283,17.82,8.827,51.817,23.516,72.238,27.555,2.283.453,9.131.224,11.335-.532,11.432-3.934,29.9-16.089,40.324-26.8,5.023-5.162,13.373-16.37,17.136-22.317.393-.621,1.292-2.291-.7-2.854-21.347-6.034-86.445-16.349-86.445-16.349s-6.945-1.4-9.123-.7c-5.676,1.827-11.541,9.692-22.094,9-8.716-.574-20.06-8.54-20.06-8.54l-44.2-34.39.014-.017-4.907-3.792-3.887-3.023-.011.014-58.109-44.9s-10.552-9-13.324-17.334c-3.357-10.087,2.707-17.8,3.016-23.783.119-2.3-3-8.7-3-8.7s-26.513-60.685-37.755-79.911c-1.051-1.8-2.427-.5-2.924.044C339.414,256.362,330.769,267.341,327.086,273.543Z" transform="translate(-311.589 -250.224)" stroke="#20154c" stroke-miterlimit="10" stroke-width="1" fill="url(#linear-gradient)"/>
    </clipPath>
    <clipPath id="clip-path-3">
      <path id="Path_13906" data-name="Path 13906" d="M470.268,375.672a5.8,5.8,0,0,1,6.562-4.922l95.01,17.968a5.832,5.832,0,0,1,4.335,6.983l-3.894,20.831a5.8,5.8,0,0,1-6.56,4.921l-95.01-17.968a5.833,5.833,0,0,1-4.337-6.981Z" transform="translate(-466.261 -370.66)" fill="#fff" stroke="#20154c" stroke-miterlimit="10" stroke-width="1"/>
    </clipPath>
    <clipPath id="clip-path-4">
      <path id="Path_13910" data-name="Path 13910" d="M403.006,338.444a5.845,5.845,0,0,0,3.058-7.636l-41.5-87.829a5.782,5.782,0,0,0-7.819-2.437l-19.032,9.1a5.844,5.844,0,0,0-3.058,7.636l41.5,87.829a5.78,5.78,0,0,0,7.817,2.437Z" transform="translate(-334.159 -239.909)" fill="#fff" stroke="#20154c" stroke-miterlimit="10" stroke-width="1"/>
    </clipPath>
  </defs>
  <g id="Group_9414" data-name="Group 9414" transform="translate(-311.087 -114.167)">
    <g id="Group_9409" data-name="Group 9409" transform="translate(311.589 195.702)">
      <g id="Group_9392" data-name="Group 9392" transform="translate(115.762)">
        <path id="Path_13877" data-name="Path 13877" d="M387.578,290.26,490.227,167.793,628.19,247.762Z" transform="translate(-387.432 -167.793)" stroke="#20154c" stroke-linecap="round" stroke-linejoin="round" stroke-width="1" fill="url(#linear-gradient-2)"/>
        <rect id="Rectangle_20018" data-name="Rectangle 20018" width="244.496" height="121.786" transform="matrix(0.985, -0.174, 0.174, 0.985, 0, 122.156)" fill="#20154c"/>
        <rect id="Rectangle_20019" data-name="Rectangle 20019" width="210.358" height="139.088" transform="matrix(0.985, -0.174, 0.174, 0.985, 8.128, 72.702)" fill="#fff" stroke="#20154c" stroke-linecap="round" stroke-linejoin="round" stroke-width="1"/>
        <g id="Group_9390" data-name="Group 9390" transform="translate(0.08 122.611)">
          <path id="Path_13878" data-name="Path 13878" d="M515.428,375.489,413.215,393.545l-25.68-145.369,117.406,62.645Z" transform="translate(-387.535 -248.176)" fill="url(#linear-gradient-3)"/>
          <path id="Path_13879" data-name="Path 13879" d="M515.428,375.489,413.215,393.545l-25.68-145.369,117.406,62.645Z" transform="translate(-387.535 -248.176)" fill="none" stroke="#20154c" stroke-linecap="round" stroke-linejoin="round" stroke-width="1"/>
        </g>
        <g id="Group_9391" data-name="Group 9391" transform="translate(152.011 80.078)">
          <path id="Path_13880" data-name="Path 13880" d="M499.444,383.717l102.213-18.056-25.68-145.369L487.14,319.37Z" transform="translate(-487.14 -220.292)" fill="url(#linear-gradient-3)"/>
          <path id="Path_13881" data-name="Path 13881" d="M499.444,383.717l102.213-18.056-25.68-145.369L487.14,319.37Z" transform="translate(-487.14 -220.292)" fill="none" stroke="#20154c" stroke-linecap="round" stroke-linejoin="round" stroke-width="1"/>
        </g>
        <path id="Path_13882" data-name="Path 13882" d="M404.547,389.328l100.68-132.784L645.308,346.8Z" transform="translate(-378.517 -121.169)" stroke="#20154c" stroke-linecap="round" stroke-linejoin="round" stroke-width="1" fill="url(#linear-gradient-5)"/>
        <rect id="Rectangle_20020" data-name="Rectangle 20020" width="139.547" height="14.762" rx="1.815" transform="matrix(0.985, -0.174, 0.174, 0.985, 44.731, 104.885)" fill="#fff"/>
        <rect id="Rectangle_20021" data-name="Rectangle 20021" width="139.547" height="14.762" rx="1.815" transform="translate(51.469 105.295) rotate(-10.018)" fill="#c2e5f4" stroke="#20154c" stroke-miterlimit="10" stroke-width="1"/>
        <rect id="Rectangle_20022" data-name="Rectangle 20022" width="139.547" height="14.762" rx="1.815" transform="matrix(0.985, -0.174, 0.174, 0.985, 47.793, 84.462)" fill="#c2e5f4" stroke="#20154c" stroke-miterlimit="10" stroke-width="1"/>
        <rect id="Rectangle_20023" data-name="Rectangle 20023" width="139.547" height="14.762" rx="1.815" transform="matrix(0.985, -0.174, 0.174, 0.985, 55.388, 126.152)" fill="#c2e5f4" stroke="#20154c" stroke-miterlimit="10" stroke-width="1"/>
      </g>
      <g id="Group_9401" data-name="Group 9401" transform="translate(313.365 25.596)">
        <g id="Group_9397" data-name="Group 9397">
          <g id="Group_9393" data-name="Group 9393">
            <path id="Path_13883" data-name="Path 13883" d="M655.179,489.053a17.875,17.875,0,0,1-22.233,12.013L530.339,472.08a17.874,17.874,0,0,1-12.66-21.872l71.446-252.915a17.875,17.875,0,0,1,22.233-12.013l102.607,28.986a17.874,17.874,0,0,1,12.66,21.872Z" transform="translate(-517.029 -184.574)" stroke="#20154c" stroke-linecap="round" stroke-linejoin="round" stroke-width="1" fill="url(#linear-gradient-6)"/>
            <path id="Path_13884" data-name="Path 13884" d="M593.893,199.414a2.376,2.376,0,1,1-1.658-2.865A2.341,2.341,0,0,1,593.893,199.414Z" transform="translate(-479.096 -178.332)" fill="#fff" stroke="#20154c" stroke-miterlimit="10" stroke-width="1"/>
            <path id="Path_13885" data-name="Path 13885" d="M632.838,210.414a2.375,2.375,0,1,1-1.658-2.863A2.341,2.341,0,0,1,632.838,210.414Z" transform="translate(-458.637 -172.552)" fill="#fff" stroke="#20154c" stroke-miterlimit="10" stroke-width="1"/>
            <path id="Path_13886" data-name="Path 13886" d="M636.675,211.144a1.169,1.169,0,0,1-1.455.787l-36.349-10.269a1.169,1.169,0,0,1-.828-1.432h0a1.169,1.169,0,0,1,1.455-.786l36.349,10.267a1.169,1.169,0,0,1,.828,1.432Z" transform="translate(-474.493 -176.786)" fill="#fff" stroke="#20154c" stroke-miterlimit="10" stroke-width="1"/>
          </g>
          <g id="Group_9395" data-name="Group 9395" transform="translate(13.413 23.606)">
            <path id="Path_13887" data-name="Path 13887" d="M642.512,468.914a3.049,3.049,0,0,1-3.742,2.145L528.009,439.77a3.05,3.05,0,0,1-2.067-3.786l66.013-233.677a3.049,3.049,0,0,1,3.742-2.145l110.762,31.289a3.049,3.049,0,0,1,2.067,3.786Z" transform="translate(-525.823 -200.049)" fill="#fff"/>
            <g id="Group_9394" data-name="Group 9394" clip-path="url(#clip-path)">
              <line id="Line_38" data-name="Line 38" x2="162.702" y2="47.794" transform="translate(33.827 13.144)" fill="none" stroke="#20154c" stroke-miterlimit="10" stroke-width="1"/>
              <line id="Line_39" data-name="Line 39" x2="162.702" y2="47.794" transform="translate(-8.246 197.328)" fill="none" stroke="#20154c" stroke-miterlimit="10" stroke-width="1"/>
            </g>
            <path id="Path_13889" data-name="Path 13889" d="M642.512,468.914a3.049,3.049,0,0,1-3.742,2.145L528.009,439.77a3.05,3.05,0,0,1-2.067-3.786l66.013-233.677a3.049,3.049,0,0,1,3.742-2.145l110.762,31.289a3.049,3.049,0,0,1,2.067,3.786Z" transform="translate(-525.823 -200.049)" fill="none" stroke="#20154c" stroke-miterlimit="10" stroke-width="1"/>
          </g>
          <g id="Group_9396" data-name="Group 9396" transform="translate(31.23 278.039)">
            <path id="Path_13890" data-name="Path 13890" d="M564.681,376.35a3.239,3.239,0,1,1-2.26-3.906A3.192,3.192,0,0,1,564.681,376.35Z" transform="translate(-526.561 -363.986)" fill="none" stroke="#fff" stroke-miterlimit="10" stroke-width="1"/>
            <path id="Path_13891" data-name="Path 13891" d="M542.329,371.619c-.282,1-1.127,1.2-1.876.45l-2.509-2.514c-.749-.75-.519-1.568.513-1.815l3.453-.83c1.033-.247,1.646.366,1.364,1.365Z" transform="translate(-537.504 -366.855)" fill="none" stroke="#fff" stroke-linecap="round" stroke-linejoin="round" stroke-width="1"/>
            <path id="Path_13892" data-name="Path 13892" d="M583.673,384.407a.638.638,0,0,1-.795.429l-4.361-1.232a.638.638,0,0,1-.453-.781l1.339-4.739a.637.637,0,0,1,.793-.429l4.362,1.232a.639.639,0,0,1,.453.781Z" transform="translate(-516.208 -361.195)" fill="none" stroke="#fff" stroke-linecap="round" stroke-linejoin="round" stroke-width="1"/>
          </g>
        </g>
        <g id="Group_9400" data-name="Group 9400" transform="translate(30.218 73.259)">
          <g id="Group_9398" data-name="Group 9398" transform="translate(28.948)">
            <path id="Path_13893" data-name="Path 13893" d="M656.445,255.072l-79.033-22.39a2.09,2.09,0,0,0-2.579,1.44l-5.313,18.754a2.087,2.087,0,0,0,1.44,2.578l7.367,2.088,2.344.664,3.549,5.348,1.139-4.019,64.633,18.312a2.09,2.09,0,0,0,2.579-1.441l5.313-18.752A2.09,2.09,0,0,0,656.445,255.072Z" transform="translate(-548.662 -232.602)" fill="#c2e5f4" stroke="#20154c" stroke-miterlimit="10" stroke-width="1"/>
            <path id="Path_13894" data-name="Path 13894" d="M644.13,276.309a2.057,2.057,0,0,0-.749-.392L583.6,258.981a2.04,2.04,0,0,0-.843-.058,2.113,2.113,0,0,0-1.742,1.521l-5.323,18.792a2.1,2.1,0,0,0,1.434,2.6l52.424,14.852,2.158,4.14.924-3.266,4.271,1.21a2.1,2.1,0,0,0,2.585-1.463l5.323-18.792A2.112,2.112,0,0,0,644.13,276.309Z" transform="translate(-545.418 -218.785)" fill="#c2e5f4" stroke="#20154c" stroke-miterlimit="10" stroke-width="1"/>
            <path id="Path_13895" data-name="Path 13895" d="M563.789,280.763l79.033,22.39a2.087,2.087,0,0,1,1.44,2.578l-5.313,18.754a2.088,2.088,0,0,1-2.579,1.44L629,323.839l-2.344-.664-5.827,2.689,1.14-4.018-64.634-18.312a2.089,2.089,0,0,1-1.44-2.578L561.21,282.2A2.088,2.088,0,0,1,563.789,280.763Z" transform="translate(-555.818 -207.343)" fill="#c2e5f4" stroke="#20154c" stroke-miterlimit="10" stroke-width="1"/>
            <path id="Path_13896" data-name="Path 13896" d="M630.508,324.391a2.046,2.046,0,0,0-.749-.392l-59.778-16.936a2.039,2.039,0,0,0-.844-.058,2.111,2.111,0,0,0-1.74,1.521l-5.325,18.792a2.1,2.1,0,0,0,1.434,2.6l52.424,14.852,2.158,4.138.926-3.264,4.269,1.21a2.1,2.1,0,0,0,2.585-1.463l5.323-18.792A2.112,2.112,0,0,0,630.508,324.391Z" transform="translate(-552.575 -193.526)" fill="#c2e5f4" stroke="#20154c" stroke-miterlimit="10" stroke-width="1"/>
            <rect id="Rectangle_20024" data-name="Rectangle 20024" width="3.829" height="69.266" transform="translate(31.076 14.848) rotate(-74.182)" fill="#fff"/>
            <rect id="Rectangle_20025" data-name="Rectangle 20025" width="3.829" height="69.266" transform="translate(10.014 89.193) rotate(-74.182)" fill="#fff"/>
            <rect id="Rectangle_20026" data-name="Rectangle 20026" width="3.829" height="48.033" transform="translate(41.353 56.468) rotate(-74.182)" fill="#fff"/>
            <rect id="Rectangle_20027" data-name="Rectangle 20027" width="3.829" height="48.033" transform="translate(20.67 129.474) rotate(-74.182)" fill="#fff"/>
          </g>
          <g id="Group_9399" data-name="Group 9399" transform="translate(0 166.992)">
            <path id="Path_13897" data-name="Path 13897" d="M629.234,373.88a7.843,7.843,0,0,1-9.684,5.409l-77-21.815a7.842,7.842,0,0,1-5.409-9.684h0a7.843,7.843,0,0,1,9.684-5.409l77,21.814a7.845,7.845,0,0,1,5.409,9.686Z" transform="translate(-536.84 -342.081)" fill="#fff" stroke="#20154c" stroke-miterlimit="10" stroke-width="1"/>
            <path id="Path_13898" data-name="Path 13898" d="M546.491,349.6a3.183,3.183,0,1,1-2.2-3.929A3.182,3.182,0,0,1,546.491,349.6Z" transform="translate(-535.051 -340.261)" fill="none" stroke="#20154c" stroke-miterlimit="10" stroke-width="1"/>
          </g>
        </g>
      </g>
      <g id="Group_9408" data-name="Group 9408" transform="translate(0 110.001)">
        <g id="Group_9403" data-name="Group 9403" transform="translate(0 15.733)">
          <path id="Path_13899" data-name="Path 13899" d="M327.086,273.543c-7.643,12.871-14.619,33.931-15.485,46.054-.166,2.335,1.361,9.053,2.376,11.161,9.089,18.83,31.878,48.153,44.907,63.234,7.872,9.112,37.48,40.414,70.978,66.24,31.733,24.463,67.368,43.617,76.788,48.283,17.82,8.827,51.817,23.516,72.238,27.555,2.283.453,9.131.224,11.335-.532,11.432-3.934,29.9-16.089,40.324-26.8,5.023-5.162,13.373-16.37,17.136-22.317.393-.621,1.292-2.291-.7-2.854-21.347-6.034-86.445-16.349-86.445-16.349s-6.945-1.4-9.123-.7c-5.676,1.827-11.541,9.692-22.094,9-8.716-.574-20.06-8.54-20.06-8.54l-44.2-34.39.014-.017-4.907-3.792-3.887-3.023-.011.014-58.109-44.9s-10.552-9-13.324-17.334c-3.357-10.087,2.707-17.8,3.016-23.783.119-2.3-3-8.7-3-8.7s-26.513-60.685-37.755-79.911c-1.051-1.8-2.427-.5-2.924.044C339.414,256.362,330.769,267.341,327.086,273.543Z" transform="translate(-311.589 -250.224)" fill="url(#linear-gradient-7)"/>
          <g id="Group_9402" data-name="Group 9402" clip-path="url(#clip-path-2)">
            <path id="Path_13900" data-name="Path 13900" d="M369.921,344.612c-.2,6.071-6.268,13.778-2.627,24.086,3.008,8.514,14.009,17.865,14.009,17.865L441.789,433.3l.011-.012,4.045,3.147,5.108,3.948-.012.017L496.956,476.2s11.794,8.316,20.744,9.07c10.839.915,16.7-6.952,22.485-8.694,2.221-.67,9.372.892,9.372.892s59.233,10.409,84.6,17.1c2.274-3.1,4.321-6.06,5.726-8.282.392-.621,1.292-2.291-.711-2.86-21.411-6.083-86.69-16.538-86.69-16.538s-6.963-1.417-9.146-.718c-5.687,1.82-11.551,9.683-22.133,8.969-8.739-.59-20.127-8.591-20.127-8.591L456.7,432.015l.014-.017-4.927-3.806-3.9-3.035-.011.012-58.338-45.077s-10.595-9.036-13.391-17.386c-3.385-10.108,7.483-14.915,7.782-20.909.114-2.3-7.825-11.617-7.825-11.617s-26.693-60.826-38-80.1c-1.057-1.8-2.434-.5-2.93.038-1.779,1.934-4.1,4.68-6.5,7.683,12.9,22.965,38.005,77.923,38.005,77.923S370,342.281,369.921,344.612Z" transform="translate(-302.617 -250.784)" fill="#20154c" opacity="0.2"/>
            <path id="Path_13901" data-name="Path 13901" d="M320.338,286.06s-1.925,13.261-1.419,17.944c.212,1.951,1.518,7.372,3.255,9.794,2.5,3.49,10.879,12.842,10.879,12.842Z" transform="translate(-307.782 -231.398)" fill="#fff"/>
          </g>
          <path id="Path_13903" data-name="Path 13903" d="M327.086,273.543c-7.643,12.871-14.619,33.931-15.485,46.054-.166,2.335,1.361,9.053,2.376,11.161,9.089,18.83,31.878,48.153,44.907,63.234,7.872,9.112,37.48,40.414,70.978,66.24,31.733,24.463,67.368,43.617,76.788,48.283,17.82,8.827,51.817,23.516,72.238,27.555,2.283.453,9.131.224,11.335-.532,11.432-3.934,29.9-16.089,40.324-26.8,5.023-5.162,13.373-16.37,17.136-22.317.393-.621,1.292-2.291-.7-2.854-21.347-6.034-86.445-16.349-86.445-16.349s-6.945-1.4-9.123-.7c-5.676,1.827-11.541,9.692-22.094,9-8.716-.574-20.06-8.54-20.06-8.54l-44.2-34.39.014-.017-4.907-3.792-3.887-3.023-.011.014-58.109-44.9s-10.552-9-13.324-17.334c-3.357-10.087,2.707-17.8,3.016-23.783.119-2.3-3-8.7-3-8.7s-26.513-60.685-37.755-79.911c-1.051-1.8-2.427-.5-2.924.044C339.414,256.362,330.769,267.341,327.086,273.543Z" transform="translate(-311.589 -250.224)" fill="none" stroke="#20154c" stroke-miterlimit="10" stroke-width="1"/>
        </g>
        <g id="Group_9405" data-name="Group 9405" transform="translate(235.926 199.438)">
          <path id="Path_13904" data-name="Path 13904" d="M470.268,375.672a5.8,5.8,0,0,1,6.562-4.922l95.01,17.968a5.832,5.832,0,0,1,4.335,6.983l-3.894,20.831a5.8,5.8,0,0,1-6.56,4.921l-95.01-17.968a5.833,5.833,0,0,1-4.337-6.981Z" transform="translate(-466.261 -370.66)" fill="#fff"/>
          <g id="Group_9404" data-name="Group 9404" clip-path="url(#clip-path-3)">
            <path id="Path_13905" data-name="Path 13905" d="M460.15,376.333l148.211,26.948-1.877,9.039L458.262,385.146Z" transform="translate(-470.463 -367.68)" fill="#c2e5f4" stroke="#20154c" stroke-miterlimit="10" stroke-width="1"/>
          </g>
          <path id="Path_13907" data-name="Path 13907" d="M470.268,375.672a5.8,5.8,0,0,1,6.562-4.922l95.01,17.968a5.832,5.832,0,0,1,4.335,6.983l-3.894,20.831a5.8,5.8,0,0,1-6.56,4.921l-95.01-17.968a5.833,5.833,0,0,1-4.337-6.981Z" transform="translate(-466.261 -370.66)" fill="none" stroke="#20154c" stroke-miterlimit="10" stroke-width="1"/>
        </g>
        <g id="Group_9407" data-name="Group 9407" transform="translate(34.428)">
          <path id="Path_13908" data-name="Path 13908" d="M403.006,338.444a5.845,5.845,0,0,0,3.058-7.636l-41.5-87.829a5.782,5.782,0,0,0-7.819-2.437l-19.032,9.1a5.844,5.844,0,0,0-3.058,7.636l41.5,87.829a5.78,5.78,0,0,0,7.817,2.437Z" transform="translate(-334.159 -239.909)" fill="#fff"/>
          <g id="Group_9406" data-name="Group 9406" clip-path="url(#clip-path-4)">
            <path id="Path_13909" data-name="Path 13909" d="M403.9,362.239,339.835,223.625l-7.627,3.623,63.492,138.8Z" transform="translate(-335.184 -248.464)" fill="#c2e5f4" stroke="#20154c" stroke-miterlimit="10" stroke-width="1"/>
          </g>
          <path id="Path_13911" data-name="Path 13911" d="M403.006,338.444a5.845,5.845,0,0,0,3.058-7.636l-41.5-87.829a5.782,5.782,0,0,0-7.819-2.437l-19.032,9.1a5.844,5.844,0,0,0-3.058,7.636l41.5,87.829a5.78,5.78,0,0,0,7.817,2.437Z" transform="translate(-334.159 -239.909)" fill="none" stroke="#20154c" stroke-miterlimit="10" stroke-width="1"/>
        </g>
      </g>
    </g>
    <g id="Group_9413" data-name="Group 9413" transform="translate(318.11 114.667)">
      <g id="Group_9410" data-name="Group 9410" transform="translate(247.648 27.2)">
        <path id="Path_13912" data-name="Path 13912" d="M591,132.5H487.277a9.151,9.151,0,0,0-9.152,9.152v28.981a9.151,9.151,0,0,0,9.152,9.152h42.386l.2,29.489,14.356-29.489H591a9.151,9.151,0,0,0,9.152-9.152V141.652A9.151,9.151,0,0,0,591,132.5Z" transform="translate(-478.125 -132.499)" fill="none" stroke="#20154c" stroke-linecap="round" stroke-linejoin="round" stroke-width="1"/>
        <text id="مرحبا" transform="translate(30.002 27)" fill="#3c3c3b" font-size="21" font-family="Cairo-Bold, Cairo" font-weight="700" letter-spacing="0.1em"><tspan x="0" y="0">مرحبا</tspan></text>
      </g>
      <g id="Group_9411" data-name="Group 9411" transform="translate(0 56.682)">
        <text id="Can_I_help_you_" data-name="Can I help you?" transform="translate(32.732 13.34) rotate(19.029)" fill="#191fd1" font-size="12" font-family="Poppins-Bold, Poppins" font-weight="700" letter-spacing="0.1em"><tspan x="0" y="13">Can I help you?</tspan></text>
        <path id="Path_13913" data-name="Path 13913" d="M465.293,193.278,346.57,152.33A9.152,9.152,0,0,0,334.934,158l-18.566,53.833a9.15,9.15,0,0,0,5.668,11.635l41.994,14.485,1.56,33.884,10.279-29.8,64.889,22.38a9.151,9.151,0,0,0,11.635-5.668l18.568-53.833A9.153,9.153,0,0,0,465.293,193.278Z" transform="translate(-315.864 -151.827)" fill="#fff" stroke="#20154c" stroke-linecap="round" stroke-linejoin="round" stroke-width="1"/>
        <text id="كيف_يمكني_مساعدتك_" data-name="كيف يمكني 
مساعدتك ؟" transform="translate(38.925 14.483) rotate(19.029)" fill="#20154c" font-size="16" font-family="Cairo-Bold, Cairo" font-weight="700" letter-spacing="0.1em"><tspan x="0" y="21">كيف يمكني</tspan><tspan y="21"> </tspan><tspan x="0" y="36.6">مساعدتك ؟</tspan></text>
      </g>
      <g id="Group_9412" data-name="Group 9412" transform="translate(143.333)">
        <path id="Path_13914" data-name="Path 13914" d="M458.644,114.667H418.985a9.152,9.152,0,0,0-9.152,9.152V162.46a9.152,9.152,0,0,0,9.152,9.152h22.027l10.767,17.16-.329-17.16h7.193a9.151,9.151,0,0,0,9.152-9.152V123.819A9.151,9.151,0,0,0,458.644,114.667Z" transform="translate(-409.833 -114.667)" fill="#fff" stroke="#20154c" stroke-linecap="round" stroke-linejoin="round" stroke-width="1"/>
        <text id="اهلا" transform="translate(6.149 34.812)" fill="#20154c" font-size="21" font-family="Cairo-Bold, Cairo" font-weight="700" letter-spacing="0.1em"><tspan x="0" y="0">اهلا</tspan></text>
      </g>
    </g>
  </g>
</svg>
