<svg xmlns="http://www.w3.org/2000/svg" width="371.099" height="553.469" viewBox="0 0 371.099 553.469">
  <g id="Group_10340" data-name="Group 10340" transform="translate(-211.364 0.46)">
    <path id="Path_13962" data-name="Path 13962" d="M622.511,247.418c0-16.589-25.5-34.147-12.967-63.106,16.963-39.188,55.858-12.443,74.776-14.7C738.782,163.132,731,97,731,97" transform="translate(-149.428 57.097)" fill="none" stroke="#31b7bc" stroke-miterlimit="10" stroke-width="1" stroke-dasharray="7"/>
    <g id="Group_10339" data-name="Group 10339">
      <path id="Path_13957" data-name="Path 13957" d="M250.409,48.333S194.2,72.271,228.494,111.277c23.779,27.044,148.614-13.792,203.287,49.424,14.919,17.251,3.729,41.729,3.729,41.729" transform="translate(-5.393 -48.333)" fill="none" stroke="#31b7bc" stroke-miterlimit="10" stroke-width="1" stroke-dasharray="7"/>
      <path id="Path_13958" data-name="Path 13958" d="M619.373,218.692c0-13.421-20.632-27.625-10.491-51.055,13.723-31.7,45.191-10.067,60.5-11.889C713.439,150.5,707.145,97,707.145,97" transform="translate(-234.479 209.911)" fill="none" stroke="#31b7bc" stroke-miterlimit="10" stroke-width="1" stroke-dasharray="7"/>
      <path id="Path_13961" data-name="Path 13961" d="M694.162,218.691c0-13.421,20.632-27.625,10.491-51.054-13.723-31.7-45.191-10.067-60.5-11.889C600.1,150.5,606.39,97,606.39,97" transform="translate(-178.479 66.91)" fill="none" stroke="#31b7bc" stroke-miterlimit="10" stroke-width="1" stroke-dasharray="7"/>
      <path id="Path_13959" data-name="Path 13959" d="M374.149,354.75c-33.4,7.169-42.093,38.14-60.029,41.379-36.135,6.528-46.976-13.754-42.43-24.245,4.332-9.994,18.476-16.426,41.031-12.123,17.717,3.381,32.686,19.131,36.25,36.951,16.2,81.012-87.3,81.943-87.3,81.943" transform="translate(12.257 73.853)" fill="none" stroke="#31b7bc" stroke-miterlimit="10" stroke-width="1" stroke-dasharray="7"/>
    </g>
  </g>
</svg>
