<svg xmlns="http://www.w3.org/2000/svg" xmlns:xlink="http://www.w3.org/1999/xlink" width="48" height="48" viewBox="0 0 48 48">
  <defs>
    <clipPath id="clip-path">
      <rect id="Rectangle_20040" data-name="Rectangle 20040" width="48" height="48" transform="translate(547 1448)" fill="#31b7bc" stroke="#707070" stroke-width="1"/>
    </clipPath>
  </defs>
  <g id="Mask_Group_594" data-name="Mask Group 594" transform="translate(-547 -1448)" clip-path="url(#clip-path)">
    <g id="global" transform="translate(547 1448.014)">
      <path id="Path_13963" data-name="Path 13963" d="M24.858,47.938c3.671-.521,6.888-4.352,8.913-10.01a43.57,43.57,0,0,0-8.913-1.049Zm0,0" fill="#31b7bc"/>
      <path id="Path_13964" data-name="Path 13964" d="M30.722,47.038c.217-.063.433-.126.648-.2.181-.058.359-.121.538-.183.211-.073.421-.148.631-.227.178-.068.355-.14.532-.212l.61-.257c.176-.077.351-.159.527-.24.2-.093.4-.188.591-.287q.258-.131.515-.268.288-.155.573-.316c.172-.1.337-.195.5-.3l.555-.343c.165-.1.329-.211.491-.321.181-.122.359-.249.537-.376.16-.114.318-.228.474-.343.172-.132.348-.269.52-.407.153-.122.305-.243.456-.368.171-.142.336-.29.5-.437.146-.129.292-.258.435-.39.164-.153.323-.311.483-.468.138-.137.278-.271.413-.411.025-.026.049-.054.075-.081a28.833,28.833,0,0,0-5.878-2.262,21.287,21.287,0,0,1-5.483,8.9c.07-.018.139-.033.209-.051.183-.052.364-.108.543-.161Zm0,0" fill="#31b7bc"/>
      <path id="Path_13965" data-name="Path 13965" d="M48,24.844H37.714a44.489,44.489,0,0,1-1.732,11.868,29.834,29.834,0,0,1,6.51,2.591A23.967,23.967,0,0,0,48,24.844Zm0,0" fill="#31b7bc"/>
      <path id="Path_13966" data-name="Path 13966" d="M24.858,23.128H36A42.914,42.914,0,0,0,34.31,11.682a45.185,45.185,0,0,1-9.452,1.127Zm0,0" fill="#31b7bc"/>
      <path id="Path_13967" data-name="Path 13967" d="M24.858.034V11.093a43.6,43.6,0,0,0,8.913-1.049C31.746,4.386,28.528.555,24.858.034Zm0,0" fill="#31b7bc"/>
      <path id="Path_13968" data-name="Path 13968" d="M24.858,35.162A45.214,45.214,0,0,1,34.31,36.29,42.917,42.917,0,0,0,36,24.844H24.858Zm0,0" fill="#31b7bc"/>
      <path id="Path_13969" data-name="Path 13969" d="M42.493,8.669a29.835,29.835,0,0,1-6.51,2.591,44.488,44.488,0,0,1,1.732,11.868H48A23.974,23.974,0,0,0,42.493,8.669Zm0,0" fill="#31b7bc"/>
      <path id="Path_13970" data-name="Path 13970" d="M41.334,7.367c-.025-.026-.049-.053-.074-.08-.136-.14-.276-.275-.415-.411-.159-.157-.318-.316-.482-.468-.142-.132-.289-.258-.435-.39-.166-.147-.333-.3-.5-.439-.148-.125-.3-.245-.451-.365-.172-.139-.348-.277-.524-.41-.155-.117-.312-.23-.47-.343-.179-.129-.359-.258-.542-.38-.16-.108-.323-.214-.486-.317-.186-.119-.371-.236-.56-.349-.165-.1-.333-.2-.5-.292q-.288-.165-.578-.32c-.172-.086-.343-.179-.515-.265-.2-.1-.4-.2-.6-.29q-.258-.123-.523-.239c-.2-.09-.408-.171-.613-.257-.177-.072-.353-.143-.531-.211-.208-.08-.419-.154-.63-.227-.178-.063-.357-.125-.538-.184-.214-.07-.429-.133-.649-.2-.178-.052-.358-.106-.538-.153-.069-.019-.139-.034-.209-.052a21.289,21.289,0,0,1,5.483,8.9,28.789,28.789,0,0,0,5.885-2.264Zm0,0" fill="#31b7bc"/>
      <path id="Path_13971" data-name="Path 13971" d="M0,23.128H10.286A44.505,44.505,0,0,1,12.017,11.26a29.8,29.8,0,0,1-6.51-2.591A23.968,23.968,0,0,0,0,23.128Zm0,0" fill="#31b7bc"/>
      <path id="Path_13972" data-name="Path 13972" d="M23.142,47.938V36.878a43.6,43.6,0,0,0-8.913,1.049c2.024,5.658,5.243,9.489,8.913,10.01Zm0,0" fill="#31b7bc"/>
      <path id="Path_13973" data-name="Path 13973" d="M23.142,24.844H12A42.9,42.9,0,0,0,13.69,36.29a45.155,45.155,0,0,1,9.452-1.128Zm0,0" fill="#31b7bc"/>
      <path id="Path_13974" data-name="Path 13974" d="M23.142.034c-3.671.521-6.889,4.352-8.913,10.01a43.541,43.541,0,0,0,8.913,1.049Zm0,0" fill="#31b7bc"/>
      <path id="Path_13975" data-name="Path 13975" d="M23.142,12.809a45.185,45.185,0,0,1-9.452-1.127A42.9,42.9,0,0,0,12,23.128H23.142Zm0,0" fill="#31b7bc"/>
      <path id="Path_13976" data-name="Path 13976" d="M18.027.728c-.07.018-.139.033-.209.051-.182.049-.361.1-.542.155-.215.063-.429.126-.645.195-.182.059-.361.122-.541.184-.21.074-.42.148-.628.227-.179.069-.356.14-.534.213l-.61.257c-.177.077-.351.159-.527.24-.2.093-.4.188-.591.287q-.258.131-.515.268-.288.155-.572.317-.258.144-.506.295c-.186.112-.371.228-.554.343-.165.106-.329.212-.491.322-.181.122-.359.249-.537.376-.16.114-.318.228-.475.343-.176.132-.343.269-.52.406-.152.122-.306.243-.455.369-.172.142-.335.288-.5.435-.147.131-.294.258-.438.393-.163.152-.322.31-.481.467-.138.137-.279.271-.415.412-.025.026-.049.054-.075.081a28.8,28.8,0,0,0,5.878,2.262,21.28,21.28,0,0,1,5.48-8.9Zm0,0" fill="#31b7bc"/>
      <path id="Path_13977" data-name="Path 13977" d="M7.154,41.094c.16.157.318.316.482.469.142.132.289.257.435.389.166.148.333.3.5.439.148.124.3.245.451.365.172.139.343.277.525.411.155.116.312.228.469.343.179.129.36.257.543.381.16.108.323.214.486.318.186.119.371.236.56.349q.248.15.5.293.288.165.578.32c.171.086.343.179.515.265.2.1.4.2.6.29q.258.121.523.238c.2.09.408.171.613.257.177.072.353.143.531.211.208.08.419.155.63.227.178.062.357.125.538.183.214.07.429.133.649.2.178.052.358.106.538.154.07.019.14.034.209.052a21.293,21.293,0,0,1-5.483-8.9A28.8,28.8,0,0,0,6.673,40.6c.025.026.049.053.074.08.129.139.267.274.407.41Zm0,0" fill="#31b7bc"/>
      <path id="Path_13978" data-name="Path 13978" d="M5.507,39.3a29.84,29.84,0,0,1,6.51-2.591,44.5,44.5,0,0,1-1.732-11.868H0A23.972,23.972,0,0,0,5.507,39.3Zm0,0" fill="#31b7bc"/>
    </g>
  </g>
</svg>
