<svg xmlns="http://www.w3.org/2000/svg" xmlns:xlink="http://www.w3.org/1999/xlink" width="33" height="33" viewBox="0 0 33 33">
  <defs>
    <clipPath id="clip-path">
      <rect id="Rectangle_20118" data-name="Rectangle 20118" width="33" height="33" transform="translate(645 2019.678)" fill="#fff" stroke="#707070" stroke-width="1"/>
    </clipPath>
  </defs>
  <g id="Mask_Group_599" data-name="Mask Group 599" transform="translate(-645 -2019.678)" clip-path="url(#clip-path)">
    <g id="profits" transform="translate(647.316 2020)">
      <g id="Group_10117" data-name="Group 10117" transform="translate(14.936 8.389)">
        <g id="Group_10116" data-name="Group 10116">
          <path id="Path_14497" data-name="Path 14497" d="M22.931,18.484V6.776a.625.625,0,0,0-.661-.615H19.711a.642.642,0,0,0-.681.615V17.34a6.171,6.171,0,0,0-1.256.165V10.227A.647.647,0,0,0,17.1,9.6H14.542a.637.637,0,0,0-.668.628V20.1a6.489,6.489,0,0,0-1.2,3.795,6.555,6.555,0,1,0,10.26-5.408Zm-2.578-11h1.256v10.3a5.891,5.891,0,0,0-1.256-.344ZM15.2,10.921h1.256v7.041a6.731,6.731,0,0,0-1.256.754Zm8.535,15.635a5.23,5.23,0,1,1-6.5-7.5.628.628,0,0,0,.218-.086,5.131,5.131,0,0,1,1.785-.317c.139,0,.271.007.41.02h.007a5.108,5.108,0,0,1,2.248.714A5.228,5.228,0,0,1,23.731,26.556Z" transform="translate(-12.671 -6.161)" fill="#fff"/>
        </g>
      </g>
      <g id="Group_10119" data-name="Group 10119" transform="translate(19.352 21.525)">
        <g id="Group_10118" data-name="Group 10118">
          <path id="Path_14498" data-name="Path 14498" d="M18.063,19.868a.836.836,0,1,1,.826-.84.663.663,0,0,0,.661.661.67.67,0,0,0,.674-.661,2.159,2.159,0,0,0-1.368-2.01V16.47a.661.661,0,0,0-1.322,0v.476a2.156,2.156,0,0,0-1.547,2.625,2.129,2.129,0,0,0,2.069,1.613.83.83,0,1,1-.833.826.663.663,0,0,0-.661-.661.642.642,0,0,0-.648.654v.007a2.165,2.165,0,0,0,1.613,2.082v.3a.661.661,0,0,0,1.322,0v-.364a2.153,2.153,0,0,0-.787-4.158Z" transform="translate(-15.914 -15.809)" fill="#fff"/>
        </g>
      </g>
      <g id="Group_10121" data-name="Group 10121" transform="translate(5.76 17.116)">
        <g id="Group_10120" data-name="Group 10120">
          <path id="Path_14499" data-name="Path 14499" d="M9.171,12.571H6.593a.663.663,0,0,0-.661.661V23.611a.663.663,0,0,0,.661.661H9.171a.663.663,0,0,0,.661-.661V13.232A.663.663,0,0,0,9.171,12.571ZM8.51,23.016H7.254V13.893H8.51Z" transform="translate(-5.931 -12.571)" fill="#fff"/>
        </g>
      </g>
      <g id="Group_10123" data-name="Group 10123" transform="translate(10.982 15.595)">
        <g id="Group_10122" data-name="Group 10122">
          <path id="Path_14500" data-name="Path 14500" d="M13.007,11.454H10.428a.663.663,0,0,0-.661.661V24.081a.663.663,0,0,0,.661.661h2.578a.663.663,0,0,0,.661-.661V12.115A.663.663,0,0,0,13.007,11.454ZM12.345,23.42H11.089V12.776h1.256Z" transform="translate(-9.767 -11.454)" fill="#fff"/>
        </g>
      </g>
      <g id="Group_10125" data-name="Group 10125" transform="translate(0.537 22.801)">
        <g id="Group_10124" data-name="Group 10124">
          <path id="Path_14501" data-name="Path 14501" d="M5.335,16.746H2.757a.663.663,0,0,0-.661.661V22.1a.663.663,0,0,0,.661.661H5.335A.663.663,0,0,0,6,22.1V17.407A.663.663,0,0,0,5.335,16.746Zm-.661,4.76H3.418V18.068H4.674Z" transform="translate(-2.096 -16.746)" fill="#fff"/>
        </g>
      </g>
      <g id="Group_10127" data-name="Group 10127">
        <g id="Group_10126" data-name="Group 10126">
          <path id="Path_14502" data-name="Path 14502" d="M26.8,0,22.276.007a.661.661,0,0,0-.013,1.322h.013L25.2,1.322,18.032,8.469,15.526,5.983a.727.727,0,0,0-.939,0L1.895,18.676a.659.659,0,0,0,.939.926l12.23-12.23L17.569,9.9a.662.662,0,0,0,.469.212.7.7,0,0,0,.469-.212l7.629-7.636L26.13,5.2a.661.661,0,1,0,1.322,0L27.459.668A.669.669,0,0,0,26.8,0Z" transform="translate(-1.701)" fill="#fff"/>
        </g>
      </g>
    </g>
  </g>
</svg>
