<svg xmlns="http://www.w3.org/2000/svg" width="195.998" height="70.937" viewBox="0 0 195.998 70.937">
  <path id="Path_12931" data-name="Path 12931" d="M202.062,224.613c-37,11.888-75.225,20.2-113.906,21.046-16.809.369-35.965.927-52.1-4.853-7.649-2.741-15.467-7.709-16.874-17.07C17.4,211.855,27.041,202.5,35.556,197.058c29.871-19.087,70.1-17.194,103.63-16.4,18.464.437,37.076,2.362,54.79,8.3,5.506,1.844,19.718,5.752,13.594,14.494-3.159,4.511-9.353,7.345-13.949,9.711-34.293,17.665-72.33,21.761-109.868,21.1-1.908-.034-1.908,3.181,0,3.215,38.5.659,77.9-3.591,112.825-22.423,5.548-2.992,19.537-10.322,14.655-19.44-3.039-5.678-11.28-7.761-16.532-9.5a158.042,158.042,0,0,0-30.369-6.606c-21.884-2.716-44.19-2.062-66.159-.976-18.976.937-38.466,3.125-55.971,11.687-12.317,6.021-29.871,18.843-25.169,36.3,3.809,14.145,19.907,18.373,31.62,19.934,51.7,6.888,104.443-4.179,153.57-21.195.372-.128.216-.757-.16-.635Z" transform="translate(-16.251 -177.582)" fill="#31b7bc" opacity="0.6"/>
</svg>
