<svg xmlns="http://www.w3.org/2000/svg" width="223.554" height="80.91" viewBox="0 0 223.554 80.91">
  <path id="Path_12931" data-name="Path 12931" d="M27.871,204.848c42.2-13.559,85.8-23.036,129.92-24.005,19.172-.421,41.022-1.058,59.422,5.535,8.725,3.126,17.641,8.793,19.247,19.469,2.038,13.551-8.963,24.222-18.674,30.429-34.071,21.771-79.959,19.612-118.2,18.7-21.06-.5-42.288-2.694-62.493-9.462-6.28-2.1-22.49-6.56-15.505-16.532,3.6-5.145,10.667-8.377,15.91-11.077,39.115-20.148,82.5-24.82,125.315-24.063,2.177.038,2.177-3.628,0-3.667-43.91-.752-88.856,4.1-128.687,25.576-6.328,3.413-22.284,11.773-16.715,22.173,3.467,6.476,12.866,8.852,18.857,10.84a180.264,180.264,0,0,0,34.639,7.535c24.961,3.1,50.4,2.351,75.46,1.113,21.644-1.069,43.874-3.565,63.84-13.33,14.049-6.868,34.071-21.492,28.708-41.4-4.345-16.134-22.706-20.956-36.065-22.736-58.968-7.856-119.127,4.766-175.161,24.174-.424.146-.247.863.183.725Z" transform="translate(-16.251 -177.582)" fill="#31b7bc" opacity="0.6"/>
</svg>
