<svg xmlns="http://www.w3.org/2000/svg" xmlns:xlink="http://www.w3.org/1999/xlink" width="722" height="752" viewBox="0 0 722 752">
  <defs>
    <clipPath id="clip-path">
      <rect id="Rectangle_19979" data-name="Rectangle 19979" width="64" height="64" transform="translate(252 461)" fill="#fff"/>
    </clipPath>
    <clipPath id="clip-path-2">
      <rect id="Rectangle_19977" data-name="Rectangle 19977" width="24" height="24" transform="translate(522 871)" fill="#fff"/>
    </clipPath>
  </defs>
  <g id="Group_10289" data-name="Group 10289" transform="translate(150 -232.461)">
    <g id="Ellipse_302" data-name="Ellipse 302" transform="translate(324 417.461)" fill="#fff" stroke="#707070" stroke-width="1">
      <circle cx="4.5" cy="4.5" r="4.5" stroke="none"/>
      <circle cx="4.5" cy="4.5" r="4" fill="none"/>
    </g>
    <line id="Line_29" data-name="Line 29" y2="177" transform="translate(534 658.461)" fill="none" stroke="#707070" stroke-width="1" stroke-dasharray="5 8"/>
    <g id="Ellipse_301" data-name="Ellipse 301" transform="translate(527 835.461)" fill="#fff" stroke="#707070" stroke-width="1">
      <circle cx="7" cy="7" r="7" stroke="none"/>
      <circle cx="7" cy="7" r="6.5" fill="none"/>
    </g>
    <line id="Line_35" data-name="Line 35" x2="126" transform="translate(333 331.461)" fill="none" stroke="#707070" stroke-width="1" stroke-dasharray="5 8"/>
    <g id="Ellipse_305" data-name="Ellipse 305" transform="translate(459 324.461)" fill="#fff" stroke="#707070" stroke-width="1">
      <circle cx="7" cy="7" r="7" stroke="none"/>
      <circle cx="7" cy="7" r="6.5" fill="none"/>
    </g>
    <g id="Group_10287" data-name="Group 10287">
      <line id="Line_25" data-name="Line 25" y2="535.5" transform="translate(127.5 330.961)" fill="none" stroke="#707070" stroke-width="1" stroke-dasharray="5 8"/>
      <line id="Line_24" data-name="Line 24" x2="31" transform="translate(96 331.461)" fill="none" stroke="#707070" stroke-width="1" stroke-dasharray="5 8"/>
      <rect id="Rectangle_19974" data-name="Rectangle 19974" width="138" height="208" rx="10" transform="translate(-52 267.461)" fill="#b94191"/>
      <g id="Ellipse_299" data-name="Ellipse 299" transform="translate(86 324.461)" fill="#fff" stroke="#707070" stroke-width="1">
        <circle cx="7" cy="7" r="7" stroke="none"/>
        <circle cx="7" cy="7" r="6.5" fill="none"/>
      </g>
      <g id="Ellipse_300" data-name="Ellipse 300" transform="translate(274 560.461)" fill="#fff" stroke="#707070" stroke-width="1">
        <circle cx="7" cy="7" r="7" stroke="none"/>
        <circle cx="7" cy="7" r="6.5" fill="none"/>
      </g>
      <g id="Ellipse_307" data-name="Ellipse 307" transform="translate(249 256.461)" fill="#fff" stroke="#707070" stroke-width="1">
        <circle cx="4.5" cy="4.5" r="4.5" stroke="none"/>
        <circle cx="4.5" cy="4.5" r="4" fill="none"/>
      </g>
      <g id="Ellipse_304" data-name="Ellipse 304" transform="translate(299 257.461)" fill="#fff" stroke="#707070" stroke-width="1">
        <circle cx="4.5" cy="4.5" r="4.5" stroke="none"/>
        <circle cx="4.5" cy="4.5" r="4" fill="none"/>
      </g>
      <g id="Group_9307" data-name="Group 9307" transform="translate(115.602 647.262)">
        <line id="Line_26" data-name="Line 26" x1="22.797" y1="22.797" transform="translate(0)" fill="none" stroke="#3c3c3b" stroke-miterlimit="10" stroke-width="2.693"/>
        <line id="Line_27" data-name="Line 27" x1="22.797" y2="22.797" transform="translate(0 0)" fill="none" stroke="#3c3c3b" stroke-miterlimit="10" stroke-width="2.693"/>
      </g>
      <g id="Rectangle_19975" data-name="Rectangle 19975" transform="translate(70 873.461)" fill="#fbba00" stroke="#fff" stroke-width="3">
        <rect width="115" height="111" rx="5" stroke="none"/>
        <rect x="1.5" y="1.5" width="112" height="108" rx="3.5" fill="none"/>
      </g>
      <text id="AI" transform="translate(148 947.461)" fill="#fff" font-size="48" font-family="Cairo-Bold, Cairo" font-weight="700"><tspan x="-42.624" y="0">AI</tspan></text>
      <line id="Line_28" data-name="Line 28" x2="407" transform="translate(127.5 658.461)" fill="none" stroke="#707070" stroke-width="1" stroke-dasharray="5 8"/>
      <g id="Rectangle_19978" data-name="Rectangle 19978" transform="translate(207 426.461)" fill="#31b7bc" stroke="#fff" stroke-width="3">
        <rect width="153" height="134" rx="5" stroke="none"/>
        <rect x="1.5" y="1.5" width="150" height="131" rx="3.5" fill="none"/>
      </g>
      <g id="Ellipse_303" data-name="Ellipse 303" transform="translate(121 859.461)" fill="#fff" stroke="#707070" stroke-width="1">
        <circle cx="7" cy="7" r="7" stroke="none"/>
        <circle cx="7" cy="7" r="6.5" fill="none"/>
      </g>
      <g id="Mask_Group_587" data-name="Mask Group 587" transform="translate(0 0.461)" clip-path="url(#clip-path)">
        <g id="multiple-users-silhouette" transform="translate(252 461)">
          <path id="Path_13838" data-name="Path 13838" d="M38.621,14.314a11.629,11.629,0,0,1,5.412,8.64,9.382,9.382,0,1,0-5.412-8.64ZM32.472,33.533a9.386,9.386,0,1,0-9.388-9.386A9.386,9.386,0,0,0,32.472,33.533Zm3.982.64H28.489A12.032,12.032,0,0,0,16.471,46.191v9.74l.025.153.671.21a54.705,54.705,0,0,0,16.341,2.635c8.833,0,13.953-2.518,14.268-2.679l.627-.317h.067V46.191A12.029,12.029,0,0,0,36.454,34.172Zm15.529-9.69h-7.9a11.568,11.568,0,0,1-3.57,8.057,14.281,14.281,0,0,1,10.2,13.666v3c7.8-.286,12.3-2.5,12.6-2.646l.627-.318H64V36.5A12.031,12.031,0,0,0,51.983,24.483ZM16,23.844a9.324,9.324,0,0,0,4.992-1.449,11.616,11.616,0,0,1,4.367-7.409c.01-.176.026-.35.026-.527A9.386,9.386,0,1,0,16,23.844Zm8.43,8.7a11.575,11.575,0,0,1-3.568-8.013c-.293-.022-.583-.045-.882-.045H12.018A12.031,12.031,0,0,0,0,36.5v9.742l.025.15L.7,46.6A56.348,56.348,0,0,0,14.23,49.147V46.206A14.283,14.283,0,0,1,24.431,32.54Z" fill="#fff"/>
        </g>
      </g>
      <line id="Line_30" data-name="Line 30" y2="89.5" transform="translate(280.5 573.961)" fill="none" stroke="#707070" stroke-width="1" stroke-dasharray="5 8"/>
      <g id="Group_9308" data-name="Group 9308" transform="translate(204.5 261.961)">
        <line id="Line_31" data-name="Line 31" y2="83.5" transform="translate(124 72)" fill="none" stroke="#707070" stroke-width="1" stroke-dasharray="5 8"/>
        <line id="Line_32" data-name="Line 32" x1="124" transform="translate(0 70)" fill="none" stroke="#707070" stroke-width="1" stroke-dasharray="5 8"/>
        <line id="Line_33" data-name="Line 33" y2="75" transform="translate(0)" fill="none" stroke="#707070" stroke-width="1" stroke-dasharray="5 8"/>
      </g>
      <line id="Line_34" data-name="Line 34" x2="48" transform="translate(204.5 261.961)" fill="none" stroke="#707070" stroke-width="1" stroke-dasharray="5 8"/>
      <g id="Rectangle_19980" data-name="Rectangle 19980" transform="translate(258 232.461)" fill="#ffaa2e" stroke="#fff" stroke-width="1">
        <rect width="56" height="56" stroke="none"/>
        <rect x="0.5" y="0.5" width="55" height="55" fill="none"/>
      </g>
      <circle id="Ellipse_306" data-name="Ellipse 306" cx="128" cy="128" r="128" transform="translate(0 530.461)" fill="none" opacity="0.26"/>
      <text id="B2b" transform="translate(286 268.461)" fill="#fff" font-size="20" font-family="Cairo-Bold, Cairo" font-weight="700"><tspan x="-17.13" y="0">B2b</tspan></text>
    </g>
    <g id="Group_10288" data-name="Group 10288" transform="translate(7)">
      <g id="Rectangle_19976" data-name="Rectangle 19976" transform="translate(489 849.461)" fill="#07f" stroke="#fff" stroke-width="3">
        <rect width="76" height="67" rx="5" stroke="none"/>
        <rect x="1.5" y="1.5" width="73" height="64" rx="3.5" fill="none"/>
      </g>
      <g id="Mask_Group_588" data-name="Mask Group 588" transform="translate(-7 0.461)" clip-path="url(#clip-path-2)">
        <path id="project-management" d="M0,0H16.549V10.4a.89.89,0,0,0-.733.874v.241H13.781V11.27a.89.89,0,0,0-.89-.889h-.543a.89.89,0,0,0-.89.889v.241H10.9a1.475,1.475,0,0,0-1.519,1.422V23.376A1.341,1.341,0,0,0,9.533,24H0ZM24,23.376V15.2H10.178v8.18A.686.686,0,0,0,10.9,24H23.279a.678.678,0,0,0,.72-.624Zm-7.293-12.2a.091.091,0,0,0-.091.089v1.577a.091.091,0,0,0,.091.089h.543a.091.091,0,0,0,.091-.089V11.27a.091.091,0,0,0-.091-.089Zm-4.358,1.756h.543a.091.091,0,0,0,.091-.089V11.27a.091.091,0,0,0-.091-.089h-.543a.091.091,0,0,0-.091.089v1.577A.091.091,0,0,0,12.348,12.937Zm5.791-.626v.537a.89.89,0,0,1-.89.889h-.543a.89.89,0,0,1-.89-.889V12.31H13.781v.537a.89.89,0,0,1-.89.889h-.543a.89.89,0,0,1-.89-.889V12.31H10.9a.677.677,0,0,0-.72.622V14.4H24V12.933a.677.677,0,0,0-.72-.622H22.5v.537a.89.89,0,0,1-.89.889h-.543a.89.89,0,0,1-.89-.889V12.31Zm2.835.537a.091.091,0,0,0,.091.089h.543a.091.091,0,0,0,.091-.089V11.27a.091.091,0,0,0-.091-.089h-.543a.091.091,0,0,0-.091.089Zm.563,9.127V20.723H20.283v1.251Zm.4-2.051a.4.4,0,0,1,.4.4v2.051a.4.4,0,0,1-.4.4H19.884a.4.4,0,0,1-.4-.4V20.324a.4.4,0,0,1,.4-.4Zm-.4-1.451V17.221H20.283v1.251Zm.4-2.051a.4.4,0,0,1,.4.4v2.051a.4.4,0,0,1-.4.4H19.884a.4.4,0,0,1-.4-.4V16.822a.4.4,0,0,1,.4-.4ZM17.68,21.975V20.723H16.428v1.251Zm.4-2.051a.4.4,0,0,1,.4.4v2.051a.4.4,0,0,1-.4.4H16.029a.4.4,0,0,1-.4-.4V20.324a.4.4,0,0,1,.4-.4ZM13.9,21.975V20.723H12.643v1.251Zm.4-2.051a.4.4,0,0,1,.4.4v2.051a.4.4,0,0,1-.4.4H12.243a.4.4,0,0,1-.4-.4V20.324a.4.4,0,0,1,.4-.4Zm3.384-1.451V17.221H16.428v1.251Zm.4-2.051a.4.4,0,0,1,.4.4v2.051a.4.4,0,0,1-.4.4H16.029a.4.4,0,0,1-.4-.4V16.822a.4.4,0,0,1,.4-.4ZM13.9,18.473V17.221H12.643v1.251Zm.8-1.651v2.051a.4.4,0,0,1-.4.4H12.243a.4.4,0,0,1-.4-.4V16.822a.4.4,0,0,1,.4-.4H14.3A.4.4,0,0,1,14.695,16.822ZM9.778,4.6h5.2a.4.4,0,0,0,0-.8h-5.2a.4.4,0,1,0,0,.8Zm0-2.147h5.2a.4.4,0,0,0,0-.8h-5.2a.4.4,0,1,0,0,.8ZM7.23,18.408,5.3,20.157l-.642-.641a.4.4,0,1,0-.565.566l.911.91a.4.4,0,0,0,.551.013l.743-.674v1.216H2.454V18.052H6.7a.4.4,0,0,0,0-.8H2.054a.4.4,0,0,0-.4.4v4.294a.4.4,0,0,0,.4.4H6.7a.4.4,0,0,0,.4-.4V19.606L7.767,19a.4.4,0,0,0-.537-.592ZM2.054,14.547H6.7a.4.4,0,0,0,.4-.4v-2.34l.668-.607a.4.4,0,1,0-.537-.592L5.3,12.359l-.642-.642a.4.4,0,0,0-.565.565L5,13.194a.4.4,0,0,0,.551.013l.743-.675v1.215H2.454v-3.5H6.7a.4.4,0,1,0,0-.8H2.054a.4.4,0,0,0-.4.4v4.294a.4.4,0,0,0,.4.4Zm0-7.8H6.7a.4.4,0,0,0,.4-.4V4.008L7.767,3.4a.4.4,0,0,0-.537-.592L5.3,4.56l-.642-.641a.4.4,0,0,0-.565.566L5,5.395a.4.4,0,0,0,.551.013L6.3,4.733V5.95H2.454v-3.5H6.7a.4.4,0,1,0,0-.8H2.054a.4.4,0,0,0-.4.4v4.3a.4.4,0,0,0,.4.4Z" transform="translate(522 871)" fill="#fff" fill-rule="evenodd"/>
      </g>
    </g>
  </g>
</svg>
