<svg xmlns="http://www.w3.org/2000/svg" xmlns:xlink="http://www.w3.org/1999/xlink" width="392.5" height="425.771" viewBox="0 0 392.5 425.771">
  <defs>
    <filter id="Rectangle_20002" x="273.36" y="58.311" width="109.116" height="151.67" filterUnits="userSpaceOnUse">
      <feOffset dy="3" input="SourceAlpha"/>
      <feGaussianBlur stdDeviation="3" result="blur"/>
      <feFlood flood-opacity="0.161"/>
      <feComposite operator="in" in2="blur"/>
      <feComposite in="SourceGraphic"/>
    </filter>
    <clipPath id="clip-path">
      <rect id="Rectangle_19977" data-name="Rectangle 19977" width="12.015" height="12.015" transform="translate(0 0)" fill="#fff"/>
    </clipPath>
    <clipPath id="clip-path-2">
      <rect id="Rectangle_19979" data-name="Rectangle 19979" width="32.041" height="32.041" transform="translate(0 0)" fill="#fff"/>
    </clipPath>
  </defs>
  <g id="Group_10370" data-name="Group 10370" transform="translate(52 -133.541)">
    <g transform="matrix(1, 0, 0, 1, -52, 133.54)" filter="url(#Rectangle_20002)">
      <rect id="Rectangle_20002-2" data-name="Rectangle 20002" width="91.116" height="133.67" rx="5" transform="translate(282.36 64.31)" fill="rgba(233,238,239,0.34)"/>
    </g>
    <line id="Line_25" data-name="Line 25" y2="268.092" transform="translate(37.865 232.146)" fill="none" stroke="#707070" stroke-width="1" stroke-dasharray="5 8"/>
    <line id="Line_24" data-name="Line 24" x2="15.52" transform="translate(22.094 232.396)" fill="none" stroke="#707070" stroke-width="1" stroke-dasharray="5 8"/>
    <rect id="Rectangle_19974" data-name="Rectangle 19974" width="69.088" height="104.133" rx="10" transform="translate(-52 200.355)" fill="#b94191"/>
    <g id="Ellipse_299" data-name="Ellipse 299" transform="translate(17.088 228.891)" fill="#fff" stroke="#707070" stroke-width="1">
      <circle cx="3.504" cy="3.504" r="3.504" stroke="none"/>
      <circle cx="3.504" cy="3.504" r="3.004" fill="none"/>
    </g>
    <g id="Ellipse_300" data-name="Ellipse 300" transform="translate(111.208 347.042)" fill="#fff" stroke="#707070" stroke-width="1">
      <circle cx="3.504" cy="3.504" r="3.504" stroke="none"/>
      <circle cx="3.504" cy="3.504" r="3.004" fill="none"/>
    </g>
    <g id="Ellipse_302" data-name="Ellipse 302" transform="translate(136.24 275.451)" fill="#fff" stroke="#707070" stroke-width="1">
      <circle cx="2.253" cy="2.253" r="2.253" stroke="none"/>
      <circle cx="2.253" cy="2.253" r="1.753" fill="none"/>
    </g>
    <g id="Ellipse_307" data-name="Ellipse 307" transform="translate(98.692 194.848)" fill="#fff" stroke="#707070" stroke-width="1">
      <circle cx="2.253" cy="2.253" r="2.253" stroke="none"/>
      <circle cx="2.253" cy="2.253" r="1.753" fill="none"/>
    </g>
    <g id="Ellipse_304" data-name="Ellipse 304" transform="translate(123.724 195.349)" fill="#fff" stroke="#707070" stroke-width="1">
      <circle cx="2.253" cy="2.253" r="2.253" stroke="none"/>
      <circle cx="2.253" cy="2.253" r="1.753" fill="none"/>
    </g>
    <g id="Group_9307" data-name="Group 9307" transform="translate(31.908 390.498)">
      <line id="Line_26" data-name="Line 26" x1="11.413" y1="11.413" transform="translate(0)" fill="none" stroke="#3c3c3b" stroke-miterlimit="10" stroke-width="2.693"/>
      <line id="Line_27" data-name="Line 27" x1="11.413" y2="11.413" transform="translate(0 0)" fill="none" stroke="#3c3c3b" stroke-miterlimit="10" stroke-width="2.693"/>
    </g>
    <g id="Rectangle_19975" data-name="Rectangle 19975" transform="translate(9.078 503.742)" fill="#fbba00" stroke="#fff" stroke-width="3">
      <rect width="57.573" height="55.571" rx="5" stroke="none"/>
      <rect x="1.5" y="1.5" width="54.573" height="52.571" rx="3.5" fill="none"/>
    </g>
    <text id="AI" transform="translate(45.101 536.249)" fill="#fff" font-size="21" font-family="Cairo-Bold, Cairo" font-weight="700"><tspan x="-18.417" y="0">AI</tspan></text>
    <line id="Line_28" data-name="Line 28" x2="203.76" transform="translate(37.865 396.105)" fill="none" stroke="#707070" stroke-width="1" stroke-dasharray="5 8"/>
    <line id="Line_29" data-name="Line 29" y2="88.613" transform="translate(241.374 396.105)" fill="none" stroke="#707070" stroke-width="1" stroke-dasharray="5 8"/>
    <g id="Rectangle_19976" data-name="Rectangle 19976" transform="translate(222.35 491.726)" fill="#07f" stroke="#fff" stroke-width="3">
      <rect width="38.049" height="33.543" rx="5" stroke="none"/>
      <rect x="1.5" y="1.5" width="35.049" height="30.543" rx="3.5" fill="none"/>
    </g>
    <g id="Rectangle_19978" data-name="Rectangle 19978" transform="translate(77.665 279.957)" fill="#31b7bc" stroke="#fff" stroke-width="3">
      <rect width="76.598" height="67.086" rx="5" stroke="none"/>
      <rect x="1.5" y="1.5" width="73.598" height="64.086" rx="3.5" fill="none"/>
    </g>
    <g id="Ellipse_301" data-name="Ellipse 301" transform="translate(237.869 484.718)" fill="#fff" stroke="#707070" stroke-width="1">
      <circle cx="3.504" cy="3.504" r="3.504" stroke="none"/>
      <circle cx="3.504" cy="3.504" r="3.004" fill="none"/>
    </g>
    <g id="Ellipse_303" data-name="Ellipse 303" transform="translate(34.61 496.733)" fill="#fff" stroke="#707070" stroke-width="1">
      <circle cx="3.504" cy="3.504" r="3.504" stroke="none"/>
      <circle cx="3.504" cy="3.504" r="3.004" fill="none"/>
    </g>
    <g id="Mask_Group_588" data-name="Mask Group 588" transform="translate(235.366 502.741)" clip-path="url(#clip-path)">
      <path id="project-management" d="M0,0H8.285V5.2a.445.445,0,0,0-.367.437v.121H6.9V5.642A.446.446,0,0,0,6.454,5.2H6.182a.446.446,0,0,0-.446.445v.121h-.28a.738.738,0,0,0-.761.712V11.7a.671.671,0,0,0,.077.312H0ZM12.015,11.7v-4.1H5.1v4.1a.343.343,0,0,0,.36.312h6.2a.339.339,0,0,0,.36-.312ZM8.364,5.6a.046.046,0,0,0-.045.045v.79a.046.046,0,0,0,.045.045h.272a.046.046,0,0,0,.045-.045v-.79A.046.046,0,0,0,8.636,5.6Zm-2.182.879h.272A.046.046,0,0,0,6.5,6.432v-.79A.046.046,0,0,0,6.454,5.6H6.182a.046.046,0,0,0-.045.045v.79A.046.046,0,0,0,6.182,6.477Zm2.9-.314v.269a.446.446,0,0,1-.446.445H8.364a.446.446,0,0,1-.446-.445V6.163H6.9v.269a.446.446,0,0,1-.446.445H6.182a.446.446,0,0,1-.446-.445V6.163h-.28a.339.339,0,0,0-.36.311v.733h6.919V6.475a.339.339,0,0,0-.36-.311h-.392v.269a.446.446,0,0,1-.446.445h-.272a.446.446,0,0,1-.446-.445V6.163Zm1.419.269a.046.046,0,0,0,.045.045h.272a.046.046,0,0,0,.045-.045v-.79a.046.046,0,0,0-.045-.045h-.272a.046.046,0,0,0-.045.045ZM10.782,11v-.626h-.627V11Zm.2-1.027a.2.2,0,0,1,.2.2V11.2a.2.2,0,0,1-.2.2H9.955a.2.2,0,0,1-.2-.2V10.175a.2.2,0,0,1,.2-.2Zm-.2-.727V8.622h-.627v.627Zm.2-1.027a.2.2,0,0,1,.2.2V9.448a.2.2,0,0,1-.2.2H9.955a.2.2,0,0,1-.2-.2V8.422a.2.2,0,0,1,.2-.2ZM8.852,11v-.626H8.225V11Zm.2-1.027a.2.2,0,0,1,.2.2V11.2a.2.2,0,0,1-.2.2H8.025a.2.2,0,0,1-.2-.2V10.175a.2.2,0,0,1,.2-.2ZM6.957,11v-.626H6.33V11Zm.2-1.027a.2.2,0,0,1,.2.2V11.2a.2.2,0,0,1-.2.2H6.13a.2.2,0,0,1-.2-.2V10.175a.2.2,0,0,1,.2-.2Zm1.694-.727V8.622H8.225v.627Zm.2-1.027a.2.2,0,0,1,.2.2V9.448a.2.2,0,0,1-.2.2H8.025a.2.2,0,0,1-.2-.2V8.422a.2.2,0,0,1,.2-.2ZM6.957,9.248V8.622H6.33v.627Zm.4-.827V9.448a.2.2,0,0,1-.2.2H6.13a.2.2,0,0,1-.2-.2V8.421a.2.2,0,0,1,.2-.2H7.157A.2.2,0,0,1,7.357,8.421ZM4.9,2.3H7.5a.2.2,0,0,0,0-.4H4.9a.2.2,0,1,0,0,.4Zm0-1.075H7.5a.2.2,0,0,0,0-.4H4.9a.2.2,0,1,0,0,.4ZM3.62,9.216l-.966.876-.321-.321a.2.2,0,1,0-.283.283l.456.456a.2.2,0,0,0,.276.007l.372-.338v.609H1.229V9.037H3.354a.2.2,0,0,0,0-.4H1.029a.2.2,0,0,0-.2.2v2.15a.2.2,0,0,0,.2.2H3.354a.2.2,0,0,0,.2-.2V9.815l.334-.3a.2.2,0,0,0-.269-.3ZM1.029,7.283H3.354a.2.2,0,0,0,.2-.2V5.911l.335-.3a.2.2,0,0,0-.269-.3l-.966.877-.321-.321a.2.2,0,1,0-.283.283l.456.456a.2.2,0,0,0,.276.007l.372-.338v.608H1.229V5.133H3.354a.2.2,0,1,0,0-.4H1.029a.2.2,0,0,0-.2.2v2.15a.2.2,0,0,0,.2.2Zm0-3.9H3.354a.2.2,0,0,0,.2-.2V2.006l.335-.3a.2.2,0,0,0-.269-.3l-.966.877-.321-.321a.2.2,0,0,0-.283.283l.456.456a.2.2,0,0,0,.276.007l.372-.338v.609H1.229V1.228H3.354a.2.2,0,1,0,0-.4H1.029a.2.2,0,0,0-.2.2V3.179a.2.2,0,0,0,.2.2Z" transform="translate(0 0)" fill="#fff" fill-rule="evenodd"/>
    </g>
    <g id="Mask_Group_587" data-name="Mask Group 587" transform="translate(100.194 297.479)" clip-path="url(#clip-path-2)">
      <g id="multiple-users-silhouette" transform="translate(0 2.538)">
        <path id="Path_13838" data-name="Path 13838" d="M19.335,9.7a5.822,5.822,0,0,1,2.709,4.325A4.7,4.7,0,1,0,19.335,9.7ZM16.257,19.32a4.7,4.7,0,1,0-4.7-4.7A4.7,4.7,0,0,0,16.257,19.32Zm1.993.32H14.263a6.024,6.024,0,0,0-6.017,6.017v4.876l.012.076.336.105a27.388,27.388,0,0,0,8.181,1.319,16.8,16.8,0,0,0,7.143-1.341l.314-.159h.034V25.657A6.022,6.022,0,0,0,18.25,19.64Zm7.774-4.851H22.068a5.791,5.791,0,0,1-1.787,4.034,7.149,7.149,0,0,1,5.107,6.842v1.5a16.191,16.191,0,0,0,6.306-1.325l.314-.159h.034V20.805A6.023,6.023,0,0,0,26.025,14.789Zm-18.013-.32a4.668,4.668,0,0,0,2.5-.725A5.816,5.816,0,0,1,12.7,10.034c0-.088.013-.175.013-.264a4.7,4.7,0,1,0-4.7,4.7Zm4.22,4.354a5.8,5.8,0,0,1-1.786-4.011c-.147-.011-.292-.022-.441-.022H6.017A6.023,6.023,0,0,0,0,20.805v4.877l.012.075.336.106a28.21,28.21,0,0,0,6.776,1.274V25.664A7.151,7.151,0,0,1,12.231,18.823Z" transform="translate(0 -5.07)" fill="#fff"/>
      </g>
    </g>
    <line id="Line_30" data-name="Line 30" y2="44.807" transform="translate(114.462 353.801)" fill="none" stroke="#707070" stroke-width="1" stroke-dasharray="5 8"/>
    <line id="Line_34" data-name="Line 34" x2="24.031" transform="translate(76.414 197.602)" fill="none" stroke="#707070" stroke-width="1" stroke-dasharray="5 8"/>
    <g id="Rectangle_19980" data-name="Rectangle 19980" transform="translate(103.198 182.833)" fill="#ffaa2e" stroke="#fff" stroke-width="1">
      <rect width="28.036" height="28.036" stroke="none"/>
      <rect x="0.5" y="0.5" width="27.036" height="27.036" fill="none"/>
    </g>
    <line id="Line_35" data-name="Line 35" x2="63.08" transform="translate(140.746 232.396)" fill="none" stroke="#707070" stroke-width="1" stroke-dasharray="5 8"/>
    <rect id="Rectangle_19982" data-name="Rectangle 19982" width="129.665" height="155.698" rx="5" transform="translate(210.835 171.318)" fill="#fff"/>
    <g id="Ellipse_305" data-name="Ellipse 305" transform="translate(203.826 228.891)" fill="#fff" stroke="#707070" stroke-width="1">
      <circle cx="3.504" cy="3.504" r="3.504" stroke="none"/>
      <circle cx="3.504" cy="3.504" r="3.004" fill="none"/>
    </g>
    <text id="B2b" transform="translate(115.705 197.839)" fill="#fff" font-size="8" font-family="Cairo-Bold, Cairo" font-weight="700"><tspan x="-6.844" y="0">B2b</tspan></text>
    <g id="Group_10371" data-name="Group 10371">
      <g id="Group_9308" data-name="Group 9308" transform="translate(76.414 197.602)">
        <line id="Line_31" data-name="Line 31" y2="41.803" transform="translate(62.079 36.046)" fill="none" stroke="#707070" stroke-width="1" stroke-dasharray="5 8"/>
        <line id="Line_32" data-name="Line 32" x1="62.079" transform="translate(0 35.045)" fill="none" stroke="#707070" stroke-width="1" stroke-dasharray="5 8"/>
        <line id="Line_33" data-name="Line 33" y2="37.548" transform="translate(0)" fill="none" stroke="#707070" stroke-width="1" stroke-dasharray="5 8"/>
      </g>
      <text id="بدايتنا_مجرد_فكرة_ثم_تصبح_مشروعا_" data-name="بدايتنا مجرد فكرة 
ثم تصبح مشروعا " transform="translate(271.872 247.9)" fill="#3c3c3b" font-size="9" font-family="Cairo-SemiBold, Cairo" font-weight="600" opacity="0.7"><tspan x="-32.292" y="0">بدايتنا مجرد فكرة</tspan><tspan y="0"> </tspan><tspan x="-31.365" y="18">ثم تصبح مشروعا</tspan><tspan y="18"> </tspan></text>
      <g id="Group_9334" data-name="Group 9334" transform="translate(237.869 133.541)">
        <g id="Group_9325" data-name="Group 9325" transform="translate(21.037 7.758)">
          <g id="Group_9315" data-name="Group 9315" transform="translate(7.244 7.244)">
            <path id="Path_13815" data-name="Path 13815" d="M420.867,170.122a3.362,3.362,0,0,0,6.725,0h1.389v-5.771h-9.5v5.771Z" transform="translate(-413.033 -139.365)" fill="#75777f"/>
            <path id="Path_13816" data-name="Path 13816" d="M418.425,115.693a10.57,10.57,0,0,1,8.192,17.249,11.109,11.109,0,0,0-3.049,7.111H413.282a11.11,11.11,0,0,0-3.049-7.111,10.57,10.57,0,0,1,8.192-17.249Z" transform="translate(-407.229 -115.067)" fill="#ffcf00"/>
            <g id="Group_9311" data-name="Group 9311" transform="translate(5.213 30.131)">
              <rect id="Rectangle_19983" data-name="Rectangle 19983" width="11.965" height="1.252" fill="#3e4354"/>
            </g>
            <g id="Group_9312" data-name="Group 9312">
              <path id="Path_13817" data-name="Path 13817" d="M422.944,140.055H412.01l.022-.647a10.638,10.638,0,0,0-2.89-6.674,11.195,11.195,0,1,1,17.337-.02,10.675,10.675,0,0,0-2.909,6.7l.017.642Zm-9.689-1.252h9.093a12.228,12.228,0,0,1,3.179-6.9,9.945,9.945,0,1,0-15.433.02A12.179,12.179,0,0,1,413.255,138.8Z" transform="translate(-406.605 -114.443)" fill="#3e4354"/>
            </g>
            <g id="Group_9313" data-name="Group 9313" transform="translate(7.968 32.523)">
              <path id="Path_13818" data-name="Path 13818" d="M425.749,181.628a4.535,4.535,0,0,1-3.228-1.337l.885-.885a3.314,3.314,0,0,0,4.686,0l.885.885A4.535,4.535,0,0,1,425.749,181.628Z" transform="translate(-422.521 -179.406)" fill="#3e4354"/>
            </g>
            <g id="Group_9314" data-name="Group 9314" transform="translate(5.213 27.238)">
              <rect id="Rectangle_19984" data-name="Rectangle 19984" width="11.965" height="1.252" fill="#3e4354"/>
            </g>
            <path id="Path_13819" data-name="Path 13819" d="M419.234,130.661c-.619,1.79-2.2,2.87-3.52,2.412s-1.9-2.281-1.278-4.072,2.2-2.87,3.521-2.412S419.854,128.87,419.234,130.661Z" transform="translate(-410.391 -120.456)" fill="#fff"/>
          </g>
          <g id="Group_9316" data-name="Group 9316" transform="translate(17.814)">
            <rect id="Rectangle_19985" data-name="Rectangle 19985" width="1.252" height="4.846" fill="#3e4354"/>
          </g>
          <g id="Group_9317" data-name="Group 9317" transform="translate(8.678 2.158)">
            <rect id="Rectangle_19986" data-name="Rectangle 19986" width="1.251" height="4.847" transform="translate(0 0.626) rotate(-30.002)" fill="#3e4354"/>
          </g>
          <g id="Group_9318" data-name="Group 9318" transform="translate(2.158 8.678)">
            <rect id="Rectangle_19987" data-name="Rectangle 19987" width="1.252" height="4.847" transform="matrix(0.5, -0.866, 0.866, 0.5, 0, 1.084)" fill="#3e4354"/>
          </g>
          <g id="Group_9319" data-name="Group 9319" transform="translate(0 17.814)">
            <rect id="Rectangle_19988" data-name="Rectangle 19988" width="4.846" height="1.252" fill="#3e4354"/>
          </g>
          <g id="Group_9320" data-name="Group 9320" transform="translate(2.158 24.695)">
            <rect id="Rectangle_19989" data-name="Rectangle 19989" width="4.847" height="1.252" transform="translate(0 2.423) rotate(-30)" fill="#3e4354"/>
          </g>
          <g id="Group_9321" data-name="Group 9321" transform="translate(29.899 24.695)">
            <rect id="Rectangle_19990" data-name="Rectangle 19990" width="1.252" height="4.847" transform="matrix(0.5, -0.866, 0.866, 0.5, 0, 1.084)" fill="#3e4354"/>
          </g>
          <g id="Group_9322" data-name="Group 9322" transform="translate(24.695 2.158)">
            <rect id="Rectangle_19991" data-name="Rectangle 19991" width="4.847" height="1.251" transform="matrix(0.5, -0.866, 0.866, 0.5, 0, 4.197)" fill="#3e4354"/>
          </g>
          <g id="Group_9323" data-name="Group 9323" transform="translate(29.899 8.678)">
            <rect id="Rectangle_19992" data-name="Rectangle 19992" width="4.847" height="1.252" transform="matrix(0.866, -0.5, 0.5, 0.866, 0, 2.423)" fill="#3e4354"/>
          </g>
          <g id="Group_9324" data-name="Group 9324" transform="translate(32.034 17.814)">
            <rect id="Rectangle_19993" data-name="Rectangle 19993" width="4.847" height="1.252" fill="#3e4354"/>
          </g>
        </g>
        <g id="Group_9329" data-name="Group 9329" transform="translate(14.079 54.292)">
          <g id="Group_9326" data-name="Group 9326" transform="translate(24.143 40.289)">
            <path id="Path_13820" data-name="Path 13820" d="M427.714,274.169h-1.252q0-.39.012-.771l1.251.04Q427.714,273.8,427.714,274.169Z" transform="translate(-426.462 -273.398)" fill="#3e4354"/>
          </g>
          <g id="Group_9327" data-name="Group 9327" transform="translate(0 2.352)">
            <path id="Path_13821" data-name="Path 13821" d="M403.739,234.136l-1.246-.124c.052-.516.121-1.031.206-1.534l1.234.21C403.852,233.162,403.787,233.649,403.739,234.136Zm.491-2.875-1.215-.3c.124-.5.269-1,.43-1.491l1.189.393C404.483,230.319,404.347,230.79,404.23,231.26Zm.915-2.762-1.153-.485c.2-.475.421-.949.658-1.407l1.112.575C405.539,227.61,405.331,228.053,405.145,228.5Zm-15.223-.545-.243,0c-.383-.007-.778-.034-1.175-.081l.148-1.243a10.406,10.406,0,0,0,1.05.073l.22,0h.154l.012,1.252Zm1.741-.111L391.5,226.6a12.324,12.324,0,0,0,1.409-.263l.3,1.216A13.775,13.775,0,0,1,391.662,227.843Zm-4.713-.254a14.26,14.26,0,0,1-1.508-.453l.425-1.177a13.182,13.182,0,0,0,1.376.414Zm35.622-.446q-.384,0-.781-.021l.065-1.25a13.33,13.33,0,0,0,1.437,0l.072,1.25C423.1,227.136,422.841,227.144,422.571,227.144Zm-27.851-.055-.437-1.172a12.048,12.048,0,0,0,1.309-.578l.574,1.112A13.154,13.154,0,0,1,394.72,227.089Zm25.514-.123q-.336-.049-.68-.113c-.281-.053-.577-.123-.877-.21l.348-1.2c.261.076.516.137.759.182.213.04.424.075.631.106Zm4.7-.035-.231-1.23a8.638,8.638,0,0,0,1.353-.367l.429,1.176A9.8,9.8,0,0,1,424.938,226.931Zm-40.947-.409a13.732,13.732,0,0,1-1.376-.772l.675-1.054a12.5,12.5,0,0,0,1.25.7Zm33.2-.42c-.45-.194-.922-.423-1.4-.681l.592-1.1c.45.242.89.455,1.307.634Zm-10.709-.187-1.063-.661c.27-.435.564-.867.872-1.286l1.008.741C407.008,225.1,406.733,225.508,406.48,225.916Zm21.482-.118-.668-1.059a4.674,4.674,0,0,0,1.014-.849l.938.828A5.925,5.925,0,0,1,427.962,225.8Zm-30.434-.165-.716-1.027a8.321,8.321,0,0,0,1.08-.889l.879.891A9.562,9.562,0,0,1,397.528,225.633Zm-16.193-.82a10.541,10.541,0,0,1-1.146-1.116l.942-.825a9.289,9.289,0,0,0,1.009.984Zm33.111-.163c-.414-.254-.847-.535-1.288-.833l.7-1.036q.617.419,1.242.8Zm-6.24-1.08-.949-.817c.334-.388.69-.771,1.056-1.137l.885.885C408.854,222.845,408.52,223.205,408.206,223.57Zm-8.4-.3-1.106-.586a1.417,1.417,0,0,0,.186-.556c.007-.1.011-.2.011-.3s0-.182-.009-.271l1.249-.083c.008.117.012.235.012.354s0,.253-.013.382A2.669,2.669,0,0,1,399.805,223.271Zm30.335-.027-1.172-.439a3.235,3.235,0,0,0,.163-.613,4.51,4.51,0,0,0,.062-.656l1.252.028a5.93,5.93,0,0,1-.079.832A4.535,4.535,0,0,1,430.141,223.244Zm-18.232-.306c-.414-.3-.821-.606-1.22-.911l.759-.994c.391.3.791.6,1.2.892Zm-32.673-.549a7.349,7.349,0,0,1-.678-1.5l1.192-.382a6,6,0,0,0,.563,1.239Zm10.25-.321a6.1,6.1,0,0,1-.668-.039l.141-1.244a4.407,4.407,0,0,0,.944.01c.136-.014.268-.03.4-.048l.176,1.239q-.218.032-.448.054A5.143,5.143,0,0,1,389.486,222.067Zm2.565-.45-.4-1.185a5.921,5.921,0,0,0,1.23-.576l.657,1.065A7.2,7.2,0,0,1,392.051,221.617Zm-4.855,0a4.6,4.6,0,0,1-1.468-.931l.876-.894a3.345,3.345,0,0,0,1.066.667Zm23.072-.11-.576-.666-.2.254c-.408-.323-.8-.64-1.182-.947l.787-.973c.331.268.675.544,1.028.825.176-.141.354-.278.533-.412l.75,1C411.019,220.879,410.636,221.187,410.268,221.505Zm-11.677-1.2a4.461,4.461,0,0,0-.691-1.118l.96-.8a5.684,5.684,0,0,1,.884,1.434Zm30.423-.045a3.786,3.786,0,0,0-.6-1.135l.993-.761a5.043,5.043,0,0,1,.8,1.509Zm-34.188-.341-.863-.907a10.076,10.076,0,0,0,.949-1.051l.981.777A11.266,11.266,0,0,1,394.826,219.92Zm17.782-.168-.68-1.051c.433-.28.88-.548,1.328-.8l.608,1.094C413.441,219.234,413.018,219.487,412.608,219.753Zm-34.358-.487c-.008-.13-.012-.261-.012-.393a6.777,6.777,0,0,1,.085-1.061c.01-.064.022-.134.035-.2l1.23.237c-.01.053-.02.105-.028.158a5.511,5.511,0,0,0-.07.868c0,.106,0,.211.01.315Zm28.888-.065c-.422-.339-.815-.651-1.172-.925l.761-.993c.364.278.764.6,1.2.943Zm-22.212-.264v-.062a2.684,2.684,0,0,1,.681-1.744l.953.811a1.438,1.438,0,0,0-.382.934Zm30.241-.607-.533-1.132c.469-.221.948-.427,1.424-.612l.454,1.166C416.062,217.928,415.61,218.122,415.167,218.33Zm-18.259-.074a8.044,8.044,0,0,0-1.186-.734l.293-.575-.244-.166c.267-.393.538-.809.819-1.245l1.052.678q-.233.363-.46.707.249.162.48.336Zm30.551-.058a6.77,6.77,0,0,0-1.185-.7l.532-1.133a8.051,8.051,0,0,1,1.4.833Zm-22.689-.791c-.377-.261-.79-.537-1.235-.82l.671-1.056c.46.292.887.577,1.276.847Zm13.123-.134-.366-1.2c.508-.155,1.015-.289,1.508-.4l.266,1.224C418.842,217,418.368,217.128,417.893,217.274Zm-30.331-.09-.578-1.111a7.407,7.407,0,0,1,1.537-.579l.317,1.211A6.113,6.113,0,0,0,387.562,217.184Zm37.395-.177a10.622,10.622,0,0,0-1.39-.3l.181-1.239a11.913,11.913,0,0,1,1.555.334Zm-30.54-.03a10.748,10.748,0,0,0-1.375-.365l.24-1.229a12.089,12.089,0,0,1,1.535.408Zm26.308-.314-.144-1.244a11.939,11.939,0,0,1,1.366-.083l.219,0-.019,1.252-.2,0A10.681,10.681,0,0,0,420.724,216.664Zm-40.723-.1-1.133-.53a6.966,6.966,0,0,1,.874-1.4l.977.784A5.7,5.7,0,0,0,380,216.566Zm10.221-.1-.121-1.246c.251-.024.509-.04.772-.047s.547,0,.828.013l-.069,1.25c-.243-.014-.483-.018-.722-.011S390.446,216.444,390.222,216.466Zm12.046-.646c-.413-.24-.845-.481-1.3-.717l.583-1.108c.467.245.915.495,1.342.743Zm-3.813-.869-1.049-.682c.266-.409.545-.831.842-1.265l.312.213.221-.531c.466.194.938.4,1.4.623l-.534,1.132q-.328-.155-.659-.3C398.805,214.414,398.627,214.686,398.455,214.951Zm-16.768-.508-.8-.964a9.721,9.721,0,0,1,1.323-.916l.627,1.083A8.366,8.366,0,0,0,381.687,214.443Zm15.237-1.134c-.469-.167-.939-.321-1.4-.456l.353-1.2c.481.142.974.3,1.465.478Zm-12.81-.285-.474-1.159a13.925,13.925,0,0,1,1.492-.51l.339,1.2A12.748,12.748,0,0,0,384.113,213.023Zm27.605-.074c-.146,0-.292-.005-.438-.015l.083-1.249a5.5,5.5,0,0,0,1.347-.079l.225,1.231A6.823,6.823,0,0,1,411.719,212.95Zm-2.09-.378a4.766,4.766,0,0,1-.905-.47q-.273-.183-.53-.37l.742-1.008q.232.171.482.337a3.5,3.5,0,0,0,.668.346Zm-9.491-.073-1-.745c.284-.383.6-.792.936-1.211l.976.783C400.719,211.732,400.413,212.128,400.137,212.5Zm-6.03-.016c-.481-.11-.964-.2-1.436-.275l.193-1.237c.5.078,1.012.176,1.521.292Zm20.409-.136-.516-1.14a3.979,3.979,0,0,0,1.082-.7l.862.908A5.16,5.16,0,0,1,414.516,212.347Zm-27.637-.109-.219-1.233c.5-.089,1.025-.157,1.549-.2l.108,1.247C387.829,212.092,387.346,212.155,386.879,212.238Zm4.346-.2c-.139-.011-.277-.02-.416-.028-.328-.018-.654-.026-.979-.026h-.062v-1.252h.062q.52,0,1.046.028.222.012.444.029Zm15.754-1.326a10.838,10.838,0,0,1-1.067-1.186l.989-.766a9.61,9.61,0,0,0,.945,1.048Zm-4.983-.527-.946-.82c.334-.385.678-.768,1.027-1.138l.911.858C402.65,209.444,402.317,209.814,401.995,210.187Zm14.882-.36-1.218-.291a2.608,2.608,0,0,0,.07-.609,2.807,2.807,0,0,0-.066-.6l1.222-.271a4.039,4.039,0,0,1,.1.875A3.874,3.874,0,0,1,416.877,209.827Zm-11.844-1.632c-.131-.234-.255-.478-.371-.728q-.309.265-.638.577l-.861-.908c.414-.391.811-.737,1.181-1.028l.393.5.788-.307a10.621,10.621,0,0,0,.6,1.285Zm10.111-.992a4.175,4.175,0,0,0-.94-.905l.729-1.018a5.467,5.467,0,0,1,1.217,1.179Zm-8.859-.886-.6-1.1a10.345,10.345,0,0,1,1.46-.658l.425,1.177A9.143,9.143,0,0,0,406.285,206.317Zm6.735-.672a6.136,6.136,0,0,0-1.316-.358l.2-1.236a7.415,7.415,0,0,1,1.584.433Zm-4.092-.283-.242-1.228a9.837,9.837,0,0,1,1.6-.183l.038,1.251A8.572,8.572,0,0,0,408.927,205.362Zm-5.056-.1c-.128-.478-.242-.99-.337-1.521l1.232-.222c.089.5.195.974.314,1.417Zm-.562-3.048c-.056-.478-.1-.992-.144-1.526l1.249-.091c.038.516.084,1.011.138,1.471Zm-.231-3.049q-.031-.736-.046-1.519l1.252-.025q.015.769.045,1.491Z" transform="translate(-378.238 -197.62)" fill="#3e4354"/>
          </g>
          <g id="Group_9328" data-name="Group 9328" transform="translate(24.772)">
            <path id="Path_13822" data-name="Path 13822" d="M427.721,193.677l0-.755h1.252l0,.747Z" transform="translate(-427.719 -192.923)" fill="#3e4354"/>
          </g>
        </g>
        <path id="Path_13823" data-name="Path 13823" d="M368.629,165.679a3.5,3.5,0,1,1,3.5-3.5A3.5,3.5,0,0,1,368.629,165.679Zm0-5.74a2.244,2.244,0,1,0,2.244,2.244A2.246,2.246,0,0,0,368.629,159.94Z" transform="translate(-357.615 -121.535)" fill="#ffcf00"/>
        <path id="Path_13824" data-name="Path 13824" d="M367.993,96.561a2.843,2.843,0,1,1,2.843-2.843A2.846,2.846,0,0,1,367.993,96.561Zm0-4.434a1.591,1.591,0,1,0,1.592,1.591A1.593,1.593,0,0,0,367.993,92.128Z" transform="translate(-357.623 -87.673)" fill="#91b0c9"/>
        <path id="Path_13825" data-name="Path 13825" d="M473.19,178.657a2.023,2.023,0,1,1,2.023-2.023A2.025,2.025,0,0,1,473.19,178.657Zm0-2.794a.771.771,0,1,0,.771.771A.772.772,0,0,0,473.19,175.863Z" transform="translate(-410.564 -129.487)" fill="#ffcf00"/>
        <g id="Group_9330" data-name="Group 9330" transform="translate(71.493 23.41)">
          <rect id="Rectangle_19994" data-name="Rectangle 19994" width="1.251" height="4.789" transform="translate(0 0.885) rotate(-44.998)" fill="#b3cfe0"/>
        </g>
        <g id="Group_9331" data-name="Group 9331" transform="translate(22.731 49.369)">
          <rect id="Rectangle_19995" data-name="Rectangle 19995" width="4.789" height="1.251" transform="matrix(0.707, -0.707, 0.707, 0.707, 0, 3.386)" fill="#91b0c9"/>
        </g>
        <g id="Group_9332" data-name="Group 9332" transform="translate(0 21.717)">
          <rect id="Rectangle_19996" data-name="Rectangle 19996" width="4.789" height="1.251" transform="translate(0 3.386) rotate(-45)" fill="#b3cfe0"/>
        </g>
        <g id="Group_9333" data-name="Group 9333" transform="translate(55.782)">
          <rect id="Rectangle_19997" data-name="Rectangle 19997" width="4.789" height="1.251" transform="translate(0 3.387) rotate(-45)" fill="#ffcf00"/>
        </g>
      </g>
    </g>
  </g>
</svg>
