<svg xmlns="http://www.w3.org/2000/svg" xmlns:xlink="http://www.w3.org/1999/xlink" width="32" height="32" viewBox="0 0 32 32">
  <defs>
    <clipPath id="clip-path">
      <rect id="Rectangle_19467" data-name="Rectangle 19467" width="32" height="32" transform="translate(158 48)" fill="#fff" stroke="#707070" stroke-width="1"/>
    </clipPath>
  </defs>
  <g id="Mask_Group_556" data-name="Mask Group 556" transform="translate(-158 -48)" clip-path="url(#clip-path)">
    <g id="hour-glass" transform="translate(158 48)">
      <path id="Path_12942" data-name="Path 12942" d="M25.829,2.743h.914a.914.914,0,0,0,.914-.914V.914A.914.914,0,0,0,26.743,0H5.257a.914.914,0,0,0-.914.914v.914a.914.914,0,0,0,.914.914h.914c0,8.137,6.486,8.454,6.857,13.257-.371,4.8-6.857,5.12-6.857,13.257H5.257a.914.914,0,0,0-.914.914v.914A.914.914,0,0,0,5.257,32H26.743a.914.914,0,0,0,.914-.914v-.914a.914.914,0,0,0-.914-.914h-.914c0-8.137-6.486-8.454-6.857-13.257C19.342,11.2,25.829,10.88,25.829,2.743ZM23.057,28.5a.457.457,0,0,1-.377.716H9.248a.458.458,0,0,1-.395-.691,25.538,25.538,0,0,1,6.84-7.376.468.468,0,0,1,.592.029A43.34,43.34,0,0,1,23.057,28.5Zm-7.093-14.73L11.089,8.91a14.322,14.322,0,0,0,4.443,1c1.993,0,3.7-1.412,5.191-1.412S15.964,13.768,15.964,13.768Z" fill="#fff"/>
    </g>
  </g>
</svg>
