<svg id="Group_7619" data-name="Group 7619" xmlns="http://www.w3.org/2000/svg" width="72.064" height="69.629" viewBox="0 0 72.064 69.629">
  <g id="Group_7614" data-name="Group 7614" transform="translate(3.881)">
    <g id="Group_7590" data-name="Group 7590" transform="translate(13.282 16.125)">
      <g id="Group_7589" data-name="Group 7589">
        <path id="Path_12009" data-name="Path 12009" d="M1263.828,523.735c-.084-.158-.176-.311-.25-.474a22.549,22.549,0,0,0,3.021,4.408,24.891,24.891,0,0,1-1.736-2.474c-.521-.884-1.012-1.789-1.431-2.7a54.019,54.019,0,0,1-1.944-5.044,2.229,2.229,0,0,0,.077-.8c-.007-.2,0-.425.006-.661s0-.483.01-.727.025-.485.033-.71.038-.432.049-.611a5.748,5.748,0,0,0,.033-.62q.021-.285.042-.571l.023-.288.045-.284.093-.573c.035-.193.088-.391.132-.587-.065.27-.137.541-.174.8s-.1.523-.123.788c.022-.265.083-.523.123-.788s.108-.532.174-.8a18.36,18.36,0,0,1,3.372-7.123,17.206,17.206,0,0,1,6.541-5.083,19.978,19.978,0,0,1,3.02-1.08c.625-.173,1.3-.314,2.006-.435s1.436-.2,2.171-.24c.367-.025.736-.03,1.1-.04s.729,0,1.088.018a16.563,16.563,0,0,1,2.041.189c.32.036.624.107.918.167l.43.089c.138.035.272.074.4.109.26.075.509.132.733.21l.618.216c.22.069.429.164.642.252s.428.169.636.273c-.347-.167-.528-.232-.7-.312l-.287-.125c-.111-.047-.249-.091-.43-.158l.349.1c.115.034.226.078.339.116l.666.233.638.269c.105.045.212.086.314.134l.3.151c.2.1.4.2.6.3l.573.331c.094.056.191.108.283.166l.272.181.54.361a8.441,8.441,0,0,0-.8-.733c.24.172.472.355.708.531a5.124,5.124,0,0,1,.65.422c.122.089.255.18.383.284l.385.325c.128.112.262.218.383.333l.35.338.32.305.259.269c-.086-.051-.016.057.125.234l.253.309.277.366-.118-.216a19.345,19.345,0,0,1,2,3.041,18.056,18.056,0,0,1,1.319,3.2,4.159,4.159,0,0,1,.137.625c.089.32.168.642.253.964s.133.651.2.977c-.089-.14.128,1.647-.034.711a18.449,18.449,0,0,1,.108,4.409,18.649,18.649,0,0,1-.892,3.753l-.158.458-.2.44c-.14.306-.291.615-.423.962a5.012,5.012,0,0,0-.285,1.087c-.013.092-.026.183-.034.274a3.047,3.047,0,0,0-.02.361,1.066,1.066,0,0,0,.263.673l.1.132.087.107.174.206q.174.2.351.391l.706.752c.47.5.939.987,1.377,1.492a9.652,9.652,0,0,1,.61.767,2.165,2.165,0,0,1,.192.314.309.309,0,0,1,.018.309.647.647,0,0,1-.074.146l-.044.071a.494.494,0,0,1-.055.078,4.011,4.011,0,0,1-.306.354,8.154,8.154,0,0,1-.718.661l.12-.057c-.706.6-1.426,1.126-2.2,1.665-.387.271-.791.536-1.214.836l-.642.456c-.223.151-.455.3-.7.458-.654.5-1.477,1.066-2.19,1.572a12.463,12.463,0,0,0-1.543,1.207c-.788.526-1.322.919-1.836,1.326s-1.018.818-1.7,1.431c.208-.12-.119.183-.386.465s-.508.537-.151.241c.243-.18.421-.323.569-.443s.269-.214.382-.309.224-.183.36-.283.294-.216.516-.349l-.042,0c1.95-1.4,4.086-2.57,6.19-3.9.527-.329,1.05-.677,1.57-1.034.461-.313,1-.632,1.53-.96s1.064-.67,1.591-1.045c.263-.188.526-.386.785-.6.13-.108.258-.222.387-.335.127-.128.255-.241.38-.382.083-.1.157-.185.246-.3a4.088,4.088,0,0,0,.281-.474c.034-.084.066-.169.1-.255l.042-.129.019-.064a.488.488,0,0,1,0-.068,2.025,2.025,0,0,0-.011-.271,2.221,2.221,0,0,0-.066-.265c-.036-.086-.063-.174-.107-.257s-.085-.167-.131-.249l-.115-.183-.1-.151q-.209-.294-.424-.555c-.573-.7-1.173-1.338-1.759-1.98-.292-.32-.584-.639-.846-.952-.065-.078-.127-.154-.184-.228l-.049-.067-.02-.031a.088.088,0,0,1-.018-.069l.015-.135a3.947,3.947,0,0,1,.278-1.052c.072-.176.159-.362.249-.555l.281-.605a3.228,3.228,0,0,0,.135-.352l.123-.352c.077-.235.174-.471.233-.707.131-.473.276-.945.368-1.431a19.194,19.194,0,0,0,.41-2.912,19.569,19.569,0,0,0-.449-5.413c-.1-.38-.165-.711-.223-1.031l-.208-.949a20.522,20.522,0,0,0-2.128-4.529c-.226-.382-.493-.741-.749-1.107-.124-.186-.271-.355-.408-.532s-.274-.353-.42-.522l-.444-.5-.221-.247-.234-.234-.465-.462c-.156-.151-.323-.289-.482-.432l.123.115-.493-.443-.486-.4c-.312-.27-.633-.5-.951-.739a15.2,15.2,0,0,0-2.1-1.3,2.794,2.794,0,0,1-.379-.14,3.5,3.5,0,0,0-.481-.249c-.07-.033-.146-.07-.23-.106l-.274-.106-.648-.246a18.674,18.674,0,0,0-3.551-.826,21.658,21.658,0,0,0-3.671-.128c-1.03.051-1.766.138-1.921.138l-.558.08a26.468,26.468,0,0,0-2.75.469,23.076,23.076,0,0,0-2.663.795,19.5,19.5,0,0,0-2.452,1.118,16.933,16.933,0,0,0-2.118,1.385c-.259.238-.534.49-.79.741s-.494.5-.68.729a9.007,9.007,0,0,0-.923,1l-.243.207-.215.208c-.137.135-.263.263-.376.382a7.378,7.378,0,0,0-.488.594c-.213.291-.2.339.107.006a22.248,22.248,0,0,0-2.1,3.534c-.126.264-.222.541-.334.81s-.208.546-.3.824c-.079.237-.155.416-.22.566a3.151,3.151,0,0,1-.19.381c-.191.611-.25.828-.326,1.049a8.055,8.055,0,0,0-.325,1.111,3.192,3.192,0,0,0-.148.669l-.061.568-.03.313c-.01.106-.007.214-.011.322-.043.865.041,1.726.024,1.918-.007-.073-.009-.147-.014-.221.018.782.036,1.435.091,2.083.015.326.066.645.114.98.026.167.048.34.084.515s.081.353.128.54c.112.523.285,1.033.441,1.553.089.256.186.511.28.767.048.128.093.257.144.384l.163.377a21.115,21.115,0,0,0,1.515,2.918l.44.689c.153.225.314.443.469.663l.235.329.25.315.5.623c.355.392.685.8,1.055,1.156.181.182.356.367.538.542l.554.506c.086-.036-.665-.568-.615-.686a23.17,23.17,0,0,0,2.69,2.251,16.057,16.057,0,0,0,3.134,1.685c.2.082.421.177.615.263l.265.119.191.074a8.629,8.629,0,0,0,.993.23l.06.087a6.779,6.779,0,0,1,1,.2,7.14,7.14,0,0,0,.975.136,4.185,4.185,0,0,1,.608-.009c.013.076.859.016.82.07l.008-.007c.168-.01.288-.023.495-.024.079-.015.326-.042.652-.1l1.127-.266.293-.1.144-.047a.619.619,0,0,0,.1-.037,1.149,1.149,0,0,1,.1-.068c.02-.018.029,0,.043,0a.264.264,0,0,1,.039.019l.074.05.031.053.092.095.087.083a1.078,1.078,0,0,0,.123.1c.057.037.059.013-.018-.081l.345.381-.044-.04.344.378c.059.074.1.177-.02.094a6.8,6.8,0,0,1,.638.644c-.258-.312-.544-.663-.829-1.021l-.423-.537-.1-.133-.051-.066c-.016-.021-.019-.027-.029-.042l-.1-.156a1.334,1.334,0,0,1,.123.12l.213.24c.162.185.325.375.456.51.265.364.859,1.07,1.327,1.617a2.08,2.08,0,0,1,.47.417c.078.168.282.291.458.536a9.019,9.019,0,0,1-.72-.731,6.01,6.01,0,0,0,.727.857c.105.077.56.575.879.859-.181-.081.215.273.375.476.209.206.365.314.294.215.06,0-.147-.2-.319-.383s-.312-.336-.141-.224a5.5,5.5,0,0,0,.7.688c.03-.028-.141-.165.039-.06a4.257,4.257,0,0,0,.406.331c.069.051.133.1.189.145a2.068,2.068,0,0,1,.183.139,1.3,1.3,0,0,1-.157-.094c-.064-.042-.1-.081-.148-.116.094.075,0,.026-.18-.088s-.428-.29-.661-.469c-.474-.355-.91-.711-.7-.519-.038-.065.445.333.943.71l.374.272c.131.087.238.161.346.226s.215.117.268.143.053.018.024,0c-.146-.1-.082-.085-.022-.068.03.009.06.016.061.008s-.018-.026-.091-.076l-.18-.087c-.062-.03-.1-.056-.153-.085-.079-.067-.143-.128-.193-.179a.9.9,0,0,1-.1-.127c-.039-.065-.026-.087.034-.053.121.108.084.1-.034.031s-.317-.2-.506-.335c-.385-.272-.758-.565-.551-.389l-.144-.168a6.778,6.778,0,0,1,.79.748c.025-.028.274.174.485.337l.074.068a4.326,4.326,0,0,0,.384.259c.12.068.179.092.1.009a2.266,2.266,0,0,1-.253-.174c-.055-.047-.1-.086-.129-.117-.062-.063-.08-.1-.068-.112s.166.016.305.058.309.077.33.043-.086-.122-.37-.365c.45.467-.243-.053-.718-.5a4.193,4.193,0,0,0-.526-.644c-.292-.283-.192-.146-.263-.185-.147-.173-.435-.494-.362-.486-.262-.187-.327-.388-.6-.648-.25-.224,0,.034-.185-.12-.342-.368-.818-.885-1.081-1.185-.074-.143-.336-.541-.053-.336.511.562-.279-.136.271.433-.159-.317.5.492.653.544a7.751,7.751,0,0,0-.788-.891l.049.072a11.265,11.265,0,0,1-1.028-1.141c.091.047-.01-.1.184.1l-.346-.386c-.055-.044-.113-.089-.012.033a4.1,4.1,0,0,1-.513-.571.217.217,0,0,0-.03-.039c-.009-.009-.019-.025-.033-.032l-.061.016-.362.1-.457.137a4.717,4.717,0,0,1-.474.135l-.884.2a2.384,2.384,0,0,1-.37.048,6.736,6.736,0,0,0-.824.038,4.1,4.1,0,0,0,.53-.042l.547-.058c.2-.031.4-.078.607-.117s.4-.076.583-.121l.465-.138c.295-.086.45-.132.309-.094-.045.006-.154.032-.31.073l-.5.139-.671.134-.371.074c-.126.027-.256.032-.385.049l-.76.084c-.245.008-.475.01-.676.013s-.375.009-.5-.007a1.325,1.325,0,0,1-.242-.038c-.274-.025-.606-.05-.546-.006-.462-.065.148-.058-.176-.126-.008,0,.023.025-.08,0l-.3-.105c-.179-.018-.378-.048-.586-.084s-.421-.109-.638-.164c-.436-.1-.858-.266-1.228-.354l.38.053c.075.012.158.026.25.046s.2.044.316.063l.076.041c.069.007.455.1.453.057-.217-.071-.419-.13-.627-.183s-.411-.128-.645-.189c-.08-.039-.174-.083-.235-.116,0,.005.005.012,0,.016-.14-.074-.122-.072-.063-.067a.174.174,0,0,1,.034,0,5.511,5.511,0,0,0-1.007-.447c-.236-.1-.483-.222-.72-.336a3.725,3.725,0,0,1-.621-.364c-.217-.115-.029,0-.3-.138a21.432,21.432,0,0,1-1.819-1.453c-.128-.068-.194-.109-.2-.095s.037.083.157.208c-.177-.14-.331-.3-.5-.456.27.158.056-.076-.15-.3s-.389-.463-.112-.268a5.808,5.808,0,0,0-.67-.7c-.051,0-.131-.009-.442-.364a9.539,9.539,0,0,1-.622-.839c-.047-.126.089.019.1-.02a2.8,2.8,0,0,1-.459-.622,3.522,3.522,0,0,0-.379-.635c-.154-.192-.348-.5-.523-.753a1.878,1.878,0,0,0-.358-.447C1263.7,523.732,1263.744,523.707,1263.828,523.735Z" transform="translate(-1260.051 -495.527)" fill="#3c3c3b"/>
      </g>
    </g>
    <g id="Group_7592" data-name="Group 7592" transform="translate(25.967 31.294)">
      <g id="Group_7591" data-name="Group 7591">
        <path id="Path_12010" data-name="Path 12010" d="M1330.217,588.4a2.965,2.965,0,0,1-.267-.186,6.577,6.577,0,0,0,1.564.765c.591.216,1.219.4,1.853.582-.678-.241-1.375-.494-2.023-.782a8.107,8.107,0,0,1-.9-.467,2.862,2.862,0,0,1-.645-.512,1.212,1.212,0,0,1-.094-.12c-.028-.038-.04-.075-.066-.109-.008-.036-.03-.068-.039-.1s-.027-.065-.023-.105a1.418,1.418,0,0,1,.068-.585,10.409,10.409,0,0,1,.694-1.456,1.339,1.339,0,0,0,.492-.223c.225-.134.505-.285.776-.413a4.713,4.713,0,0,1,.731-.253,1.57,1.57,0,0,0,.325-.083,1.78,1.78,0,0,1,1.18.092,1.854,1.854,0,0,0-.814-.163,1.854,1.854,0,0,1,.814.163l.229.125c.078.043.151.11.228.164a1.512,1.512,0,0,1,.353.339.853.853,0,0,1,.143.772,1.335,1.335,0,0,1-.566.75.759.759,0,0,1-.364.123.312.312,0,0,1-.232-.08.894.894,0,0,1-.217-.341,5.062,5.062,0,0,1-.165-.627,4.358,4.358,0,0,1-.092-1.325,2.128,2.128,0,0,1,.389-1.082,2.032,2.032,0,0,1,.906-.665,3.759,3.759,0,0,1,1.143-.243,5.419,5.419,0,0,1,1.6.147,4.437,4.437,0,0,1,.813.281,2.747,2.747,0,0,1,.346.193c.052.034.1.068.136.1a.176.176,0,0,1,.027.029.1.1,0,0,1,.012.123.15.15,0,0,1-.043.042l-.08.054c-.039.029-.1.061-.149.092l.265.14a.2.2,0,0,1,.017.074s0,0,0,0,0,.015,0-.006a.159.159,0,0,1,.006-.034l.005-.014.009-.032a.381.381,0,0,1,.025-.062l.016-.027.021-.045a.612.612,0,0,1,.046-.075l0,0c0-.008-.008-.006-.017-.017a.225.225,0,0,0-.029-.033l-.034-.049a2.132,2.132,0,0,1-.258-.594,3.487,3.487,0,0,1-.112-1.209,2.711,2.711,0,0,1,.159-.743,2.378,2.378,0,0,0-.121.394,3.029,3.029,0,0,0-.062.44,2.365,2.365,0,0,1,.326-1.437,1.277,1.277,0,0,1,.444-.408,1.194,1.194,0,0,1,.573-.157c-.073-.021-.116-.038-.187-.055-.035-.005-.077-.01-.134-.015a1.12,1.12,0,0,0-.217.025,1.284,1.284,0,0,1,.439-.061,1.013,1.013,0,0,1,.416-.033,2.09,2.09,0,0,1,.559.152,4.363,4.363,0,0,1,.987.613c-.133-.039.2.272.435.591l-.067-.147a3.984,3.984,0,0,1,.325.46,1.626,1.626,0,0,1,.191.426c0,.012,0,.015,0,.022l0,.008s0,0,0,0l.023,0h.047a.571.571,0,0,1,.1.012c.034.008.042,0,.065.009a.257.257,0,0,1,.059.021c.023.013.016.005.027.011a.071.071,0,0,1,.02.015.074.074,0,0,1-.012-.013l0-.008v0h0c-.291-.557-.081-.154-.146-.278l-.025.011a.686.686,0,0,1-.091.04.818.818,0,0,1-.089.023c-.011.111-.042.1.03.022.008,0-.021-.025-.04-.078a.939.939,0,0,1-.053-.2,2.282,2.282,0,0,1-.012-.523,4.017,4.017,0,0,1,.236-1.05,1.261,1.261,0,0,1,.2-.366,2.888,2.888,0,0,1,.674-1c-.007.057.18-.075.318-.116a.375.375,0,0,1,.14-.031c.016,0-.009.016-.1.066a.727.727,0,0,1,.453-.112,1.265,1.265,0,0,1,.533.187,3.254,3.254,0,0,1,.54.409c.1.081.157.156.239.231s.141.158.2.243a2.65,2.65,0,0,1,.334,1.114,5.062,5.062,0,0,1-.077,1.293,15.7,15.7,0,0,1-.794,2.692c-.333.906-.712,1.81-1.01,2.777-.075.241-.139.49-.193.746a3.457,3.457,0,0,0-.079.819,5.062,5.062,0,0,0,.357,1.523l0-.1a11.439,11.439,0,0,0,.924,1.812c.352.584.733,1.187,1.145,1.905a22.209,22.209,0,0,0,2.093,2.6c.385.56.669.944.949,1.328a15.887,15.887,0,0,1,.909,1.356c-.048-.175.137.1.288.365l.105.184c.029.051.053.092.07.115.034.046.038.022-.014-.134a4.257,4.257,0,0,0-.373-.871,7.819,7.819,0,0,1-.374-.725l-.012.034c-.886-1.548-1.853-3.006-2.739-4.5-.444-.744-.87-1.494-1.243-2.253-.188-.379-.357-.761-.5-1.141a5.863,5.863,0,0,1-.317-1.112l-.034-.173-.017-.164a.936.936,0,0,1-.006-.15.649.649,0,0,1,.008-.152,4.428,4.428,0,0,1,.17-.754c.163-.539.388-1.1.621-1.676a23.946,23.946,0,0,0,1.28-3.637,8.034,8.034,0,0,0,.175-1.093,5.271,5.271,0,0,0-.013-1.179,3.936,3.936,0,0,0-.343-1.21,3.713,3.713,0,0,0-.745-1.025,4.242,4.242,0,0,0-.955-.716,2.5,2.5,0,0,0-1.292-.311,2.279,2.279,0,0,0-1.226.445,3.271,3.271,0,0,0-.758.795,8.677,8.677,0,0,0-.794,1.4,5.891,5.891,0,0,0-.2.908,4.013,4.013,0,0,0-.019,1.046,2.218,2.218,0,0,0,.17.632,1.514,1.514,0,0,0,.23.361,1.23,1.23,0,0,0,.927.431,1.285,1.285,0,0,0,.228-.016,1.373,1.373,0,0,0,.2-.043,1.914,1.914,0,0,0,.331-.128l.037-.018.019-.009.009,0,.024-.014a1.265,1.265,0,0,0,.184-.135.789.789,0,0,0,.144-.172.8.8,0,0,0,.1-.187,1.488,1.488,0,0,0,.052-.177.957.957,0,0,0,.017-.147,1.321,1.321,0,0,0,0-.137l-.011-.111a1.235,1.235,0,0,0-.037-.2l-.024-.091-.027-.079a2.906,2.906,0,0,0-.259-.546,5.083,5.083,0,0,0-.649-.856,5.173,5.173,0,0,0-1.685-1.217l.122.062a3.414,3.414,0,0,0-2.118-.342,2.8,2.8,0,0,0-1.823,1.237c.012,0-.015.057-.052.122s-.071.148-.094.2a.649.649,0,0,0-.107.184,2.938,2.938,0,0,0-.166.44,4.448,4.448,0,0,0-.157,1.45,5.017,5.017,0,0,0,.425,1.819,2.891,2.891,0,0,0,.622.909,1.561,1.561,0,0,0,.588.36,1.275,1.275,0,0,0,.781,0l.08-.027.041-.027a3.514,3.514,0,0,0,.479-.361,2,2,0,0,0,.418-.525,1.288,1.288,0,0,0,.075-1.1,1.872,1.872,0,0,0-.476-.668c-.08-.073-.15-.132-.192-.163s-.079-.064-.1-.08a4.294,4.294,0,0,0-.4-.226,6.4,6.4,0,0,0-2.031-.661,6.317,6.317,0,0,0-2.136.008,3.906,3.906,0,0,0-2.006.973,3.22,3.22,0,0,0-.673.922,3.543,3.543,0,0,0-.313,1.019,4.712,4.712,0,0,0,.178,1.639,1.453,1.453,0,0,0,.093.471c.043.133.1.265.163.516a2.1,2.1,0,0,0,.388.987,1.571,1.571,0,0,0,.676.527c.2.075.312.077.31.063s-.028-.025-.085-.05a1.943,1.943,0,0,1-.251-.121,1.755,1.755,0,0,0,1.125.083,2.38,2.38,0,0,0,.882-.44,2.644,2.644,0,0,0,.958-1.49,2.344,2.344,0,0,0,.009-.824,2.266,2.266,0,0,0-.292-.765c-.122-.194-.228-.326-.311-.446s-.151-.206-.21-.294a9,9,0,0,0-.722-.539,2.767,2.767,0,0,0-.3-.175,2.949,2.949,0,0,0-.594-.231.9.9,0,0,0-.2-.053,1.842,1.842,0,0,0-.373-.041,2.705,2.705,0,0,0-.481.023l-.259.037-.256.066a4.456,4.456,0,0,0-.9.361l-.475.275a1.586,1.586,0,0,1,.142-.1,8.221,8.221,0,0,0-1.327.9,5.346,5.346,0,0,0-.546.521,4.833,4.833,0,0,0-.512.647,4.088,4.088,0,0,0-.574,1.234,2.153,2.153,0,0,0-.069.379l-.017.2a2.03,2.03,0,0,0,.005.207c0,.07.007.139.016.208l.043.208a2.159,2.159,0,0,0,.134.4,2.935,2.935,0,0,0,.976,1.163,5.973,5.973,0,0,0,1.136.644,16.131,16.131,0,0,0,2.225.747c.718.2,1.41.364,2.044.547.049-.073-.57-.136-.575-.248.191.052.382.106.569.162s.38.115.547.185l.517.2c.172.068.332.167.5.248a9.744,9.744,0,0,1,.965.571c.161.094.307.221.463.329s.311.216.459.339c.2.191.44.434.521.533.351.344.243.163.506.411l-.014.088a2.165,2.165,0,0,1,.269.224c.072.078.133.153.192.229a3,3,0,0,0,.419.466c.042,0,.169.129.29.261-.051.061.381.4.31.429h.008a1.962,1.962,0,0,1,.206.242c.076.071.482.423.875.8s.788.754.867.828l.052.085c.187.227.312.288.215.146l.224.286-.03-.03.221.287c.036.057.054.139-.037.08a3.265,3.265,0,0,1,.42.486c-.315-.479-.7-1.079-1.016-1.59.175.174.422.542.593.747.156.282.527.821.813,1.247.073.085.189.092.316.317.029.135.18.226.276.42a4.952,4.952,0,0,1-.462-.565c-.031.077.333.5.438.67.074.058.351.449.556.672-.136-.06.117.218.2.381.12.165.227.248.193.168.1,0-.472-.661-.234-.488a3.2,3.2,0,0,0,.417.549c.033-.024-.069-.133.049-.05a3.881,3.881,0,0,1,.4.489,1.185,1.185,0,0,1-.138-.163c.1.122-.222-.162-.533-.441s-.6-.555-.465-.405a5.013,5.013,0,0,1,.62.556,5.777,5.777,0,0,0,.558.507c-.105-.16.143.057.029-.1l-.176-.137c-.159-.217-.173-.348-.092-.292.14.175-.116-.026-.374-.24s-.507-.441-.371-.3l-.082-.134a2.952,2.952,0,0,1,.484.593c.032-.024.183.137.31.268l.036.054c.135.133.3.342.258.213-.7-.847.774.3.117-.542.214.4-.166-.057-.47-.413a1.906,1.906,0,0,0-.29-.521c-.186-.223-.132-.113-.184-.143-.086-.138-.261-.391-.2-.388-.183-.143-.195-.306-.377-.508-.168-.172-.009.028-.135-.089l-.687-.917c-.034-.114-.181-.426.024-.276.33.432-.216-.094.146.341-.071-.254.33.377.453.411a3.711,3.711,0,0,0-.5-.69l.027.056a6.413,6.413,0,0,1-.669-.874c.071.031.011-.084.143.065l-.229-.293c-.038-.03-.078-.06-.017.028a1.613,1.613,0,0,1-.3-.383,8.233,8.233,0,0,0-.685-.725c-.342-.342-.689-.66-.658-.647-.177-.2-.177-.288-.384-.451-.012,0,.1.109.263.277l.589.6c.413.434.8.841.681.708a15.3,15.3,0,0,0-1.109-1.188c-.26-.271-.537-.524-.741-.729a3.94,3.94,0,0,1-.369-.391c-.143-.138-.319-.3-.312-.24-.225-.248.122.019-.023-.174-.008,0,0,.027-.053-.027l-.131-.2a8.748,8.748,0,0,1-.691-.592,5.394,5.394,0,0,0-.742-.557,3.515,3.515,0,0,1,.635.317l.035.054c.049.02.271.208.291.174a3.786,3.786,0,0,0-.768-.612c-.045-.049-.1-.105-.132-.146,0,0,0,.012,0,.015-.077-.091-.065-.087-.023-.072a.1.1,0,0,1,.024.009,2.279,2.279,0,0,0-.667-.488c-.161-.105-.348-.2-.522-.289a4.435,4.435,0,0,1-.463-.278c-.168-.075-.023.006-.239-.075-.281-.151-.513-.3-.763-.411s-.514-.214-.829-.333c-.215-.012-.235,0-.007.12l-.471-.15c.468-.007-.86-.356-.349-.351a3.136,3.136,0,0,0-.687-.193c-.034.024-.089.063-.421-.024-.449-.164-.343-.119-.709-.264-.077-.065.065-.042.058-.078-.589-.117-.476-.232-1-.4-.164-.051-.4-.134-.6-.207s-.351-.128-.377-.1C1330.112,588.481,1330.155,588.426,1330.217,588.4Z" transform="translate(-1327.852 -576.604)" fill="#3c3c3b"/>
      </g>
    </g>
    <g id="Group_7594" data-name="Group 7594" transform="translate(39.572 50.954)">
      <g id="Group_7593" data-name="Group 7593">
        <path id="Path_12011" data-name="Path 12011" d="M1403.713,694.937l.119-.036a3.044,3.044,0,0,1-1.294.222,2.756,2.756,0,0,0,1.536-.091,1.444,1.444,0,0,0,.917-.843c.21.211.959-.134.928-.2.1-.138.214-.268.327-.395-.08.084-.158.169-.236.257.078-.088.156-.174.236-.257a6.683,6.683,0,0,1,1.182-1.048c.452-.313.938-.606,1.431-.907.546-.335,1.958-1.344,2.52-1.695l.241-.157-.28.16c.266-.308.5-.593.742-.853a.679.679,0,0,0-.255.034l.155-.092c.052-.193.344-.429.448-.58.01.071.125-.009.224-.081h-.063c.373-.28.75-.672,1.066-.943a.2.2,0,0,1,.125-.052l.266-.3c.032.081.294-.172.188,0,.156-.274.419-.44.558-.711a10.72,10.72,0,0,0,1.974-2.528l-.04,0a3.568,3.568,0,0,0,.2-.535,4.047,4.047,0,0,1,.224-.586,1.518,1.518,0,0,0-.055-.547c-.059-.158-.167-.259-.278-.253a.464.464,0,0,0-.294-.187,2.271,2.271,0,0,0-.324-.038c.024.048-.051.059-.112.068a.368.368,0,0,0-.081.018c-.017.009-.014.023.026.048.141.155.164.055.2.175l.012-.026a.334.334,0,0,1,.125.235.379.379,0,0,1-.069.22c-.012.009-.059.109-.1.18s-.1.158-.15.239c-.111.164-.24.331-.374.5a8.773,8.773,0,0,1-1.2,1.436l-1.374,1.526a.714.714,0,0,1-.333.182c-.389.4-.945.834-1.4,1.27a.248.248,0,0,1,.025-.017c-.248.224-.5.315-.741.531.016.018-.022.051-.033.076-.109-.049-1.363,1.378-1.5,1.394-.024.025-.049.05-.076.074-.579.381-1.281.634-1.746,1-.072.119-.162.241-.214.353-.113.023-.074.11-.184.174-.388,0-.493.195-.308.159-.209.188-.435.336-.618.485l-.228.24a.177.177,0,0,1-.193.06c-.169.166-.147.081-.358.207-.092-.028-.424.453-.5.469l.026-.032c-.24.142-.474.111-.7.232a8.6,8.6,0,0,1-.959.405,1.374,1.374,0,0,1-.761.068c-.019.078.085,0,.08.106a.6.6,0,0,1-.314-.168,2.263,2.263,0,0,1-.227-.288.334.334,0,0,1,0-.156c-.015-.085-.058-.02-.082-.077l.061-.042c-.087-.04.037-.115-.014-.174-.031.006-.043-.019-.045-.045.077-.02-.025-.074.049-.084h-.006c0-.014-.007-.024,0-.042a.753.753,0,0,1-.143-.154,1.361,1.361,0,0,1-.117-.2l.016-.013c.006-.047-.043-.083-.065-.058l.023-.059,0,.008.022-.058a.071.071,0,0,1,.076.021.1.1,0,0,1,.014-.107,3.337,3.337,0,0,0-.288.256c-.017-.052.042-.125.052-.174.064-.043.156-.133.228-.193.005-.019-.061-.076,0-.095.062.014.025-.046.086-.05a.19.19,0,0,1-.06.114c.066.031.094-.06.134-.073-.01-.028.059-.074.08-.124.035.063.059,0,.107.008a.032.032,0,0,0,0-.061c-.041-.064-.133.063-.153-.027.036.017.08-.04.105-.07-.026-.032-.04,0-.046-.053.042-.02.05-.089.1-.072,0,.014-.019.02-.03.028.026-.015,0,.083-.009.18s-.005.18.006.149c-.021-.008-.015-.1,0-.192s.056-.182.039-.171c-.041.007-.021-.077-.061-.064l0,.067a.093.093,0,0,1-.117-.055c.04-.025.027.067.027.159s0,.17.007.132l-.032.007c0-.041.044-.112.094-.1-.027-.031-.006-.069.013-.1l.014,0c.016-.038.062-.063.011-.091-.083.07-.122-.031-.153-.141s-.056-.231-.169-.157c.144,0,.023.09-.049.176a.194.194,0,0,0-.172.032c-.044.059,0,.054,0,.079-.043.014-.1.065-.133.028.011.08-.088.05-.108.121s.022.01.022.061a2.818,2.818,0,0,0-.157.242c-.05.007-.158.063-.2-.024.066-.135.081.094.126-.052-.12.017.036-.132-.017-.193a.285.285,0,0,0-.135.2l.019-.011a.625.625,0,0,1-.122.288c-.029-.028-.065,0-.056-.057a.919.919,0,0,0-.033.1c.008.016.016.032.031,0a.156.156,0,0,1-.037.137.609.609,0,0,0,.036.291c.038.138.094.26.082.253.011.072-.041.1.007.164a3.271,3.271,0,0,0-.085-.335c-.037-.169-.05-.337-.05-.284a1,1,0,0,0,.066.466c.064.208.166.386.14.419.02.051.048.111.08.085.02.091-.079,0-.085.075.006,0,.015-.012.023.008l-.017.08c.113.109.168.331.327.4a.467.467,0,0,1-.239-.07l.007-.026c-.018-.006-.073-.072-.1-.051a.444.444,0,0,0,.065.131.531.531,0,0,0,.116.1c0,.022.01.046.01.065,0,0,.006-.007.01-.011,0,.042,0,.042-.021.041h-.011c-.027.062.061.128.16.2a1.326,1.326,0,0,1,.288.206c.057.018.016-.012.087.008a1.29,1.29,0,0,0,.209.179,1.2,1.2,0,0,0,.252.139c.079-.027.085-.044.023-.115a1.132,1.132,0,0,0,.146.05c-.082.049-.018.093.052.136s.14.075.048.133a.367.367,0,0,0,.245.032c.01-.032.025-.083.138-.086.161.039.12.019.254.048.036.038-.01.06,0,.092.2-.077.19.062.381.018.113-.04.333-.109.312-.182C1403.688,694.827,1403.707,694.876,1403.713,694.937Z" transform="translate(-1400.573 -681.689)" fill="#3c3c3b"/>
      </g>
    </g>
    <g id="Group_7596" data-name="Group 7596" transform="translate(42.041 53.781)">
      <g id="Group_7595" data-name="Group 7595">
        <path id="Path_12012" data-name="Path 12012" d="M1417.564,708.206l.084-.039a5.693,5.693,0,0,1-.841.4c.722-.086,1.541-.322,1.692-1.046.2.21.82-.043.793-.111.043-.06.087-.119.133-.177l.074-.089.056-.073-.19.218.19-.218a3.96,3.96,0,0,1,1.011-.807c.391-.234.818-.441,1.254-.655.481-.237,1.734-.992,2.235-1.252l.214-.117-.25.115c.235-.256.441-.5.652-.711a.58.58,0,0,0-.229,0l.138-.068c.042-.175.3-.361.386-.492.012.068.113.006.2-.051l-.057-.007c.328-.222.653-.55.926-.777a.16.16,0,0,1,.111-.039l.225-.262c.035.079.259-.138.172.01.124-.246.355-.383.457-.63a7.136,7.136,0,0,0,.853-1.067,4.3,4.3,0,0,0,.58-1.306l-.036.011a2.17,2.17,0,0,0,.03-.5,3.143,3.143,0,0,1,.026-.531,2.333,2.333,0,0,0-.19-.43.421.421,0,0,0-.271-.226c-.133-.243-.269-.287-.466-.456-.01.052-.071.023-.124,0s-.111-.053-.08.025c.019.2.1.138.1.3l.021-.02a1.36,1.36,0,0,1,.111.764,2.354,2.354,0,0,1-.278.783,3.785,3.785,0,0,1-.773,1.2c-.331.434-.738.9-1.06,1.279-.073.1-.183.1-.285.134-.319.325-.793.666-1.18,1.015a.166.166,0,0,1,.022-.013c-.213.177-.431.23-.642.4.015.019-.018.044-.027.066-.051-.031-.341.247-.64.529a3.973,3.973,0,0,1-.664.57c-.021.02-.042.04-.066.059-.51.276-1.13.412-1.54.694a3.172,3.172,0,0,0-.187.305c-.1.006-.065.094-.162.14-.348-.047-.433.118-.272.11-.173.144-.373.247-.538.362-.07.064-.138.129-.207.2a.149.149,0,0,1-.177.036.364.364,0,0,1-.153.1c-.02.006-.041.011-.07.022l-.05.021c-.015.007-.033.015-.055.027-.079-.038-.35.39-.414.4l.022-.028c-.207.119-.421.076-.62.192-.573.289-1.151.684-1.679.9.03.077.105-.071.159.024a2.723,2.723,0,0,1-.485.15l-.241.053c-.036.007-.085.021-.1.022s-.053.012-.057.01a.167.167,0,0,1-.042-.081c-.015-.028-.008.043-.021.036l0-.079c-.023.069,0-.087-.006-.053s-.016.038-.018.036c.037-.088-.01.006.03-.074l0,.006.006-.011a.514.514,0,0,1-.121.141.563.563,0,0,1-.172.093l.011-.016c-.009-.012-.074.022-.087.045a.231.231,0,0,1,0-.029h.007v-.028a.307.307,0,0,1,.087-.051c-.032.006-.049,0-.033-.021a.925.925,0,0,0-.183.28c-.042,0-.013-.077-.025-.1.051-.068.1-.148.145-.2,0-.005-.1.016-.055-.017.068-.025,0-.023.053-.048.031.012.013.03.007.049.08-.026.059-.051.084-.066-.023,0,.008-.031-.008-.048.07.009.05-.011.089-.015.01-.007-.015-.017-.041-.018-.073-.018-.06.042-.135.018.039,0,.034-.031.036-.047-.04-.009-.035.006-.069-.014.015-.017-.024-.055.021-.054.009.008,0,.014,0,.019.007-.013.057.046.113.078a.206.206,0,0,0,.105.038.228.228,0,0,1-.125-.055c-.047-.038-.083-.094-.087-.085-.025.011-.064-.039-.085-.024l.04.037a.14.14,0,0,1-.121,0c.012-.026.065.032.122.069s.11.059.092.046l-.023.01c-.025-.011-.037-.051.01-.056a.064.064,0,0,1-.057-.047l.009,0c-.014-.022,0-.044-.051-.05-.015.054-.11.016-.2-.042s-.182-.135-.228-.038c.114-.054.077.052.065.129a.206.206,0,0,0-.131.1c-.007.055.026.032.047.041-.029.029-.061.088-.109.086.052.036-.055.077-.042.13s.027-.009.052.017c-.019.07-.033.172-.044.235-.05.042-.135.168-.2.142,0-.129.1-.006.093-.127-.106.1-.027-.1-.1-.1a.252.252,0,0,0-.034.217l.012-.021a.658.658,0,0,1,.033.269c-.035,0-.046.05-.071.008a.622.622,0,0,0,.03.091c.014,0,.029.008.023-.021a.135.135,0,0,1,.054.11c-.013.016.094.1.224.119a1.84,1.84,0,0,0,.246.013c.061.008.049.063.128.032.011-.014-.154.012-.309-.017a1.32,1.32,0,0,1-.239-.089c0,.017.045.055.118.083a.735.735,0,0,0,.271.047c.2,0,.383-.066.392-.03.047-.008.1-.023.1-.06.072.006-.04.078.008.105,0-.006,0-.019.017-.02l.047.04c.132-.08.322-.052.439-.17a.472.472,0,0,1-.15.2l-.017-.016c-.012.015-.089.046-.087.085a.387.387,0,0,0,.261-.089c.019,0,.042.008.058.014a.088.088,0,0,1,0-.014c.037.013.035.018.027.036a.034.034,0,0,1,0,.01c.045.045.13,0,.211-.057a.483.483,0,0,1,.235-.118c.032-.031,0-.019.036-.059a2.212,2.212,0,0,0,.4-.065c.023-.064.018-.083-.055-.1l.109-.034c-.039.16.244.017.2.181a.184.184,0,0,0,.156-.061.087.087,0,0,1,.049-.118c.119-.013.088-.015.189-.022.039.027.016.057.035.085.1-.114.154.021.269-.051.069-.051.212-.137.18-.2C1417.518,708.1,1417.545,708.149,1417.564,708.206Z" transform="translate(-1413.769 -696.8)" fill="#3c3c3b"/>
      </g>
    </g>
    <g id="Group_7598" data-name="Group 7598" transform="translate(42.074 56.204)">
      <g id="Group_7597" data-name="Group 7597">
        <path id="Path_12013" data-name="Path 12013" d="M1417.889,721.262l.106-.018a3.433,3.433,0,0,1-1.1.117,2.774,2.774,0,0,0,1.3.047,1.229,1.229,0,0,0,.891-.661c.166.239.882.054.859-.019.109-.112.224-.215.338-.316-.08.066-.161.132-.241.2.08-.069.161-.136.241-.2a9.72,9.72,0,0,1,2.548-1.445l.511-.234c.212-.1.457-.215.7-.333.485-.237.969-.489,1.244-.613.079-.037.157-.076.235-.116l-.273.113c.27-.257.506-.5.744-.717a.643.643,0,0,0-.24,0l.15-.068c.057-.18.339-.367.44-.5.008.07.118.007.213-.051l-.06-.007a11.886,11.886,0,0,0,1.011-.81.188.188,0,0,1,.118-.042l.245-.277c.035.082.273-.156.179,0,.139-.257.381-.415.493-.675a6.151,6.151,0,0,0,.869-1.192,3.678,3.678,0,0,0,.466-1.471l-.035.018a1.458,1.458,0,0,0-.007-.267l-.045-.262c-.009-.087-.041-.175-.051-.266a1.377,1.377,0,0,1-.014-.141c-.008-.048-.015-.1-.018-.15-.144-.28-.377-.618-.576-.626-.02-.032-.038-.062-.057-.088s-.045-.047-.066-.068c-.043-.042-.084-.077-.126-.111-.077-.071-.176-.125-.286-.221-.007.056-.072.02-.128-.01s-.116-.06-.083.02c.031.218.113.159.139.333l.019-.021a2.44,2.44,0,0,1,.276.909,2.081,2.081,0,0,1-.127.864,3.086,3.086,0,0,1-.665,1.283,16.866,16.866,0,0,1-1.088,1.347c-.077.1-.19.106-.3.142-.34.337-.847.685-1.271,1.033l.024-.013c-.232.178-.462.227-.692.394.014.019-.022.044-.034.067-.051-.033-.372.243-.708.518a4.147,4.147,0,0,1-.742.549c-.024.019-.048.038-.075.057a14.9,14.9,0,0,0-1.692.658,3.327,3.327,0,0,0-.218.308c-.105,0-.075.095-.179.14-.36-.053-.458.11-.291.107a6.151,6.151,0,0,1-.58.347l-.227.184a.147.147,0,0,1-.18.02c-.169.124-.141.048-.344.127-.081-.045-.429.351-.5.353l.027-.025c-.231.091-.44.016-.657.094a4.515,4.515,0,0,1-1.726.315c-.011.082.107-.014.108.1a1.756,1.756,0,0,1-.755-.323.3.3,0,0,1-.062-.139c-.051-.069-.062.007-.107-.034l.036-.065c-.106-.008-.048-.145-.13-.172-.023.019-.048,0-.068-.025.054-.058-.072-.063-.017-.11l-.005,0c-.012-.014-.025-.018-.031-.044-.022,0-.127-.038-.241-.076s-.223-.1-.25-.106v-.024c-.036-.046-.1-.035-.092,0-.014-.02-.024-.044-.036-.067l.009,0-.035-.067a.06.06,0,0,1,.063-.048.157.157,0,0,1-.092-.1c.02.124.033.293.043.437-.052-.027-.073-.125-.107-.172a1.539,1.539,0,0,0-.045-.338c-.015-.019-.1.007-.091-.06.042-.052-.03-.054-.012-.115.053.032.063.083.084.132.059-.042-.015-.136-.016-.182-.029-.007-.055-.106-.1-.159.074,0,.019-.066.037-.116-.01-.043-.046-.057-.062-.031-.074.017.029.178-.067.154.027-.03-.02-.1-.041-.145-.038.016-.016.042-.064.029-.013-.051-.08-.083-.054-.127.014,0,.017.027.022.041-.022-.06.39.226.333.155-.022.039-.374-.25-.36-.21,0,.046-.08,0-.076.045l.065.025c.01.06-.046.11-.08.1-.033-.091.368.145.3.083l0,.039c-.038-.021-.1-.1-.073-.149-.037.016-.069-.022-.1-.053v-.016c-.036-.03-.05-.086-.089-.042.106.224-.447,0-.37.237.041-.13.1,0,.151.091a.208.208,0,0,0-.034.166c.034.06.046.023.071.025,0,.043.016.113-.031.126.074.022.007.092.053.14s.02-.015.062.008c.031.079.081.185.109.247-.025.044-.05.154-.139.138-.059-.117.121-.014.039-.123-.056.1-.087-.088-.162-.075-.022.062.026.138.075.2l0-.02a.39.39,0,0,1,.123.24c-.039.005-.044.046-.078.01.014.027.031.053.047.08.016,0,.032.007.024-.02a.109.109,0,0,1,.062.1c-.01.013.086.1.2.16a1.316,1.316,0,0,1,.2.125c.041.049.015.1.087.116.016,0-.5-.394-.437-.34,0,.038.153.158.305.269s.313.2.306.24c.039.028.09.059.105.022.051.065-.065.04-.042.1,0,0,.008-.018.022,0l.015.074a.8.8,0,0,1,.2.112.346.346,0,0,0,.216.086.384.384,0,0,1-.226.042l0-.025c-.017,0-.087-.027-.107.006a.323.323,0,0,0,.227.117c.01.017.023.035.031.05a.081.081,0,0,1,.006-.014c.016.035.012.037-.005.045l-.01,0c0,.061.089.089.191.108a.642.642,0,0,1,.291.077c.051,0,.01-.017.073-.023.074.041.138.078.2.111a2.164,2.164,0,0,0,.224.077c.062-.04.066-.058.006-.117a.97.97,0,0,0,.126.028c-.131.121.239.133.1.254a.236.236,0,0,0,.2.018c.007-.032.018-.084.112-.088l.212.054c.03.039-.009.06,0,.092.162-.074.159.075.319.043.1-.03.289-.072.278-.144C1417.875,721.15,1417.887,721.2,1417.889,721.262Z" transform="translate(-1413.946 -709.751)" fill="#3c3c3b"/>
      </g>
    </g>
    <g id="Group_7603" data-name="Group 7603" transform="translate(47.525 61.121)">
      <g id="Group_7600" data-name="Group 7600" transform="translate(0.377)">
        <g id="Group_7599" data-name="Group 7599">
          <path id="Path_12014" data-name="Path 12014" d="M1447.59,744.308l.074.013a2.66,2.66,0,0,1-.744-.14,1.857,1.857,0,0,0,.843.356.746.746,0,0,0,.745-.344.441.441,0,0,0,.33.268c.145.039.282.034.281,0a3.324,3.324,0,0,1,.3-.187c-.069.037-.14.07-.208.111.069-.04.139-.074.208-.111a11.057,11.057,0,0,1,2.068-.73,7.076,7.076,0,0,0,.925-.417c.357-.188.7-.406.9-.522.058-.033.114-.069.169-.107-.1.054-.1.054-.2.1.166-.232.3-.454.434-.657a.548.548,0,0,0-.2.007c.035-.021.07-.041.1-.064,0-.159.169-.335.208-.457.029.059.1,0,.159-.06h-.052a4.25,4.25,0,0,0,.54-.784.117.117,0,0,1,.082-.052c.032-.086.059-.174.088-.261.066.058.163-.173.153-.031,0-.227.139-.4.107-.616a3.3,3.3,0,0,0,0-2.1l-.028.021c-.086-.233-.284-.395-.308-.674-.159-.161-.314-.4-.5-.4-.11-.188-.22-.23-.357-.391-.049.087-.184-.13-.192-.007-.043.173.049.133.015.274l.024-.016a7.389,7.389,0,0,1,.195,1.469,2.1,2.1,0,0,1-.015.964,6.01,6.01,0,0,1-.224,1.048c-.014.08-.105.093-.173.128a5.249,5.249,0,0,1-.574.841.074.074,0,0,1,.014-.01c-.118.143-.276.177-.4.307.017.017,0,.037-.005.055-.049-.031-.206.188-.391.4s-.387.428-.432.418a.519.519,0,0,1-.045.042c-.369.166-.827.15-1.12.294a2.326,2.326,0,0,0-.14.227c-.073-.022-.051.067-.123.08-.247-.148-.314-.031-.2.017a2.142,2.142,0,0,1-.408.144c-.055.031-.11.063-.166.1s-.084,0-.122-.041c-.124.059-.1,0-.238,0-.045-.068-.324.182-.369.162l.021-.015c-.164.006-.283-.135-.433-.133a4.994,4.994,0,0,1-1.2-.132c-.024.078.078,0,.057.109a2.193,2.193,0,0,1-.517-.329.268.268,0,0,1-.03-.121c-.03-.054-.05.018-.077-.013l.037-.065c-.079.016-.02-.111-.072-.118a.029.029,0,0,1-.049,0c.051-.06-.045-.029.007-.082l0,0c-.006-.008-.014-.009-.013-.027a.971.971,0,0,1-.175.013c-.082,0-.166-.009-.186-.01l0-.016c-.02-.024-.077,0-.078.02-.006-.012-.014-.023-.019-.036h.007l-.016-.038a.1.1,0,0,1,.065-.044c-.034,0-.06-.02-.059-.045-.013.076-.032.182-.052.286-.038-.01-.037-.076-.06-.1a.986.986,0,0,0,.034-.217c-.009-.009-.093.019-.071-.024.051-.038-.018-.029.015-.07.039.015.039.043.047.07.064-.035.014-.078.028-.109-.024,0-.02-.06-.051-.085.071-.008.031-.038.063-.069,0-.024-.028-.031-.049-.015-.075.013-.018.1-.1.1.031-.019.008-.062,0-.086-.039.01-.025.025-.067.019,0-.031-.055-.049-.019-.076.012,0,.009.016.01.025,0-.019.076.016.149.044s.145.047.125.031c-.034.033-.286-.129-.285-.109s-.077,0-.084.027l.056.016c-.006.036-.071.069-.1.064,0-.03.074-.005.146.016s.14.039.112.025l-.012.023c-.033-.008-.069-.054-.033-.085a.077.077,0,0,1-.08-.029l0-.01c-.026-.018-.026-.052-.073-.025.022.067-.083.072-.194.071s-.226-.006-.215.077c.069-.087.095,0,.123.064a.148.148,0,0,0-.067.115c.022.04.04.014.064.015-.011.03-.01.08-.056.091.064.013-.015.067.022.1s.021-.012.057,0l.057.17c-.031.035-.07.123-.15.121-.037-.084.114-.025.055-.1-.07.083-.064-.059-.137-.043a.122.122,0,0,0,.038.145l.006-.016a.213.213,0,0,1,.081.172c-.036.01-.046.043-.073.018l.032.058c.014,0,.028,0,.024-.019.04.01.045.043.042.075-.015.015.073.061.157.1s.173.059.159.065c.032.03,0,.079.059.083.012-.01-.086-.06-.183-.112a.832.832,0,0,0-.16-.089c0,.026.115.109.24.165s.243.1.23.144c.027.02.065.036.081,0,.034.047-.057.048-.045.1,0,0,.008-.017.018-.009l0,.062c.1.006.179.136.3.115a.364.364,0,0,1-.178.07v-.023c-.014.005-.065-.01-.084.023a.179.179,0,0,0,.161.074.425.425,0,0,1,.016.043.1.1,0,0,1,.006-.013c.007.03,0,.033-.01.042l-.008.006c-.015.118.245.045.323.135.036,0,.01-.016.054-.021a1.246,1.246,0,0,0,.259.194c.05-.036.056-.054.028-.114l.079.038c-.111.1.131.16.014.261a.123.123,0,0,0,.127.042c.012-.03.03-.079.092-.066.079.058.061.038.127.09.011.044-.019.056-.021.089.122-.036.087.108.2.111.07-.005.206.005.214-.069C1447.605,744.2,1447.6,744.249,1447.59,744.308Z" transform="translate(-1445.095 -736.033)" fill="#3c3c3b"/>
        </g>
      </g>
      <g id="Group_7602" data-name="Group 7602" transform="translate(0 1.416)">
        <g id="Group_7601" data-name="Group 7601">
          <path id="Path_12015" data-name="Path 12015" d="M1447.926,748.3l.161-.043a13.99,13.99,0,0,1-1.6.42,8.078,8.078,0,0,0,1.892-.3,2.806,2.806,0,0,0,1.486-.945c.107.1.455.052.778-.067a1.526,1.526,0,0,0,.6-.337c.2-.2.392-.413.581-.637-.132.152-.269.3-.406.437.138-.14.274-.284.406-.437a6.376,6.376,0,0,0,.49-.675,4.392,4.392,0,0,0,.38-.8l.271-.766-.751-.181a5.331,5.331,0,0,0-2.063-.044,9.288,9.288,0,0,0-1.926.529,11.209,11.209,0,0,0-1.522.757l-.331.209c-.128.085-.254.169-.374.26l-.36.272c-.118.092-.249.182-.349.277-.213.188-.433.375-.635.561l-.61.552.122.128a1.7,1.7,0,0,0,.139.133l.308.273c.192.166.333.311.477.422a2.531,2.531,0,0,0,.25.181l.283.165-.3-.19c-.071-.05-.135-.1-.264-.209a3.434,3.434,0,0,0,1.291.467,4.878,4.878,0,0,0,.708.064,6.918,6.918,0,0,0,.711-.047c-.171-.024-.2-.064-.542-.125.142.009.284.027.433.025.053-.019.113-.037.178-.053l.144-.044c.1-.032.212-.056.321-.089a3.843,3.843,0,0,0,.572-.193c-.043.076.182.024.377-.037l-.089-.01a5.67,5.67,0,0,0,2.022-1.193.6.6,0,0,1,.189-.117,4.44,4.44,0,0,0,.415-.553c.017.046.118-.061.192-.147s.12-.152.052.011l.039-.1.057-.122c.039-.082.065-.167.1-.25s.068-.164.092-.246l.067-.247a1.218,1.218,0,0,0,.044-.243c.009-.08.021-.16.024-.237a2.132,2.132,0,0,0-.042-.432c-.006-.105-.006-.207-.017-.317l-.014-.163c-.009-.051,0-.12-.03-.15-.248-.041-.485-.075-.727-.094a2.666,2.666,0,0,0-.37-.013,3.412,3.412,0,0,0-.383.023c-.128.007-.259.039-.387.058-.064.01-.131.022-.188.038l-.141.035q-.278.074-.546.17a9.84,9.84,0,0,0-1.987.995l.049.009c-.476.312-.814.7-1.408,1.026-.344.357-.854.815-.89,1.069a6.828,6.828,0,0,0-.847.97c.077-.018.007.089-.047.184s-.108.188.006.107c.306-.162.252-.243.521-.372l-.025-.015a17.224,17.224,0,0,1,1.691-1.138,19.015,19.015,0,0,1,1.81-.96,6.434,6.434,0,0,1,1.261-.572c.219-.076.44-.133.657-.186l.2-.042.085-.016a.982.982,0,0,1,.231-.021.438.438,0,0,1,.033.3.6.6,0,0,1-.02.087.36.36,0,0,1-.013.044l-.009.022-.021.045a2.968,2.968,0,0,1-.225.365.881.881,0,0,1-.394.274,3.844,3.844,0,0,1-1,.677,5.97,5.97,0,0,1-1.224.432l.041-.005a2.129,2.129,0,0,1-.31.043h-.069l-.023,0a.486.486,0,0,1-.052-.01.937.937,0,0,0-.2-.039c-.019.024-.044.022-.068.031.018-.031-.042-.035-.159-.055a1.276,1.276,0,0,1-.216-.053,1.088,1.088,0,0,1-.13-.051c-.035-.01-.017-.021-.014-.033l.017-.036a1.074,1.074,0,0,1,.383-.43.518.518,0,0,1,.056-.053l.085-.043c.04-.021.1-.061.159-.085l.342-.164c.232-.1.463-.194.695-.27.46-.162.9-.284,1.285-.4.153-.107.333-.19.466-.281.149.013.159-.072.331-.086q.086.031.158.048a1.324,1.324,0,0,0,.129.039.544.544,0,0,0,.18.018c.083-.009.093-.053-.014-.088a2.236,2.236,0,0,1,.383,0c.123.015.235.048.349.067l-.409-.807-.075.175a2.589,2.589,0,0,1-.162.363.235.235,0,0,1-.2.144c-.183.242-.16.142-.418.338-.055-.005-.193.148-.352.3a2.013,2.013,0,0,1-.379.318l.045-.038a10.837,10.837,0,0,1-1.047.326,28.555,28.555,0,0,1-3.333,1.034c.01.083.229-.079.27.024-.38.09-.772.147-1.17.216l.648,1.379.308-.172c.106-.054.208-.112.312-.169a1.373,1.373,0,0,1,.3-.062c.186-.061.083-.087.215-.142l.05.058c.162-.147.308-.06.479-.17,0-.032.063-.065.129-.093.034.07.2-.095.222-.024v-.006a.491.491,0,0,1,.122-.042c.062-.057.726-.571.8-.642l.043,0c.113-.051.139-.128.066-.11l.143-.06-.014.012.142-.059c.029-.005.073.015.048.064a.663.663,0,0,1,.239-.143,5.41,5.41,0,0,1-.807.149,3.481,3.481,0,0,1,.369-.156,3.21,3.21,0,0,0,.628-.151c.042-.026.031-.12.147-.135.076.03.11-.058.211-.066a.833.833,0,0,1-.273.161c.049.056.255-.075.339-.1.024-.04.22-.118.323-.208-.014.089.115-.019.2-.029.082-.039.115-.1.071-.1-.015-.075-.328.15-.263.018.046.013.19-.086.266-.145-.022-.035-.07.01-.042-.057.092-.051.155-.154.229-.153-.01.02-.049.039-.075.055.057-.037-.056.122-.174.277s-.242.293-.171.235c-.03,0,.11-.155.237-.308s.247-.3.208-.275c-.08.03.006-.093-.073-.057l-.05.094c-.105.053-.184.02-.167-.026.082-.052.009.084-.076.216s-.183.255-.122.193l-.068.019a.573.573,0,0,1,.281-.182c-.021-.034.05-.1.108-.157l.027-.01c.056-.063.156-.12.081-.133-.2.138-.188.008-.184-.123s0-.264-.185-.15c.2-.031,0,.112-.157.228a.427.427,0,0,0-.26.045c-.1.069-.044.065-.052.1-.068.015-.188.063-.2.013-.055.093-.146.043-.236.11s.017.018-.032.074c-.134.064-.323.147-.434.187-.06-.02-.216-.032-.155-.137.2-.086-.029.137.173.025-.133-.049.173-.111.175-.2a.679.679,0,0,0-.324.12l.028,0a.957.957,0,0,1-.413.167c.011-.044-.046-.047.023-.088l-.14.054c-.013.018-.027.036.016.026a.27.27,0,0,1-.184.07c-.028-.027-.677.458-.664.427-.1.044-.146,0-.228.08a8.077,8.077,0,0,0,.779-.458c-.1,0-1.062.653-1.15.623-.073.035-.157.085-.124.111-.131.042.006-.083-.1-.073,0,.006.015.014-.013.026l-.105,0c-.166.144-.48.222-.637.4a.811.811,0,0,1,.176-.27l.032.006c.013-.02.114-.086.093-.118a.8.8,0,0,0-.347.209c-.029,0-.061.011-.085.012,0,0,.007.007.009.012-.053,0-.051,0-.043-.024a.038.038,0,0,1,0-.012c-.066-.027-.174.061-.295.163a1.731,1.731,0,0,1-.371.283l-1.554.638,1.816-.079h.009c.066-.033,0-.02.084-.063.254-.021.431-.03.694-.071.07-.067.072-.088-.04-.11l.2-.035c-.145.169.393.023.23.2a.543.543,0,0,0,.286-.06c0-.034.007-.088.144-.125.2-.01.153-.013.322-.018.049.03,0,.062.01.092.23-.12.239.027.468-.047.142-.054.426-.147.412-.219C1447.911,748.189,1447.927,748.238,1447.926,748.3Z" transform="translate(-1443.082 -743.599)" fill="#3c3c3b"/>
        </g>
      </g>
    </g>
    <g id="Group_7605" data-name="Group 7605" transform="translate(53.298 6.868)">
      <g id="Group_7604" data-name="Group 7604">
        <path id="Path_12016" data-name="Path 12016" d="M1479.4,447.606l-.049.039a3.172,3.172,0,0,1,.469-.413,1.785,1.785,0,0,0-.683.332.662.662,0,0,0-.2.284.723.723,0,0,0,0,.4c-.234-.16-.627.089-.581.141a2.868,2.868,0,0,1-.084.3c.026-.063.048-.128.071-.193-.023.065-.046.13-.071.193a2.559,2.559,0,0,1-.481.8,9.535,9.535,0,0,1-.68.708c-.128.134-.356.392-.577.656s-.445.528-.581.663l-.112.122.142-.125c-.062.234-.114.447-.183.641a.449.449,0,0,0,.181-.032l-.078.071c.047.141-.073.317-.083.429-.04-.051-.092.01-.137.064l.049,0c-.161.211-.285.5-.411.694a.091.091,0,0,1-.075.039l-.077.218c-.061-.057-.159.123-.147,0,0,.195-.145.311-.14.5a8.359,8.359,0,0,0-.717,1.638l.034,0c-.057.206-.009.445-.182.635,0,.21-.075.46.037.607a4.237,4.237,0,0,0-.116.5c.1,0-.011.222.1.169.17-.057.087-.114.227-.165l-.026-.011a9.978,9.978,0,0,0,1.016-1.272,8,8,0,0,1,.538-.987,11.614,11.614,0,0,0,.471-1.091c.022-.083.113-.1.183-.136.132-.29.37-.612.519-.938a.1.1,0,0,1-.012.013c.091-.165.24-.236.328-.4-.02-.012-.006-.037-.009-.056.1.032.408-1.027.5-1.045a.455.455,0,0,1,.023-.056,10.05,10.05,0,0,0,.859-.754,1.946,1.946,0,0,0,0-.265c.074-.017.007-.083.06-.131.286,0,.275-.144.157-.121a2.325,2.325,0,0,1,.253-.342c.026-.057.051-.115.074-.174s.063-.053.12-.039c.059-.123.077-.057.182-.15.081.026.135-.342.179-.357l-.006.025c.117-.112.3-.09.409-.2a5.519,5.519,0,0,0,.474-.467l.223-.242c.077-.075.153-.146.229-.211-.055-.062-.051.074-.131,0,.181-.154.421-.247.6-.4a.41.41,0,0,1,.146-.009c.077-.027.007-.059.056-.087l.055.05c.02-.1.143-.016.179-.089-.017-.025,0-.046.023-.062.053.058.058-.059.1,0l0-.005c.013-.01.018-.021.042-.024,0-.04.08-.4.087-.441h.02c.032-.029.01-.086-.019-.081l.045-.03v.008l.045-.03a.078.078,0,0,1,.054.057c.006-.04.023-.073.056-.081a1.81,1.81,0,0,1-.343.023c.011-.044.089-.053.115-.084a.793.793,0,0,0,.255-.035c.01-.014-.036-.09.017-.083.052.036.032-.028.083-.014-.008.048-.044.058-.074.079.05.052.1-.017.134-.02,0-.026.065-.051.087-.095.028.066.055.012.1.025a.031.031,0,0,0,0-.057c-.039-.065-.119.039-.136-.049.031.022.068-.025.091-.047-.025-.033-.036-.011-.044-.055.033-.015.032-.077.073-.056,0,.013-.014.016-.022.022.037-.025-.027.365,0,.309-.035-.019.052-.353.027-.336-.034,0-.029-.071-.061-.064l.005.059a.1.1,0,0,1-.1-.065c.055-.036.026.338.044.27h-.03c0-.036.037-.094.083-.075-.025-.032-.008-.063,0-.092h.012c.009-.033.045-.05,0-.081-.123.108-.166-.393-.3-.311.107.028.038.086-.01.139a.157.157,0,0,0-.13-.022c-.03.033,0,.042.008.065-.031,0-.078.015-.1-.025.008.065-.065.006-.085.047s.017.017.014.054a1.557,1.557,0,0,1-.151.09c-.041-.024-.13-.052-.145-.128.071-.045.046.106.1.04-.092-.055.042-.069.006-.138a.11.11,0,0,0-.122.056l.016,0c-.024.036-.074.1-.144.091-.014-.034-.046-.042-.028-.068l-.049.031c0,.013,0,.027.021.022,0,.038-.034.043-.064.04-.032-.027-.126.319-.134.294-.03.028-.074-.008-.079.047.016.026.209-.356.177-.311-.054-.007-.226.448-.291.412-.021.022-.043.052-.012.076-.051.02-.037-.064-.088-.066,0,0,.015.012.005.019l-.058-.013c-.02.1-.159.117-.169.23a.409.409,0,0,1-.022-.181l.02.008c0-.014.022-.053,0-.08a.133.133,0,0,0-.1.113.342.342,0,0,1-.043,0l.011.01c-.029-.006-.031-.01-.036-.025a.038.038,0,0,1,0-.009c-.1-.061-.1.191-.205.213-.009.031.011.016,0,.055a1.385,1.385,0,0,0-.261.108c.01.056.022.072.084.081l-.065.041c-.039-.139-.187.012-.222-.132a.09.09,0,0,0-.09.067c.02.026.051.067.012.1-.084.022-.061.02-.132.036-.04-.019-.036-.047-.061-.068-.028.107-.123,0-.18.068-.031.05-.1.135-.054.187C1479.473,447.69,1479.434,447.653,1479.4,447.606Z" transform="translate(-1473.941 -446.048)" fill="#3c3c3b"/>
      </g>
    </g>
    <g id="Group_7607" data-name="Group 7607" transform="translate(0 19.667)">
      <g id="Group_7606" data-name="Group 7606">
        <path id="Path_12017" data-name="Path 12017" d="M1190.834,516.394l.031.015a1.114,1.114,0,0,1-.317-.114.832.832,0,0,0,.317.33c.118.049.249,0,.406-.233-.046.277.149.46.171.4a.929.929,0,0,1,.179-.084.94.94,0,0,0-.119.039.94.94,0,0,1,.119-.039,1.125,1.125,0,0,1,1.006.287c.178.112.689.35.863.5.026.02.052.039.078.057l-.081-.082a3.479,3.479,0,0,1,.406-.065.439.439,0,0,0-.022-.151l.046.045c.089-.092.2-.047.274-.074-.032.054.007.08.042.1v-.044a3.967,3.967,0,0,0,.446.141c.018.006.024.033.025.056h.14c-.037.074.079.1,0,.132.125-.058.2.031.322-.032a3.039,3.039,0,0,0,1.059.14v-.032c.133-.012.286-.135.41-.039.133-.071.293-.083.381-.237.122.01.191-.059.314-.07-.007-.089.135-.068.1-.146-.042-.135-.073-.039-.109-.149l-.006.028a4.1,4.1,0,0,0-.8-.5,2.591,2.591,0,0,1-.625-.177,3.84,3.84,0,0,0-.7-.083c-.053.007-.063-.072-.088-.123-.19-.027-.4-.134-.62-.161l.009.006c-.111-.024-.162-.134-.271-.157-.008.023-.024.018-.036.028.019-.114-.692.009-.708-.064a.214.214,0,0,1-.038,0c-.206-.12-.37-.4-.57-.447a1.407,1.407,0,0,0-.172.113c-.02-.057-.054.031-.092.006-.04-.247-.129-.176-.1-.083a1.168,1.168,0,0,1-.256-.057c-.041.006-.081.013-.123.021s-.044-.027-.046-.083c-.088.009-.049-.038-.127-.083,0-.081-.24.062-.258.035l.017-.008c-.094-.037-.122-.2-.217-.23a5.2,5.2,0,0,0-.815-.2c-.017.081.059-.007.043.1-.146-.042-.287-.162-.441-.2a.339.339,0,0,1-.064-.1c-.047-.038-.035.035-.07.019l0-.075c-.062.055-.073-.089-.129-.063a.032.032,0,0,1-.044.028c.007-.079-.058,0-.049-.071v.006c-.011,0-.02,0-.032-.013-.026.025-.241.224-.262.256l-.009-.014c-.03,0-.045.057-.029.073l-.036-.006,0-.005-.037,0a.106.106,0,0,1,0-.078c-.022.027-.046.042-.067.028a.888.888,0,0,1,.179.2c-.025.025-.066-.021-.093-.012a.491.491,0,0,0-.144-.134c-.012,0-.021.092-.046.053-.012-.061-.029,0-.05-.042.025-.032.049-.017.073-.014,0-.072-.06-.049-.08-.07-.009.022-.058,0-.088.018.013-.069-.025-.044-.044-.081-.021-.008-.034.019-.025.044,0,.075.082.045.055.124-.008-.036-.048-.024-.069-.021,0,.041.015.031,0,.07-.024-.009-.047.04-.062,0,0-.011.014,0,.021,0-.033,0,.164-.266.125-.242.009.036-.174.241-.152.244.019.02-.01.074.009.088l.02-.049a.133.133,0,0,1,.031.115c-.045-.007.12-.278.083-.237l.016.019c-.016.027-.059.049-.076.006a.077.077,0,0,1-.038.069l-.007-.007c-.018.02-.044.011-.03.064.1-.006-.054.41.046.434-.043-.09.011-.091.054-.1a.169.169,0,0,0,.056.1c.026-.007.015-.033.02-.055.015.02.043.037.04.084.021-.056.033.036.057.017s0-.024.015-.051a.592.592,0,0,1,.1.026.355.355,0,0,1,.012.19c-.048-.01.022-.111-.029-.1.019.1-.045.027-.056.1a.049.049,0,0,0,.074.034l-.005-.013c.024-.013.073-.034.1.021-.008.035,0,.062-.016.07l.032.009c0-.011.01-.022,0-.031.017-.026.031-.009.042.012,0,.038.183-.142.177-.119.024,0,.025.057.051.021,0-.03-.234.108-.2.1.015.042.28-.164.289-.092.018,0,.04-.007.04-.045.027.021-.017.071,0,.108,0-.006,0-.019.007-.017l.015.049c.052-.056.109.033.167-.038a.527.527,0,0,1-.079.14l0-.021c-.006.011-.032.02-.036.058.026.029.051.026.085-.006a.3.3,0,0,1,.012.033l0-.015a.05.05,0,0,1,0,.043l0,.008c0,.112.121-.053.165.011.018-.013,0-.018.027-.037a.664.664,0,0,0,.128.123.124.124,0,0,0,.018-.115l.039.022c-.06.118.056.135-.008.252a.035.035,0,0,0,.057.026c.008-.031.021-.081.05-.075a.673.673,0,0,1,.051.08.4.4,0,0,1-.02.089c.061-.042.027.1.076.1.032-.006.092,0,.109-.07C1190.862,516.284,1190.85,516.336,1190.834,516.394Z" transform="translate(-1189.058 -514.457)" fill="#3c3c3b"/>
      </g>
    </g>
    <g id="Group_7609" data-name="Group 7609" transform="translate(37.892)">
      <g id="Group_7608" data-name="Group 7608">
        <path id="Path_12018" data-name="Path 12018" d="M1393.473,410.352l-.028.031a1.444,1.444,0,0,1,.264-.321c-.373.109-.759.329-.4.782-.26-.115-.51.083-.451.12a1.443,1.443,0,0,1,.033.219c0-.046,0-.094-.006-.143,0,.049.007.1.006.143a1.707,1.707,0,0,1-.485,1.114c-.141.2-.424.764-.578.961-.021.029-.042.058-.061.088l.086-.092c.022.162.046.309.051.444a.434.434,0,0,0,.153-.03l-.046.052c.091.093.042.218.069.294-.053-.033-.081.011-.1.049l.044,0a4.207,4.207,0,0,0-.143.486c-.006.02-.033.027-.056.03l0,.15c-.075-.036-.1.09-.133.01.059.131-.029.215.036.342a3.462,3.462,0,0,0-.126,1.125h.032c.014.14.135.3.037.43.071.139.078.309.227.4-.017.131.049.207.051.344.091-.005.058.151.14.111.139-.045.045-.081.158-.121l-.028-.007a4.073,4.073,0,0,0,.531-.9,3.236,3.236,0,0,1,.174-.682,4.311,4.311,0,0,0,.073-.749c-.007-.056.071-.07.122-.1.025-.2.131-.427.159-.65a.039.039,0,0,1-.006.009c.025-.115.135-.17.16-.282-.023-.007-.018-.025-.027-.037.11.019.01-.712.088-.727a.218.218,0,0,1,0-.039c.134-.208.43-.353.49-.547a1.574,1.574,0,0,0-.093-.183c.059-.014-.024-.057.005-.092.249-.01.19-.106.094-.087a1.033,1.033,0,0,1,.093-.245c0-.04,0-.081,0-.123s.035-.038.09-.029c.007-.087.046-.041.1-.107.079.018-.014-.245.019-.256l0,.018c.057-.082.223-.064.273-.142.176-.2.271-.465.428-.635-.066-.049-.014.052-.105-.008.089-.107.254-.152.345-.245a.31.31,0,0,1,.109.01c.049-.011-.015-.043.013-.059l.059.046c-.018-.073.1.006.1-.04-.021-.021-.014-.034,0-.042.058.053.025-.034.075.017l0,0c.006,0,.006-.013.023-.01-.013-.032-.06-.283-.068-.32l.014,0c.014-.017-.017-.067-.036-.069l.023-.016v.006a.2.2,0,0,1,.023-.015.148.148,0,0,1,.053.058c-.007-.03,0-.052.018-.05-.063-.014-.148-.029-.237-.054,0-.033.051-.027.06-.048a.6.6,0,0,0,.172.031c0-.009-.046-.082-.008-.063.044.042.015-.015.054.01.006.037-.016.036-.032.045.047.054.063.011.086.019-.008-.022.032-.02.037-.048.032.061.038.027.068.051.015,0,.007-.028-.011-.045-.037-.065-.07-.007-.1-.082.025.027.041,0,.051-.01-.022-.034-.025-.02-.039-.059.019,0,.008-.054.038-.024,0,.011-.006.009-.011.011.017-.006.052.287.063.251-.029-.023-.037-.268-.048-.264s-.03-.068-.05-.072l.013.051c-.024,0-.07-.057-.079-.085.029-.012.077.285.078.234l-.02-.01c-.006-.028.007-.064.04-.035a.088.088,0,0,1-.014-.074l.007,0c0-.025.021-.028-.014-.068-.068.055-.167-.383-.253-.352.08.053.038.085.01.116a.157.157,0,0,0-.1-.052c-.018.02.006.035.015.056-.023-.008-.056-.007-.081-.046.016.057-.048-.008-.056.023s.016.018.02.049a.615.615,0,0,1-.1.046c-.036-.028-.112-.067-.137-.134.047-.026.056.1.089.052-.082-.063.02-.051-.02-.117a.057.057,0,0,0-.086.027l.013.007c-.013.026-.039.076-.095.056-.019-.031-.046-.042-.037-.062l-.032.02c0,.011.008.023.021.022.005.032-.017.033-.042.027-.031-.024-.033.247-.041.226-.017.019-.062-.015-.052.03.01.012.029-.055.045-.122s.035-.129.026-.113c-.052-.014-.077.343-.137.3a.037.037,0,0,0,.01.06c-.034.012-.048-.056-.089-.062,0,0,.015.011.01.016l-.05-.015c.011.077-.1.085-.069.175a.448.448,0,0,1-.072-.148l.019.008c-.006-.011,0-.042-.026-.066-.041.009-.054.036-.048.086-.012,0-.025,0-.036,0l.012.009c-.026-.006-.028-.009-.037-.022l-.005-.007c-.1-.054-.026.148-.109.16,0,.024.014.013.017.043a.635.635,0,0,0-.184.076.108.108,0,0,0,.1.066l-.041.031c-.078-.11-.152.006-.228-.107a.046.046,0,0,0-.054.052c.025.02.065.053.045.082a.939.939,0,0,1-.1.027c-.04-.015-.046-.036-.075-.053.011.082-.106,0-.131.052-.01.038-.046.1.015.143C1393.567,410.415,1393.522,410.387,1393.473,410.352Z" transform="translate(-1391.593 -409.338)" fill="#3c3c3b"/>
      </g>
    </g>
    <g id="Group_7611" data-name="Group 7611" transform="translate(57.595 28.948)">
      <g id="Group_7610" data-name="Group 7610">
        <path id="Path_12019" data-name="Path 12019" d="M1505.019,564.276l-.044,0a1.89,1.89,0,0,1,.441.017c-.338-.224-.732-.415-.94.131-.048-.278-.367-.385-.368-.316a1.23,1.23,0,0,1-.186.143,1.315,1.315,0,0,0,.13-.079,1.315,1.315,0,0,1-.13.079,1.894,1.894,0,0,1-1.337.114c-.264-.034-.974-.043-1.247-.1-.039-.007-.078-.014-.118-.019l.133.041a4.787,4.787,0,0,1-.437.229.418.418,0,0,0,.1.128l-.075-.021c-.057.121-.211.128-.279.182.011-.062-.047-.07-.1-.075l.023.039c-.191-.011-.407.055-.577.06-.023,0-.043-.02-.055-.04l-.159.059c.006-.083-.14-.062-.066-.119-.114.105-.242.056-.35.164a4.7,4.7,0,0,0-1.267.306l.013.03c-.146.065-.266.236-.452.2-.122.119-.3.19-.342.364-.148.035-.2.125-.346.18.044.081-.135.112-.058.172.106.111.1.01.194.1l0-.028a5.481,5.481,0,0,0,1.184.151,4.463,4.463,0,0,1,.815-.1,5.521,5.521,0,0,0,.849-.219c.058-.029.107.039.161.074.228-.055.524-.048.781-.114l-.013,0c.138-.024.247.055.382.03,0-.024.018-.027.027-.04.032.11.779-.292.831-.232a.292.292,0,0,1,.042-.016c.289.029.6.225.844.187a1.532,1.532,0,0,0,.146-.17c.047.045.048-.049.1-.04.149.214.22.115.145.04a1.538,1.538,0,0,1,.314-.042c.044-.02.087-.04.131-.063s.061.01.084.062c.1-.039.071.019.176.034.031.077.25-.144.28-.122l-.016.013c.12,0,.211.151.328.149.328.033.678-.051.98-.047,0-.082-.065.023-.076-.085.178,0,.364.09.544.09a.339.339,0,0,1,.093.083c.059.026.031-.042.073-.034l.011.074c.057-.065.1.076.151.041,0-.03.021-.036.042-.035.007.079.063-.01.065.062v-.006c.012,0,.021-.005.037.007.021-.029.225-.261.246-.3l.012.012c.033,0,.042-.064.022-.077h.041l0,.006h.041a.1.1,0,0,1,.01.078c.021-.029.045-.046.069-.034a1.364,1.364,0,0,1-.223-.181c.025-.029.078.009.107,0a.577.577,0,0,0,.174.12c.012-.006.014-.094.045-.057.018.06.032,0,.058.037-.025.034-.052.022-.079.021.01.071.07.044.093.062.008-.023.063,0,.094-.026-.009.07.03.042.052.077.023.007.035-.022.024-.046,0-.075-.092-.038-.067-.119.011.036.054.02.077.015,0-.041-.018-.03-.006-.07.027.007.051-.044.069,0,0,.011-.015.005-.023,0,.034,0-.165.28-.122.253-.014-.035.176-.256.153-.257-.022-.019.009-.075-.013-.087l-.02.051c-.03-.013-.048-.083-.039-.112.05,0-.119.289-.08.244l-.019-.018c.016-.028.062-.054.083-.013a.079.079,0,0,1,.039-.072l.008.006c.019-.022.049-.014.031-.067-.12.015.049-.415-.07-.43.056.085-.01.092-.06.107a.155.155,0,0,0-.072-.093c-.031.009-.016.034-.021.057-.019-.019-.054-.033-.053-.08-.021.058-.042-.033-.071-.011s0,.024-.013.052a.887.887,0,0,1-.128-.015.3.3,0,0,1-.036-.188c.061,0-.015.113.047.093-.034-.1.053-.032.059-.109a.067.067,0,0,0-.1-.026l.008.013c-.029.015-.087.041-.123-.01,0-.036-.011-.061.01-.071l-.042,0c0,.011-.009.023,0,.031-.017.029-.038.015-.054,0-.007-.037-.206.173-.2.149-.029,0-.041-.052-.067-.012,0,.031.272-.149.234-.134-.028-.039-.32.211-.344.142-.022,0-.047.014-.039.052-.038-.016.006-.073-.023-.106,0,.006,0,.019,0,.018l-.029-.046c-.053.063-.143-.007-.2.075a.462.462,0,0,1,.065-.155l.008.019c0-.012.035-.028.032-.065-.039-.022-.069-.013-.105.027a.3.3,0,0,1-.023-.029c0,.005,0,.009,0,.015-.014-.023-.013-.026-.01-.042a.046.046,0,0,1,0-.009c-.031-.109-.139.081-.21.028-.018.017,0,.019-.023.042a.877.877,0,0,0-.195-.089.1.1,0,0,0,.012.116l-.055-.012c.04-.131-.11-.114-.065-.244a.051.051,0,0,0-.08-.009c0,.032,0,.084-.04.087a.864.864,0,0,1-.089-.062c-.013-.041,0-.058,0-.091-.064.058-.066-.086-.129-.073-.039.015-.118.026-.114.1C1505.022,564.389,1505.018,564.336,1505.019,564.276Z" transform="translate(-1496.908 -564.065)" fill="#3c3c3b"/>
      </g>
    </g>
    <g id="Group_7613" data-name="Group 7613" transform="translate(14.969 2.145)">
      <g id="Group_7612" data-name="Group 7612">
        <path id="Path_12020" data-name="Path 12020" d="M1269.325,423.7l.015.051a2.375,2.375,0,0,1-.176-.5c-.073.455-.062.971.541,1-.237.155-.182.546-.117.521a1.692,1.692,0,0,1,.222.146,1.714,1.714,0,0,0-.137-.11,1.714,1.714,0,0,1,.137.11,2.758,2.758,0,0,1,.78,1.377c.1.293.472,1.039.564,1.349.014.044.029.088.046.131l-.035-.156c.162.125.314.235.441.353a.424.424,0,0,0,.062-.159l.021.087c.14.006.228.161.314.207-.062.016-.038.079-.015.134l.022-.041c.093.2.269.395.366.567a.076.076,0,0,1-.005.074l.139.137c-.077.03.021.171-.07.121.156.07.181.223.337.285a6.365,6.365,0,0,0,.958,1.159l.02-.026c.137.12.354.168.417.377.171.074.33.229.507.2.109.14.218.158.342.288.052-.08.172.1.188-.009.046-.159-.045-.115-.011-.249l-.023.017a6.58,6.58,0,0,0-.5-1.3,6.229,6.229,0,0,1-.528-.8,7.3,7.3,0,0,0-.656-.77c-.057-.047-.023-.126-.02-.2-.172-.209-.325-.514-.521-.748a.066.066,0,0,1,.005.014c-.1-.13-.082-.277-.176-.4-.02.013-.034-.007-.051-.01.081-.08-.671-.67-.643-.751a.364.364,0,0,1-.037-.037c-.123-.31-.1-.713-.259-.947a1.758,1.758,0,0,0-.227-.08c.017-.067-.068-.03-.086-.088.122-.242,0-.274-.035-.167a1.985,1.985,0,0,1-.189-.308l-.12-.111c-.037-.03-.02-.067.017-.112-.081-.084-.017-.081-.052-.2.055-.061-.247-.2-.241-.244l.019.012c-.051-.127.044-.276-.008-.4-.113-.352-.332-.685-.437-1-.077.029.045.06-.054.106-.064-.186-.043-.4-.1-.587a.3.3,0,0,1,.054-.116c.01-.065-.048-.02-.052-.064l.068-.03c-.078-.04.049-.112,0-.157-.029.006-.039-.012-.042-.032.075-.024-.022-.056.048-.074h-.006c0-.012-.009-.018,0-.036-.037-.014-.294-.156-.331-.173l.01-.013c-.009-.029-.07-.031-.079-.01,0-.013,0-.026,0-.038l.006,0v-.035a.113.113,0,0,1,.077-.017c-.03-.014-.048-.033-.037-.054l-.158.224c-.032-.021,0-.078-.016-.1a.619.619,0,0,0,.108-.165c-.006-.009-.1-.01-.058-.034.06-.016,0-.024.04-.044.034.018.019.036.017.057.07-.012.047-.051.066-.067-.023-.006,0-.042-.024-.065.068.007.045-.013.083-.017.01-.007-.018-.014-.042-.013-.074-.009-.05.036-.127.02.037,0,.027-.025.025-.037-.041,0-.031.006-.07-.006.01-.013-.038-.036,0-.038.011,0,0,.009,0,.013s.068.027.129.049a.779.779,0,0,0,.08.026c.022.009.035.012.028.005a.437.437,0,0,1-.131-.043.982.982,0,0,0-.108-.055c-.02.009-.072-.022-.087-.01l.048.022a.176.176,0,0,1-.115.007c0-.017.072.017.134.04s.117.042.1.03a.092.092,0,0,0-.019.011c-.029-.015-.045-.037,0-.045a.091.091,0,0,1-.067-.03l.007,0c-.02-.014-.01-.03-.063-.03,0,.037-.1.016-.2-.016s-.211-.073-.227-.013c.092-.037.09.028.1.076a.14.14,0,0,0-.1.062c.009.034.034.02.057.026-.019.019-.034.056-.081.053.057.024-.033.046-.012.078s.024,0,.052.014c0,.043,0,.105,0,.142-.041.019-.112.076-.184.055,0-.071.114.009.088-.061-.095.046-.037-.06-.115-.063a.087.087,0,0,0-.016.116l.012-.01a.129.129,0,0,1,.006.147c-.037,0-.059.02-.073,0l0,.05c.012,0,.025.008.03-.008.032.017.022.043.006.065-.018.007.036.063.09.114s.115.1.1.1c.011.033-.041.056.005.078.015,0-.039-.073-.094-.139s-.1-.132-.094-.11c-.037.046.286.333.224.372.011.023.029.05.063.033,0,.047-.073.01-.1.051.006,0,.017-.008.019,0l-.036.043c.078.045.037.165.135.2a.4.4,0,0,1-.172-.033l.016-.014c-.013,0-.038-.034-.073-.02a.1.1,0,0,0,.061.114.322.322,0,0,1-.02.034l.014-.006c-.017.022-.021.022-.037.022h-.009c-.094.065.128.136.1.232.023.016.018,0,.049.015a1.051,1.051,0,0,0-.01.245.087.087,0,0,0,.106-.049l.01.065c-.14,0-.065.159-.207.15a.067.067,0,0,0,.025.092c.031-.01.08-.025.1.017a1.086,1.086,0,0,1-.021.12c-.033.028-.056.018-.085.033.082.052-.053.1-.014.17.031.04.077.122.144.094C1269.43,423.654,1269.382,423.677,1269.325,423.7Z" transform="translate(-1269.068 -420.804)" fill="#3c3c3b"/>
      </g>
    </g>
  </g>
  <g id="Group_7616" data-name="Group 7616" transform="translate(0 42.459)">
    <g id="Group_7615" data-name="Group 7615">
      <path id="Path_12021" data-name="Path 12021" d="M1170.39,638.9l.039,0a1.422,1.422,0,0,1-.386.009c.313.2.679.368.8-.189.069.274.358.357.351.288a1.092,1.092,0,0,1,.146-.155,1.121,1.121,0,0,0-.1.088,1.121,1.121,0,0,1,.1-.088,1.441,1.441,0,0,1,1.136-.22c.231.013.839-.04,1.08,0,.034,0,.069.007.1.009l-.119-.029a3.934,3.934,0,0,1,.345-.266.436.436,0,0,0-.1-.118l.066.015c.034-.125.164-.145.215-.2,0,.063.048.065.092.066l-.024-.037a4.491,4.491,0,0,0,.484-.109c.02,0,.039.016.052.035l.128-.073c0,.083.127.049.071.112.084-.114.2-.076.278-.192a3.592,3.592,0,0,0,1.04-.406l-.014-.028c.116-.076.2-.254.363-.228.091-.126.239-.209.257-.384.125-.043.163-.136.285-.2-.045-.079.11-.119.038-.175-.1-.1-.093,0-.18-.088l.006.028a3.891,3.891,0,0,0-1.047-.068,3.471,3.471,0,0,1-.69.161,4.05,4.05,0,0,0-.7.29c-.046.033-.1-.029-.146-.06-.188.074-.441.094-.652.181h.011c-.114.036-.218-.032-.329,0,.005.023-.012.028-.019.042-.041-.106-.626.357-.679.3a.2.2,0,0,1-.034.02c-.25,0-.538-.173-.739-.116a1.445,1.445,0,0,0-.1.18c-.045-.041-.035.052-.082.048-.151-.2-.2-.1-.128-.029a1.082,1.082,0,0,1-.261.065c-.035.023-.069.047-.1.072s-.053-.005-.079-.055c-.077.046-.062-.013-.152-.02-.034-.074-.2.161-.224.141l.012-.014c-.1,0-.194-.136-.292-.126-.28-.012-.565.092-.817.1.009.082.052-.026.071.082-.149.008-.309-.074-.456-.069a.311.311,0,0,1-.08-.081c-.049-.025-.023.042-.057.036l-.013-.073c-.042.066-.081-.073-.121-.039,0,.03-.015.035-.031.035-.009-.078-.048.01-.053-.062v.006c-.01,0-.016.005-.029-.007-.017.031-.161.257-.179.292l-.009-.013c-.024,0-.03.062-.016.076l-.029,0,0-.006-.029,0a.134.134,0,0,1-.006-.078c-.015.028-.033.044-.049.03a2.115,2.115,0,0,1,.16.19c-.02.029-.059-.011-.08,0a.679.679,0,0,0-.119-.129c-.007,0-.013.092-.03.053-.008-.061-.02,0-.033-.042.017-.032.032-.018.049-.014,0-.072-.038-.049-.05-.069-.012.023-.026,0-.036.017.01-.068,0-.044,0-.081h0s-.005.028-.007.039l0,.021h0l.008-.058h0l0,.006a.064.064,0,0,1,0,.034c-.029.073.016.045-.006.122,0-.036-.024-.025,0-.02a.326.326,0,0,0-.014.069c.01-.008,0,.042.018,0,0-.011,0-.006,0-.006a.3.3,0,0,0,0-.134.416.416,0,0,0,.03-.11.268.268,0,0,1-.011.053c0,.024-.028.053-.013.082a.251.251,0,0,1,0,.116c-.009.016-.023.072-.029.083,0-.017.008-.033.011-.05a.482.482,0,0,0-.031.11.883.883,0,0,0,.021-.134.356.356,0,0,0,.031-.1l0,.02c0,.026-.037.048-.023.005a.212.212,0,0,0,0,.07l0-.006a.1.1,0,0,1-.011.066,1.412,1.412,0,0,0-.06.2c-.033.1-.087.2-.053.221,0-.091.031-.087.056-.092a.147.147,0,0,0,.035.1c.025,0,.017-.031.023-.053.011.021.036.04.031.086.022-.056.031.036.057.017s0-.024.014-.051c.032.007.077.014.1.024a.348.348,0,0,1,.025.189c-.052-.007.016-.112-.037-.1.025.1-.047.03-.056.1a.055.055,0,0,0,.084.031l-.006-.013c.026-.014.076-.037.108.015-.005.036.009.062-.01.071l.037.005c0-.012.008-.023,0-.031.015-.028.033-.014.047.005.008.037.178-.17.173-.147.025,0,.037.052.058.011,0-.029-.233.149-.2.133.028.041.274-.211.3-.142a.038.038,0,0,0,.032-.052c.034.015,0,.073.025.106,0-.006,0-.018,0-.018l.027.045c.043-.064.124,0,.166-.08a.475.475,0,0,1-.047.157l-.008-.019c0,.012-.03.028-.024.066.035.021.061.011.09-.03a.332.332,0,0,1,.022.029l0-.015c.014.022.013.026.011.041a.039.039,0,0,1,0,.009c.034.107.116-.086.181-.037.015-.018,0-.019.017-.043a.689.689,0,0,0,.176.08.111.111,0,0,0-.019-.115l.049.009c-.025.132.1.108.076.24a.041.041,0,0,0,.07,0c0-.032-.005-.083.028-.088a.829.829,0,0,1,.083.056c.015.04,0,.058.01.091.05-.062.065.082.119.065.033-.018.1-.033.091-.105C1170.377,638.786,1170.385,638.839,1170.39,638.9Z" transform="translate(-1168.313 -636.283)" fill="#3c3c3b"/>
    </g>
  </g>
  <g id="Group_7618" data-name="Group 7618" transform="translate(16.665 59.31)">
    <g id="Group_7617" data-name="Group 7617">
      <path id="Path_12022" data-name="Path 12022" d="M1259.6,734.133l.022-.037a1.773,1.773,0,0,1-.186.38c.335-.208.662-.474.243-.874.274.07.5-.165.433-.194a1.153,1.153,0,0,1-.058-.219,1.238,1.238,0,0,0,.022.145,1.238,1.238,0,0,1-.022-.145,1.7,1.7,0,0,1,.426-1.205c.137-.214.432-.821.6-1.026.023-.031.045-.061.066-.092l-.091.1a4.4,4.4,0,0,1-.026-.472.423.423,0,0,0-.156.03l.05-.055c-.085-.1-.026-.235-.046-.317.052.036.083-.009.109-.05l-.045,0c.091-.158.122-.372.192-.518.009-.021.036-.027.06-.029l.016-.161c.071.042.116-.09.135,0-.045-.144.054-.23.006-.37a4.709,4.709,0,0,0,.3-1.2l-.032,0c.012-.152-.079-.335.044-.47-.046-.161-.017-.345-.146-.466.045-.141-.005-.231.021-.38-.092-.006-.027-.172-.117-.14-.148.031-.062.082-.183.112l.026.011a4.5,4.5,0,0,0-.719.933,4.844,4.844,0,0,1-.3.748,4.619,4.619,0,0,0-.186.835c0,.063-.082.075-.137.106-.052.222-.183.478-.236.73a.041.041,0,0,1,.007-.01c-.038.13-.154.192-.189.32.023.008.017.028.025.041-.114-.019-.062.8-.137.824a.281.281,0,0,1,0,.044c-.146.24-.449.432-.514.662a1.469,1.469,0,0,0,.1.2c-.06.023.025.062,0,.105-.255.043-.192.146-.095.111a1.443,1.443,0,0,1-.087.293c0,.047,0,.093.005.141s-.033.05-.09.049c0,.1-.045.055-.1.142-.082,0,.033.278,0,.3l-.005-.019c-.052.1-.221.125-.265.23a9.4,9.4,0,0,0-.338.885c.077.03,0-.066.108-.034-.07.157-.223.287-.292.446a.329.329,0,0,1-.112.05c-.047.042.026.044,0,.078l-.072-.019c.038.076-.106.055-.1.118a.033.033,0,0,1,.016.051c-.075-.024-.014.059-.082.033l.005,0c-.005.011,0,.021-.021.03.019.031.155.3.179.333l-.016.006c-.008.031.043.062.063.05l-.017.036,0-.006-.017.035a.1.1,0,0,1-.075-.021c.019.03.025.058,0,.074a1.314,1.314,0,0,1,.252-.127c.017.034-.038.065-.039.095a.556.556,0,0,0-.176.107c0,.013.081.049.036.062-.062-.007-.007.03-.057.037-.022-.035,0-.054.011-.078-.069-.019-.067.045-.092.058.018.016-.02.057-.012.094-.061-.035-.05.01-.091.016-.015.018.007.04.033.039.069.031.07-.067.135-.013-.037,0-.039.04-.043.062.039.013.034,0,.067.022-.017.021.021.062-.024.062-.009-.008,0-.016,0-.022-.015.03-.2-.254-.187-.206.038,0,.169.255.179.235.026-.013.065.037.085.022l-.04-.038a.125.125,0,0,1,.119.009c-.021.043-.221-.217-.195-.165l.024-.009c.02.025.027.076-.02.079a.079.079,0,0,1,.052.063l-.009,0c.013.025-.005.048.05.053.031-.112.364.2.422.105-.1.016-.081-.045-.075-.095a.155.155,0,0,0,.113-.028c0-.031-.025-.028-.045-.04.025-.01.051-.035.094-.016-.045-.041.046-.025.037-.058s-.023-.006-.043-.032a.8.8,0,0,1,.063-.107.31.31,0,0,1,.187.041c-.028.052-.1-.057-.1.005.1.008.009.059.078.094a.063.063,0,0,0,.061-.075l-.015,0c0-.031,0-.092.056-.1.031.018.061.014.062.037l.019-.035c-.009-.008-.018-.017-.029-.009-.02-.026,0-.039.025-.046s-.081-.249-.061-.236c.008-.027.063-.016.036-.054-.028-.013.034.3.034.259.047-.01-.073-.365,0-.359,0-.021.005-.047-.032-.055.029-.028.065.034.107.021-.005,0-.019,0-.015-.011l.053-.007c-.038-.071.061-.123.006-.2a.466.466,0,0,1,.118.118h-.021c.009.009.012.042.048.053.035-.025.039-.056.016-.1a.326.326,0,0,1,.036-.009l-.014,0c.026,0,.029,0,.042.008l.007.005c.112.015-.021-.154.054-.2-.009-.023-.017-.008-.03-.037a.837.837,0,0,0,.157-.136.1.1,0,0,0-.111-.036l.032-.044c.1.086.147-.052.25.039a.048.048,0,0,0,.038-.066c-.029-.013-.076-.035-.064-.069a.813.813,0,0,1,.091-.054c.042,0,.053.024.085.033-.029-.079.1-.024.117-.084,0-.04.021-.113-.047-.139C1259.491,734.091,1259.541,734.109,1259.6,734.133Z" transform="translate(-1257.389 -726.353)" fill="#3c3c3b"/>
    </g>
  </g>
</svg>
