<svg xmlns="http://www.w3.org/2000/svg" width="151.335" height="190.461" viewBox="0 0 151.335 190.461">
  <g id="Group_9334" data-name="Group 9334" transform="translate(-350.115 -84.477)">
    <g id="Group_9325" data-name="Group 9325">
      <g id="Group_9315" data-name="Group 9315">
        <path id="Path_13815" data-name="Path 13815" d="M422.253,175.878a6.716,6.716,0,0,0,13.432,0h2.775V164.351H419.478v11.527Z" fill="#75777f"/>
        <path id="Path_13816" data-name="Path 13816" d="M428.969,115.693a21.114,21.114,0,0,1,16.364,34.455c-6.322,7.1-6.09,14.2-6.09,14.2H418.7s.232-7.1-6.09-14.2a21.113,21.113,0,0,1,16.364-34.455Z" fill="#ffcf00"/>
        <g id="Group_9311" data-name="Group 9311">
          <rect id="Rectangle_19983" data-name="Rectangle 19983" width="23.9" height="2.5" transform="translate(417.019 174.628)" fill="#3e4354"/>
        </g>
        <g id="Group_9312" data-name="Group 9312">
          <path id="Path_13817" data-name="Path 13817" d="M439.242,165.6H417.4l.043-1.292c0-.062.107-6.725-5.773-13.331a22.361,22.361,0,1,1,34.63-.04c-5.916,6.646-5.812,13.309-5.811,13.376l.034,1.283Zm-19.354-2.5H438.05a24.426,24.426,0,0,1,6.349-13.785,19.865,19.865,0,1,0-30.826.04A24.328,24.328,0,0,1,419.888,163.1Z" fill="#3e4354"/>
        </g>
        <g id="Group_9313" data-name="Group 9313">
          <path id="Path_13818" data-name="Path 13818" d="M428.969,183.844a9.06,9.06,0,0,1-6.448-2.671l1.768-1.767a6.619,6.619,0,0,0,9.359,0l1.768,1.767A9.059,9.059,0,0,1,428.969,183.844Z" fill="#3e4354"/>
        </g>
        <g id="Group_9314" data-name="Group 9314">
          <rect id="Rectangle_19984" data-name="Rectangle 19984" width="23.9" height="2.5" transform="translate(417.019 168.849)" fill="#3e4354"/>
        </g>
        <path id="Path_13819" data-name="Path 13819" d="M424.269,134.828c-1.237,3.576-4.385,5.733-7.031,4.818s-3.789-4.557-2.552-8.134,4.386-5.733,7.032-4.818S425.507,131.251,424.269,134.828Z" fill="#fff"/>
      </g>
      <g id="Group_9316" data-name="Group 9316">
        <rect id="Rectangle_19985" data-name="Rectangle 19985" width="2.5" height="9.68" transform="translate(427.719 99.973)" fill="#3e4354"/>
      </g>
      <g id="Group_9317" data-name="Group 9317">
        <rect id="Rectangle_19986" data-name="Rectangle 19986" width="2.499" height="9.681" transform="translate(409.47 105.533) rotate(-30.002)" fill="#3e4354"/>
      </g>
      <g id="Group_9318" data-name="Group 9318">
        <rect id="Rectangle_19987" data-name="Rectangle 19987" width="2.5" height="9.681" transform="matrix(0.5, -0.866, 0.866, 0.5, 396.445, 119.472)" fill="#3e4354"/>
      </g>
      <g id="Group_9319" data-name="Group 9319">
        <rect id="Rectangle_19988" data-name="Rectangle 19988" width="9.68" height="2.5" transform="translate(392.136 135.556)" fill="#3e4354"/>
      </g>
      <g id="Group_9320" data-name="Group 9320">
        <rect id="Rectangle_19989" data-name="Rectangle 19989" width="9.681" height="2.5" transform="translate(396.445 154.141) rotate(-30)" fill="#3e4354"/>
      </g>
      <g id="Group_9321" data-name="Group 9321">
        <rect id="Rectangle_19990" data-name="Rectangle 19990" width="2.5" height="9.681" transform="matrix(0.5, -0.866, 0.866, 0.5, 451.858, 151.465)" fill="#3e4354"/>
      </g>
      <g id="Group_9322" data-name="Group 9322">
        <rect id="Rectangle_19991" data-name="Rectangle 19991" width="9.681" height="2.499" transform="matrix(0.5, -0.866, 0.866, 0.5, 441.462, 112.666)" fill="#3e4354"/>
      </g>
      <g id="Group_9323" data-name="Group 9323">
        <rect id="Rectangle_19992" data-name="Rectangle 19992" width="9.681" height="2.5" transform="matrix(0.866, -0.5, 0.5, 0.866, 451.858, 122.148)" fill="#3e4354"/>
      </g>
      <g id="Group_9324" data-name="Group 9324">
        <rect id="Rectangle_19993" data-name="Rectangle 19993" width="9.681" height="2.5" transform="translate(456.121 135.556)" fill="#3e4354"/>
      </g>
    </g>
    <g id="Group_9329" data-name="Group 9329">
      <g id="Group_9326" data-name="Group 9326">
        <path id="Path_13820" data-name="Path 13820" d="M428.962,274.938h-2.5q0-.778.024-1.54l2.5.079Q428.963,274.2,428.962,274.938Z" fill="#3e4354"/>
      </g>
      <g id="Group_9327" data-name="Group 9327">
        <path id="Path_13821" data-name="Path 13821" d="M429.175,270.558l-2.489-.247c.1-1.03.241-2.06.412-3.064l2.464.42C429.4,268.613,429.27,269.586,429.175,270.558Zm.981-5.743-2.426-.6c.248-1,.537-2,.858-2.978l2.375.784C430.661,262.935,430.39,263.875,430.156,264.815Zm1.827-5.517-2.3-.969c.4-.949.841-1.9,1.315-2.811l2.221,1.148C432.771,257.524,432.356,258.409,431.983,259.3Zm-30.408-1.088-.485,0c-.764-.014-1.554-.068-2.347-.162l.295-2.483a20.786,20.786,0,0,0,2.1.145l.44,0,.307,0,.023,2.5Zm3.477-.221-.317-2.48a24.613,24.613,0,0,0,2.815-.525l.6,2.428A27.52,27.52,0,0,1,405.052,257.989Zm-9.414-.507a28.5,28.5,0,0,1-3.013-.9l.848-2.351a26.328,26.328,0,0,0,2.749.826Zm71.154-.89q-.766,0-1.56-.041l.129-2.5a26.636,26.636,0,0,0,2.87,0l.143,2.5C467.857,256.576,467.33,256.592,466.792,256.592Zm-55.632-.109-.873-2.341a24.077,24.077,0,0,0,2.614-1.155l1.147,2.221A26.278,26.278,0,0,1,411.16,256.483Zm50.963-.245q-.672-.1-1.358-.226c-.561-.1-1.152-.246-1.751-.42l.7-2.4c.521.151,1.031.274,1.516.364.426.08.846.149,1.261.211Zm9.4-.07-.462-2.457a17.255,17.255,0,0,0,2.7-.733l.857,2.348A19.573,19.573,0,0,1,471.519,256.168Zm-81.789-.816a27.411,27.411,0,0,1-2.749-1.542l1.348-2.106a24.94,24.94,0,0,0,2.5,1.4Zm66.31-.839c-.9-.387-1.842-.845-2.8-1.361l1.182-2.2c.9.483,1.777.908,2.61,1.267Zm-21.39-.374-2.123-1.321c.54-.868,1.126-1.732,1.742-2.569l2.013,1.48C435.7,252.515,435.156,253.325,434.65,254.139Zm42.909-.236-1.334-2.115a9.339,9.339,0,0,0,2.026-1.695l1.873,1.654A11.833,11.833,0,0,1,477.559,253.9Zm-60.79-.329-1.43-2.051a16.617,16.617,0,0,0,2.157-1.775l1.756,1.779A19.1,19.1,0,0,1,416.769,253.574Zm-32.345-1.638a21.069,21.069,0,0,1-2.288-2.23l1.881-1.648a18.554,18.554,0,0,0,2.016,1.966Zm66.138-.325c-.826-.508-1.692-1.068-2.572-1.664l1.4-2.07q1.233.837,2.48,1.6ZM438.1,249.453l-1.895-1.631c.668-.776,1.378-1.54,2.11-2.272l1.768,1.767C439.392,248.006,438.725,248.725,438.1,249.453Zm-16.779-.6-2.209-1.171a2.831,2.831,0,0,0,.372-1.11c.014-.2.021-.4.021-.592s-.006-.363-.018-.542l2.494-.166c.016.234.024.469.024.708s-.009.506-.026.764A5.331,5.331,0,0,1,421.318,248.856Zm60.593-.053-2.341-.877a6.462,6.462,0,0,0,.326-1.224,9,9,0,0,0,.124-1.311l2.5.056a11.861,11.861,0,0,1-.157,1.661A9.055,9.055,0,0,1,481.911,248.8Zm-36.417-.612c-.826-.6-1.64-1.21-2.437-1.819l1.517-1.986c.782.6,1.58,1.194,2.389,1.782Zm-65.263-1.1a14.688,14.688,0,0,1-1.355-2.988l2.381-.763a11.992,11.992,0,0,0,1.125,2.475Zm20.474-.642a12.172,12.172,0,0,1-1.334-.077l.281-2.484a8.8,8.8,0,0,0,1.885.02c.272-.028.536-.06.8-.1l.352,2.474q-.435.063-.894.108A10.265,10.265,0,0,1,400.7,246.452Zm5.124-.9-.8-2.368a11.831,11.831,0,0,0,2.458-1.151l1.313,2.127A14.375,14.375,0,0,1,405.829,245.553Zm-9.7,0a9.183,9.183,0,0,1-2.932-1.859l1.75-1.786a6.682,6.682,0,0,0,2.129,1.332Zm46.085-.219L441.066,244l-.4.508c-.814-.645-1.605-1.279-2.361-1.892l1.572-1.943c.662.535,1.348,1.087,2.054,1.647.351-.281.707-.555,1.064-.823l1.5,2C443.717,244.079,442.952,244.694,442.217,245.33Zm-23.325-2.4a8.908,8.908,0,0,0-1.381-2.234l1.918-1.6a11.356,11.356,0,0,1,1.765,2.864Zm60.769-.09a7.561,7.561,0,0,0-1.205-2.268l1.984-1.521a10.07,10.07,0,0,1,1.6,3.015Zm-68.289-.681-1.723-1.812a20.124,20.124,0,0,0,1.9-2.1L413.5,239.8A22.527,22.527,0,0,1,411.372,242.164Zm35.519-.335-1.358-2.1c.865-.559,1.758-1.1,2.652-1.592l1.214,2.185C448.554,240.792,447.71,241.3,446.891,241.829Zm-68.629-.972c-.016-.26-.024-.521-.024-.785a13.533,13.533,0,0,1,.17-2.119c.02-.128.044-.267.07-.4l2.456.474c-.021.105-.04.21-.056.316a11.012,11.012,0,0,0-.14,1.733c0,.211.006.421.02.629Zm57.7-.129c-.843-.677-1.627-1.3-2.341-1.848l1.52-1.984c.727.556,1.527,1.192,2.387,1.883ZM391.6,240.2l0-.123a5.362,5.362,0,0,1,1.36-3.484l1.9,1.619a2.872,2.872,0,0,0-.764,1.865ZM452,238.988l-1.065-2.261c.937-.441,1.894-.852,2.845-1.222l.906,2.33C453.79,238.185,452.886,238.572,452,238.988Zm-36.472-.147a16.066,16.066,0,0,0-2.37-1.466l.585-1.149-.487-.332c.534-.786,1.074-1.616,1.635-2.487l2.1,1.354q-.465.725-.918,1.413.5.324.958.671Zm61.024-.115a13.529,13.529,0,0,0-2.366-1.4l1.063-2.263a16.082,16.082,0,0,1,2.8,1.664Zm-45.32-1.58c-.753-.522-1.578-1.072-2.466-1.637l1.341-2.11c.918.583,1.771,1.153,2.549,1.692Zm26.212-.268-.732-2.391c1.015-.31,2.028-.577,3.012-.791l.531,2.444C459.342,236.339,458.395,236.587,457.446,236.878Zm-60.584-.179-1.154-2.219a14.8,14.8,0,0,1,3.07-1.157l.633,2.418A12.206,12.206,0,0,0,396.862,236.7Zm74.694-.354a21.226,21.226,0,0,0-2.776-.6l.362-2.475a23.794,23.794,0,0,1,3.105.667Zm-61-.059a21.481,21.481,0,0,0-2.747-.729l.48-2.454a24.162,24.162,0,0,1,3.067.814Zm52.549-.627-.287-2.484a23.832,23.832,0,0,1,2.728-.165l.438,0-.037,2.5-.4,0A21.332,21.332,0,0,0,463.1,235.659Zm-81.342-.195L379.5,234.4a13.92,13.92,0,0,1,1.746-2.8l1.951,1.565A11.384,11.384,0,0,0,381.76,235.464Zm20.416-.2-.241-2.489c.5-.048,1.017-.08,1.542-.094s1.092,0,1.653.025l-.137,2.5c-.486-.027-.965-.036-1.443-.022S402.623,235.22,402.176,235.263Zm24.061-1.291c-.824-.479-1.687-.96-2.588-1.433l1.164-2.213c.932.49,1.827.988,2.68,1.484Zm-7.617-1.735-2.1-1.363c.532-.816,1.088-1.66,1.681-2.527l.623.425.441-1.061c.93.388,1.874.807,2.8,1.245l-1.066,2.262q-.656-.311-1.316-.6C419.32,231.166,418.965,231.708,418.62,232.237Zm-33.493-1.014-1.594-1.926a19.422,19.422,0,0,1,2.643-1.829l1.252,2.164A16.723,16.723,0,0,0,385.127,231.223Zm30.435-2.266c-.936-.334-1.876-.641-2.792-.91l.706-2.4c.96.283,1.946.6,2.926.954Zm-25.588-.57-.946-2.315a27.814,27.814,0,0,1,2.98-1.019l.677,2.406A25.463,25.463,0,0,0,389.974,228.387Zm55.14-.147c-.291,0-.583-.01-.874-.029l.166-2.494a10.989,10.989,0,0,0,2.69-.158l.449,2.459A13.631,13.631,0,0,1,445.114,228.24Zm-4.175-.754a9.523,9.523,0,0,1-1.808-.939q-.546-.364-1.058-.74l1.483-2.014q.463.342.962.674a6.979,6.979,0,0,0,1.334.691Zm-18.958-.146-2.007-1.489c.567-.766,1.2-1.582,1.87-2.419L423.793,225C423.142,225.808,422.531,226.6,421.981,227.34Zm-12.045-.032c-.96-.219-1.926-.4-2.868-.55l.385-2.471c1,.156,2.021.352,3.038.583Zm40.766-.271-1.031-2.277a7.945,7.945,0,0,0,2.162-1.4l1.721,1.813A10.307,10.307,0,0,1,450.7,227.037Zm-55.2-.218-.438-2.462c1.006-.178,2.047-.314,3.094-.4l.215,2.491C397.4,226.527,396.431,226.653,395.5,226.819Zm8.68-.4c-.278-.022-.554-.04-.831-.055-.655-.036-1.307-.052-1.955-.052h-.124v-2.5h.124q1.039,0,2.09.056.444.024.887.058Zm31.467-2.648a21.649,21.649,0,0,1-2.132-2.368l1.976-1.53a19.193,19.193,0,0,0,1.887,2.093Zm-9.954-1.052-1.89-1.637c.667-.769,1.355-1.535,2.051-2.274l1.82,1.714C427,221.238,426.335,221.977,425.691,222.721ZM455.417,222l-2.432-.582a5.2,5.2,0,0,0,.14-1.216,5.611,5.611,0,0,0-.132-1.205l2.44-.542a8.063,8.063,0,0,1,.192,1.747A7.74,7.74,0,0,1,455.417,222Zm-23.658-3.26c-.261-.468-.509-.954-.741-1.454q-.618.53-1.275,1.152l-1.719-1.814c.826-.782,1.619-1.473,2.358-2.053l.785,1,1.573-.614a21.237,21.237,0,0,0,1.2,2.566Zm20.2-1.981a8.347,8.347,0,0,0-1.878-1.808l1.457-2.033a10.919,10.919,0,0,1,2.431,2.355Zm-17.695-1.769-1.2-2.192a20.674,20.674,0,0,1,2.917-1.314l.849,2.351A18.256,18.256,0,0,0,434.26,214.992Zm13.452-1.342a12.248,12.248,0,0,0-2.628-.716l.394-2.469a14.814,14.814,0,0,1,3.164.865Zm-8.174-.566-.484-2.453a19.653,19.653,0,0,1,3.19-.365l.076,2.5A17.117,17.117,0,0,0,439.538,213.084Zm-10.1-.2c-.256-.955-.483-1.977-.674-3.038l2.461-.443c.178.993.389,1.945.627,2.831Zm-1.123-6.089c-.112-.955-.209-1.981-.287-3.049l2.494-.181c.075,1.031.167,2.019.276,2.938Zm-.461-6.09q-.062-1.47-.092-3.034l2.5-.05q.03,1.536.09,2.979Z" fill="#3e4354"/>
      </g>
      <g id="Group_9328" data-name="Group 9328">
        <path id="Path_13822" data-name="Path 13822" d="M427.723,194.43l0-1.507h2.5l0,1.493Z" fill="#3e4354"/>
      </g>
    </g>
    <path id="Path_13823" data-name="Path 13823" d="M372.116,172.653a6.982,6.982,0,1,1,6.983-6.983A6.991,6.991,0,0,1,372.116,172.653Zm0-11.465a4.482,4.482,0,1,0,4.483,4.482A4.487,4.487,0,0,0,372.116,161.188Z" fill="#ffcf00"/>
    <path id="Path_13824" data-name="Path 13824" d="M370.829,102.232a5.678,5.678,0,1,1,5.679-5.678A5.685,5.685,0,0,1,370.829,102.232Zm0-8.856a3.178,3.178,0,1,0,3.179,3.178A3.182,3.182,0,0,0,370.829,93.376Z" fill="#91b0c9"/>
    <path id="Path_13825" data-name="Path 13825" d="M475.208,182.692a4.041,4.041,0,1,1,4.04-4.041A4.045,4.045,0,0,1,475.208,182.692Zm0-5.581a1.541,1.541,0,1,0,1.54,1.54A1.542,1.542,0,0,0,475.208,177.111Z" fill="#ffcf00"/>
    <g id="Group_9330" data-name="Group 9330">
      <rect id="Rectangle_19994" data-name="Rectangle 19994" width="2.5" height="9.566" transform="translate(492.919 133.005) rotate(-44.998)" fill="#b3cfe0"/>
    </g>
    <g id="Group_9331" data-name="Group 9331">
      <rect id="Rectangle_19995" data-name="Rectangle 19995" width="9.566" height="2.5" transform="matrix(0.707, -0.707, 0.707, 0.707, 395.519, 189.853)" fill="#91b0c9"/>
    </g>
    <g id="Group_9332" data-name="Group 9332">
      <rect id="Rectangle_19996" data-name="Rectangle 19996" width="9.566" height="2.5" transform="translate(350.115 134.619) rotate(-45)" fill="#b3cfe0"/>
    </g>
    <g id="Group_9333" data-name="Group 9333">
      <rect id="Rectangle_19997" data-name="Rectangle 19997" width="9.566" height="2.5" transform="translate(461.536 91.242) rotate(-45)" fill="#ffcf00"/>
    </g>
  </g>
</svg>
