<svg xmlns="http://www.w3.org/2000/svg" width="154.555" height="63.433" viewBox="0 0 154.555 63.433">
  <g id="Group_8431" data-name="Group 8431" transform="translate(-678.281 -270.876)">
    <g id="Group_8414" data-name="Group 8414" transform="translate(774.866 282.054)">
      <g id="Group_8399" data-name="Group 8399" transform="translate(41.559 0)">
        <g id="Group_8398" data-name="Group 8398">
          <path id="Path_12577" data-name="Path 12577" d="M992.579,303.094l.053.113a8.62,8.62,0,0,1-.575-1.1c.107,1,.342,2.106,1.486,2.225-.374.319-.108,1.185,0,1.138a4.174,4.174,0,0,1,.478.356c-.1-.091-.2-.18-.3-.264.105.084.205.173.3.264a8.567,8.567,0,0,1,2,3.219c.3.676,1.259,2.436,1.534,3.152.042.1.085.2.131.305-.058-.179-.058-.179-.117-.358.351.324.676.614.958.914a.815.815,0,0,0,.067-.337l.068.2c.27.054.489.428.667.557-.113.018-.047.166.013.294l.031-.085c.243.481.641.967.881,1.382a.193.193,0,0,1,.012.165l.31.349c-.139.044.093.39-.1.25.323.206.418.557.737.746a21.082,21.082,0,0,0,2.209,2.906l.029-.053c.3.313.735.486.926.974.354.216.712.61,1.04.581.256.341.471.409.754.724.068-.168.362.253.351.019.03-.343-.127-.265-.109-.551l-.038.031a24.244,24.244,0,0,0-1.373-3.031,20.411,20.411,0,0,1-1.261-1.942c-.478-.679-1.028-1.394-1.5-1.937-.124-.123-.084-.291-.1-.45-.4-.523-.791-1.259-1.244-1.846a.2.2,0,0,1,.015.033c-.225-.321-.251-.65-.472-.964-.034.023-.068-.026-.1-.039.131-.158-1.521-1.711-1.5-1.884-.028-.029-.057-.06-.083-.093a19.133,19.133,0,0,0-.855-2.218,4.109,4.109,0,0,0-.467-.238c.007-.148-.143-.084-.2-.222.135-.523-.119-.625-.135-.388a7,7,0,0,1-.493-.745c-.091-.093-.182-.186-.278-.278-.085-.076-.067-.158-.017-.253-.193-.209-.068-.189-.187-.459.079-.131-.567-.512-.575-.6l.042.03c-.157-.3-.05-.629-.212-.917-.395-.835-1-1.637-1.409-2.387-.126.067.125.143-.031.25-.241-.44-.355-.964-.6-1.408a.857.857,0,0,1,0-.289c-.039-.166-.108-.046-.154-.157l.1-.081c-.18-.093-.011-.29-.142-.4-.048.02-.085-.027-.112-.079.115-.074-.1-.147.009-.2l-.01,0a.183.183,0,0,1-.039-.1c-.075-.031-.718-.366-.8-.393l0-.039c-.052-.077-.159-.058-.151,0l-.054-.1.015.006-.053-.1a.112.112,0,0,1,.109-.081.219.219,0,0,1-.147-.147,3.683,3.683,0,0,1,.019.682c-.081-.041-.092-.2-.148-.262a1.751,1.751,0,0,0-.048-.516c-.025-.026-.167.033-.152-.07.069-.088-.05-.075-.02-.171.088.036.1.112.141.181.1-.076-.027-.2-.029-.274-.048,0-.091-.152-.169-.214.123-.027.025-.1.051-.185-.021-.062-.083-.071-.105-.027-.121.05.065.255-.1.25.042-.052-.042-.146-.081-.2-.06.036-.022.066-.1.065-.026-.071-.139-.094-.1-.168.023,0,.029.034.039.054-.044-.086.666.2.566.12-.036.06-.644-.249-.614-.192,0,.068-.13.031-.12.1l.108.013a.161.161,0,0,1-.123.179c-.063-.125.618.085.495.021l0,.059c-.066-.019-.17-.113-.134-.2-.059.036-.116-.009-.167-.044v-.023c-.061-.031-.089-.109-.148-.029.188.285-.722.179-.584.482.059-.2.159-.043.251.072a.3.3,0,0,0-.049.245c.058.071.076.016.119.01,0,.061.022.158-.053.19.119.01.006.129.079.184s.033-.027.1-.006c.05.1.12.242.151.328-.047.069-.107.229-.247.226-.075-.154.2-.045.084-.183-.108.156-.123-.108-.251-.067a.252.252,0,0,0,.09.257l.01-.028c.063.06.182.185.15.311-.063.014-.081.072-.127.027l.051.1c.024,0,.049.005.043-.031.069.022.075.082.066.137-.049.045.553.384.509.389.046.07-.027.138.072.173.049-.02-.605-.565-.53-.482-.023.1.769.638.692.746.036.05.087.107.135.06.027.105-.123.038-.136.134.01,0,.025-.023.035,0l-.033.1c.172.085.183.358.387.432a.752.752,0,0,1-.334-.047l.019-.034c-.025,0-.092-.068-.146-.031a.308.308,0,0,0,.186.24.652.652,0,0,1-.015.079.184.184,0,0,1,.021-.015c-.016.051-.023.052-.052.054a.047.047,0,0,1-.016,0c-.129.156.317.285.331.5.053.034.031-.012.1.028a3.2,3.2,0,0,0,.125.546c.1.012.135,0,.168-.113l.057.145c-.26,0-.029.354-.3.337a.2.2,0,0,0,.095.2c.052-.022.135-.057.191.035a2.52,2.52,0,0,1,.024.265c-.046.062-.094.039-.14.073.179.116-.046.224.061.372.077.085.2.272.312.211C992.753,303.005,992.675,303.054,992.579,303.094Z" transform="translate(-990.379 -296.13)" fill="#3c3c3b"/>
        </g>
      </g>
      <g id="Group_8401" data-name="Group 8401" transform="translate(0.399 0.924)">
        <g id="Group_8400" data-name="Group 8400">
          <path id="Path_12578" data-name="Path 12578" d="M928.272,302.595l-.178.093c.548-.349,1.152-.669,1.752-.979-1.471.4-3.142.988-3.627,2.359-.359-.349-1.687.2-1.649.321-.2.231-.421.449-.646.659.158-.139.314-.281.465-.427-.151.147-.306.289-.465.427a22.253,22.253,0,0,1-5.2,3.238c-1.062.545-3.87,2.152-4.983,2.673-.16.077-.318.156-.478.238l.55-.237c-.565.5-1.073.962-1.585,1.376a1.257,1.257,0,0,0,.47-.016l-.308.135c-.153.331-.753.69-.988.936,0-.128-.227-.009-.43.1l.114.012c-.762.418-1.574,1.02-2.242,1.416a.4.4,0,0,1-.242.06l-.59.46c-.026-.15-.59.218-.335-.044-.386.435-.921.644-1.281,1.069a54.8,54.8,0,0,0-4.809,3.395l.069.019a7.551,7.551,0,0,1-1.662,1.354c-.408.473-1.077,1-1.125,1.378-.564.4-.719.665-1.253,1.084.224.033-.465.494-.124.416.488-.061.418-.222.827-.281l-.035-.035c1.623-.743,3.2-1.567,4.763-2.452.955-.734,2.114-1.33,3.155-2.016,1.114-.749,2.3-1.591,3.214-2.3a1.529,1.529,0,0,1,.68-.244c.866-.611,2.038-1.275,3.012-1.97a.566.566,0,0,1-.053.026c.527-.353,1.01-.475,1.524-.821-.024-.034.056-.086.084-.129.193.108,2.891-2.256,3.136-2.276.05-.042.1-.083.158-.123,1.158-.612,2.507-1,3.444-1.618.159-.205.351-.417.471-.613.212-.033.161-.19.376-.3.721.012.938-.313.6-.265.4-.307.842-.54,1.213-.785.16-.132.319-.265.478-.4a.359.359,0,0,1,.371-.091c.355-.284.292-.132.715-.347.169.055.9-.806,1.032-.841l-.055.058c.478-.266.925-.234,1.386-.5,1.316-.694,2.644-1.632,3.839-2.314-.063-.128-.242.186-.354.034.7-.405,1.493-.684,2.2-1.093a1.662,1.662,0,0,1,.418-.076c.25-.092.1-.139.269-.224l.089.1c.183-.236.423-.093.62-.277-.016-.051.063-.108.145-.153.075.113.24-.16.294-.046l0-.01a.467.467,0,0,1,.15-.073c.066-.1.726-.942.788-1.049l.055-.008c.126-.082.128-.2.04-.177l.162-.091-.013.02.161-.09a.083.083,0,0,1,.088.1.525.525,0,0,1,.252-.213,7.5,7.5,0,0,1-.992.212c.081-.105.312-.162.419-.246a3.761,3.761,0,0,0,.76-.2c.044-.036,0-.186.143-.2.109.056.122-.08.253-.071a.751.751,0,0,1-.3.215c.083.094.3-.088.4-.11.019-.058.245-.15.356-.258.006.136.144,0,.254.008.094-.041.125-.116.068-.13-.04-.127-.386.147-.337-.043.065.034.224-.09.313-.151-.036-.061-.091-.007-.067-.1.11-.05.174-.189.271-.162-.009.028-.058.044-.089.06.137-.075-.477.836-.327.695-.078-.026.536-.822.445-.772-.1.02-.009-.144-.105-.114l-.048.13c-.128.048-.24-.028-.225-.094.2-.109-.291.746-.165.584l-.085.012c.046-.082.21-.23.321-.211-.036-.06.044-.138.109-.208l.034-.007c.062-.08.182-.135.082-.181-.464.3-.063-.794-.54-.548.272.014.019.174-.173.313a.454.454,0,0,0-.342.012c-.118.087-.044.093-.047.141-.088.013-.235.07-.26-.01-.047.142-.188.043-.287.143-.079.1.029.031-.019.116-.16.086-.383.208-.516.268-.088-.035-.3-.061-.26-.226.243-.131.012.219.242.047-.2-.084.19-.173.166-.313a.6.6,0,0,0-.4.177l.038,0a.917.917,0,0,1-.491.262c0-.07-.081-.075,0-.14l-.166.089c-.01.029-.02.058.033.042a.252.252,0,0,1-.216.116c-.051-.044-.706.754-.7.7-.114.073-.193.007-.27.132a6.954,6.954,0,0,0,.842-.754c-.135,0-1.133,1.078-1.269,1.018-.083.057-.178.131-.124.175-.161.062-.023-.133-.157-.122,0,.01.026.023-.008.041l-.142-.01c-.17.224-.567.314-.731.573a.976.976,0,0,1,.16-.4l.044.013c.011-.03.123-.126.085-.179a.766.766,0,0,0-.4.284,1.1,1.1,0,0,1-.11.005.109.109,0,0,1,.016.02c-.071,0-.069-.013-.064-.046a.044.044,0,0,1,0-.019c-.19-.108-.5.45-.812.526-.062.07.01.032-.066.122a7.513,7.513,0,0,0-.824.3c-.046.125-.035.158.117.165l-.225.107c.076-.305-.5.064-.408-.253a.489.489,0,0,0-.319.167c.017.054.046.142-.1.233-.245.065-.182.057-.39.1-.078-.036-.031-.1-.068-.143-.216.241-.312.009-.555.174-.145.114-.448.312-.39.424C928.354,302.774,928.305,302.695,928.272,302.595Z" transform="translate(-897.39 -298.218)" fill="#3c3c3b"/>
        </g>
      </g>
      <g id="Group_8403" data-name="Group 8403" transform="translate(0.858 25.289)">
        <g id="Group_8402" data-name="Group 8402">
          <path id="Path_12579" data-name="Path 12579" d="M900.485,359.994l.05.109a7.951,7.951,0,0,1-.548-1.059c.088.965.3,2.037,1.429,2.133-.376.316-.128,1.152-.017,1.1a3.864,3.864,0,0,1,.467.337c-.094-.087-.192-.171-.294-.251.1.08.2.164.294.251a7.9,7.9,0,0,1,1.92,3.087c.289.651,1.2,2.342,1.459,3.032.039.1.08.2.123.294-.054-.173-.054-.173-.109-.345.341.309.658.583.931.87a.8.8,0,0,0,.073-.328l.064.193c.266.048.475.407.649.529-.112.019-.05.162.008.285l.031-.082c.231.462.617.926.846,1.325a.183.183,0,0,1,.009.16l.3.333c-.139.045.085.377-.1.244.315.194.4.533.715.711a19.465,19.465,0,0,0,2.132,2.781l.03-.052c.293.3.717.459.9.929.345.2.693.579,1.018.545.247.327.459.388.733.689.07-.164.353.239.347.012.035-.333-.12-.254-.1-.533l-.038.031a22.389,22.389,0,0,0-1.3-2.917,18.907,18.907,0,0,1-1.211-1.862,22.731,22.731,0,0,0-1.451-1.853c-.121-.117-.078-.281-.093-.435-.384-.5-.759-1.208-1.2-1.769a.218.218,0,0,1,.014.032c-.217-.308-.237-.626-.45-.926-.035.023-.066-.024-.1-.036.132-.155-1.473-1.632-1.446-1.8a1.2,1.2,0,0,1-.081-.089,17.7,17.7,0,0,0-.8-2.137,3.8,3.8,0,0,0-.458-.222c.009-.144-.14-.079-.2-.212.143-.51-.105-.605-.125-.374a6.517,6.517,0,0,1-.474-.714c-.088-.089-.177-.177-.27-.265-.082-.072-.064-.152-.013-.245-.187-.2-.064-.182-.177-.442.081-.129-.552-.487-.558-.576l.041.029c-.149-.289-.038-.61-.193-.887-.375-.8-.964-1.57-1.35-2.291-.125.067.121.137-.035.243-.231-.424-.333-.93-.567-1.356a.815.815,0,0,1,.01-.281c-.036-.16-.106-.042-.15-.149l.1-.081c-.176-.086-.005-.281-.132-.387-.048.02-.084-.025-.109-.074.115-.073-.1-.141.013-.2l-.01,0a.17.17,0,0,1-.037-.092c-.074-.029-.7-.343-.787-.367l0-.037c-.05-.074-.156-.054-.15,0l-.051-.1.015.006-.051-.1a.117.117,0,0,1,.109-.081.2.2,0,0,1-.143-.139,3.51,3.51,0,0,1,.006.661c-.079-.039-.087-.191-.142-.251a1.628,1.628,0,0,0-.038-.5c-.024-.024-.166.035-.149-.065.07-.087-.049-.072-.017-.166.086.033.1.107.135.173.1-.076-.023-.2-.023-.266-.048,0-.088-.146-.164-.2.122-.029.027-.1.053-.181-.019-.059-.08-.067-.1-.024-.121.051.06.246-.1.245.042-.052-.039-.142-.077-.193-.061.036-.023.065-.1.065-.024-.069-.136-.089-.095-.161.023,0,.028.032.038.051-.042-.082.655.186.557.106-.037.059-.632-.23-.6-.175,0,.066-.13.032-.12.1l.107.01a.163.163,0,0,1-.125.176c-.061-.12.609.072.489.012l0,.057c-.065-.017-.166-.107-.129-.188-.06.036-.115-.007-.165-.039v-.023c-.059-.029-.086-.1-.146-.025.181.273-.718.187-.586.478.062-.194.158-.044.247.065a.292.292,0,0,0-.052.239c.055.068.075.014.117.008,0,.059.019.153-.057.185.118.008,0,.125.075.177s.033-.026.1-.007c.047.1.115.233.143.316-.048.068-.11.224-.249.224-.071-.148.2-.048.086-.179-.11.153-.119-.1-.247-.061a.235.235,0,0,0,.084.248l.01-.028c.062.057.177.176.143.3-.062.014-.082.071-.126.028l.048.1c.024,0,.049,0,.044-.031.068.02.073.079.063.132-.049.044.54.363.5.368.043.067-.029.135.068.167.049-.02-.589-.537-.516-.458-.024.1.75.606.671.712.035.048.084.1.132.056.026.1-.122.039-.137.132.01,0,.025-.022.035,0l-.034.1c.168.08.174.343.374.412a.747.747,0,0,1-.329-.04l.02-.034c-.025,0-.089-.064-.144-.028a.285.285,0,0,0,.179.23.631.631,0,0,1-.016.077c.007,0,.012-.01.021-.015-.017.05-.024.051-.053.054a.05.05,0,0,1-.016,0c-.131.154.308.27.318.478.051.031.031-.013.1.025a2.979,2.979,0,0,0,.113.527c.1.01.133,0,.168-.112l.054.139c-.257,0-.035.343-.3.333a.186.186,0,0,0,.09.195c.051-.022.134-.057.188.031a2.39,2.39,0,0,1,.02.257c-.047.062-.093.039-.14.073.175.109-.05.219.053.359.075.082.194.26.3.2C900.659,359.9,900.58,359.953,900.485,359.994Z" transform="translate(-898.427 -353.262)" fill="#3c3c3b"/>
        </g>
      </g>
      <g id="Group_8405" data-name="Group 8405" transform="translate(16.338 26.198)">
        <g id="Group_8404" data-name="Group 8404">
          <path id="Path_12580" data-name="Path 12580" d="M964.479,359.729l-.179.094c.551-.351,1.16-.674,1.763-.986-1.479.408-3.159,1-3.649,2.373-.36-.349-1.7.209-1.657.326q-.309.347-.651.662c.16-.139.316-.282.468-.429-.152.147-.308.29-.468.429a22.507,22.507,0,0,1-5.237,3.258c-1.069.549-3.893,2.166-5.012,2.691-.161.078-.32.157-.48.24l.553-.239c-.569.5-1.08.967-1.6,1.382a1.268,1.268,0,0,0,.472-.017l-.309.136c-.154.332-.758.694-1,.94.005-.127-.227-.008-.432.1l.114.012c-.766.421-1.584,1.026-2.255,1.424a.4.4,0,0,1-.243.061l-.594.463c-.025-.151-.594.22-.336-.043-.389.436-.926.648-1.29,1.075a55.38,55.38,0,0,0-4.84,3.413l.069.019a7.639,7.639,0,0,1-1.674,1.361c-.411.475-1.085,1.007-1.133,1.383-.568.4-.725.668-1.262,1.09.225.032-.468.5-.125.417.49-.062.42-.223.832-.283l-.035-.036c1.632-.749,3.218-1.579,4.791-2.469.961-.738,2.127-1.338,3.175-2.028,1.121-.753,2.314-1.6,3.236-2.311a1.537,1.537,0,0,1,.683-.247c.872-.615,2.051-1.284,3.031-1.982a.577.577,0,0,1-.053.027c.531-.355,1.016-.478,1.533-.827-.024-.034.056-.087.085-.13.193.108,2.91-2.268,3.156-2.289.05-.042.1-.084.159-.124,1.165-.616,2.521-1.009,3.464-1.63.161-.206.354-.419.475-.615.214-.034.162-.191.378-.3.724.01.943-.316.6-.268.4-.308.847-.544,1.22-.789.161-.133.321-.266.481-.4a.361.361,0,0,1,.373-.092c.357-.286.294-.134.719-.35.169.055.9-.81,1.038-.846l-.055.058c.481-.268.93-.237,1.394-.509,1.324-.7,2.66-1.641,3.863-2.328-.063-.128-.243.187-.356.035.708-.407,1.5-.689,2.215-1.1a1.7,1.7,0,0,1,.42-.077c.252-.093.1-.139.27-.225l.09.1c.184-.237.425-.095.623-.279-.015-.051.064-.108.146-.154.076.114.242-.16.3-.047l0-.01a.485.485,0,0,1,.151-.073c.067-.1.732-.946.795-1.053l.055-.008c.127-.083.128-.2.041-.177l.162-.092-.013.019.162-.091a.083.083,0,0,1,.088.1.531.531,0,0,1,.254-.214,7.541,7.541,0,0,1-1,.215c.082-.106.313-.163.422-.247a3.765,3.765,0,0,0,.764-.2c.045-.037,0-.187.144-.2.109.056.123-.08.255-.072a.757.757,0,0,1-.3.216c.083.094.3-.089.407-.111.019-.058.247-.15.358-.259.006.136.144,0,.255.007.095-.042.126-.117.068-.131-.04-.128-.389.149-.338-.042.065.034.225-.09.314-.152-.036-.061-.091-.007-.067-.1.111-.05.175-.189.272-.163-.009.028-.058.044-.089.061.137-.076-.482.838-.33.7-.078-.026.54-.825.449-.774-.1.021-.009-.144-.106-.113l-.049.131c-.129.048-.241-.028-.226-.094.2-.11-.295.748-.167.586l-.085.013c.046-.082.212-.232.323-.213-.036-.059.045-.139.11-.208l.034-.007c.062-.08.184-.135.083-.182-.467.3-.061-.8-.541-.548.274.013.019.174-.174.314a.454.454,0,0,0-.343.012c-.119.088-.044.094-.048.142-.088.013-.236.071-.261-.009-.047.143-.189.044-.289.145-.08.1.029.031-.02.116-.161.087-.386.21-.519.27-.088-.035-.3-.06-.26-.226.244-.131.011.219.243.046-.2-.083.192-.174.167-.314a.608.608,0,0,0-.4.178l.039,0a.931.931,0,0,1-.494.264c0-.07-.081-.075,0-.141l-.167.089c-.01.029-.021.059.033.042a.257.257,0,0,1-.218.116c-.051-.044-.711.757-.707.707-.115.073-.193.008-.272.133a7.109,7.109,0,0,0,.848-.758c-.136,0-1.142,1.083-1.278,1.023-.083.057-.179.132-.125.176-.162.062-.022-.133-.158-.122,0,.01.026.023-.008.041l-.143-.009c-.172.225-.571.316-.736.575a.989.989,0,0,1,.162-.4l.045.013c.011-.031.123-.127.086-.18a.776.776,0,0,0-.4.286c-.037,0-.079.008-.111.006a.153.153,0,0,1,.016.02c-.071,0-.069-.013-.065-.046a.052.052,0,0,1,0-.019c-.191-.108-.5.452-.816.529-.063.071.01.032-.068.123a7.732,7.732,0,0,0-.829.3c-.047.126-.036.158.118.165l-.227.108c.078-.306-.506.065-.409-.253a.5.5,0,0,0-.321.169c.017.054.045.142-.1.234-.247.066-.183.058-.392.1-.079-.036-.031-.1-.068-.144-.217.243-.314.01-.558.176-.146.115-.451.313-.393.425C964.56,359.908,964.512,359.829,964.479,359.729Z" transform="translate(-933.399 -355.317)" fill="#3c3c3b"/>
        </g>
      </g>
      <g id="Group_8407" data-name="Group 8407" transform="translate(30.38 0.932)">
        <g id="Group_8406" data-name="Group 8406">
          <path id="Path_12581" data-name="Path 12581" d="M972.6,303.616l-.063.108a8.627,8.627,0,0,1,.583-1.1c-.758.65-1.547,1.481-.984,2.487-.475-.124-1.033.593-.93.657a4.373,4.373,0,0,1-.014.6c.018-.132.032-.265.04-.4-.008.135-.022.267-.04.4a8.667,8.667,0,0,1-1.447,3.49c-.369.64-1.232,2.432-1.651,3.067l-.17.281.221-.3c-.057.471-.1.9-.179,1.3a.808.808,0,0,0,.312-.14l-.122.17c.114.25-.061.642-.062.86-.081-.081-.162.057-.231.18l.086-.024c-.25.471-.41,1.075-.612,1.5a.193.193,0,0,1-.127.1l-.106.45c-.116-.088-.264.3-.259.062.017.379-.212.656-.187,1.022a23.457,23.457,0,0,0-1.15,3.424l.06,0c-.1.419,0,.874-.306,1.3.016.413-.128.922.072,1.184a10,10,0,0,0-.21,1.023c.178-.03-.023.442.17.31.3-.157.157-.248.409-.386l-.047-.016a20.6,20.6,0,0,0,1.813-2.808c.195-.729.631-1.416.907-2.138a21.516,21.516,0,0,0,.735-2.34c.029-.172.19-.235.31-.341.2-.625.568-1.371.783-2.079a.331.331,0,0,1-.019.031c.129-.37.381-.581.506-.942-.039-.014-.019-.069-.027-.1.206.013.494-2.224.648-2.305.007-.04.015-.081.027-.122a19.23,19.23,0,0,0,1.293-1.975,4.147,4.147,0,0,0-.081-.515c.124-.08-.016-.164.062-.29.5-.192.437-.456.236-.332a6.638,6.638,0,0,1,.316-.827l.064-.384c.012-.112.089-.145.195-.159.058-.276.114-.163.264-.414.151-.012.089-.752.159-.811v.051c.155-.3.484-.4.625-.691.455-.791.763-1.736,1.154-2.48-.126-.066-.049.181-.224.112.228-.44.6-.819.826-1.262a.8.8,0,0,1,.242-.152c.116-.121-.021-.114.045-.211l.123.041c-.022-.2.235-.163.256-.33-.043-.03-.024-.085,0-.135.124.056.067-.162.175-.1l-.008-.006c.017-.03.019-.056.058-.083-.016-.079-.092-.793-.113-.877l.034-.018c.037-.084-.037-.163-.082-.126l.057-.1,0,.016.057-.1a.115.115,0,0,1,.127.049.211.211,0,0,1,.044-.2,3.647,3.647,0,0,1-.563.371c-.008-.089.117-.18.141-.26a1.72,1.72,0,0,0,.408-.309c.008-.035-.117-.123-.023-.164.111.012.036-.081.133-.105.017.092-.038.146-.077.212.116.043.157-.128.215-.166-.022-.042.079-.155.089-.253.089.089.1-.032.182-.053.04-.049.015-.106-.034-.1-.107-.076-.179.186-.262.048.066.008.1-.111.125-.172-.063-.032-.068.016-.109-.052.046-.058,0-.166.089-.17.011.021-.013.042-.024.061.048-.081.185.667.2.538-.07,0-.135-.671-.167-.617-.057.036-.1-.095-.144-.052l.047.1a.16.16,0,0,1-.216-.012c.07-.117.258.566.246.428l-.051.027c-.019-.065,0-.2.093-.214-.062-.031-.055-.1-.052-.164l.019-.012c-.006-.067.044-.131-.054-.14-.139.308-.535-.519-.716-.243.2-.054.12.112.073.25a.3.3,0,0,0-.232.087c-.029.086.027.073.054.106-.053.029-.121.1-.189.054.056.106-.1.073-.112.163s.04.014.058.082c-.058.1-.14.229-.2.3-.084,0-.251.032-.323-.089.089-.144.144.143.2-.026-.19-.009.026-.161-.078-.247-.1.015-.146.117-.169.212l.029-.007c-.016.085-.058.251-.182.292-.046-.046-.1-.03-.09-.092l-.061.1c.011.022.022.044.049.02.019.07-.03.107-.08.129-.064-.016-.019.672-.047.637-.034.076-.13.053-.105.154a2.883,2.883,0,0,0,.113-.7c-.095.034-.113.99-.246.984-.022.058-.042.131.024.146-.073.08-.1-.081-.187-.041.008.006.032.008.02.029l-.105.029c.023.189-.2.347-.149.558a.733.733,0,0,1-.144-.3l.039,0c-.012-.023.006-.113-.054-.139a.3.3,0,0,0-.1.286.592.592,0,0,1-.073.031l.024.009c-.052.015-.056.009-.074-.014a.06.06,0,0,1-.011-.013c-.2-.022-.059.421-.228.552,0,.062.027.018.032.1a3.16,3.16,0,0,0-.383.407c.048.093.076.111.187.076l-.088.127c-.142-.217-.31.173-.446-.057a.2.2,0,0,0-.116.192c.047.031.122.079.078.178a2.647,2.647,0,0,1-.2.17c-.077,0-.085-.056-.14-.075.007.213-.211.089-.272.26-.027.112-.11.32,0,.376C972.775,303.709,972.691,303.672,972.6,303.616Z" transform="translate(-965.124 -298.235)" fill="#3c3c3b"/>
        </g>
      </g>
      <g id="Group_8409" data-name="Group 8409" transform="translate(0 25.676)">
        <g id="Group_8408" data-name="Group 8408">
          <path id="Path_12582" data-name="Path 12582" d="M919.962,355.079l-.117-.02c.381.013.771.056,1.18.105a4.739,4.739,0,0,0-1.332-.477,1.4,1.4,0,0,0-1.307.509c-.061-.489-.937-.745-.959-.626a4.256,4.256,0,0,1-.565.2c.131-.031.261-.066.39-.107-.129.041-.259.076-.39.107a8.662,8.662,0,0,1-3.811-.106c-.737-.118-2.739-.3-3.489-.469l-.327-.061.363.1c-.466.111-.889.22-1.3.286a.816.816,0,0,0,.243.243l-.2-.055c-.2.194-.63.165-.838.241.049-.1-.111-.132-.252-.154l.053.072c-.536-.066-1.164-.013-1.644-.049a.2.2,0,0,1-.144-.083l-.464.058c.042-.139-.375-.145-.151-.222-.353.149-.7.027-1.035.182a23.529,23.529,0,0,0-3.658.127l.026.054c-.432.063-.828.313-1.338.177-.384.158-.918.215-1.091.494a10.035,10.035,0,0,0-1.041.172c.094.155-.424.139-.228.27.259.228.291.057.513.243l0-.05a21.661,21.661,0,0,0,3.3.684c.758-.068,1.563.086,2.344.1a23.09,23.09,0,0,0,2.477-.129c.174-.033.29.095.433.17.663-.032,1.5.056,2.249.009a.259.259,0,0,1-.036-.007c.4-.006.686.154,1.073.146,0-.042.06-.042.089-.062.06.2,2.287-.314,2.418-.2a1.244,1.244,0,0,1,.125-.018,19.193,19.193,0,0,0,2.338.513,4.037,4.037,0,0,0,.459-.259c.121.088.15-.073.3-.045.364.4.591.246.4.1a7.164,7.164,0,0,1,.9,0l.387-.079c.111-.029.17.031.222.125.282-.046.2.047.489.1.066.138.745-.19.826-.146l-.049.018c.34.036.555.306.881.33a12.422,12.422,0,0,0,1.433.1c.515.008.994-.014,1.433,0,.006-.142-.192.036-.206-.153.516.016,1.033.178,1.537.19a.837.837,0,0,1,.245.15c.161.05.094-.07.21-.054l.018.128c.167-.108.249.139.405.084.008-.051.065-.058.12-.054,0,.136.17-.01.162.114l0-.01a.173.173,0,0,1,.1.016c.062-.049.651-.413.717-.465l.028.023c.087,0,.128-.1.079-.127l.106.012-.012.009.1.014a.121.121,0,0,1,0,.136.187.187,0,0,1,.187-.038,5,5,0,0,1-.532-.367c.075-.044.206.031.284.022a1.847,1.847,0,0,0,.412.257c.032,0,.067-.154.133-.081.024.108.081,0,.132.085-.074.049-.137.018-.2.006,0,.124.158.1.206.139.029-.035.147.023.23,0-.052.114.053.083.085.154.044.024.083-.017.071-.062.043-.127-.186-.111-.095-.233.012.063.113.061.166.066.014-.069-.026-.06.021-.119.056.027.138-.044.157.034-.016.017-.037,0-.054,0,.069.018-.495.377-.389.357-.015-.073.5-.334.46-.347-.041-.043.063-.117.018-.151l-.074.073a.174.174,0,0,1-.034-.209c.11.03-.413.414-.3.364l-.036-.039c.05-.041.171-.062.2.02.013-.069.072-.082.122-.1l.014.015c.054-.026.117,0,.107-.093-.3-.046.356-.654.064-.751.1.176-.077.146-.213.138a.27.27,0,0,0-.148-.194c-.089,0-.059.049-.081.085-.043-.041-.132-.082-.11-.162-.08.085-.1-.073-.191-.049s0,.042-.056.084c-.109-.022-.262-.049-.349-.071-.029-.078-.127-.219-.043-.332.171.027-.077.188.1.174-.065-.178.16-.038.2-.164a.252.252,0,0,0-.266-.077l.018.024c-.087.019-.259.042-.347-.053.024-.06-.015-.108.05-.12l-.118-.016c-.016.019-.032.038,0,.054a.112.112,0,0,1-.154-.021c-.014-.069-.632.26-.61.22-.084,0-.1-.095-.186-.029a3.283,3.283,0,0,0,.7-.193c-.075-.077-.963.313-1.013.194-.062.005-.138.02-.122.085-.106-.03.03-.125-.046-.185,0,.01.007.032-.018.031l-.073-.082c-.162.1-.405-.023-.574.115a.754.754,0,0,1,.212-.264l.02.034c.015-.02.106-.045.1-.11a.315.315,0,0,0-.3.039.67.67,0,0,1-.061-.052l0,.025c-.037-.04-.034-.046-.021-.072a.047.047,0,0,1,.007-.015c-.07-.19-.409.131-.6.037-.055.029,0,.033-.073.071a3.383,3.383,0,0,0-.535-.167c-.063.084-.067.117.012.2l-.154-.024c.135-.222-.288-.2-.139-.427a.2.2,0,0,0-.219-.022c-.008.055-.02.144-.127.145a2.011,2.011,0,0,1-.234-.117c-.028-.072.016-.1.011-.158-.185.091-.163-.155-.333-.145-.107.019-.318.024-.328.149C919.94,355.273,919.944,355.181,919.962,355.079Z" transform="translate(-896.488 -354.137)" fill="#3c3c3b"/>
        </g>
      </g>
      <g id="Group_8411" data-name="Group 8411" transform="translate(33.089 20.635)">
        <g id="Group_8410" data-name="Group 8410">
          <path id="Path_12583" data-name="Path 12583" d="M990.4,345.807l-.1-.038a5.987,5.987,0,0,1,.97.316c-.612-.582-1.4-1.164-2.184-.4.038-.493-.64-.86-.675-.748a2.96,2.96,0,0,1-.489.111c.11-.009.22-.023.332-.044-.111.02-.221.035-.332.044a5.841,5.841,0,0,1-3.042-.7c-.57-.232-2.149-.717-2.723-1l-.253-.109.274.155c-.4.039-.757.083-1.1.087a.77.77,0,0,0,.152.276l-.155-.085c-.194.161-.539.069-.721.114.058-.095-.066-.146-.176-.188l.03.079c-.421-.145-.939-.181-1.32-.285a.154.154,0,0,1-.1-.1l-.387-.008c.06-.131-.278-.194-.083-.239-.313.1-.57-.069-.872.037a14.46,14.46,0,0,0-3-.337l.012.057c-.362.01-.726.21-1.119.022-.339.113-.783.11-.969.369a7.11,7.11,0,0,0-.875.064c.053.162-.366.094-.228.243.175.251.228.085.378.291l.006-.049a16.748,16.748,0,0,0,2.563,1.034,14.13,14.13,0,0,1,1.877.385,16.912,16.912,0,0,0,2.022.2c.146-.008.218.134.319.229.541.061,1.2.269,1.811.332a.142.142,0,0,1-.028-.011c.321.051.525.254.838.3.007-.041.056-.032.083-.048.012.2,1.9.038,1.985.172a.742.742,0,0,1,.1,0,13.581,13.581,0,0,0,1.79.868,3.242,3.242,0,0,0,.417-.182c.081.1.134-.048.248,0,.221.452.432.335.3.163a4.83,4.83,0,0,1,.725.14l.326-.016c.094-.011.131.057.157.158.236,0,.15.077.377.172.03.151.634-.077.692-.027l-.042.012c.268.079.382.374.641.444.7.261,1.528.361,2.222.563.038-.137-.161,0-.127-.19.405.118.792.381,1.222.487a.759.759,0,0,1,.183.192c.131.078.094-.051.194-.015l-.008.129c.17-.079.2.177.354.148.016-.05.069-.048.12-.036-.017.135.162.012.137.135l0-.01a.159.159,0,0,1,.091.029c.067-.034.676-.343.739-.4l.026.025c.084.005.129-.094.082-.122l.1.015-.013.008.1.015a.121.121,0,0,1,0,.136.188.188,0,0,1,.188-.036,2.508,2.508,0,0,1-.505-.381c.072-.039.188.045.265.034a1.394,1.394,0,0,0,.406.255c.033-.007.061-.158.131-.089.033.106.083,0,.142.076-.071.054-.14.027-.211.02.007.124.171.089.228.125.028-.039.165.008.254-.03-.038.12.072.074.127.137.061.013.1-.035.073-.077.016-.13-.239-.073-.157-.21.022.062.138.038.2.031,0-.071-.043-.053-.005-.121.069.014.138-.073.181,0-.012.019-.041.008-.061.007.1.005-.481.471-.367.428-.026-.062.512-.43.448-.433-.056-.034.032-.128-.024-.152l-.058.087a.167.167,0,0,1-.087-.2c.131.008-.353.49-.247.416l-.046-.033c.047-.046.171-.089.222-.016,0-.069.061-.1.112-.122l.019.011c.052-.036.128-.022.089-.113-.3.018.166-.714-.124-.747.124.151-.034.159-.159.179a.281.281,0,0,0-.159-.166c-.077.014-.046.057-.06.1-.043-.036-.124-.067-.111-.148-.062.1-.094-.064-.166-.032s0,.042-.043.087a1.774,1.774,0,0,1-.3-.058c-.025-.077-.1-.218-.031-.332.138.026-.066.188.082.173-.053-.178.131-.038.164-.17a.183.183,0,0,0-.213-.071l.014.024c-.069.018-.21.045-.276-.053.023-.059-.005-.107.046-.119l-.092-.019c-.013.018-.027.036,0,.053-.048.043-.09.012-.12-.028,0-.062-.529.215-.51.173-.069-.007-.072-.105-.147-.05-.011.055.675-.136.581-.13-.045-.071-.806.227-.833.093-.051,0-.114,0-.112.066-.08-.045.045-.119,0-.189,0,.01,0,.033-.02.028l-.044-.091c-.148.081-.316-.087-.478.02a.749.749,0,0,1,.219-.224l.009.037c.016-.018.092-.027.1-.091a.21.21,0,0,0-.246-.012.57.57,0,0,1-.038-.062l0,.026c-.021-.045-.017-.051,0-.074a.058.058,0,0,1,.009-.014c-.015-.2-.347.055-.479-.073-.05.017-.011.031-.074.055a2.4,2.4,0,0,0-.384-.266.139.139,0,0,0-.037.2l-.116-.053c.159-.189-.182-.257-.011-.443a.141.141,0,0,0-.171-.065c-.02.053-.05.137-.135.117a1.831,1.831,0,0,1-.164-.158c-.007-.075.035-.095.044-.152-.173.054-.1-.184-.245-.2-.095,0-.277-.034-.31.087C990.34,345.994,990.361,345.9,990.4,345.807Z" transform="translate(-971.244 -342.748)" fill="#3c3c3b"/>
        </g>
      </g>
      <g id="Group_8413" data-name="Group 8413" transform="translate(15.733 27.591)">
        <g id="Group_8412" data-name="Group 8412">
          <path id="Path_12584" data-name="Path 12584" d="M935.529,363.371l-.039.1a5.937,5.937,0,0,1,.339-.974c-.6.628-1.186,1.375-.452,2.166-.486-.062-.891.584-.779.628a3.1,3.1,0,0,1,.1.5c-.006-.112-.017-.224-.035-.336.017.113.028.225.035.336a5.9,5.9,0,0,1-.78,3.037c-.246.565-.773,2.137-1.069,2.705l-.116.251.161-.27c.028.4.062.766.057,1.11a.758.758,0,0,0,.279-.143l-.089.153c.155.2.055.544.094.729-.093-.061-.147.062-.193.17l.08-.027c-.157.418-.205.937-.32,1.318a.155.155,0,0,1-.1.1l-.019.388c-.129-.064-.2.274-.24.076.089.317-.085.571.014.877a14.574,14.574,0,0,0-.417,3l.057-.011c0,.363.191.733-.008,1.122.1.342.089.786.344.978a7,7,0,0,0,.042.876c.164-.049.085.368.238.233.256-.17.091-.226.3-.372l-.049-.007a16.812,16.812,0,0,0,1.1-2.537,14.048,14.048,0,0,1,.433-1.867,17.077,17.077,0,0,0,.257-2.017c0-.147.139-.213.236-.312.075-.54.3-1.193.379-1.8a.172.172,0,0,1-.012.028c.06-.32.267-.517.324-.829-.041-.009-.031-.057-.046-.085.2,0,.088-1.9.224-1.984a.819.819,0,0,1,0-.1,13.527,13.527,0,0,0,.912-1.761,3.316,3.316,0,0,0-.171-.426c.107-.077-.044-.137.009-.249.455-.2.345-.419.171-.3a4.809,4.809,0,0,1,.159-.722c0-.108,0-.216-.008-.329-.008-.1.06-.129.161-.15.006-.237.081-.147.181-.371.147-.022-.053-.641,0-.7l.009.043c.095-.265.4-.378.478-.64.289-.713.4-1.553.616-2.205-.136-.042-.008.155-.193.115.127-.39.4-.729.54-1.107a.677.677,0,0,1,.2-.142c.089-.108-.042-.092,0-.178l.127.025c-.061-.163.2-.151.184-.292-.047-.022-.039-.07-.022-.113.131.038.034-.14.151-.1l-.009,0c.011-.027.008-.048.042-.074-.03-.065-.231-.662-.268-.733l.029-.017c.019-.074-.067-.136-.1-.1l.036-.087.006.013.036-.087a.131.131,0,0,1,.132.032.157.157,0,0,1,0-.173,2.968,2.968,0,0,1-.474.356c-.025-.075.079-.161.086-.232a1.346,1.346,0,0,0,.336-.293c0-.03-.136-.1-.053-.138.11,0,.02-.072.109-.1.033.077-.01.127-.035.186.121.028.128-.12.177-.158-.03-.035.047-.139.039-.222.1.069.092-.035.167-.059a.053.053,0,0,0-.052-.085c-.118-.057-.138.172-.245.061.065,0,.077-.1.089-.156-.067-.023-.063.019-.116-.036.034-.053-.026-.141.054-.151.015.017,0,.037-.012.054.032-.073.3.553.3.443-.068.006-.256-.561-.277-.512-.048.035-.11-.073-.15-.033l.064.08a.174.174,0,0,1-.211.007c.046-.105.356.461.319.345l-.044.027c-.031-.054-.034-.172.05-.189-.066-.022-.072-.083-.081-.135l.016-.012c-.019-.057.018-.115-.079-.115-.078.271-.616-.4-.739-.152.182-.061.138.086.117.206a.277.277,0,0,0-.208.091c-.012.075.04.06.072.085-.046.029-.1.1-.172.06.073.086-.088.07-.078.147s.041.009.072.065a2.7,2.7,0,0,1-.133.268c-.081,0-.236.044-.328-.052.059-.129.166.11.187-.037-.185.006,0-.138-.122-.2a.184.184,0,0,0-.123.192l.027-.008c0,.073-.009.217-.12.26-.052-.036-.106-.019-.1-.072l-.041.088c.015.017.03.035.051.013.031.058-.008.093-.053.115-.065-.01.1.57.069.542-.019.066-.117.053-.075.137a2.139,2.139,0,0,0-.017-.6c-.087.035.069.845-.06.85-.011.05-.016.113.05.121-.056.073-.112-.062-.189-.021.009,0,.033,0,.025.023l-.1.033c.058.158-.127.31-.038.484a.732.732,0,0,1-.2-.246l.037-.005c-.016-.019-.015-.1-.078-.114a.222.222,0,0,0-.041.252.612.612,0,0,1-.065.033l.025.006c-.048.017-.053.012-.074-.005a.053.053,0,0,1-.013-.01c-.2,0,.021.363-.117.489.014.053.03.013.05.079a2.26,2.26,0,0,0-.289.383c.066.073.1.086.2.045l-.058.117c-.183-.169-.264.178-.443,0a.146.146,0,0,0-.071.173c.052.021.135.054.112.141a1.939,1.939,0,0,1-.163.163c-.075.006-.094-.038-.151-.048.05.177-.186.1-.21.244,0,.1-.04.278.081.313C935.715,363.431,935.625,363.408,935.529,363.371Z" transform="translate(-932.032 -358.464)" fill="#3c3c3b"/>
        </g>
      </g>
    </g>
    <g id="Group_8416" data-name="Group 8416" transform="translate(774.98 287.448)">
      <g id="Group_8415" data-name="Group 8415">
        <path id="Path_12585" data-name="Path 12585" d="M903.022,310.742l-.016-.035a.747.747,0,0,1,.2.3c.121-.487.131-1.005-.628-.428.309-.386.262-.731.179-.639a1.53,1.53,0,0,1-.266.074,1.181,1.181,0,0,0,.162-.026,1.181,1.181,0,0,1-.162.026c-.5.086-.671-.255-.862-.625-.109-.2-.507-.6-.6-.831a.918.918,0,0,0-.05-.09l.037.129a3.894,3.894,0,0,1-.481.1,1.149,1.149,0,0,0-.069.237l-.022-.07c-.152.145-.245.078-.336.123.067-.085.042-.126.018-.159l-.025.068c-.1-.113-.284-.127-.386-.2-.016-.009-.006-.05.006-.086l-.147.009c.082-.119-.022-.161.074-.208-.165.1-.192-.038-.355.071a1.7,1.7,0,0,0-1.005-.15l-.019.05c-.143.029-.366.229-.435.082-.177.12-.344.143-.523.386-.115-.017-.227.093-.358.108-.049.143-.178.106-.189.232-.039.216.05.064.021.239l.023-.044a2.185,2.185,0,0,0,.528.778c.224-.017.35.172.535.236a2.062,2.062,0,0,0,.662.073c.058-.015.02.107.016.185.175.026.32.178.518.2a.02.02,0,0,1,0-.009c.1.03.073.2.165.227.022-.035.036-.03.054-.045-.093.17.686-.04.651.075a.139.139,0,0,1,.038,0c.115.186.054.615.206.683.083-.054.164-.094.251-.16-.027.086.075-.042.09,0-.166.369-.026.268.023.13.092,0,.13.074.188.1l.129-.016c.041-.009.016.046-.033.127.087,0,.01.062.039.136-.074.116.274-.06.262-.013l-.022.008c.045.071-.09.308-.041.366.093.212.325.294.43.463.1-.1-.052-.008.081-.146.063.1.015.307.076.4a.66.66,0,0,1-.078.147c-.016.063.064-.031.068,0l-.093.091c.1-.045-.071.138-.008.127.04-.034.054-.029.059-.017-.1.093.033.022-.063.1l.008-.007c0,.007.013,0,0,.027l.476-.2-.013.02c.016.013.1-.046.111-.072l.01.025-.009,0,.01.025a.457.457,0,0,1-.1.09c.046-.02.076-.024.066,0a3.268,3.268,0,0,1,.181-.326c.048-.017.011.056.035.061a.989.989,0,0,0-.113.23c.011,0,.134-.092.093-.035-.077.074.015.013-.035.073-.055.023-.046-.006-.052-.023-.1.082-.04.086-.059.119.035-.02.023.031.064.025-.1.068-.05.061-.093.11,0,.019.041,0,.071-.034.107-.078.027-.092.148-.162-.047.043-.012.051,0,.059.057-.044.037-.041.1-.076,0,.023.078-.016.025.037-.018.01-.012,0-.014-.008.007.02-.442.2-.391.2.044-.047.411-.17.406-.182.02-.032.109-.072.12-.1l-.078.041a.491.491,0,0,1,.146-.139c.01.031-.443.232-.369.209l.02-.03c.044-.02.1-.022.043.034a.221.221,0,0,1,.114-.053l-.007.011c.037-.012.035.013.1-.051-.06-.055.605-.4.587-.486-.1.123-.134.089-.171.073a.413.413,0,0,0,.106-.142c-.024-.01-.053.025-.087.047a.293.293,0,0,1,.094-.118c-.088.048.031-.061-.009-.057s-.032.028-.077.047a.331.331,0,0,1-.023-.1,1.264,1.264,0,0,1,.247-.226c.015.045-.161.112-.112.131.123-.128.062,0,.171-.078.052-.062.034-.086,0-.091l-.015.019c-.032,0-.088-.012-.031-.092.051-.036.08-.074.1-.071l-.01-.031c-.018.01-.035.019-.041.036-.046.02-.034-.009-.014-.041.047-.046-.316.06-.281.037-.016-.015.054-.084-.01-.055-.042.033.308.007.274,0,.04-.063-.412.031-.328-.06-.014-.009-.038-.014-.084.034.006-.042.1-.079.132-.136-.008.007-.023.023-.026.017l.05-.071c-.1.039-.047-.1-.178-.038a1.333,1.333,0,0,1,.232-.14l-.022.027a.244.244,0,0,0,.1-.054c.014-.051-.011-.062-.08-.037l.028-.049-.019.018a.153.153,0,0,1,.05-.054l.012-.009c.128-.147-.167.006-.13-.1-.03.008-.025.022-.065.035a.784.784,0,0,0,.029-.231.373.373,0,0,0-.143.147l-.009-.049c.184-.132.095-.208.281-.337.027-.045.016-.072-.026-.062-.041.039-.107.1-.128.081.022-.082.01-.056.035-.131a1.263,1.263,0,0,1,.113-.114c-.1.031.076-.147.028-.172a.145.145,0,0,0-.179.05C902.884,310.885,902.948,310.816,903.022,310.742Z" transform="translate(-896.746 -308.316)" fill="#3c3c3b"/>
      </g>
    </g>
    <g id="Group_8418" data-name="Group 8418" transform="translate(759.472 284.401)">
      <g id="Group_8417" data-name="Group 8417">
        <path id="Path_12586" data-name="Path 12586" d="M866.122,301.849l-.027-.013a.451.451,0,0,1,.267.072c-.214-.424-.472-.8-.556.141-.05-.491-.255-.707-.249-.586a1.582,1.582,0,0,1-.1.234,1.2,1.2,0,0,0,.073-.128,1.2,1.2,0,0,1-.073.128c-.221.4-.5.258-.806.1a6.745,6.745,0,0,1-.79-.259.676.676,0,0,0-.078-.039l.091.077a3.57,3.57,0,0,1-.232.378,1.4,1.4,0,0,0,.085.228l-.05-.041c-.012.209-.1.211-.136.3-.006-.108-.042-.124-.075-.135l.022.069c-.12-.027-.239.078-.343.081-.014,0-.031-.035-.043-.071l-.084.1c-.016-.143-.1-.111-.07-.208-.045.18-.137.09-.176.275a1.232,1.232,0,0,0-.69.516l.018.051c-.068.113-.079.408-.205.341a1.539,1.539,0,0,0-.061.626c-.071.062-.065.216-.122.312.06.137-.028.193.042.293.106.186.062.016.149.166l-.015-.048a1.6,1.6,0,0,0,.7.262c.109-.151.276-.083.413-.146a1.526,1.526,0,0,0,.412-.351c.026-.047.069.071.107.135.116-.085.282-.059.413-.159a.016.016,0,0,1-.008,0c.073-.035.15.109.22.074a.138.138,0,0,1,.008-.068c.035.192.39-.46.432-.351a.12.12,0,0,1,.022-.026c.17.072.372.435.5.388.021-.095.047-.179.062-.285.032.082.022-.081.053-.062.11.387.138.218.088.082.056-.059.121-.029.174-.047l.069-.1c.019-.035.036.023.054.115.051-.06.042.038.1.073.024.136.129-.23.149-.189l-.008.021c.069.02.132.283.2.29.188.088.381-.025.552.013-.006-.144-.035.034-.048-.157.1.02.211.194.313.213a.8.8,0,0,1,.056.155c.034.053.016-.07.04-.052l.009.131c.03-.108.057.143.086.087,0-.053.011-.06.023-.057.006.139.035-.011.039.116V304.9c.007,0,.012-.007.021.016l.13-.493.007.023c.019,0,.023-.108.011-.132l.023.007,0,.01.023.007a.532.532,0,0,1,.008.137c.011-.049.024-.075.038-.051a2.919,2.919,0,0,1-.131-.342c.013-.048.044.025.061.009a.984.984,0,0,0,.1.229c.007-.008.006-.163.024-.1.012.107.018,0,.034.072-.013.058-.029.032-.045.027.007.126.04.084.054.119,0-.04.035,0,.053-.035,0,.121.018.077.031.142.013.014.019-.035.013-.077,0-.132-.053-.077-.04-.216.007.064.031.041.044.035a.647.647,0,0,1,0-.123c.016.015.029-.072.039,0,0,.02-.009.008-.013.006.019.007-.089.472-.066.429-.009-.064.1-.429.083-.434-.013-.035,0-.13-.009-.154l-.011.088a.555.555,0,0,1-.024-.2,4,4,0,0,1-.042.419l-.011-.034c.009-.047.035-.089.047-.013a.246.246,0,0,1,.021-.122l0,.012c.011-.036.027-.02.017-.113-.068.014.023-.722-.045-.761.033.156,0,.161-.034.18a.5.5,0,0,0-.043-.17c-.018.013-.009.058-.011.1a.335.335,0,0,1-.032-.146c-.011.1-.025-.062-.042-.027s0,.043-.007.09a.235.235,0,0,1-.074-.041,1.485,1.485,0,0,1-.025-.333c.035.015-.006.2.029.169-.022-.176.03-.05.032-.184-.015-.079-.038-.079-.057-.056l0,.023c-.016.024-.05.062-.072-.032,0-.062-.008-.108,0-.124l-.024-.011a.1.1,0,0,0,0,.054c-.009.048-.022.022-.031-.014-.006-.066-.116.281-.114.239-.017,0-.026-.1-.039-.028s.155-.232.133-.209c-.018-.071-.182.336-.2.212-.012.006-.027.02-.021.086-.023-.031,0-.127-.017-.189,0,.01,0,.033,0,.031l-.019-.084c-.029.1-.084-.027-.112.111a1.774,1.774,0,0,1,.032-.266l.005.035a.3.3,0,0,0,.016-.111c-.023-.043-.041-.03-.061.036l-.015-.054v.026a.2.2,0,0,1-.008-.074v-.015c-.023-.194-.079.127-.123.029-.011.028,0,.033-.012.071a.793.793,0,0,0-.119-.176.48.48,0,0,0,.013.2l-.033-.026c.017-.225-.071-.21-.051-.435-.012-.05-.032-.06-.048-.023,0,.057,0,.147-.019.148-.035-.073-.027-.046-.057-.116-.01-.073,0-.1-.007-.16-.035.1-.044-.157-.081-.141s-.069.035-.063.162C866.131,302.047,866.126,301.954,866.122,301.849Z" transform="translate(-861.709 -301.431)" fill="#3c3c3b"/>
      </g>
    </g>
    <g id="Group_8420" data-name="Group 8420" transform="translate(739.773 288.948)">
      <g id="Group_8419" data-name="Group 8419">
        <path id="Path_12587" data-name="Path 12587" d="M821.656,312.042l-.033,0a.572.572,0,0,1,.313-.019c-.35-.338-.739-.61-.573.32-.188-.457-.47-.6-.432-.482a1.511,1.511,0,0,1-.045.259,1.225,1.225,0,0,0,.043-.147,1.225,1.225,0,0,1-.043.147c-.129.459-.472.412-.833.349a5.847,5.847,0,0,1-.884-.024.735.735,0,0,0-.088-.018l.111.052a3.26,3.26,0,0,1-.15.428,1.26,1.26,0,0,0,.14.2l-.062-.027c.034.207-.063.235-.075.332-.029-.1-.071-.111-.108-.114l.038.062c-.131,0-.234.136-.341.161-.014.005-.039-.028-.058-.061l-.07.114c-.042-.138-.125-.088-.11-.19-.015.186-.125.117-.135.307a1.489,1.489,0,0,0-.66.621l.023.049c-.062.12-.059.416-.2.363a1.63,1.63,0,0,0-.06.638c-.085.068-.082.224-.158.328.065.135-.045.2.034.3.122.18.077.009.179.154l-.015-.047a1.908,1.908,0,0,0,.909.157c.133-.179.356-.143.521-.243a1.749,1.749,0,0,0,.463-.459c.023-.054.095.052.152.1.124-.118.328-.142.463-.281a.016.016,0,0,1-.01,0c.078-.057.2.06.274,0-.016-.039,0-.047-.005-.07.088.177.345-.576.416-.482a.132.132,0,0,1,.019-.032c.208.013.53.3.666.208,0-.1.006-.189,0-.3.057.069,0-.086.043-.077.224.337.211.164.119.05.047-.076.127-.069.18-.1.017-.037.033-.076.049-.118s.046.01.091.093c.04-.075.057.023.134.036.064.123.079-.264.112-.231l0,.023c.081,0,.222.228.3.213.229.024.406-.149.6-.165-.046-.137-.029.044-.094-.136.115-.012.278.121.391.108a.7.7,0,0,1,.1.133c.05.041,0-.072.028-.062l.044.123c0-.113.1.121.113.059-.014-.051,0-.062.009-.061.043.131.034-.021.07.1l0-.01c.008,0,.01-.01.026.01,0-.051.01-.453.011-.514l.013.02c.018-.01,0-.111-.022-.131h.026v.01h.026a.48.48,0,0,1,.042.131c0-.05.007-.08.027-.06a2.829,2.829,0,0,1-.224-.295c0-.05.054.012.067-.008a.943.943,0,0,0,.165.193c.005-.01-.034-.159,0-.1.038.1.018-.009.054.061,0,.059-.023.039-.041.039.039.12.063.07.086.1-.005-.039.037-.009.047-.049.025.119.037.07.066.129.017.01.012-.039,0-.079-.032-.128-.074-.06-.094-.2.023.06.042.031.054.021a.546.546,0,0,1-.034-.118c.02.011.013-.077.042-.008,0,.019-.008.01-.012.009.021,0,.02.483.035.435-.025-.059,0-.443-.017-.444-.022-.03-.026-.127-.046-.148l.009.088a.519.519,0,0,1-.074-.189,3.591,3.591,0,0,1,.057.419l-.019-.03c0-.048.015-.1.046-.026a.226.226,0,0,1-.007-.125l.008.01c0-.038.024-.027-.009-.115-.07.033-.147-.709-.231-.727.073.142.034.158.007.185a.451.451,0,0,0-.089-.153c-.016.018,0,.058.011.1a.312.312,0,0,1-.071-.133c.012.1-.042-.053-.052-.015s.013.04.015.089a.291.291,0,0,1-.092-.018,1.326,1.326,0,0,1-.111-.316c.043,0,.042.192.074.155-.068-.164.021-.057-.009-.187-.035-.073-.062-.066-.077-.039l.011.021c-.012.028-.04.074-.088-.01-.013-.06-.036-.1-.026-.121l-.03,0a.088.088,0,0,0,.017.051c0,.05-.019.027-.039,0-.023-.062-.057.308-.065.267-.018.008-.053-.085-.051-.015.013.051.112-.272.094-.244-.039-.063-.115.381-.163.266-.012.009-.025.027,0,.09-.033-.023-.032-.123-.068-.177,0,.01.012.031.005.031l-.042-.075c0,.11-.1,0-.1.142a1.507,1.507,0,0,1-.035-.266l.016.032a.286.286,0,0,0-.011-.112c-.038-.035-.054-.017-.058.054l-.031-.047.008.024a.166.166,0,0,1-.027-.069l0-.015c-.077-.18-.054.149-.128.067,0,.031.009.032.006.073a.791.791,0,0,0-.179-.131.415.415,0,0,0,.068.193l-.043-.014c-.041-.222-.135-.18-.173-.4-.027-.045-.052-.047-.06-.007.017.054.043.14.019.149-.059-.058-.042-.035-.094-.093a1.411,1.411,0,0,1-.051-.152c-.012.1-.091-.136-.128-.108-.019.03-.067.056-.025.178C821.719,312.23,821.688,312.141,821.656,312.042Z" transform="translate(-817.206 -311.704)" fill="#3c3c3b"/>
      </g>
    </g>
    <g id="Group_8422" data-name="Group 8422" transform="translate(719.617 294.989)">
      <g id="Group_8421" data-name="Group 8421">
        <path id="Path_12588" data-name="Path 12588" d="M776.317,325.7l-.032-.006a.535.535,0,0,1,.3.006c-.322-.363-.667-.666-.572.272-.151-.471-.411-.636-.382-.517a1.454,1.454,0,0,1-.063.252,1.051,1.051,0,0,0,.053-.142,1.051,1.051,0,0,1-.053.142c-.161.444-.495.364-.845.264a6.181,6.181,0,0,1-.878-.111.782.782,0,0,0-.087-.026l.106.062a3.249,3.249,0,0,1-.194.413,1.275,1.275,0,0,0,.121.212l-.059-.032c.014.209-.086.228-.108.324-.019-.106-.061-.117-.1-.123l.032.065c-.132-.009-.249.115-.36.132-.015,0-.037-.031-.054-.065l-.081.109c-.031-.141-.12-.1-.1-.2-.031.185-.138.108-.164.3a1.477,1.477,0,0,0-.715.588l.021.049c-.069.119-.076.415-.218.358a1.542,1.542,0,0,0-.072.636c-.085.067-.081.222-.154.324.064.136-.042.2.035.3.119.182.074.011.172.158l-.015-.048a1.9,1.9,0,0,0,.856.194c.132-.168.341-.12.5-.205a1.794,1.794,0,0,0,.474-.418c.027-.052.088.06.139.117.129-.106.33-.11.473-.235a.016.016,0,0,1-.009,0c.081-.049.189.08.268.031-.012-.041,0-.047,0-.07.068.185.395-.538.456-.437a.13.13,0,0,1,.021-.03c.206.034.5.35.644.273.009-.1.025-.188.025-.3.051.074.011-.085.051-.073.192.356.2.183.115.061.055-.071.134-.057.192-.087.021-.036.041-.073.061-.114s.045.014.083.1c.047-.072.055.027.132.047.054.128.1-.258.135-.223l-.005.023c.083,0,.206.245.283.235.234.039.431-.123.635-.131-.037-.14-.033.042-.088-.141.12-.008.282.133.4.124a.7.7,0,0,1,.1.136c.051.042,0-.072.034-.062l.039.125c.01-.114.1.123.118.061-.012-.051,0-.062.013-.062.038.133.037-.021.07.1l0-.01c.008,0,.011-.01.028.01,0-.051.038-.456.037-.517l.013.02c.019-.01,0-.112-.018-.132h.027v.01h.027a.439.439,0,0,1,.04.131c0-.05.011-.081.032-.061a2.563,2.563,0,0,1-.227-.3c0-.051.056.011.071-.008a.9.9,0,0,0,.168.194c.005-.01-.031-.16.005-.1.038.1.019-.009.055.061,0,.06-.025.039-.044.039.037.12.065.07.089.1,0-.04.04-.01.052-.05.024.119.038.069.068.129.018.01.014-.039,0-.079-.031-.128-.078-.06-.1-.2.022.06.044.031.058.021a.5.5,0,0,1-.034-.118c.021.01.015-.077.045-.009,0,.02-.008.01-.013.009.024,0,.01.484.027.436-.025-.059.008-.444-.008-.445-.023-.03-.026-.127-.046-.147l.008.088a.485.485,0,0,1-.075-.189c.035,0,.045.5.051.42l-.02-.03c0-.048.018-.1.05-.026a.215.215,0,0,1,0-.125l.007.01c0-.038.026-.027-.007-.115-.074.033-.146-.708-.231-.727.073.142.033.158.005.184a.457.457,0,0,0-.088-.154c-.017.018,0,.059.011.1a.3.3,0,0,1-.07-.133c.011.1-.042-.054-.052-.016s.013.041.014.09a.306.306,0,0,1-.092-.019,1.337,1.337,0,0,1-.105-.318c.043.005.039.193.071.156-.065-.165.022-.057-.007-.187-.034-.073-.06-.067-.076-.039l.011.021c-.012.028-.04.074-.086-.012-.012-.061-.034-.1-.024-.122l-.029,0a.085.085,0,0,0,.016.052c0,.05-.019.027-.039-.005-.02-.062-.063.3-.07.264-.018.007-.05-.086-.05-.017.012.052.118-.267.1-.24-.035-.065-.123.376-.169.259-.012.008-.025.027,0,.09-.032-.024-.027-.124-.061-.18,0,.01.01.032,0,.031l-.039-.077c-.008.11-.1,0-.1.138a1.644,1.644,0,0,1-.023-.268l.014.032a.273.273,0,0,0-.007-.112c-.035-.036-.052-.019-.059.051-.009-.016-.019-.032-.028-.048,0,.008,0,.015.008.025a.181.181,0,0,1-.024-.07s0-.01,0-.015c-.068-.183-.058.145-.128.059,0,.031.008.032,0,.073a.812.812,0,0,0-.169-.141.427.427,0,0,0,.058.2l-.042-.017c-.029-.224-.122-.187-.148-.412-.024-.046-.047-.051-.057-.011.013.055.035.143.011.15a1.315,1.315,0,0,1-.086-.1,1.378,1.378,0,0,1-.041-.155c-.018.1-.081-.143-.118-.118-.02.028-.068.05-.034.174C776.367,325.9,776.341,325.805,776.317,325.7Z" transform="translate(-771.669 -325.352)" fill="#3c3c3b"/>
      </g>
    </g>
    <g id="Group_8424" data-name="Group 8424" transform="translate(703.453 297.844)">
      <g id="Group_8423" data-name="Group 8423">
        <path id="Path_12589" data-name="Path 12589" d="M739.8,332.59l-.021-.016a.337.337,0,0,1,.21.1c-.139-.446-.276-.838-.473.075.025-.494-.1-.735-.115-.614a1.452,1.452,0,0,1-.115.216.967.967,0,0,0,.077-.115.967.967,0,0,1-.077.115c-.241.36-.453.166-.652-.054-.113-.112-.436-.273-.537-.437-.016-.021-.031-.04-.047-.058l.046.1a2.694,2.694,0,0,1-.281.3,1.527,1.527,0,0,0,0,.241l-.027-.053c-.072.195-.146.171-.2.249.029-.1,0-.13-.016-.151l0,.072c-.085-.064-.212,0-.293-.032-.012,0-.012-.043-.009-.081l-.1.062c.038-.139-.038-.139.02-.218-.1.152-.135.036-.232.194a1.1,1.1,0,0,0-.73.194l-.009.053c-.1.071-.246.323-.312.206a1.873,1.873,0,0,0-.36.51c-.09.015-.167.149-.268.2-.026.148-.131.147-.128.269-.011.214.046.047.04.22l.014-.048a1.47,1.47,0,0,0,.523.593c.179-.081.31.061.472.062a1.359,1.359,0,0,0,.542-.152c.042-.034.039.093.053.167.143-.039.3.049.459,0a.014.014,0,0,1-.006-.006c.082-.009.112.151.193.141.007-.042.02-.042.029-.062-.019.2.517-.325.522-.212a.123.123,0,0,1,.027-.019c.144.111.256.517.4.5.042-.088.087-.164.126-.265.014.087.039-.075.066-.048.026.4.092.243.069.1.068-.046.126,0,.182-.012.028-.026.057-.053.086-.085s.031.029.033.123c.062-.05.035.046.09.092,0,.139.169-.206.181-.163l-.012.019c.065.03.089.3.156.318.181.114.393.027.567.08.008-.144-.04.031-.034-.161.1.029.2.212.3.24a.775.775,0,0,1,.047.158c.033.054.022-.069.047-.05v.131c.039-.107.051.145.087.092,0-.052.016-.059.027-.055,0,.139.038-.009.035.117v-.011c.007,0,.013-.007.022.017.016-.049.147-.426.161-.486l.007.023c.02,0,.027-.107.016-.132l.024.008,0,.009.024.008a.5.5,0,0,1,0,.138c.013-.049.028-.075.042-.05a2.33,2.33,0,0,1-.125-.344c.016-.048.044.025.061.01a.912.912,0,0,0,.1.231c.007-.008.01-.162.027-.095.01.107.019,0,.034.073-.015.057-.031.032-.046.027,0,.126.04.085.054.12,0-.039.037,0,.056-.034-.006.121.018.077.031.142.014.014.021-.035.015-.077,0-.132-.054-.078-.039-.216.006.063.031.041.045.035a.578.578,0,0,1,0-.123c.016.015.029-.071.04,0,0,.019-.009.008-.013.006.021.007-.1.47-.072.428-.008-.064.1-.428.089-.432-.013-.035,0-.13-.008-.154l-.011.087a.559.559,0,0,1-.024-.2,3.5,3.5,0,0,1-.046.418l-.011-.034c.009-.047.036-.088.049-.012a.237.237,0,0,1,.023-.122l0,.012c.011-.036.028-.019.017-.113-.068.012.023-.722-.043-.762.031.156,0,.161-.032.179a.55.55,0,0,0-.04-.171c-.017.012-.009.058-.012.1a.355.355,0,0,1-.029-.147c-.012.1-.023-.062-.039-.028s0,.043-.008.09a.232.232,0,0,1-.069-.043,1.654,1.654,0,0,1-.016-.334c.032.016-.01.2.023.169-.016-.177.029-.049.033-.183-.012-.08-.033-.08-.05-.058l0,.023c-.016.023-.047.061-.064-.034a.47.47,0,0,1,.007-.124l-.021-.012a.109.109,0,0,0,0,.054c-.01.048-.02.022-.028-.015,0-.065-.115.275-.112.234-.015,0-.019-.1-.034-.03,0,.053.15-.223.129-.2-.012-.072-.178.326-.187.2-.012,0-.026.019-.024.085-.019-.032.008-.127,0-.189,0,.011,0,.033,0,.031l-.012-.084c-.032.1-.073-.032-.109.1a2.066,2.066,0,0,1,.046-.263l0,.035a.333.333,0,0,0,.021-.11c-.018-.044-.035-.032-.056.033l-.01-.054v.026a.22.22,0,0,1,0-.074l0-.015c-.007-.2-.077.12-.109.018-.011.027,0,.033-.016.07a.879.879,0,0,0-.089-.185.546.546,0,0,0-.007.2l-.027-.028c.035-.222-.042-.215,0-.437-.006-.052-.021-.063-.038-.027,0,.056-.011.147-.03.145-.023-.075-.018-.048-.037-.121,0-.073.008-.1.01-.16-.039.092-.021-.161-.053-.149s-.06.027-.069.154C739.789,332.787,739.8,332.694,739.8,332.59Z" transform="translate(-735.151 -331.802)" fill="#3c3c3b"/>
      </g>
    </g>
    <g id="Group_8426" data-name="Group 8426" transform="translate(689.638 294.68)">
      <g id="Group_8425" data-name="Group 8425" transform="translate(0 0)">
        <path id="Path_12590" data-name="Path 12590" d="M708.752,326.005l-.013-.022c.066.018.112.088.156.164.028-.462.054-.877-.458-.093.2-.449.18-.717.123-.611a1.522,1.522,0,0,1-.183.159,1.158,1.158,0,0,0,.112-.08,1.158,1.158,0,0,1-.112.08c-.351.25-.47-.008-.556-.284-.057-.143-.271-.409-.286-.6a.69.69,0,0,0-.015-.069l0,.106a2.4,2.4,0,0,1-.369.163,1.646,1.646,0,0,0-.1.218v-.059c-.145.147-.2.1-.28.144.07-.082.061-.115.051-.143l-.035.063c-.048-.089-.184-.087-.241-.149-.009-.007.009-.044.028-.076l-.114.015c.1-.108.029-.138.115-.185-.153.1-.131-.024-.288.074a1.116,1.116,0,0,0-.723-.152l-.033.042c-.12.016-.369.169-.371.035a1.93,1.93,0,0,0-.562.27c-.087-.032-.22.047-.335.039-.095.116-.188.062-.245.169-.114.182.018.065-.071.214l.035-.035a1.472,1.472,0,0,0,.194.795c.2.019.26.209.409.292a1.39,1.39,0,0,0,.573.123c.054-.011,0,.1-.022.176.149.035.259.181.433.207a.02.02,0,0,1,0-.009c.081.028.041.19.123.215.024-.035.036-.03.054-.044-.1.173.619-.073.579.03a.123.123,0,0,1,.034-.006c.089.165.043.581.189.628a2.759,2.759,0,0,0,.22-.194c-.02.086.066-.054.081-.019-.126.382,0,.261.029.119.082-.016.121.046.178.062a1.171,1.171,0,0,0,.114-.045c.035-.019.019.039-.015.127.078-.023.017.055.054.119-.049.13.235-.126.231-.081l-.018.014c.051.053-.023.313.035.354.132.178.371.169.517.285.058-.132-.049.014.024-.163.086.065.118.27.21.333a.76.76,0,0,1-.009.166c.013.063.044-.057.061-.03l-.044.123c.073-.086,0,.154.053.117.02-.049.035-.05.046-.042-.048.13.04,0-.006.123l0-.01c.007,0,.015,0,.016.024.032-.04.288-.35.32-.4v.023c.02,0,.062-.091.06-.118l.02.015-.006.008.02.015a.471.471,0,0,1-.043.131c.029-.041.052-.061.057-.033a2.3,2.3,0,0,1,0-.367c.031-.039.033.04.055.031a.881.881,0,0,0,.016.251c.01-.005.065-.15.058-.08-.026.1.019,0,.008.08-.033.049-.04.019-.054.009-.038.12.01.094.012.131.018-.035.035.014.065-.013-.046.112-.009.078-.018.144.008.018.032-.025.04-.067.045-.124-.026-.092.035-.217-.015.062.016.049.031.048a.6.6,0,0,1,.038-.117c.01.02.052-.057.038.017-.009.018-.011,0-.015,0,.018.014-.251.41-.213.379.015-.062.244-.367.232-.376,0-.038.048-.12.044-.148l-.04.078a.542.542,0,0,1,.045-.2c.024.02-.231.44-.185.378v-.035c.025-.041.064-.07.051,0a.236.236,0,0,1,.062-.107v.013c.023-.031.033-.009.055-.1-.069-.011.264-.672.215-.732-.023.158-.058.15-.091.158a.537.537,0,0,0,.02-.175c-.02.006-.028.051-.044.088a.355.355,0,0,1,.022-.148c-.044.089,0-.066-.027-.039s-.013.041-.038.082a.229.229,0,0,1-.051-.063,1.624,1.624,0,0,1,.1-.32c.025.026-.076.181-.036.167.044-.172.044-.036.093-.161.015-.079,0-.086-.028-.071l0,.023c-.023.017-.065.041-.049-.053.024-.057.033-.1.049-.114l-.016-.018a.11.11,0,0,0-.018.051c-.026.042-.026.013-.021-.024.021-.062-.2.22-.185.182-.016,0,.016-.1-.022-.04-.019.05.217-.159.19-.146.014-.072-.278.247-.245.126-.013,0-.031.009-.052.072-.007-.037.051-.116.06-.179,0,.009-.011.031-.014.027l.018-.083c-.066.086-.058-.056-.137.059a2.065,2.065,0,0,1,.133-.231l-.009.034a.337.337,0,0,0,.057-.1c0-.048-.02-.043-.063.011l.01-.055-.009.024a.227.227,0,0,1,.024-.07l.007-.014c.062-.185-.114.087-.108-.019-.02.022-.014.031-.039.06a.892.892,0,0,0-.019-.2.549.549,0,0,0-.078.189l-.015-.036c.11-.2.037-.217.15-.411.013-.05,0-.066-.026-.039-.023.051-.062.133-.079.125.006-.079,0-.052.01-.127.024-.069.043-.092.066-.146-.068.073.038-.157,0-.157s-.065,0-.118.121C708.667,326.185,708.706,326.1,708.752,326.005Z" transform="translate(-703.94 -324.654)" fill="#3c3c3b"/>
      </g>
    </g>
    <g id="Group_8428" data-name="Group 8428" transform="translate(680.614 279.878)">
      <g id="Group_8427" data-name="Group 8427" transform="translate(0 0)">
        <path id="Path_12591" data-name="Path 12591" d="M687.6,295.665l0-.031a.491.491,0,0,1,.025.287c.322-.36.592-.709-.326-.509.452-.2.595-.462.48-.421a1.334,1.334,0,0,1-.254-.032,1.073,1.073,0,0,0,.143.035,1.073,1.073,0,0,1-.143-.035c-.452-.108-.4-.441-.312-.783a5.048,5.048,0,0,1,.079-.85.719.719,0,0,0,.024-.085l-.059.106a3.085,3.085,0,0,1-.416-.17,1.285,1.285,0,0,0-.209.126l.031-.059c-.209.021-.23-.076-.326-.1.106-.023.115-.064.121-.1l-.064.033c.007-.131-.12-.241-.139-.351,0-.015.031-.037.064-.055l-.11-.077c.14-.033.1-.12.2-.1-.185-.027-.109-.133-.3-.157a1.491,1.491,0,0,0-.592-.707l-.049.021c-.119-.069-.416-.075-.358-.217a1.552,1.552,0,0,0-.637-.072c-.067-.085-.223-.082-.324-.155-.136.065-.2-.043-.3.035-.182.119-.011.074-.157.173l.047-.015a1.891,1.891,0,0,0-.191.863c.17.135.123.345.212.511a1.786,1.786,0,0,0,.428.48c.052.027-.058.09-.115.143.109.131.12.337.25.482a.022.022,0,0,1,0-.01c.052.082-.072.2-.019.276.04-.013.047,0,.07,0-.184.077.559.389.461.454a.145.145,0,0,1,.031.021c-.02.211-.318.529-.227.679a2.867,2.867,0,0,0,.3.008c-.069.057.086.007.077.048-.34.221-.166.216-.051.123.075.052.07.135.106.193.038.019.078.037.12.054s-.009.048-.092.093c.076.044-.022.06-.034.141-.124.067.27.088.239.121l-.023,0c.008.085-.22.235-.2.316-.008.249.182.44.224.652.133-.056-.048-.03.126-.109.027.124-.086.312-.056.438a.694.694,0,0,1-.118.121c-.031.06.073-.007.069.028l-.117.058c.116-.005-.1.119-.038.134.049-.02.062-.01.064.006-.125.059.028.037-.087.089l.01,0c0,.009.012.011,0,.031.052,0,.46-.027.521-.038l-.017.017c.014.019.111-.017.128-.04l.006.029h-.01l.006.029a.407.407,0,0,1-.122.063c.05-.007.082,0,.067.023a2.231,2.231,0,0,1,.246-.284c.051,0,0,.059.023.071a.846.846,0,0,0-.157.206c.011,0,.152-.059.1-.011-.091.056.013.018-.048.067-.059.008-.045-.019-.048-.039-.112.059-.056.08-.081.11.039-.011.019.041.06.046-.112.045-.061.052-.112.094-.006.021.042.008.077-.017.12-.055.042-.092.175-.135-.054.034-.021.052-.008.064.064-.032.043-.035.109-.056-.006.023.08,0,.018.045-.019.006-.011-.007-.012-.012,0,.026-.476.1-.425.1.054-.035.441-.07.437-.086.025-.029.12-.05.136-.074l-.085.024a.471.471,0,0,1,.17-.111c.005.037-.481.135-.4.128l.025-.026c.047-.01.1,0,.037.047a.21.21,0,0,1,.122-.027l-.008.01c.039,0,.033.022.112-.029-.047-.07.666-.28.667-.37-.125.1-.148.063-.18.04a.449.449,0,0,0,.134-.117c-.02-.014-.057.014-.094.029a.3.3,0,0,1,.118-.095c-.1.029.044-.052,0-.055s-.038.02-.085.03a.3.3,0,0,1,0-.1,1.333,1.333,0,0,1,.294-.16c0,.042-.182.073-.141.1.151-.094.06.011.183-.042.065-.047.054-.071.025-.081l-.019.014c-.03-.007-.08-.026,0-.086.058-.023.1-.051.115-.045v-.029a.091.091,0,0,0-.048.024c-.049.01-.031-.013,0-.038.058-.031-.309-.01-.271-.024-.01-.017.077-.063.009-.052-.049.021.281.071.251.057.058-.045-.39-.058-.282-.122-.011-.011-.031-.021-.089.01.019-.035.118-.047.167-.089-.01,0-.03.016-.03.009l.069-.05c-.11.009-.011-.1-.152-.076a1.662,1.662,0,0,1,.261-.065l-.03.019a.283.283,0,0,0,.11-.024c.03-.04.011-.054-.06-.049l.044-.035-.023.012a.181.181,0,0,1,.066-.035l.014,0c.172-.094-.15-.034-.076-.116-.03,0-.031.012-.071.013a.832.832,0,0,0,.117-.184.435.435,0,0,0-.187.084l.011-.043c.218-.061.169-.145.388-.2.043-.03.044-.052,0-.056-.053.021-.137.054-.146.031.056-.061.034-.043.089-.1a1.526,1.526,0,0,1,.149-.061c-.1,0,.132-.1.1-.128-.03-.015-.057-.057-.176-.008C687.413,295.738,687.5,295.7,687.6,295.665Z" transform="translate(-683.551 -291.213)" fill="#3c3c3b"/>
      </g>
    </g>
    <g id="Group_8430" data-name="Group 8430" transform="translate(678.281 270.876)">
      <g id="Group_8429" data-name="Group 8429">
        <path id="Path_12592" data-name="Path 12592" d="M688.494,279.343l-.095-.076a9.758,9.758,0,0,1,.98.7c-.535-.819-1.178-1.685-2.257-1.286.208-.453-.366-1.115-.447-1.026a3.592,3.592,0,0,1-.569-.119c.123.042.247.08.374.111-.127-.031-.251-.069-.374-.111a3.663,3.663,0,0,1-.423-.152l-.2-.093a1.286,1.286,0,0,1-.133-.075l-.154-.094c-.207-.13-.4-.251-.608-.4s-.42-.311-.632-.477a37.167,37.167,0,0,1-2.836-2.666l-1.255-1.21-.8-.763-.415-.4-.367-.33c.136.668.273,1.333.394,1.925.131.653.246,1.24.313,1.644l.143.757c-.055-.392-.055-.392-.109-.784.463,1.352.9,2.5,1.072,3.27.058-.085.13-.065.2-.282v.328a5.677,5.677,0,0,1,.459,1.5c-.111-.089-.119.159-.138.371l.071-.079c0,.094-.007.188-.01.284V280c0,.13,0,.262-.007.393a4.213,4.213,0,0,1-.033.737.174.174,0,0,1-.092.126l.031.432c-.137-.053-.188.324-.241.112.108.338-.039.636.051.969-.228,1.066-.522,2.2-.821,3.345l.061,0c-.049.2-.051.419-.081.636a1.261,1.261,0,0,1-.271.624c0,.415-.215.9-.038,1.191-.2.385-.182.6-.359,1,.184,0-.094.442.12.342.333-.113.2-.229.476-.332l-.045-.023a11.593,11.593,0,0,0,2.128-2.8c.215-.778.646-1.537.846-2.355a10.055,10.055,0,0,0,.305-2.623c-.02-.186.118-.3.206-.449.012-.359.026-.757.04-1.169.007-.1,0-.207,0-.311,0-.067,0-.069,0-.089l-.006-.055a.881.881,0,0,0-.045-.2.021.021,0,0,1,0,.01c-.037-.159.119-.147.077-.267a.453.453,0,0,1-.074-.094c.082.071.019-.085-.113-.376s-.32-.743-.406-.968c-.034-.091-.046-.135-.023-.1-.025-.054-.017-.053-.007-.049a9.712,9.712,0,0,1,.669.887,2.6,2.6,0,0,0,.369.507,1.161,1.161,0,0,1,.058-.3c.047.141.041-.067.1,0,.064.294.08.377.1.382s.042-.076.023-.175a.362.362,0,0,1,.158.078c.061.045.119.093.179.128a1.8,1.8,0,0,1,.312.107c.109.037.125.12.116.228.263.116.139.148.359.35-.02.156.737.237.781.317l-.051-.01c.27.208.311.559.587.752a25.005,25.005,0,0,0,2.385,1.519c.08-.121-.183-.068-.1-.239.431.278.8.689,1.257.956a.949.949,0,0,1,.157.258c.128.125.121-.016.224.057l-.043.125c.212-.014.181.249.362.277.031-.043.091-.021.147.008-.055.127.182.072.121.183l.006-.008a.217.217,0,0,1,.1.062c.084-.009.874-.093.966-.127l.025.034c.1.033.176-.048.128-.092l.12.051-.018,0,.123.05a.1.1,0,0,1-.03.135.3.3,0,0,1,.242.027,2.673,2.673,0,0,1-.521-.548c.1-.015.209.11.307.124a1.539,1.539,0,0,0,.45.383c.045,0,.108-.137.189-.048.026.115.116.021.185.114a.45.45,0,0,1-.3-.039c-.023.128.222.138.295.189.036-.029.251.045.4.024-.072.112.1.093.219.155.124.016.2-.035.15-.077.017-.066-.1-.084-.2-.107s-.154-.054-.089-.115c.025.069.257.048.372.039,0-.071-.082-.053-.012-.123.139.01.3-.113.4-.058-.024.025-.093.027-.139.033.051-.008.016.031-.073.089a3.236,3.236,0,0,1-.328.179c-.254.117-.439.185-.343.179-.012-.017.041-.046.12-.081l.344-.142c.27-.111.541-.283.464-.264-.128-.008.046-.143-.079-.141-.037.038-.075.075-.116.112-.18,0-.251-.118-.2-.173.128-.012-.043.141-.2.246-.183.116-.341.193-.249.168l-.069-.042a.516.516,0,0,1,.4,0c0-.073.1-.09.23-.139l.044,0c.119-.054.288-.077.187-.15-.347.073-.241-.134-.186-.331s.062-.4-.139-.383c.212.116-.048.189-.225.193a.441.441,0,0,0-.2-.184c-.1,0-.065.05-.089.087-.054-.04-.15-.086-.121-.166-.091.081-.1-.086-.2-.07s0,.042-.07.077a3.013,3.013,0,0,1-.344-.143c-.011-.085-.066-.248.042-.338.154.069-.121.166.054.2-.021-.189.164,0,.229-.125-.031-.093-.135-.118-.229-.128l.01.028c-.084,0-.253-.02-.3-.14.04-.05.021-.108.081-.1l-.1-.05c-.02.013-.041.027-.015.052-.066.026-.106-.018-.131-.067.016-.058-.661.027-.629-.008-.076-.032-.054-.131-.154-.1a2.373,2.373,0,0,0,.7.08c-.032-.085-.981-.064-.976-.209-.057-.022-.13-.042-.146.024-.079-.074.084-.1.045-.189-.006.008-.009.032-.029.02l-.027-.106c-.189.023-.336-.2-.548-.159a.78.78,0,0,1,.309-.139v.04c.023-.012.112.008.139-.053a.29.29,0,0,0-.278-.1.639.639,0,0,1-.027-.075l-.011.024c-.012-.053,0-.057.018-.074a.051.051,0,0,1,.014-.01c.035-.2-.409-.075-.524-.255-.061,0-.02.027-.1.026a3.467,3.467,0,0,0-.363-.412c-.1.042-.118.068-.095.182l-.116-.1c.229-.127-.136-.323.106-.442a.189.189,0,0,0-.174-.131c-.036.044-.093.115-.183.062a2.4,2.4,0,0,1-.139-.221c.013-.077.065-.079.091-.132-.208-.015-.057-.22-.213-.3-.105-.038-.295-.143-.367-.038C688.376,279.5,688.426,279.424,688.494,279.343Z" transform="translate(-678.281 -270.876)" fill="#3c3c3b"/>
      </g>
    </g>
  </g>
</svg>
