<svg xmlns="http://www.w3.org/2000/svg" width="280.166" height="113.873" viewBox="0 0 280.166 113.873">
  <path id="Path_12931" data-name="Path 12931" d="M30.813,215.957c52.886-19.083,107.529-32.421,162.821-33.785,24.028-.593,51.41-1.488,74.471,7.791,10.934,4.4,22.109,12.375,24.121,27.4,2.555,19.072-11.232,34.091-23.4,42.826-42.7,30.641-100.208,27.6-148.132,26.325-26.393-.7-53-3.791-78.319-13.316-7.871-2.96-28.185-9.233-19.432-23.267,4.516-7.241,13.369-11.79,19.939-15.589,49.02-28.357,103.392-34.932,157.05-33.866,2.728.054,2.728-5.106,0-5.16-55.03-1.058-111.358,5.764-161.276,36-7.931,4.8-27.927,16.569-20.948,31.206,4.344,9.114,16.124,12.459,23.632,15.257a204.853,204.853,0,0,0,43.411,10.6c31.282,4.359,63.167,3.309,94.57,1.567,27.125-1.5,54.985-5.017,80.007-18.761,17.607-9.666,42.7-30.248,35.978-58.272-5.445-22.706-28.456-29.493-45.2-32-73.9-11.057-149.295,6.708-219.519,34.023-.531.206-.309,1.215.229,1.02Z" transform="translate(-16.251 -177.582)" fill="#31b7bc" opacity="0.6"/>
</svg>
