<svg xmlns="http://www.w3.org/2000/svg" xmlns:xlink="http://www.w3.org/1999/xlink" width="32" height="32" viewBox="0 0 32 32">
  <defs>
    <clipPath id="clip-path">
      <rect id="Rectangle_19467" data-name="Rectangle 19467" width="32" height="32" transform="translate(158 48)" fill="#fff" stroke="#707070" stroke-width="1"/>
    </clipPath>
  </defs>
  <g id="Mask_Group_555" data-name="Mask Group 555" transform="translate(-158 -48)" clip-path="url(#clip-path)">
    <g id="people" transform="translate(158 48)">
      <circle id="Ellipse_36" data-name="Ellipse 36" cx="3.438" cy="3.438" r="3.438" transform="translate(12.563)" fill="#fff"/>
      <path id="Path_12939" data-name="Path 12939" d="M9.818,25.935a5.3,5.3,0,0,1-7.762,0A4.686,4.686,0,0,0,0,29.813v1.25A.938.938,0,0,0,.938,32h10a.938.938,0,0,0,.938-.937v-1.25A4.686,4.686,0,0,0,9.818,25.935Z" fill="#fff"/>
      <path id="Path_12940" data-name="Path 12940" d="M29.943,25.935a5.3,5.3,0,0,1-7.762,0,4.686,4.686,0,0,0-2.057,3.877v1.25a.938.938,0,0,0,.938.938h10A.938.938,0,0,0,32,31.063v-1.25A4.686,4.686,0,0,0,29.943,25.935Z" fill="#fff"/>
      <path id="Path_12941" data-name="Path 12941" d="M22.67,22.866a3.437,3.437,0,1,0,.227-1.893L18.81,19.7a2.817,2.817,0,0,0-1.872-2.542V13.125H21a.938.938,0,0,0,.938-.937v-1.25A4.686,4.686,0,0,0,19.881,7.06a5.3,5.3,0,0,1-7.762,0,4.686,4.686,0,0,0-2.057,3.877v1.25a.938.938,0,0,0,.938.938h4.063v4.036A2.817,2.817,0,0,0,13.19,19.7L9.1,20.973a3.438,3.438,0,1,0,.227,1.893l4.417-1.372a2.81,2.81,0,0,0,4.506,0Z" fill="#fff"/>
    </g>
  </g>
</svg>
