<svg xmlns="http://www.w3.org/2000/svg" xmlns:xlink="http://www.w3.org/1999/xlink" width="24" height="24" viewBox="0 0 24 24">
  <defs>
    <clipPath id="clip-path">
      <rect id="Rectangle_338" data-name="Rectangle 338" width="24" height="24" transform="translate(27 171)" fill="#31b7bc" stroke="#707070" stroke-width="1"/>
    </clipPath>
  </defs>
  <g id="Mask_Group_11" data-name="Mask Group 11" transform="translate(-27 -171)" clip-path="url(#clip-path)">
    <g id="location_1_" data-name="location (1)" transform="translate(27 171)">
      <g id="Group_557" data-name="Group 557">
        <g id="Group_556" data-name="Group 556">
          <path id="Path_44" data-name="Path 44" d="M12,0A7.731,7.731,0,0,0,5.713,12.235l5.7,8.887a.7.7,0,0,0,1.184,0l5.72-8.917A7.734,7.734,0,0,0,12,0Zm0,11.25a3.516,3.516,0,1,1,3.516-3.516A3.52,3.52,0,0,1,12,11.25Z" fill="#31b7bc"/>
        </g>
      </g>
      <g id="Group_559" data-name="Group 559">
        <g id="Group_558" data-name="Group 558">
          <path id="Path_45" data-name="Path 45" d="M17.5,16.158l-3.541,5.535a2.325,2.325,0,0,1-3.913,0L6.5,16.159c-3.12.721-5.044,2.043-5.044,3.622C1.453,22.522,6.887,24,12,24s10.547-1.478,10.547-4.219C22.547,18.2,20.621,16.879,17.5,16.158Z" fill="#31b7bc"/>
        </g>
      </g>
    </g>
  </g>
</svg>
