<svg xmlns="http://www.w3.org/2000/svg" xmlns:xlink="http://www.w3.org/1999/xlink" width="32" height="32" viewBox="0 0 32 32">
  <defs>
    <clipPath id="clip-path">
      <rect id="Rectangle_19475" data-name="Rectangle 19475" width="32" height="32" transform="translate(336 1784)" fill="#fff" stroke="#707070" stroke-width="1"/>
    </clipPath>
  </defs>
  <g id="Mask_Group_557" data-name="Mask Group 557" transform="translate(-336 -1784)" clip-path="url(#clip-path)">
    <g id="promotion" transform="translate(336 1784)">
      <g id="Group_8517" data-name="Group 8517">
        <path id="Path_12943" data-name="Path 12943" d="M4.935,16.875a.4.4,0,0,0-.749,0L.567,25.732a.4.4,0,0,0,.578.5l1.513-.879V31.6a.4.4,0,0,0,.4.4H6.057a.4.4,0,0,0,.4-.4v-6.24l1.514.879a.4.4,0,0,0,.578-.5Z" fill="#fff"/>
        <path id="Path_12944" data-name="Path 12944" d="M13.456,10.057a.4.4,0,0,0-.749,0L9.088,18.914a.4.4,0,0,0,.578.5l1.513-.879V31.6a.4.4,0,0,0,.4.4h2.994a.4.4,0,0,0,.4-.4V18.538l1.514.879a.4.4,0,0,0,.578-.5Z" fill="#fff"/>
        <path id="Path_12945" data-name="Path 12945" d="M24.9,6.819c1.613,0,2.817-1.5,2.844-4.023C27.759,1.047,26.926,0,24.9,0s-2.862,1.047-2.844,2.8C22.08,5.316,23.284,6.819,24.9,6.819Z" fill="#fff"/>
      </g>
      <g id="Group_8518" data-name="Group 8518">
        <path id="Path_12946" data-name="Path 12946" d="M31.451,18.046c-.1-.706-.193-1.415-.279-2.1-.458-3.643-.854-6.79-3.132-7.882L26.6,7.394l-.629-.531-.958.953.977,6.534a.085.085,0,0,1-.015.063l-1.005,1.376a.085.085,0,0,1-.137,0l-1.005-1.376a.085.085,0,0,1-.015-.063l.977-6.534-.958-.953-.63.531s-1.455.674-1.515.711c-2.214,1.125-2.607,4.241-3.06,7.845-.086.686-.175,1.4-.279,2.1a1.1,1.1,0,0,0,.931,1.251,1.081,1.081,0,0,0,.161.012,1.1,1.1,0,0,0,1.09-.943c.107-.728.2-1.449.285-2.146a37.414,37.414,0,0,1,.6-3.761v4.683a2.583,2.583,0,0,0,.55,1.58V30.672a1.328,1.328,0,1,0,2.657,0V20.141q.142.012.281.012c.093,0,.187,0,.282-.012v10.53a1.328,1.328,0,1,0,2.657,0V18.727a2.584,2.584,0,0,0,.55-1.58V12.459a37.392,37.392,0,0,1,.6,3.761c.088.7.178,1.418.285,2.146a1.1,1.1,0,0,0,1.09.943,1.116,1.116,0,0,0,.161-.012A1.1,1.1,0,0,0,31.451,18.046Z" fill="#fff"/>
      </g>
    </g>
  </g>
</svg>
