<svg xmlns="http://www.w3.org/2000/svg" width="168.135" height="273.289" viewBox="0 0 168.135 273.289">
  <g id="Group_10110" data-name="Group 10110" opacity="0.16">
    <g id="Group_10077" data-name="Group 10077" transform="translate(62.776 125.58)">
      <g id="Group_10068" data-name="Group 10068" transform="translate(4.412 2.387)" style="mix-blend-mode: multiply;isolation: isolate">
        <path id="Path_14469" data-name="Path 14469" d="M86.073,232.7h.886l.12-.877c.4-2.913.78-5.452,1.116-7.693,1.543-10.268,2.18-14.518-.962-19.458C84,199.59,79.51,196.392,75.17,193.3c-4.583-3.265-9.322-6.641-12.563-12.278-3.113-5.411-2.955-11.389.414-15.6,4.026-5.035,11.567-6.45,20.176-3.785a64.21,64.21,0,0,1,10.925,4.536c7.192,3.656,7.717,2.847,16.463-10.709.9-1.4,1.9-2.947,3.008-4.649l.491-.754-.689-.578C95.371,134.38,73.3,129.716,54.337,137c-13.871,5.332-23.213,16.087-24.992,28.77-2.022,14.418,6.014,29.252,22.628,41.769,10.8,8.141,10.324,13.684,10.013,17.351-.153,1.8-.3,3.5.934,4.836C64.985,231.978,70.611,232.7,86.073,232.7ZM75.041,158.282c-5.707,0-10.521,2.012-13.606,5.87-3.9,4.879-4.127,11.73-.589,17.881,3.464,6.022,8.386,9.529,13.145,12.92,4.376,3.117,8.507,6.06,11.528,10.81,2.736,4.3,2.173,8.048.669,18.067-.3,2.019-.645,4.282-1,6.84-13.428-.026-19.279-.682-20.775-2.31-.6-.655-.552-1.578-.4-3.292.35-4.113.879-10.328-10.814-19.145-16-12.054-23.755-26.212-21.839-39.867,1.675-11.94,10.538-22.093,23.71-27.157,18.016-6.927,39.014-2.6,56.333,11.566q-1.37,2.112-2.519,3.9c-4.172,6.464-6.47,10.025-8.194,11.2-1.337.911-2.418.435-5.644-1.2A65.909,65.909,0,0,0,83.8,159.7,29.717,29.717,0,0,0,75.041,158.282Z" transform="translate(-29.039 -133.627)" fill="#00b8ad"/>
      </g>
      <g id="Group_10069" data-name="Group 10069" transform="translate(35.244 111.334)" style="mix-blend-mode: multiply;isolation: isolate">
        <path id="Path_14470" data-name="Path 14470" d="M66.483,272.956c7.926,0,16.456-5.013,16.456-16.019,0-10.974-8.53-15.973-16.457-15.973-8.224,0-16.551,5.487-16.551,15.973a15.288,15.288,0,0,0,5.212,12.014A17.34,17.34,0,0,0,66.483,272.956Zm0-29.961c6.949,0,14.427,4.363,14.427,13.943,0,9.611-7.478,13.989-14.426,13.989-6.994,0-14.522-4.378-14.522-13.989C51.961,247.358,59.489,242.995,66.482,242.995Z" transform="translate(-49.931 -240.965)" fill="#00b8ad"/>
      </g>
      <g id="Group_10074" data-name="Group 10074" transform="translate(0)" style="mix-blend-mode: multiply;isolation: isolate">
        <g id="Group_10070" data-name="Group 10070" transform="translate(32.897 69.708)">
          <path id="Path_14471" data-name="Path 14471" d="M77.519,236.09h4.711l.639-4.667c.378-2.767.741-5.2,1.064-7.347l.045-.292c1.613-10.743,2.424-16.134-1.6-22.459q-.449-.708-.924-1.37L79.8,201.132q.443.621.865,1.281c3.616,5.685,2.844,10.826,1.3,21.068l-.044.292c-.324,2.161-.689,4.6-1.069,7.374l-.4,2.912h-2.94c-16.647,0-22.228-.836-24.886-3.73A6.252,6.252,0,0,1,51,226.219l-2.026.111a8.283,8.283,0,0,0,2.168,5.372C54.339,235.188,59.763,236.09,77.519,236.09Z" transform="translate(-48.969 -199.954)" fill="#00b8ad"/>
        </g>
        <g id="Group_10071" data-name="Group 10071" transform="translate(38.09 31.42)">
          <path id="Path_14472" data-name="Path 14472" d="M66.17,173.945l2.018-.222a9.257,9.257,0,0,1-.056-1.014,7.961,7.961,0,0,1,1.058-4.045c1.778-3.074,5.7-4.69,10.523-4.36l.138-2.025c-5.64-.387-10.24,1.606-12.418,5.368a9.968,9.968,0,0,0-1.331,5.062A11.3,11.3,0,0,0,66.17,173.945Z" transform="translate(-66.102 -162.231)" fill="#00b8ad"/>
        </g>
        <g id="Group_10072" data-name="Group 10072" transform="translate(62.928)">
          <path id="Path_14473" data-name="Path 14473" d="M35.11,172.478c5.509,0,8.075-3.975,14.931-14.6l.056-.087c.887-1.375,1.865-2.89,2.948-4.554l2.61-4.01-3.667-3.072a71.811,71.811,0,0,0-28.149-14.882l-.507,1.966a69.792,69.792,0,0,1,27.352,14.472l2.289,1.917-1.628,2.5c-1.084,1.667-2.063,3.184-2.952,4.56l.8.638-.853-.551c-6.6,10.225-8.821,13.669-13.225,13.669a10.628,10.628,0,0,1-4.645-1.328l-.881,1.829A12.409,12.409,0,0,0,35.11,172.478Z" transform="translate(-23.331 -131.275)" fill="#00b8ad"/>
        </g>
        <g id="Group_10073" data-name="Group 10073" transform="translate(0 31.357)">
          <path id="Path_14474" data-name="Path 14474" d="M115.814,198.308l1.556-1.3c-7.248-8.658-11.081-18.073-11.081-27.227a33.6,33.6,0,0,1,.779-7.174l-1.982-.434a35.619,35.619,0,0,0-.826,7.608C104.259,179.415,108.255,189.279,115.814,198.308Z" transform="translate(-104.259 -162.169)" fill="#00b8ad"/>
        </g>
      </g>
      <g id="Group_10076" data-name="Group 10076" transform="translate(30.861 115.282)" style="mix-blend-mode: multiply;isolation: isolate">
        <g id="Group_10075" data-name="Group 10075" transform="translate(0)">
          <path id="Path_14475" data-name="Path 14475" d="M66.452,277.282h.1c10.357,0,20.841-7.008,20.841-20.4a21.985,21.985,0,0,0-1.08-6.952l-1.926.64a19.948,19.948,0,0,1,.976,6.311c0,12.061-9.464,18.371-18.811,18.371Zm-18.67-10.836,1.81-.919a18.925,18.925,0,0,1-1.95-8.647,18.05,18.05,0,0,1,3.3-10.835L49.3,244.855a20.03,20.03,0,0,0-3.685,12.026A20.927,20.927,0,0,0,47.782,266.446Z" transform="translate(-45.612 -244.855)" fill="#00b8ad"/>
        </g>
      </g>
    </g>
    <g id="Group_10089" data-name="Group 10089" transform="translate(0 92.857)">
      <g id="Group_10079" data-name="Group 10079" transform="translate(4.407 4.366)" style="mix-blend-mode: multiply;isolation: isolate">
        <g id="Group_10078" data-name="Group 10078">
          <path id="Path_14476" data-name="Path 14476" d="M158.259,163.014h.886l.121-.877c.235-1.73.462-3.238.662-4.567.932-6.206,1.318-8.775-.632-11.839-1.965-3.087-4.664-5.01-7.274-6.87-2.811-2-5.464-3.892-7.344-7.164-1.764-3.064-1.683-6.438.21-8.8,2.283-2.854,6.6-3.642,11.542-2.112a37.724,37.724,0,0,1,6.425,2.668c4.6,2.341,5.144,1.5,10.314-6.508.536-.831,1.128-1.749,1.785-2.758l.49-.754-.689-.578c-10.822-9.068-24.095-11.864-35.5-7.48-8.382,3.222-14.029,9.734-15.107,17.418-1.222,8.72,3.608,17.669,13.6,25.2,6.232,4.7,5.974,7.73,5.786,9.944a3.84,3.84,0,0,0,.662,3.186C145.536,162.572,148.821,163.014,158.259,163.014ZM151.7,117.982a10.383,10.383,0,0,0-8.4,3.642c-2.425,3.033-2.573,7.282-.386,11.085,2.1,3.655,5.065,5.765,7.928,7.805,2.564,1.827,4.988,3.553,6.738,6.306,1.544,2.424,1.216,4.609.339,10.448-.167,1.107-.351,2.338-.546,3.715-5.367-.016-10.727-.2-11.678-1.239-.24-.261-.21-.742-.134-1.641.2-2.379.541-6.362-6.587-11.736-9.378-7.066-13.929-15.339-12.813-23.3.973-6.942,6.142-12.852,13.825-15.8,10.464-4.024,22.654-1.563,32.77,6.572q-.7,1.075-1.3,2c-2.449,3.8-3.8,5.887-4.754,6.541-.58.4-1.008.238-2.934-.742a39.556,39.556,0,0,0-6.744-2.8A18.1,18.1,0,0,0,151.7,117.982Z" transform="translate(-123.965 -103.336)" fill="#003359"/>
        </g>
      </g>
      <g id="Group_10081" data-name="Group 10081" transform="translate(22.722 69.085)" style="mix-blend-mode: multiply;isolation: isolate">
        <g id="Group_10080" data-name="Group 10080" transform="translate(0)">
          <path id="Path_14477" data-name="Path 14477" d="M146.751,186.929c5.063,0,10.188-3.41,10.188-9.928,0-6.5-5.126-9.9-10.188-9.9-5.091,0-10.245,3.4-10.245,9.9C136.506,183.518,141.66,186.929,146.751,186.929Zm0-17.8c3.929,0,8.158,2.462,8.158,7.871,0,5.426-4.229,7.9-8.158,7.9-3.956,0-8.215-2.471-8.215-7.9C138.536,171.592,142.795,169.13,146.751,169.13Z" transform="translate(-136.506 -167.1)" fill="#003359"/>
        </g>
      </g>
      <g id="Group_10086" data-name="Group 10086" transform="translate(0)" style="mix-blend-mode: multiply;isolation: isolate">
        <g id="Group_10082" data-name="Group 10082" transform="translate(15.841 35.627)">
          <path id="Path_14478" data-name="Path 14478" d="M157.05,166.936h4.711l.639-4.667c.229-1.678.449-3.143.642-4.44.986-6.551,1.573-10.464-1.258-14.913-2.423-3.808-5.613-6.081-8.427-8.086l-.969-.694-1.188,1.646.976.7c2.666,1.9,5.685,4.051,7.895,7.524,2.424,3.808,1.939,7.033.973,13.456-.205,1.371-.426,2.846-.657,4.533l-.4,2.912h-2.94c-9.414,0-13.688-.369-15.791-2.658a6.019,6.019,0,0,1-1.274-4.979c.18-2.117-.04-4.151-4.555-7.635l-1.239,1.608c4.006,3.091,3.887,4.5,3.773,5.853a7.962,7.962,0,0,0,1.8,6.525C142.349,166.436,146.541,166.936,157.05,166.936Z" transform="translate(-134.19 -134.136)" fill="#003359"/>
        </g>
        <g id="Group_10083" data-name="Group 10083" transform="translate(26.197 24.52)">
          <path id="Path_14479" data-name="Path 14479" d="M150.405,128.469l1.957-.538a3.837,3.837,0,0,1-.143-1.007,2.578,2.578,0,0,1,.331-1.308,2.481,2.481,0,0,1,.711-.772l-1.181-1.65a4.51,4.51,0,0,0-1.286,1.4,4.585,4.585,0,0,0-.6,2.326A5.8,5.8,0,0,0,150.405,128.469Z" transform="translate(-150.189 -123.193)" fill="#003359"/>
        </g>
        <g id="Group_10084" data-name="Group 10084" transform="translate(28.153)">
          <path id="Path_14480" data-name="Path 14480" d="M136.683,129.062c4.468,0,6.425-3.033,10.713-9.679l4.387-6.757-3.666-3.072c-8.962-7.508-19.4-11.165-29.859-10.426l.143,2.025c9.942-.7,19.857,2.789,28.411,9.957l2.289,1.917-3.41,5.255c-4.11,6.368-5.646,8.75-9.008,8.75a9.546,9.546,0,0,1-4.35-1.422,35.2,35.2,0,0,0-6.053-2.518,15.012,15.012,0,0,0-2.894-.608l-.205,2.02a12.9,12.9,0,0,1,2.5.528,33.431,33.431,0,0,1,5.735,2.388A11.372,11.372,0,0,0,136.683,129.062Z" transform="translate(-118.258 -99.035)" fill="#003359"/>
        </g>
        <g id="Group_10085" data-name="Group 10085" transform="translate(0 21.262)">
          <path id="Path_14481" data-name="Path 14481" d="M177.331,138.015l1.772-.99a24.03,24.03,0,0,1-3.251-11.771,21.275,21.275,0,0,1,.552-4.814l-1.979-.458a23.433,23.433,0,0,0-.6,5.272A26.025,26.025,0,0,0,177.331,138.015Z" transform="translate(-173.822 -119.983)" fill="#003359"/>
        </g>
      </g>
      <g id="Group_10088" data-name="Group 10088" transform="translate(18.339 64.701)" style="mix-blend-mode: multiply;isolation: isolate">
        <g id="Group_10087" data-name="Group 10087" transform="translate(0)">
          <path id="Path_14482" data-name="Path 14482" d="M146.817,191.377c7.241,0,14.571-4.917,14.571-14.311,0-9.378-7.33-14.285-14.571-14.285-7.092,0-14.629,5.006-14.629,14.285a14.192,14.192,0,0,0,2.018,7.507l1.733-1.058a12.188,12.188,0,0,1-1.72-6.449c0-7.961,6.492-12.255,12.6-12.255,6.233,0,12.541,4.209,12.541,12.255,0,8.062-6.308,12.281-12.541,12.281Z" transform="translate(-132.188 -162.781)" fill="#003359"/>
        </g>
      </g>
    </g>
    <g id="Group_10099" data-name="Group 10099" transform="translate(31.402 0)">
      <g id="Group_10090" data-name="Group 10090" transform="translate(4.727 2.379)" style="mix-blend-mode: multiply;isolation: isolate">
        <path id="Path_14483" data-name="Path 14483" d="M116.143,110.992h.886l.12-.878c.407-2.974.8-5.567,1.139-7.855,1.574-10.476,2.226-14.812-.979-19.848-3.3-5.185-7.879-8.449-12.309-11.6-4.68-3.334-9.519-6.782-12.831-12.541-3.183-5.531-3.021-11.643.424-15.951,4.117-5.147,11.826-6.594,20.62-3.87a65.617,65.617,0,0,1,11.157,4.632c7.323,3.724,7.859,2.9,16.781-10.928.923-1.429,1.94-3.006,3.069-4.743l.491-.754-.689-.578C125.629,10.663,103.1,5.9,83.752,13.34,69.6,18.781,60.067,29.754,58.254,42.693,56.19,57.4,64.391,72.54,81.345,85.314c11.031,8.319,10.55,13.983,10.23,17.733-.155,1.83-.3,3.56.948,4.921C94.626,110.257,100.364,110.992,116.143,110.992ZM104.88,35.064c-5.82,0-10.727,2.05-13.873,5.983-3.978,4.973-4.207,11.96-.6,18.23C93.942,65.421,98.964,69,103.821,72.46c4.468,3.183,8.687,6.189,11.775,11.041,2.8,4.4,2.223,8.224.685,18.456-.311,2.067-.659,4.384-1.022,7-13.73-.027-19.709-.7-21.242-2.367-.619-.673-.569-1.621-.42-3.376.357-4.193.9-10.531-11.031-19.525-16.339-12.31-24.259-26.77-22.3-40.717,1.711-12.2,10.764-22.568,24.218-27.741,18.409-7.076,39.857-2.653,57.545,11.823-.937,1.442-1.792,2.77-2.581,3.991-4.261,6.6-6.608,10.24-8.373,11.446-1.369.938-2.482.451-5.782-1.227A67.364,67.364,0,0,0,113.814,36.5,30.351,30.351,0,0,0,104.88,35.064Z" transform="translate(-57.941 -9.893)" fill="#ffb412"/>
      </g>
      <g id="Group_10091" data-name="Group 10091" transform="translate(36.2 113.599)" style="mix-blend-mode: multiply;isolation: isolate">
        <path id="Path_14484" data-name="Path 14484" d="M96.14,152.088c8.08,0,16.778-5.11,16.778-16.331,0-11.189-8.7-16.285-16.779-16.285-8.387,0-16.876,5.595-16.876,16.285C79.263,146.478,87.752,152.088,96.14,152.088Zm0-30.587c7.1,0,14.749,4.461,14.749,14.255,0,9.826-7.645,14.3-14.748,14.3-7.152,0-14.847-4.475-14.847-14.3C81.293,125.962,88.989,121.5,96.139,121.5Z" transform="translate(-79.263 -119.471)" fill="#ffb412"/>
      </g>
      <g id="Group_10096" data-name="Group 10096" transform="translate(0)" style="mix-blend-mode: multiply;isolation: isolate">
        <g id="Group_10092" data-name="Group 10092" transform="translate(33.747 71.908)">
          <path id="Path_14485" data-name="Path 14485" d="M107.244,114.66h4.983l.675-4.938c.4-2.951.79-5.523,1.132-7.792,1.653-11.018,2.486-16.548-1.663-23.067-.1-.157-.2-.314-.3-.469l-1.7,1.118.284.439c3.742,5.88,2.949,11.159,1.368,21.676-.342,2.277-.731,4.86-1.135,7.82l-.435,3.182h-3.21c-17.076,0-22.815-.872-25.584-3.886a6.365,6.365,0,0,1-1.6-3.219l-1.994.375a8.341,8.341,0,0,0,2.1,4.217C83.442,113.684,89.262,114.66,107.244,114.66Z" transform="translate(-78.062 -78.395)" fill="#ffb412"/>
        </g>
        <g id="Group_10093" data-name="Group 10093" transform="translate(39.327 32.24)">
          <path id="Path_14486" data-name="Path 14486" d="M95.1,51.112l2.017-.239a9.577,9.577,0,0,1-.067-1.105A7.942,7.942,0,0,1,98.1,45.737c1.859-3.211,6.047-4.824,11.247-4.293l.206-2.019c-6.024-.619-10.941,1.373-13.209,5.3a9.944,9.944,0,0,0-1.327,5.049A11.426,11.426,0,0,0,95.1,51.112Z" transform="translate(-95.02 -39.313)" fill="#ffb412"/>
        </g>
        <g id="Group_10094" data-name="Group 10094" transform="translate(65.486)">
          <path id="Path_14487" data-name="Path 14487" d="M62.809,49.733c5.734,0,8.369-4.084,15.412-15,.922-1.427,1.937-3,3.062-4.732l2.761-4.242-3.877-3.25a73.933,73.933,0,0,0-27.8-14.961l-.539,1.957a71.894,71.894,0,0,1,27.033,14.56l2.5,2.095L79.582,28.9c-1.128,1.735-2.145,3.309-3.065,4.738C69.724,44.157,67.436,47.7,62.809,47.7a9.373,9.373,0,0,1-3.746-.879l-.794,1.869A11.271,11.271,0,0,0,62.809,49.733Z" transform="translate(-51.828 -7.549)" fill="#ffb412"/>
        </g>
        <g id="Group_10095" data-name="Group 10095" transform="translate(0 31.859)">
          <path id="Path_14488" data-name="Path 14488" d="M146.74,76.378l1.549-1.313c-7.624-8.98-11.653-18.76-11.653-28.284a34.554,34.554,0,0,1,.807-7.406l-1.982-.436a36.527,36.527,0,0,0-.855,7.843C134.606,56.792,138.8,67.027,146.74,76.378Z" transform="translate(-134.606 -38.938)" fill="#ffb412"/>
        </g>
      </g>
      <g id="Group_10098" data-name="Group 10098" transform="translate(31.505 117.491)" style="mix-blend-mode: multiply;isolation: isolate">
        <g id="Group_10097" data-name="Group 10097" transform="translate(0)">
          <path id="Path_14489" data-name="Path 14489" d="M96.108,156.725h.1c10.672,0,21.474-7.223,21.474-21.026a22.621,22.621,0,0,0-1.112-7.164l-1.925.641a20.6,20.6,0,0,1,1.008,6.522c0,12.471-9.781,19-19.444,19Zm-19.237-11.17,1.811-.919a19.563,19.563,0,0,1-2.016-8.938,18.66,18.66,0,0,1,3.411-11.2L78.433,123.3a20.645,20.645,0,0,0-3.8,12.394A21.58,21.58,0,0,0,76.871,145.556Z" transform="translate(-74.636 -123.305)" fill="#ffb412"/>
        </g>
      </g>
    </g>
    <g id="Group_10109" data-name="Group 10109" transform="translate(110.521 31.061)">
      <g id="Group_10100" data-name="Group 10100" transform="translate(4.243 4.2)" style="mix-blend-mode: multiply;isolation: isolate">
        <path id="Path_14490" data-name="Path 14490" d="M50.664,97.648h.886l.12-.878c.218-1.6.427-2.99.612-4.219.84-5.595,1.225-8.148-.595-11.008s-4.329-4.652-6.75-6.376c-2.591-1.847-5.04-3.592-6.772-6.6-1.615-2.807-1.543-5.9.188-8.06,2.091-2.615,6.051-3.336,10.6-1.928a34.836,34.836,0,0,1,5.931,2.463c4.323,2.2,4.826,1.416,9.638-6.044.5-.77,1.045-1.619,1.652-2.554l.491-.754-.689-.578c-10.033-8.406-22.339-11-32.912-6.932-7.78,2.991-13.021,9.036-14.022,16.174-1.135,8.095,3.343,16.4,12.612,23.381,5.731,4.322,5.5,7.1,5.322,9.131a3.611,3.611,0,0,0,.632,3.006C38.857,97.233,41.908,97.648,50.664,97.648ZM44.6,55.839a9.68,9.68,0,0,0-7.832,3.4c-2.264,2.832-2.4,6.793-.363,10.34,1.954,3.4,4.7,5.352,7.356,7.244,2.366,1.686,4.6,3.279,6.214,5.813,1.412,2.219,1.109,4.234.3,9.617-.15,1.006-.318,2.121-.493,3.368C44.854,95.6,39.956,95.43,39.1,94.5c-.2-.217-.172-.673-.1-1.461.188-2.217.5-5.928-6.122-10.924C24.218,75.592,20.02,67.964,21.048,60.632c.9-6.394,5.661-11.838,12.741-14.56,9.636-3.706,20.86-1.448,30.185,6.025q-.624.962-1.161,1.8c-2.26,3.5-3.5,5.432-4.377,6.028-.474.326-.8.242-2.635-.692a36.8,36.8,0,0,0-6.252-2.593A16.8,16.8,0,0,0,44.6,55.839Z" transform="translate(-18.865 -42.289)" fill="#0087eb"/>
      </g>
      <g id="Group_10105" data-name="Group 10105" transform="translate(0)" style="mix-blend-mode: multiply;isolation: isolate">
        <g id="Group_10101" data-name="Group 10101" transform="translate(12.828 31.62)">
          <path id="Path_14491" data-name="Path 14491" d="M51.4,101.463h4.567l.618-4.526c.213-1.556.418-2.917.6-4.119.919-6.1,1.468-9.754-1.2-13.945-2.267-3.563-5.239-5.68-7.861-7.547-.967-.689-1.88-1.34-2.7-2.022L44.12,70.868c.881.729,1.824,1.4,2.821,2.11,2.471,1.761,5.273,3.756,7.326,6.985,2.26,3.55,1.81,6.544.913,12.5-.189,1.259-.394,2.628-.609,4.194l-.379,2.771H51.4c-8.736,0-12.706-.345-14.673-2.488a5.718,5.718,0,0,1-1.2-4.672c.174-2.043-.045-3.87-4.457-7.2q-.824-.62-1.6-1.254l-1.285,1.572q.805.659,1.662,1.3c3.867,2.917,3.766,4.125,3.657,5.4a7.681,7.681,0,0,0,1.728,6.218C37.681,100.988,41.6,101.463,51.4,101.463Z" transform="translate(-28.184 -69.304)" fill="#0087eb"/>
        </g>
        <g id="Group_10102" data-name="Group 10102" transform="translate(24.563 24.098)">
          <path id="Path_14492" data-name="Path 14492" d="M43.894,65.687l1.947-.578a3.3,3.3,0,0,1-.146-.941,2.155,2.155,0,0,1,.275-1.092l-1.654-1.183c-.039.058-.074.118-.109.179a4.138,4.138,0,0,0-.542,2.1A5.385,5.385,0,0,0,43.894,65.687Z" transform="translate(-43.665 -61.893)" fill="#0087eb"/>
        </g>
        <g id="Group_10103" data-name="Group 10103" transform="translate(23.819)">
          <path id="Path_14493" data-name="Path 14493" d="M32.883,66.407c4.264,0,6.1-2.84,10.111-9.063l.117-.181c.463-.718.968-1.5,1.528-2.358l2.529-3.889-3.554-2.979c-7.641-6.4-16.4-9.786-25.339-9.786a34.483,34.483,0,0,0-4.9.349l.289,2.009a32.526,32.526,0,0,1,4.613-.328c8.453,0,16.765,3.221,24.035,9.312l2.176,1.824L42.938,53.7c-.56.859-1.069,1.646-1.533,2.366l-.116.181c-4.074,6.312-5.383,8.133-8.406,8.133a8.887,8.887,0,0,1-4.064-1.326,32.558,32.558,0,0,0-5.586-2.323,11,11,0,0,0-5.291-.463l.4,1.99a9.052,9.052,0,0,1,4.29.411A30.857,30.857,0,0,1,27.9,64.861,10.706,10.706,0,0,0,32.883,66.407Z" transform="translate(-13.372 -38.151)" fill="#0087eb"/>
        </g>
        <g id="Group_10104" data-name="Group 10104" transform="translate(0 19.836)">
          <path id="Path_14494" data-name="Path 14494" d="M68.388,73.429l1.814-.911a21.909,21.909,0,0,1-2.459-9.872,19.922,19.922,0,0,1,.518-4.492l-1.976-.46a21.926,21.926,0,0,0-.571,4.952A23.911,23.911,0,0,0,68.388,73.429Z" transform="translate(-65.713 -57.694)" fill="#0087eb"/>
        </g>
      </g>
      <g id="Group_10107" data-name="Group 10107" transform="translate(16.966 66.409)" style="mix-blend-mode: multiply;isolation: isolate">
        <g id="Group_10106" data-name="Group 10106" transform="translate(0)">
          <path id="Path_14495" data-name="Path 14495" d="M40.106,130.512c6.818,0,13.72-4.63,13.72-13.478s-6.9-13.455-13.72-13.455c-6.677,0-13.772,4.716-13.772,13.455a12.95,12.95,0,0,0,5.141,10.626l1.221-1.622a10.792,10.792,0,0,1-4.332-9c0-7.421,6.05-11.425,11.742-11.425,5.809,0,11.69,3.924,11.69,11.425s-5.881,11.448-11.69,11.448Z" transform="translate(-26.334 -103.579)" fill="#0087eb"/>
        </g>
      </g>
      <g id="Group_10108" data-name="Group 10108" transform="translate(21.186 70.628)" style="mix-blend-mode: multiply;isolation: isolate">
        <path id="Path_14496" data-name="Path 14496" d="M40.043,126.231c4.722,0,9.5-3.181,9.5-9.26,0-6.064-4.78-9.235-9.5-9.235-4.747,0-9.553,3.172-9.553,9.235C30.49,123.05,35.3,126.231,40.043,126.231Zm0-16.465c3.6,0,7.471,2.254,7.471,7.205,0,4.967-3.873,7.23-7.471,7.23-3.622,0-7.523-2.262-7.523-7.23a6.838,6.838,0,0,1,2.316-5.39A7.967,7.967,0,0,1,40.043,109.766Z" transform="translate(-30.49 -107.736)" fill="#0087eb"/>
      </g>
    </g>
  </g>
</svg>
