<svg xmlns="http://www.w3.org/2000/svg" width="330" height="281.56" viewBox="0 0 330 281.56">
  <g id="Group_10135" data-name="Group 10135" transform="translate(-395.98 -1375.398)">
    <g id="Group_8553" data-name="Group 8553" transform="translate(441.29 1375.398)">
      <g id="Group_8550" data-name="Group 8550" transform="translate(0 131.133)">
        <path id="Path_12974" data-name="Path 12974" d="M318.036,149.185a2.147,2.147,0,0,0,2.147-2.147v-4.293a2.147,2.147,0,1,0-4.293,0v4.293A2.147,2.147,0,0,0,318.036,149.185Z" transform="translate(-315.889 -140.598)" fill="#31b7bc"/>
      </g>
      <g id="Group_8551" data-name="Group 8551" transform="translate(0)">
        <path id="Path_12975" data-name="Path 12975" d="M188.068,192.791a2.244,2.244,0,0,0,2.33-2.147v-8.537a2.338,2.338,0,0,0-4.66,0v8.537A2.244,2.244,0,0,0,188.068,192.791Zm280.029-.028a2.246,2.246,0,0,0,2.33-2.149v-8.539a2.338,2.338,0,0,0-4.66,0v8.539A2.246,2.246,0,0,0,468.1,192.763ZM188.068,167.176a2.244,2.244,0,0,0,2.33-2.147V156.49a2.338,2.338,0,0,0-4.66,0v8.539A2.244,2.244,0,0,0,188.068,167.176Zm280.029-.03a2.246,2.246,0,0,0,2.33-2.147V156.46a2.338,2.338,0,0,0-4.66,0V165A2.246,2.246,0,0,0,468.1,167.146ZM188.068,141.559a2.244,2.244,0,0,0,2.33-2.145v-8.539a2.338,2.338,0,0,0-4.66,0v8.539A2.244,2.244,0,0,0,188.068,141.559Zm280.029-.028a2.246,2.246,0,0,0,2.33-2.147v-8.541a2.338,2.338,0,0,0-4.66,0v8.541A2.246,2.246,0,0,0,468.1,141.531ZM188.068,115.946a2.246,2.246,0,0,0,2.33-2.147v-8.541a2.338,2.338,0,0,0-4.66,0V113.8A2.246,2.246,0,0,0,188.068,115.946Zm280.029-.032a2.244,2.244,0,0,0,2.33-2.147v-8.539a2.338,2.338,0,0,0-4.66,0v8.539A2.244,2.244,0,0,0,468.1,115.914ZM189.665,90.525a2.339,2.339,0,0,0,2.152-1.322,16.939,16.939,0,0,1,3.993-5.485c.239-.218.484-.434.738-.642a2.033,2.033,0,0,0,.181-3.033,2.475,2.475,0,0,0-3.29-.166c-.314.26-.622.529-.921.8a21.248,21.248,0,0,0-5,6.872,2.088,2.088,0,0,0,1.252,2.8A2.463,2.463,0,0,0,189.665,90.525ZM466.488,90.5a2.557,2.557,0,0,0,.9-.166,2.092,2.092,0,0,0,1.25-2.809,21.187,21.187,0,0,0-4.987-6.838q-.462-.428-.951-.827a2.462,2.462,0,0,0-3.29.172,2.029,2.029,0,0,0,.189,3.029c.258.212.512.434.757.66a16.9,16.9,0,0,1,3.98,5.461A2.347,2.347,0,0,0,466.488,90.5ZM212.211,78.733h9.267a2.154,2.154,0,1,0,0-4.293h-9.267a2.154,2.154,0,1,0,0,4.293Zm27.8,0h9.269a2.154,2.154,0,1,0,0-4.293h-9.269a2.154,2.154,0,1,0,0,4.293Zm27.807,0h9.267a2.154,2.154,0,1,0,0-4.293h-9.267a2.154,2.154,0,1,0,0,4.293Zm27.8,0H304.9a2.154,2.154,0,1,0,0-4.293h-9.269a2.154,2.154,0,1,0,0,4.293Zm27.8,0H332.7a2.154,2.154,0,1,0,0-4.293h-9.269a2.154,2.154,0,1,0,0,4.293Zm27.8,0h9.269a2.154,2.154,0,1,0,0-4.293h-9.269a2.154,2.154,0,1,0,0,4.293Zm27.8,0h9.271a2.154,2.154,0,1,0,0-4.293h-9.271a2.154,2.154,0,1,0,0,4.293Zm27.807,0h9.269a2.154,2.154,0,1,0,0-4.293h-9.269a2.154,2.154,0,1,0,0,4.293Zm27.8,0h9.269a2.154,2.154,0,1,0,0-4.293h-9.269a2.154,2.154,0,1,0,0,4.293Z" transform="translate(-185.738 -74.44)" fill="#31b7bc"/>
      </g>
      <g id="Group_8552" data-name="Group 8552" transform="translate(280.396 131.133)">
        <path id="Path_12976" data-name="Path 12976" d="M187.885,149.185a2.147,2.147,0,0,0,2.147-2.147v-4.293a2.147,2.147,0,1,0-4.293,0v4.293A2.147,2.147,0,0,0,187.885,149.185Z" transform="translate(-185.738 -140.598)" fill="#31b7bc"/>
      </g>
    </g>
    <g id="Group_8556" data-name="Group 8556" transform="translate(395.98 1515.121)">
      <g id="Group_8554" data-name="Group 8554" transform="translate(15.402 8.555)">
        <path id="Path_12977" data-name="Path 12977" d="M240.889,272.8h236.5a23.709,23.709,0,0,0,16.224-6.244,20.432,20.432,0,0,0,6.723-15.068V141.662h-4.623V251.485a16.328,16.328,0,0,1-5.368,12.033,18.936,18.936,0,0,1-12.957,4.985h-236.5a18.935,18.935,0,0,1-12.957-4.985,16.32,16.32,0,0,1-5.368-12.033V139.515H185.738v4.293h32.2V251.485a20.431,20.431,0,0,0,6.723,15.068A23.705,23.705,0,0,0,240.889,272.8Z" transform="translate(-185.738 -139.515)" fill="#31b7bc"/>
      </g>
      <g id="Group_8555" data-name="Group 8555">
        <path id="Path_12978" data-name="Path 12978" d="M350.1,156.6l-18.535-10.7L350.1,135.2Z" transform="translate(-331.564 -135.199)" fill="#31b7bc"/>
      </g>
    </g>
  </g>
</svg>
