<svg xmlns="http://www.w3.org/2000/svg" width="284.69" height="281.56" viewBox="0 0 284.69 281.56">
  <g id="Group_10136" data-name="Group 10136" transform="translate(-138 -1375.398)">
    <g id="Group_8546" data-name="Group 8546" transform="translate(138 1517.236)">
      <g id="Group_8543" data-name="Group 8543" transform="translate(0)">
        <path id="Path_12969" data-name="Path 12969" d="M471.048,144.853a2.147,2.147,0,0,0,2.149-2.147v-4.293a2.148,2.148,0,0,0-4.3,0v4.293A2.147,2.147,0,0,0,471.048,144.853Z" transform="translate(-468.901 -136.266)" fill="#00b59a"/>
      </g>
      <g id="Group_8544" data-name="Group 8544" transform="translate(0 21.371)">
        <path id="Path_12970" data-name="Path 12970" d="M365.224,265.4h9.269a2.154,2.154,0,1,0,0-4.293h-9.269a2.154,2.154,0,1,0,0,4.293Zm27.807,0H402.3a2.154,2.154,0,1,0,0-4.293h-9.267a2.154,2.154,0,1,0,0,4.293Zm27.8,0H430.1a2.154,2.154,0,1,0,0-4.293h-9.267a2.154,2.154,0,1,0,0,4.293Zm27.8,0h9.269a2.154,2.154,0,1,0,0-4.293h-9.269a2.154,2.154,0,1,0,0,4.293Zm27.807,0h9.267a2.154,2.154,0,1,0,0-4.293h-9.267a2.154,2.154,0,1,0,0,4.293Zm27.8,0h9.267a2.154,2.154,0,1,0,0-4.293h-9.267a2.154,2.154,0,1,0,0,4.293Zm27.8,0h9.269a2.154,2.154,0,1,0,0-4.293h-9.269a2.154,2.154,0,1,0,0,4.293Zm27.807,0h9.267a2.154,2.154,0,1,0,0-4.293h-9.267a2.154,2.154,0,1,0,0,4.293Zm27.8,0h9.269a2.154,2.154,0,1,0,0-4.293h-9.269a2.154,2.154,0,1,0,0,4.293Zm26.495-4.87a2.435,2.435,0,0,0,1.551-.547c.325-.268.641-.541.951-.827a21.19,21.19,0,0,0,4.985-6.838,2.088,2.088,0,0,0-1.248-2.809,2.409,2.409,0,0,0-3.049,1.152,16.967,16.967,0,0,1-3.985,5.461c-.245.226-.5.446-.757.66a2.029,2.029,0,0,0-.187,3.029A2.414,2.414,0,0,0,614.163,260.528ZM348,260.509a2.421,2.421,0,0,0,1.736-.714,2.031,2.031,0,0,0-.181-3.033c-.252-.208-.5-.424-.74-.646a16.914,16.914,0,0,1-3.991-5.483,2.406,2.406,0,0,0-3.049-1.154,2.089,2.089,0,0,0-1.252,2.807,21.215,21.215,0,0,0,5,6.868c.3.277.609.547.923.8A2.443,2.443,0,0,0,348,260.509Zm273.106-23.754a2.244,2.244,0,0,0,2.33-2.147v-8.537a2.338,2.338,0,0,0-4.66,0v8.537A2.244,2.244,0,0,0,621.111,236.755Zm-280.03-.028a2.246,2.246,0,0,0,2.332-2.147V226.04a2.339,2.339,0,0,0-4.663,0v8.541A2.246,2.246,0,0,0,341.081,236.727Zm280.03-25.587a2.246,2.246,0,0,0,2.33-2.147v-8.539a2.338,2.338,0,0,0-4.66,0v8.539A2.246,2.246,0,0,0,621.111,211.14Zm-280.03-.03a2.245,2.245,0,0,0,2.332-2.147v-8.539a2.339,2.339,0,0,0-4.663,0v8.539A2.244,2.244,0,0,0,341.081,211.11Zm280.03-25.585a2.246,2.246,0,0,0,2.33-2.147v-8.539a2.338,2.338,0,0,0-4.66,0v8.539A2.246,2.246,0,0,0,621.111,185.525Zm-280.03-.03a2.245,2.245,0,0,0,2.332-2.147V174.81a2.339,2.339,0,0,0-4.663,0v8.539A2.244,2.244,0,0,0,341.081,185.5Zm280.03-25.587a2.244,2.244,0,0,0,2.33-2.147v-8.539a2.338,2.338,0,0,0-4.66,0v8.539A2.244,2.244,0,0,0,621.111,159.908Zm-280.03-.03a2.245,2.245,0,0,0,2.332-2.147v-8.537a2.339,2.339,0,0,0-4.663,0v8.537A2.244,2.244,0,0,0,341.081,159.878Z" transform="translate(-338.751 -147.048)" fill="#31b7bc"/>
      </g>
      <g id="Group_8545" data-name="Group 8545" transform="translate(280.397)">
        <path id="Path_12971" data-name="Path 12971" d="M340.9,144.853a2.147,2.147,0,0,0,2.147-2.147v-4.293a2.147,2.147,0,1,0-4.293,0v4.293A2.147,2.147,0,0,0,340.9,144.853Z" transform="translate(-338.751 -136.266)" fill="#00b59a"/>
      </g>
    </g>
    <g id="Group_8547" data-name="Group 8547" transform="translate(138 1375.398)">
      <path id="Path_12972" data-name="Path 12972" d="M338.751,205.573h4.663V95.752a16.267,16.267,0,0,1,5.409-12.033,19.177,19.177,0,0,1,13.064-4.985h238.42a19.168,19.168,0,0,1,13.062,4.985,16.261,16.261,0,0,1,5.411,12.033V205.573h4.66V95.752a20.362,20.362,0,0,0-6.775-15.068,24.007,24.007,0,0,0-16.358-6.244H361.887a24.007,24.007,0,0,0-16.358,6.244,20.364,20.364,0,0,0-6.778,15.068Z" transform="translate(-338.751 -74.44)" fill="#31b7bc"/>
    </g>
  </g>
</svg>
