<svg xmlns="http://www.w3.org/2000/svg" width="186.524" height="159.047" viewBox="0 0 186.524 159.047">
  <g id="Group_10362" data-name="Group 10362" transform="translate(-657.358 -1375.398)">
    <g id="Group_8578" data-name="Group 8578" transform="translate(684.836 1375.398)">
      <g id="Group_8550" data-name="Group 8550" transform="translate(0 79.523)">
        <path id="Path_12974" data-name="Path 12974" d="M317.191,145.805a1.3,1.3,0,0,0,1.3-1.3v-2.6a1.3,1.3,0,1,0-2.6,0v2.6A1.3,1.3,0,0,0,317.191,145.805Z" transform="translate(-315.889 -140.598)" fill="#31b7bc"/>
      </g>
      <g id="Group_8551" data-name="Group 8551" transform="translate(0)">
        <path id="Path_12975" data-name="Path 12975" d="M187.04,146.211a1.3,1.3,0,0,0,1.3-1.3v-5.177a1.3,1.3,0,1,0-2.6,0v5.177A1.3,1.3,0,0,0,187.04,146.211Zm156.443-.017a1.3,1.3,0,0,0,1.3-1.3v-5.178a1.3,1.3,0,0,0-2.6,0v5.178A1.3,1.3,0,0,0,343.483,146.194ZM187.04,130.677a1.3,1.3,0,0,0,1.3-1.3V124.2a1.3,1.3,0,1,0-2.6,0v5.178A1.3,1.3,0,0,0,187.04,130.677Zm156.443-.018a1.3,1.3,0,0,0,1.3-1.3v-5.178a1.3,1.3,0,0,0-2.6,0v5.178A1.3,1.3,0,0,0,343.483,130.659ZM187.04,115.143a1.3,1.3,0,0,0,1.3-1.3v-5.178a1.3,1.3,0,1,0-2.6,0v5.178A1.3,1.3,0,0,0,187.04,115.143Zm156.443-.017a1.3,1.3,0,0,0,1.3-1.3v-5.179a1.3,1.3,0,1,0-2.6,0v5.179A1.3,1.3,0,0,0,343.483,115.126ZM187.04,99.61a1.3,1.3,0,0,0,1.3-1.3V93.129a1.3,1.3,0,1,0-2.6,0v5.179A1.3,1.3,0,0,0,187.04,99.61Zm156.443-.019a1.3,1.3,0,0,0,1.3-1.3V93.111a1.3,1.3,0,0,0-2.6,0v5.178A1.3,1.3,0,0,0,343.483,99.591Zm-155.551-15.4a1.3,1.3,0,0,0,1.2-.8,10.281,10.281,0,0,1,2.231-3.326c.133-.132.27-.263.412-.389a1.3,1.3,0,0,0-1.737-1.94c-.176.157-.347.321-.514.487a12.9,12.9,0,0,0-2.795,4.167,1.3,1.3,0,0,0,.7,1.7A1.281,1.281,0,0,0,187.932,84.194Zm154.652-.017a1.329,1.329,0,0,0,.5-.1,1.3,1.3,0,0,0,.7-1.7A12.856,12.856,0,0,0,341,78.226q-.258-.26-.531-.5a1.3,1.3,0,1,0-1.732,1.941c.144.129.286.263.423.4a10.257,10.257,0,0,1,2.224,3.312A1.3,1.3,0,0,0,342.584,84.178ZM200.528,77.044H205.7a1.3,1.3,0,1,0,0-2.6h-5.177a1.3,1.3,0,0,0,0,2.6Zm15.534,0h5.178a1.3,1.3,0,0,0,0-2.6h-5.178a1.3,1.3,0,1,0,0,2.6Zm15.535,0h5.177a1.3,1.3,0,0,0,0-2.6H231.6a1.3,1.3,0,0,0,0,2.6Zm15.534,0h5.178a1.3,1.3,0,1,0,0-2.6H247.13a1.3,1.3,0,0,0,0,2.6Zm15.534,0h5.178a1.3,1.3,0,0,0,0-2.6h-5.178a1.3,1.3,0,1,0,0,2.6Zm15.534,0h5.178a1.3,1.3,0,0,0,0-2.6H278.2a1.3,1.3,0,1,0,0,2.6Zm15.534,0h5.18a1.3,1.3,0,0,0,0-2.6h-5.18a1.3,1.3,0,0,0,0,2.6Zm15.535,0h5.178a1.3,1.3,0,0,0,0-2.6h-5.178a1.3,1.3,0,1,0,0,2.6Zm15.534,0h5.178a1.3,1.3,0,1,0,0-2.6H324.8a1.3,1.3,0,0,0,0,2.6Z" transform="translate(-185.738 -74.44)" fill="#31b7bc"/>
      </g>
      <g id="Group_8552" data-name="Group 8552" transform="translate(156.443 79.523)">
        <path id="Path_12976" data-name="Path 12976" d="M187.04,145.805a1.3,1.3,0,0,0,1.3-1.3v-2.6a1.3,1.3,0,1,0-2.6,0v2.6A1.3,1.3,0,0,0,187.04,145.805Z" transform="translate(-185.738 -140.598)" fill="#31b7bc"/>
      </g>
    </g>
    <g id="Group_8579" data-name="Group 8579" transform="translate(657.358 1448.432)">
      <g id="Group_8554" data-name="Group 8554" transform="translate(9.34 5.188)">
        <path id="Path_12977" data-name="Path 12977" d="M216.8,220.341H350a12.927,12.927,0,0,0,12.924-12.924v-66.6h-2.6v66.6A10.321,10.321,0,0,1,350,217.737H216.8a10.321,10.321,0,0,1-10.32-10.32v-67.9H185.738v2.6h18.137v65.3A12.927,12.927,0,0,0,216.8,220.341Z" transform="translate(-185.738 -139.515)" fill="#31b7bc"/>
      </g>
      <g id="Group_8555" data-name="Group 8555" transform="translate(0)">
        <path id="Path_12978" data-name="Path 12978" d="M342.8,148.18l-11.24-6.491L342.8,135.2Z" transform="translate(-331.564 -135.199)" fill="#31b7bc"/>
      </g>
    </g>
  </g>
</svg>
