<svg xmlns="http://www.w3.org/2000/svg" width="330" height="281.56" viewBox="0 0 330 281.56">
  <g id="Group_10134" data-name="Group 10134" transform="translate(-698.859 -1375.398)">
    <g id="Group_8537" data-name="Group 8537" transform="translate(744.17 1517.236)">
      <g id="Group_8534" data-name="Group 8534" transform="translate(0)">
        <path id="Path_12963" data-name="Path 12963" d="M165.23,144.853a2.147,2.147,0,0,0,2.147-2.147v-4.293a2.147,2.147,0,0,0-4.293,0v4.293A2.147,2.147,0,0,0,165.23,144.853Z" transform="translate(-163.083 -136.266)" fill="#31b7bc"/>
      </g>
      <g id="Group_8535" data-name="Group 8535" transform="translate(0 21.371)">
        <path id="Path_12964" data-name="Path 12964" d="M59.406,265.4h9.267a2.154,2.154,0,1,0,0-4.293H59.406a2.154,2.154,0,1,0,0,4.293Zm27.8,0h9.267a2.154,2.154,0,1,0,0-4.293H87.211a2.154,2.154,0,1,0,0,4.293Zm27.8,0h9.269a2.154,2.154,0,1,0,0-4.293h-9.269a2.154,2.154,0,1,0,0,4.293Zm27.807,0h9.267a2.154,2.154,0,1,0,0-4.293h-9.267a2.154,2.154,0,1,0,0,4.293Zm27.8,0H179.9a2.154,2.154,0,1,0,0-4.293h-9.269a2.154,2.154,0,1,0,0,4.293Zm27.8,0H207.7a2.154,2.154,0,1,0,0-4.293h-9.269a2.154,2.154,0,1,0,0,4.293Zm27.8,0h9.269a2.154,2.154,0,1,0,0-4.293h-9.269a2.154,2.154,0,1,0,0,4.293Zm27.8,0h9.271a2.154,2.154,0,1,0,0-4.293h-9.271a2.154,2.154,0,1,0,0,4.293Zm27.807,0h9.269a2.154,2.154,0,1,0,0-4.293h-9.269a2.154,2.154,0,1,0,0,4.293Zm26.5-4.87a2.433,2.433,0,0,0,1.549-.547c.325-.268.641-.541.951-.827a21.149,21.149,0,0,0,4.985-6.838,2.089,2.089,0,0,0-1.25-2.809,2.409,2.409,0,0,0-3.049,1.152,16.955,16.955,0,0,1-3.98,5.461q-.371.339-.757.66a2.027,2.027,0,0,0-.189,3.029A2.42,2.42,0,0,0,308.346,260.528Zm-266.159-.02a2.419,2.419,0,0,0,1.734-.714,2.031,2.031,0,0,0-.179-3.033q-.381-.312-.742-.646a16.939,16.939,0,0,1-3.989-5.483,2.407,2.407,0,0,0-3.049-1.154,2.089,2.089,0,0,0-1.252,2.807,21.176,21.176,0,0,0,5,6.868c.3.277.609.547.923.8A2.444,2.444,0,0,0,42.187,260.509Zm273.1-23.754a2.244,2.244,0,0,0,2.33-2.147v-8.537a2.338,2.338,0,0,0-4.66,0v8.537A2.244,2.244,0,0,0,315.291,236.755Zm-280.028-.028a2.246,2.246,0,0,0,2.33-2.147V226.04a2.338,2.338,0,0,0-4.66,0v8.541A2.246,2.246,0,0,0,35.263,236.727Zm280.028-25.585a2.246,2.246,0,0,0,2.33-2.147v-8.541a2.338,2.338,0,0,0-4.66,0V209A2.246,2.246,0,0,0,315.291,211.142ZM35.263,211.11a2.244,2.244,0,0,0,2.33-2.147v-8.539a2.338,2.338,0,0,0-4.66,0v8.539A2.244,2.244,0,0,0,35.263,211.11Zm280.028-25.585a2.246,2.246,0,0,0,2.33-2.147v-8.539a2.338,2.338,0,0,0-4.66,0v8.539A2.246,2.246,0,0,0,315.291,185.525ZM35.263,185.5a2.244,2.244,0,0,0,2.33-2.147V174.81a2.338,2.338,0,0,0-4.66,0v8.539A2.244,2.244,0,0,0,35.263,185.5ZM315.291,159.91a2.246,2.246,0,0,0,2.33-2.147v-8.541a2.338,2.338,0,0,0-4.66,0v8.541A2.246,2.246,0,0,0,315.291,159.91Zm-280.028-.032a2.244,2.244,0,0,0,2.33-2.147v-8.537a2.338,2.338,0,0,0-4.66,0v8.537A2.244,2.244,0,0,0,35.263,159.878Z" transform="translate(-32.933 -147.048)" fill="#31b7bc"/>
      </g>
      <g id="Group_8536" data-name="Group 8536" transform="translate(280.395)">
        <path id="Path_12965" data-name="Path 12965" d="M35.08,144.853a2.147,2.147,0,0,0,2.147-2.147v-4.293a2.147,2.147,0,0,0-4.293,0v4.293A2.147,2.147,0,0,0,35.08,144.853Z" transform="translate(-32.933 -136.266)" fill="#31b7bc"/>
      </g>
    </g>
    <g id="Group_8540" data-name="Group 8540" transform="translate(698.859 1375.398)">
      <g id="Group_8538" data-name="Group 8538" transform="translate(15.403)">
        <path id="Path_12966" data-name="Path 12966" d="M32.933,207.72H69.759V95.752a16.326,16.326,0,0,1,5.365-12.033,18.941,18.941,0,0,1,12.959-4.985h236.5a18.941,18.941,0,0,1,12.959,4.985,16.326,16.326,0,0,1,5.365,12.033V205.573h4.623V95.752a20.429,20.429,0,0,0-6.721-15.068,23.705,23.705,0,0,0-16.227-6.244H88.084a23.706,23.706,0,0,0-16.227,6.244,20.429,20.429,0,0,0-6.721,15.068V203.427h-32.2Z" transform="translate(-32.933 -74.44)" fill="#31b7bc"/>
      </g>
      <g id="Group_8539" data-name="Group 8539" transform="translate(0 120.431)">
        <path id="Path_12967" data-name="Path 12967" d="M197.293,156.6l-18.535-10.7,18.535-10.7Z" transform="translate(-178.758 -135.199)" fill="#31b7bc"/>
      </g>
    </g>
  </g>
</svg>
