<svg xmlns="http://www.w3.org/2000/svg" xmlns:xlink="http://www.w3.org/1999/xlink" width="16" height="16" viewBox="0 0 16 16">
  <defs>
    <clipPath id="clip-path">
      <rect id="Rectangle_20171" data-name="Rectangle 20171" width="16" height="16" transform="translate(342 661)" fill="#fff" stroke="#707070" stroke-width="1"/>
    </clipPath>
  </defs>
  <g id="Mask_Group_624" data-name="Mask Group 624" transform="translate(-342 -661)" clip-path="url(#clip-path)">
    <g id="like" transform="translate(342 661)">
      <g id="Group_10346" data-name="Group 10346">
        <g id="Group_10345" data-name="Group 10345">
          <path id="Path_14552" data-name="Path 14552" d="M13.744,5.313H10.45V3.054A2.711,2.711,0,0,0,9.487.716a2.986,2.986,0,0,0-2.432-.3.561.561,0,0,0-.392.535V3.674c0,2.018-2.373,2.719-2.475,2.746-.007,0-.013,0-.016.007L3.9,6.511a1.694,1.694,0,0,0-1.169-.467H1.7A1.7,1.7,0,0,0,0,7.745v5.863a1.705,1.705,0,0,0,1.7,1.7H2.733a1.686,1.686,0,0,0,1.133-.434,2.348,2.348,0,0,0,1.8.842h6.673a2.527,2.527,0,0,0,2.755-2.269l.829-5.207.046-.281a2.694,2.694,0,0,0,.033-.4A2.262,2.262,0,0,0,13.744,5.313Zm-10.427,8.3a.584.584,0,0,1-.584.584H1.7a.584.584,0,0,1-.584-.584V7.745A.584.584,0,0,1,1.7,7.161H2.733a.584.584,0,0,1,.584.584S3.317,13.612,3.317,13.612ZM14.861,7.791l-.875,5.5c0,.007,0,.013,0,.02-.039.32-.157,1.3-1.645,1.3H5.664a1.23,1.23,0,0,1-1.228-1.228V7.745A1.742,1.742,0,0,0,4.42,7.52L4.5,7.494c.238-.069,3.281-1,3.281-3.823V1.409a1.534,1.534,0,0,1,1.045.212,1.7,1.7,0,0,1,.5,1.433V5.875a.561.561,0,0,0,.562.562h3.852a1.133,1.133,0,0,1,1.133,1.133A1.735,1.735,0,0,1,14.861,7.791Z" fill="#fff"/>
        </g>
      </g>
    </g>
  </g>
</svg>
