<svg xmlns="http://www.w3.org/2000/svg" xmlns:xlink="http://www.w3.org/1999/xlink" width="48" height="48" viewBox="0 0 48 48">
  <defs>
    <clipPath id="clip-path">
      <rect id="Rectangle_20032" data-name="Rectangle 20032" width="48" height="48" transform="translate(137 53.014)" fill="#31b7bc" stroke="#707070" stroke-width="1"/>
    </clipPath>
  </defs>
  <g id="Mask_Group_592" data-name="Mask Group 592" transform="translate(-137 -53.014)" clip-path="url(#clip-path)">
    <g id="shuttle" transform="translate(137 53.014)">
      <path id="Path_13940" data-name="Path 13940" d="M12.21,12.963l-4.159.321a3.711,3.711,0,0,0-2.828,1.664L.428,22.2a2.57,2.57,0,0,0,1.751,3.958l3.808.59A34.1,34.1,0,0,1,12.21,12.963Z" fill="#31b7bc"/>
      <path id="Path_13941" data-name="Path 13941" d="M21.251,42.014l.59,3.808A2.568,2.568,0,0,0,25.8,47.572l7.254-4.8a3.71,3.71,0,0,0,1.664-2.828l.321-4.159a34.094,34.094,0,0,1-13.786,6.224Z" fill="#31b7bc"/>
      <path id="Path_13942" data-name="Path 13942" d="M19.819,39.375a2.417,2.417,0,0,0,.4-.033,27.552,27.552,0,0,0,5.71-1.619l-15.65-15.65a27.548,27.548,0,0,0-1.619,5.71,2.454,2.454,0,0,0,.691,2.136l8.732,8.732A2.463,2.463,0,0,0,19.819,39.375Z" fill="#31b7bc"/>
      <path id="Path_13943" data-name="Path 13943" d="M44.173,21.281a37.915,37.915,0,0,0,3.771-18.9A2.465,2.465,0,0,0,45.616.056C45.018.024,44.31,0,43.512,0A37.151,37.151,0,0,0,26.719,3.827a38.2,38.2,0,0,0-15.2,15.531,1.414,1.414,0,0,1,.13.114L28.528,36.347a1.411,1.411,0,0,1,.114.13A38.2,38.2,0,0,0,44.173,21.281ZM27.909,10.147a7.031,7.031,0,1,1-2.059,4.972,7.039,7.039,0,0,1,2.059-4.972Z" fill="#31b7bc"/>
      <path id="Path_13944" data-name="Path 13944" d="M29.9,18.1a4.219,4.219,0,1,0-1.236-2.983A4.224,4.224,0,0,0,29.9,18.1Z" fill="#31b7bc"/>
      <path id="Path_13945" data-name="Path 13945" d="M1.435,39.556a1.4,1.4,0,0,0,.994-.412L7.02,34.553a1.406,1.406,0,1,0-1.989-1.989L.44,37.156a1.406,1.406,0,0,0,.994,2.4Z" fill="#31b7bc"/>
      <path id="Path_13946" data-name="Path 13946" d="M11.228,36.772a1.406,1.406,0,0,0-1.989,0L.412,45.6A1.406,1.406,0,1,0,2.4,47.588l8.827-8.827a1.406,1.406,0,0,0,0-1.989Z" fill="#31b7bc"/>
      <path id="Path_13947" data-name="Path 13947" d="M13.447,40.98,8.856,45.571a1.406,1.406,0,1,0,1.989,1.989l4.591-4.591a1.406,1.406,0,1,0-1.989-1.989Z" fill="#31b7bc"/>
    </g>
  </g>
</svg>
