<svg xmlns="http://www.w3.org/2000/svg" width="246.319" height="218.321" viewBox="0 0 246.319 218.321">
  <g id="Group_9967" data-name="Group 9967" transform="translate(-783.063 -295.433)" opacity="0.19">
    <g id="Group_9903" data-name="Group 9903" transform="translate(783.063 295.433)">
      <g id="Group_9897" data-name="Group 9897">
        <path id="Path_14390" data-name="Path 14390" d="M797.93,325.161,783.063,310.3l14.867-14.865L812.793,310.3ZM785.49,310.3l12.44,12.437L810.366,310.3,797.93,297.86Z" transform="translate(-783.063 -295.433)" fill="#31b7bc"/>
      </g>
      <g id="Group_9898" data-name="Group 9898" transform="translate(0 34.288)">
        <path id="Path_14391" data-name="Path 14391" d="M797.93,345.143l-14.867-14.865,14.867-14.865,14.863,14.865Zm-12.44-14.865,12.44,12.438,12.437-12.438L797.93,317.84Z" transform="translate(-783.063 -315.413)" fill="#31b7bc"/>
      </g>
      <g id="Group_9899" data-name="Group 9899" transform="translate(0 68.578)">
        <path id="Path_14392" data-name="Path 14392" d="M797.93,365.124l-14.867-14.865,14.867-14.865,14.863,14.865Zm-12.44-14.865L797.93,362.7l12.437-12.438L797.93,337.821Z" transform="translate(-783.063 -335.394)" fill="#31b7bc"/>
      </g>
      <g id="Group_9900" data-name="Group 9900" transform="translate(0 102.867)">
        <path id="Path_14393" data-name="Path 14393" d="M797.93,385.105,783.063,370.24l14.867-14.865,14.863,14.865ZM785.49,370.24l12.44,12.438,12.437-12.438L797.93,357.8Z" transform="translate(-783.063 -355.375)" fill="#31b7bc"/>
      </g>
      <g id="Group_9901" data-name="Group 9901" transform="translate(0 137.155)">
        <path id="Path_14394" data-name="Path 14394" d="M797.93,405.087l-14.867-14.865,14.867-14.867,14.863,14.867Zm-12.44-14.865,12.44,12.438,12.437-12.438L797.93,377.783Z" transform="translate(-783.063 -375.355)" fill="#31b7bc"/>
      </g>
      <g id="Group_9902" data-name="Group 9902" transform="translate(0 171.447)">
        <path id="Path_14395" data-name="Path 14395" d="M797.93,425.065,783.063,410.2l14.867-14.865L812.793,410.2ZM785.49,410.2l12.44,12.437L810.366,410.2,797.93,397.764Z" transform="translate(-783.063 -395.337)" fill="#31b7bc"/>
      </g>
    </g>
    <g id="Group_9910" data-name="Group 9910" transform="translate(807.969 312.577)">
      <g id="Group_9904" data-name="Group 9904">
        <path id="Path_14396" data-name="Path 14396" d="M812.441,335.153l-14.865-14.865,14.865-14.865,14.865,14.865ZM800,320.288l12.438,12.438,12.438-12.438L812.441,307.85Z" transform="translate(-797.576 -305.423)" fill="#31b7bc"/>
      </g>
      <g id="Group_9905" data-name="Group 9905" transform="translate(0 34.288)">
        <path id="Path_14397" data-name="Path 14397" d="M812.441,355.135l-14.865-14.867L812.441,325.4l14.865,14.865ZM800,340.268l12.438,12.44,12.438-12.44L812.441,327.83Z" transform="translate(-797.576 -325.403)" fill="#31b7bc"/>
      </g>
      <g id="Group_9906" data-name="Group 9906" transform="translate(0 68.579)">
        <path id="Path_14398" data-name="Path 14398" d="M812.441,375.113,797.576,360.25l14.865-14.865,14.865,14.865ZM800,360.25l12.438,12.437,12.438-12.437-12.438-12.438Z" transform="translate(-797.576 -345.385)" fill="#31b7bc"/>
      </g>
      <g id="Group_9907" data-name="Group 9907" transform="translate(0 102.867)">
        <path id="Path_14399" data-name="Path 14399" d="M812.441,395.1,797.576,380.23l14.865-14.865,14.865,14.865ZM800,380.23l12.438,12.438,12.438-12.438-12.438-12.438Z" transform="translate(-797.576 -365.365)" fill="#31b7bc"/>
      </g>
      <g id="Group_9908" data-name="Group 9908" transform="translate(0 137.157)">
        <path id="Path_14400" data-name="Path 14400" d="M812.441,415.076l-14.865-14.865,14.865-14.865,14.865,14.865ZM800,400.211l12.438,12.438,12.438-12.438-12.438-12.438Z" transform="translate(-797.576 -385.346)" fill="#31b7bc"/>
      </g>
      <g id="Group_9909" data-name="Group 9909" transform="translate(0 171.447)">
        <path id="Path_14401" data-name="Path 14401" d="M812.441,435.057l-14.865-14.865,14.865-14.865,14.865,14.865ZM800,420.192l12.438,12.438,12.438-12.438-12.438-12.438Z" transform="translate(-797.576 -405.327)" fill="#31b7bc"/>
      </g>
    </g>
    <g id="Group_9917" data-name="Group 9917" transform="translate(830.984 295.433)">
      <g id="Group_9911" data-name="Group 9911">
        <path id="Path_14402" data-name="Path 14402" d="M825.852,325.161,810.987,310.3l14.865-14.865L840.717,310.3ZM813.414,310.3l12.438,12.437L838.29,310.3,825.852,297.86Z" transform="translate(-810.987 -295.433)" fill="#31b7bc"/>
      </g>
      <g id="Group_9912" data-name="Group 9912" transform="translate(0 34.288)">
        <path id="Path_14403" data-name="Path 14403" d="M825.852,345.143l-14.865-14.865,14.865-14.865,14.865,14.865Zm-12.438-14.865,12.438,12.438,12.438-12.438L825.852,317.84Z" transform="translate(-810.987 -315.413)" fill="#31b7bc"/>
      </g>
      <g id="Group_9913" data-name="Group 9913" transform="translate(0 68.578)">
        <path id="Path_14404" data-name="Path 14404" d="M825.852,365.124l-14.865-14.865,14.865-14.865,14.865,14.865Zm-12.438-14.865L825.852,362.7l12.438-12.438-12.438-12.438Z" transform="translate(-810.987 -335.394)" fill="#31b7bc"/>
      </g>
      <g id="Group_9914" data-name="Group 9914" transform="translate(0 102.867)">
        <path id="Path_14405" data-name="Path 14405" d="M825.852,385.105,810.987,370.24l14.865-14.865,14.865,14.865ZM813.414,370.24l12.438,12.438L838.29,370.24,825.852,357.8Z" transform="translate(-810.987 -355.375)" fill="#31b7bc"/>
      </g>
      <g id="Group_9915" data-name="Group 9915" transform="translate(0 137.155)">
        <path id="Path_14406" data-name="Path 14406" d="M825.852,405.087l-14.865-14.865,14.865-14.867,14.865,14.867Zm-12.438-14.865,12.438,12.438,12.438-12.438-12.438-12.438Z" transform="translate(-810.987 -375.355)" fill="#31b7bc"/>
      </g>
      <g id="Group_9916" data-name="Group 9916" transform="translate(0 171.447)">
        <path id="Path_14407" data-name="Path 14407" d="M825.852,425.065,810.987,410.2l14.865-14.865L840.717,410.2ZM813.414,410.2l12.438,12.437L838.29,410.2l-12.438-12.438Z" transform="translate(-810.987 -395.337)" fill="#31b7bc"/>
      </g>
    </g>
    <g id="Group_9924" data-name="Group 9924" transform="translate(855.89 312.577)">
      <g id="Group_9918" data-name="Group 9918">
        <path id="Path_14408" data-name="Path 14408" d="M840.365,335.153,825.5,320.288l14.865-14.865,14.865,14.865Zm-12.438-14.865,12.438,12.438L852.8,320.288,840.365,307.85Z" transform="translate(-825.5 -305.423)" fill="#31b7bc"/>
      </g>
      <g id="Group_9919" data-name="Group 9919" transform="translate(0 34.288)">
        <path id="Path_14409" data-name="Path 14409" d="M840.365,355.135,825.5,340.268,840.365,325.4l14.865,14.865Zm-12.438-14.867,12.438,12.44,12.438-12.44L840.365,327.83Z" transform="translate(-825.5 -325.403)" fill="#31b7bc"/>
      </g>
      <g id="Group_9920" data-name="Group 9920" transform="translate(0 68.579)">
        <path id="Path_14410" data-name="Path 14410" d="M840.365,375.113,825.5,360.25l14.865-14.865L855.23,360.25ZM827.927,360.25l12.438,12.437L852.8,360.25l-12.438-12.438Z" transform="translate(-825.5 -345.385)" fill="#31b7bc"/>
      </g>
      <g id="Group_9921" data-name="Group 9921" transform="translate(0 102.867)">
        <path id="Path_14411" data-name="Path 14411" d="M840.365,395.1,825.5,380.23l14.865-14.865L855.23,380.23ZM827.927,380.23l12.438,12.438L852.8,380.23l-12.438-12.438Z" transform="translate(-825.5 -365.365)" fill="#31b7bc"/>
      </g>
      <g id="Group_9922" data-name="Group 9922" transform="translate(0 137.157)">
        <path id="Path_14412" data-name="Path 14412" d="M840.365,415.076,825.5,400.211l14.865-14.865,14.865,14.865Zm-12.438-14.865,12.438,12.438L852.8,400.211l-12.438-12.438Z" transform="translate(-825.5 -385.346)" fill="#31b7bc"/>
      </g>
      <g id="Group_9923" data-name="Group 9923" transform="translate(0 171.447)">
        <path id="Path_14413" data-name="Path 14413" d="M840.365,435.057,825.5,420.192l14.865-14.865,14.865,14.865Zm-12.438-14.865,12.438,12.438L852.8,420.192l-12.438-12.438Z" transform="translate(-825.5 -405.327)" fill="#31b7bc"/>
      </g>
    </g>
    <g id="Group_9931" data-name="Group 9931" transform="translate(878.905 295.433)">
      <g id="Group_9925" data-name="Group 9925">
        <path id="Path_14414" data-name="Path 14414" d="M853.776,325.161,838.911,310.3l14.865-14.865L868.641,310.3ZM841.338,310.3l12.438,12.437L866.214,310.3,853.776,297.86Z" transform="translate(-838.911 -295.433)" fill="#31b7bc"/>
      </g>
      <g id="Group_9926" data-name="Group 9926" transform="translate(0 34.288)">
        <path id="Path_14415" data-name="Path 14415" d="M853.776,345.143l-14.865-14.865,14.865-14.865,14.865,14.865Zm-12.438-14.865,12.438,12.438,12.438-12.438L853.776,317.84Z" transform="translate(-838.911 -315.413)" fill="#31b7bc"/>
      </g>
      <g id="Group_9927" data-name="Group 9927" transform="translate(0 68.578)">
        <path id="Path_14416" data-name="Path 14416" d="M853.776,365.124l-14.865-14.865,14.865-14.865,14.865,14.865Zm-12.438-14.865L853.776,362.7l12.438-12.438-12.438-12.438Z" transform="translate(-838.911 -335.394)" fill="#31b7bc"/>
      </g>
      <g id="Group_9928" data-name="Group 9928" transform="translate(0 102.867)">
        <path id="Path_14417" data-name="Path 14417" d="M853.776,385.105,838.911,370.24l14.865-14.865,14.865,14.865ZM841.338,370.24l12.438,12.438,12.438-12.438L853.776,357.8Z" transform="translate(-838.911 -355.375)" fill="#31b7bc"/>
      </g>
      <g id="Group_9929" data-name="Group 9929" transform="translate(0 137.155)">
        <path id="Path_14418" data-name="Path 14418" d="M853.776,405.087l-14.865-14.865,14.865-14.867,14.865,14.867Zm-12.438-14.865,12.438,12.438,12.438-12.438-12.438-12.438Z" transform="translate(-838.911 -375.355)" fill="#31b7bc"/>
      </g>
      <g id="Group_9930" data-name="Group 9930" transform="translate(0 171.447)">
        <path id="Path_14419" data-name="Path 14419" d="M853.776,425.065,838.911,410.2l14.865-14.865L868.641,410.2ZM841.338,410.2l12.438,12.437L866.214,410.2l-12.438-12.438Z" transform="translate(-838.911 -395.337)" fill="#31b7bc"/>
      </g>
    </g>
    <g id="Group_9938" data-name="Group 9938" transform="translate(903.811 312.577)">
      <g id="Group_9932" data-name="Group 9932">
        <path id="Path_14420" data-name="Path 14420" d="M868.289,335.153l-14.865-14.865,14.865-14.865,14.865,14.865Zm-12.438-14.865,12.438,12.438,12.438-12.438L868.289,307.85Z" transform="translate(-853.424 -305.423)" fill="#31b7bc"/>
      </g>
      <g id="Group_9933" data-name="Group 9933" transform="translate(0 34.288)">
        <path id="Path_14421" data-name="Path 14421" d="M868.289,355.135l-14.865-14.867L868.289,325.4l14.865,14.865Zm-12.438-14.867,12.438,12.44,12.438-12.44L868.289,327.83Z" transform="translate(-853.424 -325.403)" fill="#31b7bc"/>
      </g>
      <g id="Group_9934" data-name="Group 9934" transform="translate(0 68.579)">
        <path id="Path_14422" data-name="Path 14422" d="M868.289,375.113,853.424,360.25l14.865-14.865,14.865,14.865ZM855.851,360.25l12.438,12.437,12.438-12.437-12.438-12.438Z" transform="translate(-853.424 -345.385)" fill="#31b7bc"/>
      </g>
      <g id="Group_9935" data-name="Group 9935" transform="translate(0 102.867)">
        <path id="Path_14423" data-name="Path 14423" d="M868.289,395.1,853.424,380.23l14.865-14.865,14.865,14.865ZM855.851,380.23l12.438,12.438,12.438-12.438-12.438-12.438Z" transform="translate(-853.424 -365.365)" fill="#31b7bc"/>
      </g>
      <g id="Group_9936" data-name="Group 9936" transform="translate(0 137.157)">
        <path id="Path_14424" data-name="Path 14424" d="M868.289,415.076l-14.865-14.865,14.865-14.865,14.865,14.865Zm-12.438-14.865,12.438,12.438,12.438-12.438-12.438-12.438Z" transform="translate(-853.424 -385.346)" fill="#31b7bc"/>
      </g>
      <g id="Group_9937" data-name="Group 9937" transform="translate(0 171.447)">
        <path id="Path_14425" data-name="Path 14425" d="M868.289,435.057l-14.865-14.865,14.865-14.865,14.865,14.865Zm-12.438-14.865,12.438,12.438,12.438-12.438-12.438-12.438Z" transform="translate(-853.424 -405.327)" fill="#31b7bc"/>
      </g>
    </g>
    <g id="Group_9945" data-name="Group 9945" transform="translate(926.826 295.433)">
      <g id="Group_9939" data-name="Group 9939">
        <path id="Path_14426" data-name="Path 14426" d="M881.7,325.161,866.835,310.3,881.7,295.433,896.565,310.3ZM869.262,310.3,881.7,322.735,894.138,310.3,881.7,297.86Z" transform="translate(-866.835 -295.433)" fill="#31b7bc"/>
      </g>
      <g id="Group_9940" data-name="Group 9940" transform="translate(0 34.288)">
        <path id="Path_14427" data-name="Path 14427" d="M881.7,345.143l-14.865-14.865L881.7,315.413l14.865,14.865Zm-12.438-14.865L881.7,342.716l12.438-12.438L881.7,317.84Z" transform="translate(-866.835 -315.413)" fill="#31b7bc"/>
      </g>
      <g id="Group_9941" data-name="Group 9941" transform="translate(0 68.578)">
        <path id="Path_14428" data-name="Path 14428" d="M881.7,365.124l-14.865-14.865L881.7,335.394l14.865,14.865Zm-12.438-14.865L881.7,362.7l12.438-12.438L881.7,337.821Z" transform="translate(-866.835 -335.394)" fill="#31b7bc"/>
      </g>
      <g id="Group_9942" data-name="Group 9942" transform="translate(0 102.867)">
        <path id="Path_14429" data-name="Path 14429" d="M881.7,385.105,866.835,370.24,881.7,355.375l14.865,14.865ZM869.262,370.24,881.7,382.678l12.438-12.438L881.7,357.8Z" transform="translate(-866.835 -355.375)" fill="#31b7bc"/>
      </g>
      <g id="Group_9943" data-name="Group 9943" transform="translate(0 137.155)">
        <path id="Path_14430" data-name="Path 14430" d="M881.7,405.087l-14.865-14.865L881.7,375.355l14.865,14.867Zm-12.438-14.865L881.7,402.66l12.438-12.438L881.7,377.783Z" transform="translate(-866.835 -375.355)" fill="#31b7bc"/>
      </g>
      <g id="Group_9944" data-name="Group 9944" transform="translate(0 171.447)">
        <path id="Path_14431" data-name="Path 14431" d="M881.7,425.065,866.835,410.2,881.7,395.337,896.565,410.2ZM869.262,410.2,881.7,422.639,894.138,410.2,881.7,397.764Z" transform="translate(-866.835 -395.337)" fill="#31b7bc"/>
      </g>
    </g>
    <g id="Group_9952" data-name="Group 9952" transform="translate(951.732 312.577)">
      <g id="Group_9946" data-name="Group 9946">
        <path id="Path_14432" data-name="Path 14432" d="M896.213,335.153l-14.865-14.865,14.865-14.865,14.865,14.865Zm-12.438-14.865,12.438,12.438,12.438-12.438L896.213,307.85Z" transform="translate(-881.348 -305.423)" fill="#31b7bc"/>
      </g>
      <g id="Group_9947" data-name="Group 9947" transform="translate(0 34.288)">
        <path id="Path_14433" data-name="Path 14433" d="M896.213,355.135l-14.865-14.867L896.213,325.4l14.865,14.865Zm-12.438-14.867,12.438,12.44,12.438-12.44L896.213,327.83Z" transform="translate(-881.348 -325.403)" fill="#31b7bc"/>
      </g>
      <g id="Group_9948" data-name="Group 9948" transform="translate(0 68.579)">
        <path id="Path_14434" data-name="Path 14434" d="M896.213,375.113,881.348,360.25l14.865-14.865,14.865,14.865ZM883.775,360.25l12.438,12.437,12.438-12.437-12.438-12.438Z" transform="translate(-881.348 -345.385)" fill="#31b7bc"/>
      </g>
      <g id="Group_9949" data-name="Group 9949" transform="translate(0 102.867)">
        <path id="Path_14435" data-name="Path 14435" d="M896.213,395.1,881.348,380.23l14.865-14.865,14.865,14.865ZM883.775,380.23l12.438,12.438,12.438-12.438-12.438-12.438Z" transform="translate(-881.348 -365.365)" fill="#31b7bc"/>
      </g>
      <g id="Group_9950" data-name="Group 9950" transform="translate(0 137.157)">
        <path id="Path_14436" data-name="Path 14436" d="M896.213,415.076l-14.865-14.865,14.865-14.865,14.865,14.865Zm-12.438-14.865,12.438,12.438,12.438-12.438-12.438-12.438Z" transform="translate(-881.348 -385.346)" fill="#31b7bc"/>
      </g>
      <g id="Group_9951" data-name="Group 9951" transform="translate(0 171.447)">
        <path id="Path_14437" data-name="Path 14437" d="M896.213,435.057l-14.865-14.865,14.865-14.865,14.865,14.865Zm-12.438-14.865,12.438,12.438,12.438-12.438-12.438-12.438Z" transform="translate(-881.348 -405.327)" fill="#31b7bc"/>
      </g>
    </g>
    <g id="Group_9959" data-name="Group 9959" transform="translate(974.746 295.433)">
      <g id="Group_9953" data-name="Group 9953">
        <path id="Path_14438" data-name="Path 14438" d="M909.624,325.161,894.759,310.3l14.865-14.865L924.489,310.3ZM897.186,310.3l12.438,12.437L922.062,310.3,909.624,297.86Z" transform="translate(-894.759 -295.433)" fill="#31b7bc"/>
      </g>
      <g id="Group_9954" data-name="Group 9954" transform="translate(0 34.288)">
        <path id="Path_14439" data-name="Path 14439" d="M909.624,345.143l-14.865-14.865,14.865-14.865,14.865,14.865Zm-12.438-14.865,12.438,12.438,12.438-12.438L909.624,317.84Z" transform="translate(-894.759 -315.413)" fill="#31b7bc"/>
      </g>
      <g id="Group_9955" data-name="Group 9955" transform="translate(0 68.578)">
        <path id="Path_14440" data-name="Path 14440" d="M909.624,365.124l-14.865-14.865,14.865-14.865,14.865,14.865Zm-12.438-14.865L909.624,362.7l12.438-12.438-12.438-12.438Z" transform="translate(-894.759 -335.394)" fill="#31b7bc"/>
      </g>
      <g id="Group_9956" data-name="Group 9956" transform="translate(0 102.867)">
        <path id="Path_14441" data-name="Path 14441" d="M909.624,385.105,894.759,370.24l14.865-14.865,14.865,14.865ZM897.186,370.24l12.438,12.438,12.438-12.438L909.624,357.8Z" transform="translate(-894.759 -355.375)" fill="#31b7bc"/>
      </g>
      <g id="Group_9957" data-name="Group 9957" transform="translate(0 137.155)">
        <path id="Path_14442" data-name="Path 14442" d="M909.624,405.087l-14.865-14.865,14.865-14.867,14.865,14.867Zm-12.438-14.865,12.438,12.438,12.438-12.438-12.438-12.438Z" transform="translate(-894.759 -375.355)" fill="#31b7bc"/>
      </g>
      <g id="Group_9958" data-name="Group 9958" transform="translate(0 171.447)">
        <path id="Path_14443" data-name="Path 14443" d="M909.624,425.065,894.759,410.2l14.865-14.865L924.489,410.2ZM897.186,410.2l12.438,12.437L922.062,410.2l-12.438-12.438Z" transform="translate(-894.759 -395.337)" fill="#31b7bc"/>
      </g>
    </g>
    <g id="Group_9966" data-name="Group 9966" transform="translate(999.652 312.577)">
      <g id="Group_9960" data-name="Group 9960">
        <path id="Path_14444" data-name="Path 14444" d="M924.139,335.153l-14.867-14.865,14.867-14.865L939,320.288ZM911.7,320.288l12.44,12.438,12.437-12.438L924.139,307.85Z" transform="translate(-909.272 -305.423)" fill="#31b7bc"/>
      </g>
      <g id="Group_9961" data-name="Group 9961" transform="translate(0 34.288)">
        <path id="Path_14445" data-name="Path 14445" d="M924.139,355.135l-14.867-14.867L924.139,325.4,939,340.268ZM911.7,340.268l12.44,12.44,12.437-12.44L924.139,327.83Z" transform="translate(-909.272 -325.403)" fill="#31b7bc"/>
      </g>
      <g id="Group_9962" data-name="Group 9962" transform="translate(0 68.579)">
        <path id="Path_14446" data-name="Path 14446" d="M924.139,375.113,909.272,360.25l14.867-14.865L939,360.25ZM911.7,360.25l12.44,12.437,12.437-12.437-12.437-12.438Z" transform="translate(-909.272 -345.385)" fill="#31b7bc"/>
      </g>
      <g id="Group_9963" data-name="Group 9963" transform="translate(0 102.867)">
        <path id="Path_14447" data-name="Path 14447" d="M924.139,395.1,909.272,380.23l14.867-14.865L939,380.23ZM911.7,380.23l12.44,12.438,12.437-12.438-12.437-12.438Z" transform="translate(-909.272 -365.365)" fill="#31b7bc"/>
      </g>
      <g id="Group_9964" data-name="Group 9964" transform="translate(0 137.157)">
        <path id="Path_14448" data-name="Path 14448" d="M924.139,415.076l-14.867-14.865,14.867-14.865L939,400.211ZM911.7,400.211l12.44,12.438,12.437-12.438-12.437-12.438Z" transform="translate(-909.272 -385.346)" fill="#31b7bc"/>
      </g>
      <g id="Group_9965" data-name="Group 9965" transform="translate(0 171.447)">
        <path id="Path_14449" data-name="Path 14449" d="M924.139,435.057l-14.867-14.865,14.867-14.865L939,420.192ZM911.7,420.192l12.44,12.438,12.437-12.438-12.437-12.438Z" transform="translate(-909.272 -405.327)" fill="#31b7bc"/>
      </g>
    </g>
  </g>
</svg>
