<svg xmlns="http://www.w3.org/2000/svg" width="1164" height="262.269" viewBox="0 0 1164 262.269">
  <g id="Group_10287" data-name="Group 10287" transform="translate(-138 -1375.398)">
    <g id="Group_8537" data-name="Group 8537" transform="translate(744.17 1497.945)">
      <g id="Group_8534" data-name="Group 8534" transform="translate(0)">
        <path id="Path_12963" data-name="Path 12963" d="M165.23,144.853a2.147,2.147,0,0,0,2.147-2.147v-4.293a2.147,2.147,0,0,0-4.293,0v4.293A2.147,2.147,0,0,0,165.23,144.853Z" transform="translate(-163.083 -136.266)" fill="#31b7bc"/>
      </g>
      <g id="Group_8535" data-name="Group 8535" transform="translate(0 21.371)">
        <path id="Path_12964" data-name="Path 12964" d="M57.321,265.4h8.537a2.147,2.147,0,1,0,0-4.293H57.321a2.147,2.147,0,0,0,0,4.293Zm25.615,0h8.537a2.147,2.147,0,1,0,0-4.293H82.936a2.147,2.147,0,0,0,0,4.293Zm25.615,0h8.539a2.147,2.147,0,1,0,0-4.293h-8.539a2.147,2.147,0,1,0,0,4.293Zm25.617,0H142.7a2.147,2.147,0,0,0,0-4.293h-8.537a2.147,2.147,0,1,0,0,4.293Zm25.615,0h8.539a2.147,2.147,0,1,0,0-4.293h-8.539a2.147,2.147,0,0,0,0,4.293Zm25.615,0h8.539a2.147,2.147,0,1,0,0-4.293H185.4a2.147,2.147,0,1,0,0,4.293Zm25.615,0h8.539a2.147,2.147,0,1,0,0-4.293h-8.539a2.147,2.147,0,1,0,0,4.293Zm25.615,0h8.541a2.147,2.147,0,1,0,0-4.293h-8.541a2.147,2.147,0,1,0,0,4.293Zm25.617,0h8.539a2.147,2.147,0,0,0,0-4.293h-8.539a2.147,2.147,0,0,0,0,4.293Zm24.41-4.87a2.135,2.135,0,0,0,1.427-.547c.3-.268.591-.541.876-.827a21.162,21.162,0,0,0,4.593-6.838,2.146,2.146,0,0,0-3.96-1.657,16.967,16.967,0,0,1-3.667,5.461q-.342.339-.7.66a2.147,2.147,0,0,0,1.429,3.748Zm-245.2-.02a2.148,2.148,0,0,0,1.433-3.746q-.351-.312-.684-.646a16.953,16.953,0,0,1-3.675-5.483,2.147,2.147,0,0,0-3.962,1.653,21.194,21.194,0,0,0,4.6,6.868c.277.277.561.547.85.8A2.144,2.144,0,0,0,41.458,260.509Zm251.595-23.754a2.147,2.147,0,0,0,2.147-2.147v-8.537a2.147,2.147,0,1,0-4.293,0v8.537A2.147,2.147,0,0,0,293.053,236.755ZM35.08,236.727a2.148,2.148,0,0,0,2.147-2.147V226.04a2.147,2.147,0,0,0-4.293,0v8.541A2.148,2.148,0,0,0,35.08,236.727Zm257.973-25.585A2.148,2.148,0,0,0,295.2,209v-8.541a2.147,2.147,0,1,0-4.293,0V209A2.148,2.148,0,0,0,293.053,211.142ZM35.08,211.11a2.147,2.147,0,0,0,2.147-2.147v-8.539a2.147,2.147,0,1,0-4.293,0v8.539A2.147,2.147,0,0,0,35.08,211.11Zm257.973-25.585a2.148,2.148,0,0,0,2.147-2.147v-8.539a2.147,2.147,0,1,0-4.293,0v8.539A2.148,2.148,0,0,0,293.053,185.525ZM35.08,185.5a2.147,2.147,0,0,0,2.147-2.147V174.81a2.147,2.147,0,1,0-4.293,0v8.539A2.147,2.147,0,0,0,35.08,185.5ZM293.053,159.91a2.148,2.148,0,0,0,2.147-2.147v-8.541a2.147,2.147,0,1,0-4.293,0v8.541A2.148,2.148,0,0,0,293.053,159.91ZM35.08,159.878a2.147,2.147,0,0,0,2.147-2.147v-8.537a2.147,2.147,0,0,0-4.293,0v8.537A2.147,2.147,0,0,0,35.08,159.878Z" transform="translate(-32.933 -147.048)" fill="#31b7bc"/>
      </g>
      <g id="Group_8536" data-name="Group 8536" transform="translate(257.973)">
        <path id="Path_12965" data-name="Path 12965" d="M35.08,144.853a2.147,2.147,0,0,0,2.147-2.147v-4.293a2.147,2.147,0,0,0-4.293,0v4.293A2.147,2.147,0,0,0,35.08,144.853Z" transform="translate(-32.933 -136.266)" fill="#31b7bc"/>
      </g>
    </g>
    <g id="Group_8540" data-name="Group 8540" transform="translate(698.859 1375.398)">
      <g id="Group_8538" data-name="Group 8538" transform="translate(15.403)">
        <path id="Path_12966" data-name="Path 12966" d="M32.933,207.72h34.2V95.752A17.017,17.017,0,0,1,84.153,78.733H303.8a17.017,17.017,0,0,1,17.018,17.018V205.573h4.293V95.752A21.314,21.314,0,0,0,303.8,74.44H84.153A21.314,21.314,0,0,0,62.841,95.752V203.427H32.933Z" transform="translate(-32.933 -74.44)" fill="#31b7bc"/>
      </g>
      <g id="Group_8539" data-name="Group 8539" transform="translate(0 120.431)">
        <path id="Path_12967" data-name="Path 12967" d="M197.293,156.6l-18.535-10.7,18.535-10.7Z" transform="translate(-178.758 -135.199)" fill="#31b7bc"/>
      </g>
    </g>
    <g id="Group_8546" data-name="Group 8546" transform="translate(138 1497.945)">
      <g id="Group_8543" data-name="Group 8543" transform="translate(0)">
        <path id="Path_12969" data-name="Path 12969" d="M471.048,144.853a2.147,2.147,0,0,0,2.149-2.147v-4.293a2.148,2.148,0,0,0-4.3,0v4.293A2.147,2.147,0,0,0,471.048,144.853Z" transform="translate(-468.901 -136.266)" fill="#00b59a"/>
      </g>
      <g id="Group_8544" data-name="Group 8544" transform="translate(0 21.371)">
        <path id="Path_12970" data-name="Path 12970" d="M363.139,265.4h8.539a2.147,2.147,0,1,0,0-4.293h-8.539a2.147,2.147,0,0,0,0,4.293Zm25.617,0h8.537a2.147,2.147,0,0,0,0-4.293h-8.537a2.147,2.147,0,1,0,0,4.293Zm25.615,0h8.537a2.147,2.147,0,1,0,0-4.293h-8.537a2.147,2.147,0,1,0,0,4.293Zm25.615,0h8.539a2.147,2.147,0,1,0,0-4.293h-8.539a2.147,2.147,0,1,0,0,4.293Zm25.617,0h8.537a2.147,2.147,0,1,0,0-4.293H465.6a2.147,2.147,0,1,0,0,4.293Zm25.615,0h8.537a2.147,2.147,0,1,0,0-4.293h-8.537a2.147,2.147,0,1,0,0,4.293Zm25.615,0h8.539a2.147,2.147,0,0,0,0-4.293h-8.539a2.147,2.147,0,1,0,0,4.293Zm25.617,0h8.537a2.147,2.147,0,1,0,0-4.293H542.45a2.147,2.147,0,1,0,0,4.293Zm25.615,0H576.6a2.147,2.147,0,0,0,0-4.293h-8.539a2.147,2.147,0,0,0,0,4.293Zm24.408-4.87a2.135,2.135,0,0,0,1.429-.547c.3-.268.591-.541.876-.827a21.2,21.2,0,0,0,4.593-6.838,2.146,2.146,0,1,0-3.958-1.657,16.978,16.978,0,0,1-3.671,5.461c-.226.226-.46.446-.7.66a2.147,2.147,0,0,0,1.429,3.748Zm-245.2-.02a2.147,2.147,0,0,0,1.433-3.746c-.232-.208-.46-.424-.682-.646a16.928,16.928,0,0,1-3.677-5.483,2.147,2.147,0,0,0-3.962,1.653,21.231,21.231,0,0,0,4.607,6.868c.277.277.561.547.85.8A2.143,2.143,0,0,0,347.276,260.509Zm251.6-23.754a2.147,2.147,0,0,0,2.147-2.147v-8.537a2.147,2.147,0,1,0-4.293,0v8.537A2.147,2.147,0,0,0,598.873,236.755ZM340.9,236.727a2.149,2.149,0,0,0,2.149-2.147V226.04a2.148,2.148,0,0,0-4.3,0v8.541A2.148,2.148,0,0,0,340.9,236.727ZM598.873,211.14a2.148,2.148,0,0,0,2.147-2.147v-8.539a2.147,2.147,0,1,0-4.293,0v8.539A2.148,2.148,0,0,0,598.873,211.14ZM340.9,211.11a2.147,2.147,0,0,0,2.149-2.147v-8.539a2.148,2.148,0,0,0-4.3,0v8.539A2.147,2.147,0,0,0,340.9,211.11Zm257.975-25.585a2.148,2.148,0,0,0,2.147-2.147v-8.539a2.147,2.147,0,1,0-4.293,0v8.539A2.148,2.148,0,0,0,598.873,185.525ZM340.9,185.5a2.147,2.147,0,0,0,2.149-2.147V174.81a2.148,2.148,0,1,0-4.3,0v8.539A2.147,2.147,0,0,0,340.9,185.5Zm257.975-25.587a2.147,2.147,0,0,0,2.147-2.147v-8.539a2.147,2.147,0,1,0-4.293,0v8.539A2.147,2.147,0,0,0,598.873,159.908Zm-257.975-.03a2.147,2.147,0,0,0,2.149-2.147v-8.537a2.148,2.148,0,0,0-4.3,0v8.537A2.147,2.147,0,0,0,340.9,159.878Z" transform="translate(-338.751 -147.048)" fill="#31b7bc"/>
      </g>
      <g id="Group_8545" data-name="Group 8545" transform="translate(257.975)">
        <path id="Path_12971" data-name="Path 12971" d="M340.9,144.853a2.147,2.147,0,0,0,2.147-2.147v-4.293a2.147,2.147,0,1,0-4.293,0v4.293A2.147,2.147,0,0,0,340.9,144.853Z" transform="translate(-338.751 -136.266)" fill="#00b59a"/>
      </g>
    </g>
    <g id="Group_8547" data-name="Group 8547" transform="translate(138 1375.398)">
      <path id="Path_12972" data-name="Path 12972" d="M338.751,205.573h4.3V95.752a17.017,17.017,0,0,1,17.018-17.018H579.708a17.02,17.02,0,0,1,17.018,17.018V205.573h4.293V95.752A21.314,21.314,0,0,0,579.708,74.44H360.065a21.317,21.317,0,0,0-21.314,21.312Z" transform="translate(-338.751 -74.44)" fill="#31b7bc"/>
    </g>
    <g id="Group_8553" data-name="Group 8553" transform="translate(441.29 1375.398)">
      <g id="Group_8550" data-name="Group 8550" transform="translate(0 131.133)">
        <path id="Path_12974" data-name="Path 12974" d="M318.036,149.185a2.147,2.147,0,0,0,2.147-2.147v-4.293a2.147,2.147,0,1,0-4.293,0v4.293A2.147,2.147,0,0,0,318.036,149.185Z" transform="translate(-315.889 -140.598)" fill="#31b7bc"/>
      </g>
      <g id="Group_8551" data-name="Group 8551" transform="translate(0)">
        <path id="Path_12975" data-name="Path 12975" d="M187.885,192.791a2.147,2.147,0,0,0,2.147-2.147v-8.537a2.147,2.147,0,1,0-4.293,0v8.537A2.147,2.147,0,0,0,187.885,192.791Zm257.975-.028a2.149,2.149,0,0,0,2.147-2.149v-8.539a2.147,2.147,0,0,0-4.293,0v8.539A2.149,2.149,0,0,0,445.86,192.763ZM187.885,167.176a2.147,2.147,0,0,0,2.147-2.147V156.49a2.147,2.147,0,1,0-4.293,0v8.539A2.147,2.147,0,0,0,187.885,167.176Zm257.975-.03A2.148,2.148,0,0,0,448.006,165V156.46a2.147,2.147,0,0,0-4.293,0V165A2.148,2.148,0,0,0,445.86,167.146ZM187.885,141.559a2.146,2.146,0,0,0,2.147-2.145v-8.539a2.147,2.147,0,1,0-4.293,0v8.539A2.146,2.146,0,0,0,187.885,141.559Zm257.975-.028a2.148,2.148,0,0,0,2.147-2.147v-8.541a2.147,2.147,0,0,0-4.293,0v8.541A2.148,2.148,0,0,0,445.86,141.531ZM187.885,115.946a2.148,2.148,0,0,0,2.147-2.147v-8.541a2.147,2.147,0,1,0-4.293,0V113.8A2.148,2.148,0,0,0,187.885,115.946Zm257.975-.032a2.147,2.147,0,0,0,2.147-2.147v-8.539a2.147,2.147,0,0,0-4.293,0v8.539A2.147,2.147,0,0,0,445.86,115.914Zm-256.5-25.389a2.144,2.144,0,0,0,1.982-1.322,16.952,16.952,0,0,1,3.679-5.485c.22-.218.446-.434.68-.642a2.147,2.147,0,0,0-2.864-3.2c-.289.26-.573.529-.848.8a21.265,21.265,0,0,0-4.608,6.872,2.145,2.145,0,0,0,1.154,2.8A2.112,2.112,0,0,0,189.355,90.525ZM444.377,90.5a2.192,2.192,0,0,0,.829-.166,2.15,2.15,0,0,0,1.152-2.809,21.2,21.2,0,0,0-4.595-6.838q-.425-.428-.876-.827a2.145,2.145,0,1,0-2.856,3.2c.238.212.472.434.7.66a16.914,16.914,0,0,1,3.667,5.461A2.15,2.15,0,0,0,444.377,90.5ZM210.126,78.733h8.537a2.147,2.147,0,1,0,0-4.293h-8.537a2.147,2.147,0,0,0,0,4.293Zm25.615,0h8.539a2.147,2.147,0,0,0,0-4.293h-8.539a2.147,2.147,0,1,0,0,4.293Zm25.617,0h8.537a2.147,2.147,0,0,0,0-4.293h-8.537a2.147,2.147,0,0,0,0,4.293Zm25.615,0h8.539a2.147,2.147,0,1,0,0-4.293h-8.539a2.147,2.147,0,0,0,0,4.293Zm25.615,0h8.539a2.147,2.147,0,0,0,0-4.293h-8.539a2.147,2.147,0,1,0,0,4.293Zm25.615,0h8.539a2.147,2.147,0,0,0,0-4.293H338.2a2.147,2.147,0,1,0,0,4.293Zm25.615,0h8.541a2.147,2.147,0,0,0,0-4.293h-8.541a2.147,2.147,0,0,0,0,4.293Zm25.617,0h8.539a2.147,2.147,0,0,0,0-4.293h-8.539a2.147,2.147,0,1,0,0,4.293Zm25.615,0h8.539a2.147,2.147,0,0,0,0-4.293h-8.539a2.147,2.147,0,0,0,0,4.293Z" transform="translate(-185.738 -74.44)" fill="#31b7bc"/>
      </g>
      <g id="Group_8552" data-name="Group 8552" transform="translate(257.975 131.133)">
        <path id="Path_12976" data-name="Path 12976" d="M187.885,149.185a2.147,2.147,0,0,0,2.147-2.147v-4.293a2.147,2.147,0,1,0-4.293,0v4.293A2.147,2.147,0,0,0,187.885,149.185Z" transform="translate(-185.738 -140.598)" fill="#31b7bc"/>
      </g>
    </g>
    <g id="Group_8578" data-name="Group 8578" transform="translate(1039.732 1375.398)">
      <g id="Group_8550-2" data-name="Group 8550" transform="translate(0 131.133)">
        <path id="Path_12974-2" data-name="Path 12974" d="M318.036,149.185a2.147,2.147,0,0,0,2.147-2.147v-4.293a2.147,2.147,0,1,0-4.293,0v4.293A2.147,2.147,0,0,0,318.036,149.185Z" transform="translate(-315.889 -140.598)" fill="#31b7bc"/>
      </g>
      <g id="Group_8551-2" data-name="Group 8551" transform="translate(0)">
        <path id="Path_12975-2" data-name="Path 12975" d="M187.885,192.791a2.147,2.147,0,0,0,2.147-2.147v-8.537a2.147,2.147,0,1,0-4.293,0v8.537A2.147,2.147,0,0,0,187.885,192.791Zm257.975-.028a2.149,2.149,0,0,0,2.147-2.149v-8.539a2.147,2.147,0,0,0-4.293,0v8.539A2.149,2.149,0,0,0,445.86,192.763ZM187.885,167.176a2.147,2.147,0,0,0,2.147-2.147V156.49a2.147,2.147,0,1,0-4.293,0v8.539A2.147,2.147,0,0,0,187.885,167.176Zm257.975-.03A2.148,2.148,0,0,0,448.006,165V156.46a2.147,2.147,0,0,0-4.293,0V165A2.148,2.148,0,0,0,445.86,167.146ZM187.885,141.559a2.146,2.146,0,0,0,2.147-2.145v-8.539a2.147,2.147,0,1,0-4.293,0v8.539A2.146,2.146,0,0,0,187.885,141.559Zm257.975-.028a2.148,2.148,0,0,0,2.147-2.147v-8.541a2.147,2.147,0,0,0-4.293,0v8.541A2.148,2.148,0,0,0,445.86,141.531ZM187.885,115.946a2.148,2.148,0,0,0,2.147-2.147v-8.541a2.147,2.147,0,1,0-4.293,0V113.8A2.148,2.148,0,0,0,187.885,115.946Zm257.975-.032a2.147,2.147,0,0,0,2.147-2.147v-8.539a2.147,2.147,0,0,0-4.293,0v8.539A2.147,2.147,0,0,0,445.86,115.914Zm-256.5-25.389a2.144,2.144,0,0,0,1.982-1.322,16.952,16.952,0,0,1,3.679-5.485c.22-.218.446-.434.68-.642a2.147,2.147,0,0,0-2.864-3.2c-.289.26-.573.529-.848.8a21.265,21.265,0,0,0-4.608,6.872,2.145,2.145,0,0,0,1.154,2.8A2.112,2.112,0,0,0,189.355,90.525ZM444.377,90.5a2.192,2.192,0,0,0,.829-.166,2.15,2.15,0,0,0,1.152-2.809,21.2,21.2,0,0,0-4.595-6.838q-.425-.428-.876-.827a2.145,2.145,0,1,0-2.856,3.2c.238.212.472.434.7.66a16.914,16.914,0,0,1,3.667,5.461A2.15,2.15,0,0,0,444.377,90.5ZM210.126,78.733h8.537a2.147,2.147,0,1,0,0-4.293h-8.537a2.147,2.147,0,0,0,0,4.293Zm25.615,0h8.539a2.147,2.147,0,0,0,0-4.293h-8.539a2.147,2.147,0,1,0,0,4.293Zm25.617,0h8.537a2.147,2.147,0,0,0,0-4.293h-8.537a2.147,2.147,0,0,0,0,4.293Zm25.615,0h8.539a2.147,2.147,0,1,0,0-4.293h-8.539a2.147,2.147,0,0,0,0,4.293Zm25.615,0h8.539a2.147,2.147,0,0,0,0-4.293h-8.539a2.147,2.147,0,1,0,0,4.293Zm25.615,0h8.539a2.147,2.147,0,0,0,0-4.293H338.2a2.147,2.147,0,1,0,0,4.293Zm25.615,0h8.541a2.147,2.147,0,0,0,0-4.293h-8.541a2.147,2.147,0,0,0,0,4.293Zm25.617,0h8.539a2.147,2.147,0,0,0,0-4.293h-8.539a2.147,2.147,0,1,0,0,4.293Zm25.615,0h8.539a2.147,2.147,0,0,0,0-4.293h-8.539a2.147,2.147,0,0,0,0,4.293Z" transform="translate(-185.738 -74.44)" fill="#31b7bc"/>
      </g>
      <g id="Group_8552-2" data-name="Group 8552" transform="translate(257.975 131.133)">
        <path id="Path_12976-2" data-name="Path 12976" d="M187.885,149.185a2.147,2.147,0,0,0,2.147-2.147v-4.293a2.147,2.147,0,1,0-4.293,0v4.293A2.147,2.147,0,0,0,187.885,149.185Z" transform="translate(-185.738 -140.598)" fill="#31b7bc"/>
      </g>
    </g>
    <g id="Group_8556" data-name="Group 8556" transform="translate(395.98 1495.829)">
      <g id="Group_8554" data-name="Group 8554" transform="translate(15.402 8.555)">
        <path id="Path_12977" data-name="Path 12977" d="M236.958,272.8H456.6a21.317,21.317,0,0,0,21.312-21.312V141.662h-4.293V251.485A17.02,17.02,0,0,1,456.6,268.5H236.958a17.02,17.02,0,0,1-17.018-17.018V139.515h-34.2v4.293h29.908V251.485A21.317,21.317,0,0,0,236.958,272.8Z" transform="translate(-185.738 -139.515)" fill="#31b7bc"/>
      </g>
      <g id="Group_8555" data-name="Group 8555" transform="translate(0)">
        <path id="Path_12978" data-name="Path 12978" d="M350.1,156.6l-18.535-10.7L350.1,135.2Z" transform="translate(-331.564 -135.199)" fill="#31b7bc"/>
      </g>
    </g>
    <g id="Group_8579" data-name="Group 8579" transform="translate(994.421 1495.829)">
      <g id="Group_8554-2" data-name="Group 8554" transform="translate(15.402 8.555)">
        <path id="Path_12977-2" data-name="Path 12977" d="M236.958,272.8H456.6a21.317,21.317,0,0,0,21.312-21.312V141.662h-4.293V251.485A17.02,17.02,0,0,1,456.6,268.5H236.958a17.02,17.02,0,0,1-17.018-17.018V139.515h-34.2v4.293h29.908V251.485A21.317,21.317,0,0,0,236.958,272.8Z" transform="translate(-185.738 -139.515)" fill="#31b7bc"/>
      </g>
      <g id="Group_8555-2" data-name="Group 8555" transform="translate(0)">
        <path id="Path_12978-2" data-name="Path 12978" d="M350.1,156.6l-18.535-10.7L350.1,135.2Z" transform="translate(-331.564 -135.199)" fill="#31b7bc"/>
      </g>
    </g>
  </g>
</svg>
