<svg xmlns="http://www.w3.org/2000/svg" xmlns:xlink="http://www.w3.org/1999/xlink" width="20" height="20" viewBox="0 0 20 20">
  <defs>
    <clipPath id="clip-path">
      <rect id="Rectangle_19431" data-name="Rectangle 19431" width="20" height="20" fill="#31b7bc" stroke="rgba(49,183,188,0.1)" stroke-width="1"/>
    </clipPath>
  </defs>
  <g id="Mask_Group_552" data-name="Mask Group 552" clip-path="url(#clip-path)">
    <path id="phone-call" d="M19.162,9.165a.833.833,0,0,1-.833-.833,6.672,6.672,0,0,0-6.665-6.665.833.833,0,1,1,0-1.666A8.341,8.341,0,0,1,20,8.332.833.833,0,0,1,19.162,9.165Zm-2.5-.833a5,5,0,0,0-5-5,.833.833,0,1,0,0,1.666A3.333,3.333,0,0,1,15,8.332a.833.833,0,1,0,1.666,0Zm1.819,10.134.758-.874a2.583,2.583,0,0,0,0-3.647c-.026-.026-2.03-1.568-2.03-1.568a2.583,2.583,0,0,0-3.567,0L12.055,13.72A10.651,10.651,0,0,1,6.279,7.935L7.613,6.352a2.583,2.583,0,0,0,.006-3.568S6.075.782,6.049.757a2.568,2.568,0,0,0-3.6-.038l-.958.833C-4.174,8.118,8.015,20.213,14.8,20a5.128,5.128,0,0,0,3.683-1.53Z" transform="translate(-0.012 0.002)" fill="#31b7bc" stroke="rgba(49,183,188,0.1)" stroke-width="0.833"/>
  </g>
</svg>
