<svg xmlns="http://www.w3.org/2000/svg" width="353" height="262.271" viewBox="0 0 353 262.271">
  <g id="Group_10131" data-name="Group 10131" transform="translate(-5688 -1400)">
    <rect id="Rectangle_20123" data-name="Rectangle 20123" width="353" height="262" transform="translate(5688 1400)" fill="none"/>
    <g id="Group_10129" data-name="Group 10129" transform="translate(4693.578 24.603)">
      <g id="Group_8578" data-name="Group 8578" transform="translate(1039.732 1375.398)">
        <g id="Group_8550" data-name="Group 8550" transform="translate(0 131.133)">
          <path id="Path_12974" data-name="Path 12974" d="M318.036,149.185a2.147,2.147,0,0,0,2.147-2.147v-4.293a2.147,2.147,0,1,0-4.294,0v4.293A2.147,2.147,0,0,0,318.036,149.185Z" transform="translate(-315.889 -140.598)" fill="#31b7bc"/>
        </g>
        <g id="Group_8551" data-name="Group 8551">
          <path id="Path_12975" data-name="Path 12975" d="M187.885,192.791a2.147,2.147,0,0,0,2.147-2.147v-8.537a2.147,2.147,0,1,0-4.294,0v8.537a2.147,2.147,0,0,0,2.146,2.147Zm257.975-.028a2.149,2.149,0,0,0,2.147-2.149v-8.539a2.147,2.147,0,1,0-4.294,0v8.539a2.149,2.149,0,0,0,2.146,2.149ZM187.885,167.176a2.147,2.147,0,0,0,2.147-2.147V156.49a2.147,2.147,0,1,0-4.294,0v8.539a2.147,2.147,0,0,0,2.146,2.147Zm257.975-.03A2.148,2.148,0,0,0,448.006,165v-8.54a2.147,2.147,0,1,0-4.294,0V165A2.148,2.148,0,0,0,445.86,167.146ZM187.885,141.559a2.146,2.146,0,0,0,2.147-2.145v-8.539a2.147,2.147,0,1,0-4.294,0v8.539A2.146,2.146,0,0,0,187.885,141.559Zm257.975-.028a2.148,2.148,0,0,0,2.147-2.147v-8.541a2.147,2.147,0,1,0-4.294,0v8.541A2.148,2.148,0,0,0,445.86,141.531ZM187.885,115.946a2.148,2.148,0,0,0,2.147-2.147v-8.541a2.147,2.147,0,1,0-4.294,0V113.8A2.148,2.148,0,0,0,187.885,115.946Zm257.975-.032a2.147,2.147,0,0,0,2.147-2.147v-8.539a2.147,2.147,0,1,0-4.294,0v8.539A2.147,2.147,0,0,0,445.86,115.914ZM189.36,90.525a2.144,2.144,0,0,0,1.982-1.322,16.952,16.952,0,0,1,3.679-5.485c.22-.218.446-.434.68-.642a2.147,2.147,0,0,0-2.864-3.2c-.289.26-.573.529-.848.8a21.265,21.265,0,0,0-4.608,6.872,2.145,2.145,0,0,0,1.154,2.8,2.112,2.112,0,0,0,.82.177ZM444.377,90.5a2.192,2.192,0,0,0,.829-.166,2.15,2.15,0,0,0,1.152-2.809,21.2,21.2,0,0,0-4.6-6.838q-.425-.428-.876-.827a2.145,2.145,0,1,0-2.856,3.2c.238.212.472.434.7.66a16.914,16.914,0,0,1,3.667,5.461,2.15,2.15,0,0,0,1.979,1.319ZM210.126,78.733h8.537a2.147,2.147,0,1,0,0-4.294h-8.537a2.147,2.147,0,1,0,0,4.294Zm25.615,0h8.539a2.147,2.147,0,1,0,0-4.294h-8.539a2.147,2.147,0,1,0,0,4.294Zm25.617,0h8.537a2.147,2.147,0,1,0,0-4.294h-8.537a2.147,2.147,0,1,0,0,4.294Zm25.615,0h8.539a2.147,2.147,0,1,0,0-4.294h-8.539a2.147,2.147,0,1,0,0,4.294Zm25.615,0h8.539a2.147,2.147,0,1,0,0-4.294h-8.539a2.147,2.147,0,1,0,0,4.294Zm25.615,0h8.539a2.147,2.147,0,1,0,0-4.294H338.2a2.147,2.147,0,1,0,0,4.294Zm25.615,0h8.541a2.147,2.147,0,1,0,0-4.294h-8.541a2.147,2.147,0,1,0,0,4.294Zm25.617,0h8.539a2.147,2.147,0,1,0,0-4.294h-8.539a2.147,2.147,0,1,0,0,4.294Zm25.615,0h8.539a2.147,2.147,0,1,0,0-4.294H415.05a2.147,2.147,0,1,0,0,4.294Z" transform="translate(-185.738 -74.44)" fill="#31b7bc"/>
        </g>
        <g id="Group_8552" data-name="Group 8552" transform="translate(257.975 131.133)">
          <path id="Path_12976" data-name="Path 12976" d="M187.885,149.185a2.147,2.147,0,0,0,2.147-2.147v-4.293a2.147,2.147,0,1,0-4.294,0v4.293a2.147,2.147,0,0,0,2.146,2.147Z" transform="translate(-185.738 -140.598)" fill="#31b7bc"/>
        </g>
      </g>
      <g id="Group_8579" data-name="Group 8579" transform="translate(994.421 1495.829)">
        <g id="Group_8554" data-name="Group 8554" transform="translate(15.402 8.555)">
          <path id="Path_12977" data-name="Path 12977" d="M236.958,272.8H456.6a21.316,21.316,0,0,0,21.312-21.307V141.662h-4.293V251.485A17.02,17.02,0,0,1,456.6,268.5H236.958a17.02,17.02,0,0,1-17.018-17.016V139.515h-34.2v4.293h29.908V251.485A21.317,21.317,0,0,0,236.956,272.8Z" transform="translate(-185.738 -139.515)" fill="#31b7bc"/>
        </g>
        <g id="Group_8555" data-name="Group 8555">
          <path id="Path_12978" data-name="Path 12978" d="M350.1,156.6l-18.535-10.7L350.1,135.2Z" transform="translate(-331.564 -135.199)" fill="#31b7bc"/>
        </g>
      </g>
    </g>
  </g>
</svg>
