<svg xmlns="http://www.w3.org/2000/svg" width="159.047" height="159.048" viewBox="0 0 159.047 159.048">
  <g id="Group_10365" data-name="Group 10365" transform="translate(-138 -1375.398)">
    <g id="Group_8546" data-name="Group 8546" transform="translate(138 1449.715)">
      <g id="Group_8543" data-name="Group 8543" transform="translate(0)">
        <path id="Path_12969" data-name="Path 12969" d="M470.2,141.473a1.3,1.3,0,0,0,1.3-1.3v-2.6a1.3,1.3,0,0,0-2.6,0v2.6A1.3,1.3,0,0,0,470.2,141.473Z" transform="translate(-468.901 -136.266)" fill="#00b59a"/>
      </g>
      <g id="Group_8544" data-name="Group 8544" transform="translate(0 12.96)">
        <path id="Path_12970" data-name="Path 12970" d="M353.541,218.819h5.178a1.3,1.3,0,1,0,0-2.6h-5.178a1.3,1.3,0,0,0,0,2.6Zm15.535,0h5.177a1.3,1.3,0,0,0,0-2.6h-5.177a1.3,1.3,0,1,0,0,2.6Zm15.534,0h5.177a1.3,1.3,0,1,0,0-2.6h-5.177a1.3,1.3,0,1,0,0,2.6Zm15.534,0h5.178a1.3,1.3,0,1,0,0-2.6h-5.178a1.3,1.3,0,1,0,0,2.6Zm15.535,0h5.177a1.3,1.3,0,1,0,0-2.6h-5.177a1.3,1.3,0,1,0,0,2.6Zm15.534,0h5.177a1.3,1.3,0,1,0,0-2.6h-5.177a1.3,1.3,0,1,0,0,2.6Zm15.534,0h5.178a1.3,1.3,0,0,0,0-2.6h-5.178a1.3,1.3,0,1,0,0,2.6Zm15.535,0h5.177a1.3,1.3,0,1,0,0-2.6H462.28a1.3,1.3,0,1,0,0,2.6Zm15.534,0h5.178a1.3,1.3,0,0,0,0-2.6h-5.178a1.3,1.3,0,0,0,0,2.6Zm14.8-2.953a1.3,1.3,0,0,0,.867-.332c.181-.162.358-.328.531-.5a12.858,12.858,0,0,0,2.785-4.147,1.3,1.3,0,1,0-2.4-1,10.3,10.3,0,0,1-2.226,3.312c-.137.137-.279.27-.423.4a1.3,1.3,0,0,0,.867,2.273Zm-148.694-.012a1.3,1.3,0,0,0,.869-2.272c-.141-.126-.279-.257-.413-.392a10.265,10.265,0,0,1-2.23-3.325,1.3,1.3,0,0,0-2.4,1,12.875,12.875,0,0,0,2.794,4.165c.168.168.34.332.516.488A1.3,1.3,0,0,0,343.921,215.854Zm152.575-14.4a1.3,1.3,0,0,0,1.3-1.3V194.97a1.3,1.3,0,1,0-2.6,0v5.177A1.3,1.3,0,0,0,496.5,201.449Zm-156.443-.017a1.3,1.3,0,0,0,1.3-1.3v-5.179a1.3,1.3,0,0,0-2.6,0v5.179A1.3,1.3,0,0,0,340.053,201.432ZM496.5,185.915a1.3,1.3,0,0,0,1.3-1.3v-5.178a1.3,1.3,0,1,0-2.6,0v5.178A1.3,1.3,0,0,0,496.5,185.915ZM340.053,185.9a1.3,1.3,0,0,0,1.3-1.3v-5.178a1.3,1.3,0,0,0-2.6,0V184.6A1.3,1.3,0,0,0,340.053,185.9ZM496.5,170.382a1.3,1.3,0,0,0,1.3-1.3V163.9a1.3,1.3,0,1,0-2.6,0v5.178A1.3,1.3,0,0,0,496.5,170.382Zm-156.443-.018a1.3,1.3,0,0,0,1.3-1.3v-5.178a1.3,1.3,0,1,0-2.6,0v5.178A1.3,1.3,0,0,0,340.053,170.364ZM496.5,154.847a1.3,1.3,0,0,0,1.3-1.3v-5.178a1.3,1.3,0,1,0-2.6,0v5.178A1.3,1.3,0,0,0,496.5,154.847Zm-156.443-.018a1.3,1.3,0,0,0,1.3-1.3V148.35a1.3,1.3,0,0,0-2.6,0v5.177A1.3,1.3,0,0,0,340.053,154.829Z" transform="translate(-338.751 -147.048)" fill="#31b7bc"/>
      </g>
      <g id="Group_8545" data-name="Group 8545" transform="translate(156.443)">
        <path id="Path_12971" data-name="Path 12971" d="M340.053,141.473a1.3,1.3,0,0,0,1.3-1.3v-2.6a1.3,1.3,0,1,0-2.6,0v2.6A1.3,1.3,0,0,0,340.053,141.473Z" transform="translate(-338.751 -136.266)" fill="#00b59a"/>
      </g>
    </g>
    <g id="Group_8547" data-name="Group 8547" transform="translate(138 1375.398)">
      <path id="Path_12972" data-name="Path 12972" d="M338.751,153.963h2.6v-66.6a10.319,10.319,0,0,1,10.32-10.32h133.2a10.321,10.321,0,0,1,10.32,10.32v66.6h2.6v-66.6A12.925,12.925,0,0,0,484.874,74.44h-133.2a12.928,12.928,0,0,0-12.925,12.924Z" transform="translate(-338.751 -74.44)" fill="#31b7bc"/>
    </g>
  </g>
</svg>
