<svg xmlns="http://www.w3.org/2000/svg" width="353" height="262.271" viewBox="0 0 353 262.271">
  <g id="Group_10130" data-name="Group 10130" transform="translate(-5688 -1797)">
    <rect id="Rectangle_20124" data-name="Rectangle 20124" width="353" height="262" transform="translate(5688 1797)" fill="none"/>
    <g id="Group_10130-2" data-name="Group 10130" transform="translate(4989.56 421.602)">
      <g id="Group_8537" data-name="Group 8537" transform="translate(744.17 1497.945)">
        <g id="Group_8534" data-name="Group 8534">
          <path id="Path_12963" data-name="Path 12963" d="M165.23,144.853a2.147,2.147,0,0,0,2.147-2.147v-4.293a2.147,2.147,0,1,0-4.294,0v4.293A2.147,2.147,0,0,0,165.23,144.853Z" transform="translate(-163.083 -136.266)" fill="#31b7bc"/>
        </g>
        <g id="Group_8535" data-name="Group 8535" transform="translate(0 21.371)">
          <path id="Path_12964" data-name="Path 12964" d="M57.321,265.4h8.537a2.147,2.147,0,1,0,0-4.294H57.321a2.147,2.147,0,1,0,0,4.293Zm25.615,0h8.537a2.147,2.147,0,1,0,0-4.294H82.936a2.147,2.147,0,1,0,0,4.293Zm25.615,0h8.539a2.147,2.147,0,1,0,0-4.294h-8.539a2.147,2.147,0,1,0,0,4.293Zm25.617,0H142.7a2.147,2.147,0,1,0,0-4.294h-8.537a2.147,2.147,0,1,0,0,4.293Zm25.615,0h8.539a2.147,2.147,0,1,0,0-4.294h-8.539a2.147,2.147,0,1,0,0,4.293Zm25.615,0h8.539a2.147,2.147,0,1,0,0-4.294H185.4a2.147,2.147,0,1,0,0,4.293Zm25.615,0h8.539a2.147,2.147,0,1,0,0-4.294h-8.539a2.147,2.147,0,1,0,0,4.293Zm25.615,0h8.541a2.147,2.147,0,1,0,0-4.294h-8.541a2.147,2.147,0,1,0,0,4.293Zm25.617,0h8.539a2.147,2.147,0,1,0,0-4.294h-8.539a2.147,2.147,0,1,0,0,4.293Zm24.41-4.87a2.135,2.135,0,0,0,1.427-.547c.3-.268.591-.541.876-.827a21.162,21.162,0,0,0,4.593-6.838,2.146,2.146,0,1,0-3.96-1.657,16.967,16.967,0,0,1-3.667,5.461q-.342.339-.7.66a2.147,2.147,0,0,0,1.429,3.748Zm-245.2-.02a2.148,2.148,0,0,0,1.433-3.746q-.351-.312-.684-.646a16.953,16.953,0,0,1-3.675-5.483,2.147,2.147,0,1,0-3.962,1.653,21.194,21.194,0,0,0,4.6,6.868c.277.277.561.547.85.8a2.144,2.144,0,0,0,1.441.553Zm251.6-23.754a2.147,2.147,0,0,0,2.147-2.147v-8.537a2.147,2.147,0,1,0-4.293,0v8.537a2.147,2.147,0,0,0,2.149,2.146Zm-257.97-.029a2.148,2.148,0,0,0,2.147-2.147v-8.54a2.147,2.147,0,1,0-4.294,0v8.541a2.148,2.148,0,0,0,2.146,2.146Zm257.973-25.585A2.148,2.148,0,0,0,295.2,209v-8.541a2.147,2.147,0,1,0-4.293,0V209a2.148,2.148,0,0,0,2.146,2.142ZM35.08,211.11a2.147,2.147,0,0,0,2.147-2.147v-8.539a2.147,2.147,0,1,0-4.294,0v8.539a2.147,2.147,0,0,0,2.146,2.147Zm257.973-25.585a2.148,2.148,0,0,0,2.147-2.147v-8.539a2.147,2.147,0,1,0-4.294,0v8.539a2.148,2.148,0,0,0,2.146,2.147ZM35.08,185.5a2.147,2.147,0,0,0,2.147-2.147V174.81a2.147,2.147,0,1,0-4.294,0v8.539A2.147,2.147,0,0,0,35.08,185.5Zm257.973-25.59a2.148,2.148,0,0,0,2.147-2.147v-8.541a2.147,2.147,0,1,0-4.293,0v8.541A2.148,2.148,0,0,0,293.053,159.91ZM35.08,159.878a2.147,2.147,0,0,0,2.147-2.147v-8.537a2.147,2.147,0,1,0-4.294,0v8.537a2.147,2.147,0,0,0,2.146,2.147Z" transform="translate(-32.933 -147.048)" fill="#31b7bc"/>
        </g>
        <g id="Group_8536" data-name="Group 8536" transform="translate(257.973)">
          <path id="Path_12965" data-name="Path 12965" d="M35.08,144.853a2.147,2.147,0,0,0,2.147-2.147v-4.293a2.147,2.147,0,1,0-4.294,0v4.293a2.147,2.147,0,0,0,2.146,2.147Z" transform="translate(-32.933 -136.266)" fill="#31b7bc"/>
        </g>
      </g>
      <g id="Group_8540" data-name="Group 8540" transform="translate(698.859 1375.398)">
        <g id="Group_8538" data-name="Group 8538" transform="translate(15.403)">
          <path id="Path_12966" data-name="Path 12966" d="M32.933,207.72h34.2V95.752A17.017,17.017,0,0,1,84.155,78.733H303.8a17.017,17.017,0,0,1,17.018,17.019V205.573h4.293V95.752A21.314,21.314,0,0,0,303.8,74.44H84.153A21.314,21.314,0,0,0,62.841,95.75V203.427H32.933Z" transform="translate(-32.933 -74.44)" fill="#31b7bc"/>
        </g>
        <g id="Group_8539" data-name="Group 8539" transform="translate(0 120.431)">
          <path id="Path_12967" data-name="Path 12967" d="M197.293,156.6l-18.535-10.7,18.535-10.7Z" transform="translate(-178.758 -135.199)" fill="#31b7bc"/>
        </g>
      </g>
    </g>
  </g>
</svg>
