<svg xmlns="http://www.w3.org/2000/svg" width="184.609" height="36" viewBox="0 0 184.609 36">
  <g id="Group_10505" data-name="Group 10505" transform="translate(-18.385 -334.717)">
    <path id="Path_14575" data-name="Path 14575" d="M18.587,343.639c27.685,14.612,60.941,19.17,91.969,18.127a220.467,220.467,0,0,0,91.385-23.222c2.388-1.2.288-4.784-2.1-3.585A217.123,217.123,0,0,1,109.287,358c-31.277,1.013-60.74-5.884-90.379-15.123a.417.417,0,0,0-.32.759Z" transform="translate(0)" fill="#31b7bc"/>
    <path id="Path_14576" data-name="Path 14576" d="M22.1,347.7c37.872,18.48,83.686,20.817,124.2,10.767,1.587-.393.916-2.826-.674-2.448-41.934,9.983-82.967,5.3-123.238-9.013a.381.381,0,0,0-.293.694Z" transform="translate(1.832 6.362)" fill="#31b7bc"/>
  </g>
</svg>
