<svg height="512pt" viewBox="0 0 512 512" width="512pt" xmlns="http://www.w3.org/2000/svg"><path d="m459.539062 52.460938c-33.828124-33.828126-78.808593-52.460938-126.660156-52.460938-47.839844 0-92.820312 18.632812-126.648437 52.460938-33.832031 33.832031-52.460938 78.8125-52.460938 126.667968 0 42.808594 14.921875 83.320313 42.289063 115.613282l-36.21875 36.210937c-18.558594-9.570313-41.980469-6.582031-57.519532 8.960937l-87.871093 87.871094c-9.320313 9.320313-14.449219 21.710938-14.449219 34.894532 0 13.179687 5.128906 25.570312 14.449219 34.890624 9.621093 9.621094 22.261719 14.429688 34.890625 14.429688 12.640625 0 25.269531-4.808594 34.890625-14.429688l87.871093-87.875c9.320313-9.320312 14.449219-21.710937 14.449219-34.890624 0-8.007813-1.902343-15.730469-5.480469-22.652344l36.199219-36.199219c32.289063 27.382813 72.808594 42.292969 115.609375 42.292969 47.851563 0 92.832032-18.632813 126.660156-52.464844 33.832032-33.832031 52.460938-78.8125 52.460938-126.652344 0-47.855468-18.628906-92.835937-52.460938-126.667968zm-187.660156 190.667968c0 8.28125-6.707031 15.003906-15 15.003906-8.277344 0-15-6.722656-15-15.003906v-48.011718c0-8.277344 6.722656-15 15-15 8.292969 0 15 6.71875 15 15zm50 0c0 8.28125-6.707031 15.003906-15 15.003906-8.277344 0-15-6.722656-15-15.003906v-98.011718c0-8.28125 6.722656-15.003907 15-15.003907 8.292969 0 15 6.722657 15 15.003907zm50 0c0 8.28125-6.707031 15.003906-15 15.003906-8.277344 0-15-6.722656-15-15.003906v-78.011718c0-8.28125 6.722656-15 15-15 8.292969 0 15 6.71875 15 15zm50 0c0 8.28125-6.707031 15.003906-15 15.003906-8.277344 0-15-6.722656-15-15.003906v-128.015625c0-8.277343 6.722656-15 15-15 8.292969 0 15 6.71875 15 15zm0 0"/></svg>