<svg id="Layer_1" enable-background="new 0 0 512 512" height="512" viewBox="0 0 512 512" width="512" xmlns="http://www.w3.org/2000/svg"><path clip-rule="evenodd" d="m.016 0h353.023v221.786c-8.872 1.589-15.631 9.334-15.631 18.642v5.14h-43.417v-5.14c0-10.453-8.517-18.957-18.987-18.957h-11.581c-10.469 0-18.988 8.504-18.988 18.957v5.14h-11.942c-17.872 0-32.414 13.604-32.414 30.326v222.802c0 4.769 1.184 9.283 3.285 13.303h-203.348zm511.968 498.696v-174.516h-294.851v174.516c0 7.212 7.033 13.303 15.359 13.303h264.133c8.469 0 15.358-5.968 15.359-13.303zm-155.589-260.172c-1.048 0-1.935.873-1.935 1.905v33.652c0 1.032.886 1.904 1.935 1.904h11.578c1.049 0 1.935-.871 1.935-1.904v-33.652c0-1.032-.886-1.905-1.935-1.905zm-92.973 37.46h11.58c1.049 0 1.934-.871 1.934-1.904v-33.652c0-1.033-.886-1.905-1.934-1.905h-11.58c-1.049 0-1.934.873-1.934 1.905v33.652c0 1.032.886 1.904 1.934 1.904zm123.541-13.363v11.459c0 10.452-8.519 18.957-18.989 18.957h-11.578c-10.471 0-18.989-8.504-18.989-18.957v-11.459h-43.417v11.459c0 10.452-8.518 18.957-18.987 18.957h-11.58c-10.47 0-18.988-8.504-18.988-18.957v-11.459h-11.942c-8.469 0-15.359 5.955-15.359 13.273v31.232h294.849v-31.232c0-7.318-6.89-13.273-15.357-13.273h-16.688v11.459c0 10.452-8.519 18.957-18.989 18.957h-11.58c-10.47 0-18.987-8.504-18.987-18.957v-11.459zm60.471 11.459c0 1.033.886 1.904 1.934 1.904h11.58c1.049 0 1.935-.871 1.935-1.904v-33.652c0-1.033-.886-1.905-1.935-1.905h-11.58c-1.049 0-1.934.873-1.934 1.905zm12.002 194.713v-26.696h-26.726v26.696zm8.526-43.751c4.709 0 8.527 3.818 8.527 8.527v43.751c0 4.709-3.817 8.527-8.527 8.527h-43.78c-4.709 0-8.527-3.818-8.527-8.527v-43.751c0-4.709 3.817-8.527 8.527-8.527zm-8.526-30.96v-26.697h-26.726v26.697zm8.526-43.75c4.709 0 8.527 3.819 8.527 8.527v43.751c0 4.709-3.817 8.527-8.527 8.527h-43.78c-4.709 0-8.527-3.817-8.527-8.527v-43.751c0-4.709 3.817-8.527 8.527-8.527zm-90.796 118.461v-26.696h-26.696v26.696zm8.527-43.751c4.709 0 8.526 3.818 8.526 8.527v43.751c0 4.709-3.817 8.527-8.526 8.527h-43.751c-4.709 0-8.527-3.818-8.527-8.527v-43.751c0-4.709 3.817-8.527 8.527-8.527zm-89.254 43.751v-26.696h-26.728v26.696zm8.526-43.751c4.709 0 8.526 3.818 8.526 8.527v43.751c0 4.709-3.818 8.527-8.526 8.527h-43.781c-4.709 0-8.527-3.818-8.527-8.527v-43.751c0-4.709 3.817-8.527 8.527-8.527zm72.201-30.96v-26.697h-26.696v26.697zm8.527-43.75c4.709 0 8.526 3.819 8.526 8.527v43.751c0 4.709-3.817 8.527-8.526 8.527h-43.751c-4.709 0-8.527-3.817-8.527-8.527v-43.751c0-4.709 3.817-8.527 8.527-8.527zm-89.254 43.75v-26.697h-26.728v26.697zm17.053-35.224v43.751c0 4.709-3.818 8.527-8.526 8.527h-43.781c-4.709 0-8.527-3.817-8.527-8.527v-43.751c0-4.709 3.817-8.527 8.527-8.527h43.781c4.708.001 8.526 3.819 8.526 8.527zm-104.887-260.716h110.873c4.709 0 8.526-3.817 8.526-8.527s-3.818-8.527-8.526-8.527h-110.873c-4.709 0-8.527 3.817-8.527 8.527s3.818 8.527 8.527 8.527zm0-45.806h110.873c4.709 0 8.526-3.817 8.526-8.526s-3.818-8.527-8.526-8.527h-110.873c-4.709 0-8.527 3.817-8.527 8.527 0 4.709 3.818 8.526 8.527 8.526zm-54.375 340.358-41.157 37.331-13.699-13.677c-3.333-3.328-8.733-3.324-12.058.008-3.328 3.332-3.324 8.732.009 12.058l19.441 19.412c1.66 1.658 3.841 2.494 6.026 2.494 2.048 0 4.099-.734 5.727-2.211l15.861-14.387v25.939h-82.029v-74.558h90.555c4.709 0 8.527-3.818 8.527-8.527s-3.817-8.527-8.527-8.527h-99.082c-4.709 0-8.527 3.817-8.527 8.527v91.612c0 4.709 3.818 8.527 8.527 8.527h99.082c4.709 0 8.527-3.818 8.527-8.527v-49.934l14.252-12.927c3.489-3.163 3.751-8.555.588-12.043-3.166-3.49-8.558-3.753-12.043-.59zm-110.406-82.362h99.082c4.709 0 8.527-3.818 8.527-8.527v-49.925l14.256-12.939c3.487-3.166 3.747-8.558.582-12.044-3.168-3.488-8.558-3.748-12.044-.582l-41.152 37.352-13.697-13.697c-3.329-3.33-8.729-3.33-12.058 0-3.33 3.33-3.33 8.728 0 12.058l19.441 19.442c1.66 1.662 3.843 2.498 6.03 2.498 2.049 0 4.101-.734 5.73-2.213l15.858-14.394v25.919h-82.028v-74.56h90.555c4.709 0 8.527-3.817 8.527-8.527 0-4.709-3.817-8.527-8.527-8.527h-99.082c-4.709 0-8.527 3.817-8.527 8.527v91.612c.001 4.71 3.818 8.527 8.527 8.527zm0-166.354h99.082c4.709 0 8.527-3.817 8.527-8.527v-49.954l14.256-12.939c3.487-3.166 3.747-8.558.582-12.044-3.168-3.488-8.558-3.747-12.044-.582l-41.156 37.356-13.697-13.675c-3.333-3.327-8.733-3.323-12.058.01-3.328 3.332-3.324 8.732.009 12.058l19.441 19.412c1.66 1.657 3.841 2.493 6.026 2.493 2.049 0 4.101-.735 5.73-2.213l15.858-14.394v25.949h-82.029v-74.59h90.555c4.709 0 8.527-3.817 8.527-8.526s-3.817-8.527-8.527-8.527h-99.082c-4.709 0-8.527 3.817-8.527 8.527v91.642c.001 4.707 3.818 8.524 8.527 8.524z" fill-rule="evenodd"/></svg>