<?xml version="1.0" encoding="utf-8"?>
<!-- Generator: Adobe Illustrator 24.3.0, SVG Export Plug-In . SVG Version: 6.00 Build 0)  -->
<svg version="1.1" id="Layer_1" xmlns="http://www.w3.org/2000/svg" xmlns:xlink="http://www.w3.org/1999/xlink" x="0px" y="0px"
	 viewBox="0 0 121.01 175.58" style="enable-background:new 0 0 121.01 175.58;" xml:space="preserve">
<style type="text/css">
	.st0{fill:#3D3D3C;}
	.st1{fill:#B94392;}
	.st2{fill:#33B6BB;}
	.st3{fill:#F9BA16;}
	.st4{fill:#FFFFFF;}
</style>
<path class="st0" d="M61.34,172.4c-32.07-0.09-57.87-26.51-57.87-58.59V59.9c0-29.88,22.7-54.55,51.75-57.69
	c3.35-0.36,6.28,2.25,6.28,5.61c0,2.9-2.2,5.3-5.07,5.61c-23.4,2.54-41.67,22.41-41.67,46.47v53.95c0,25.73,20.58,47.03,46.3,47.26
	c25.92,0.23,47.1-20.75,47.17-46.6c0.01-3.02,2.32-5.61,5.32-5.78c3.27-0.18,5.97,2.41,5.97,5.63
	C119.54,146.42,93.41,172.49,61.34,172.4"/>
<path class="st0" d="M61.51,153.58c21.62,0,39.21-17.59,39.21-39.21V86.24c0-3.12-2.53-5.64-5.64-5.64s-5.64,2.53-5.64,5.64v28.13
	c0,15.4-12.53,27.92-27.92,27.92c-15.4,0-27.92-12.53-27.92-27.92V59.9c0-3.12-2.53-5.65-5.64-5.65c-3.12,0-5.64,2.53-5.64,5.65
	v54.47C22.29,135.99,39.88,153.58,61.51,153.58"/>
<path class="st0" d="M76.26,120.01c3.12,0,5.64-2.53,5.64-5.64V59.9c0-11.25-9.15-20.4-20.4-20.4c-11.25,0-20.4,9.15-20.4,20.4
	v28.13c0,3.12,2.53,5.65,5.64,5.65c3.12,0,5.64-2.53,5.64-5.65V59.9c0-5.02,4.09-9.11,9.11-9.11c5.02,0,9.11,4.09,9.11,9.11v54.47
	C70.62,117.49,73.14,120.01,76.26,120.01"/>
<path class="st3" d="M56.07,13.35h0.01h5.58V2.17h-5.63c-1.42,0.01-2.83,0.55-3.91,1.63l-3.95,3.95l3.95,3.95
	c1.08,1.08,2.5,1.62,3.91,1.63v0H56.07z"/>
<path class="st3" d="M119.49,114.18v-0.01v-5.58h-11.18v5.63c0.01,1.42,0.55,2.83,1.63,3.91l3.95,3.96l3.95-3.96
	c1.08-1.08,1.62-2.49,1.63-3.91h0V114.18z"/>
<path class="st2" d="M100.65,86.1v-0.01V80.5H89.47v5.63h0c0.01,1.42,0.55,2.83,1.63,3.91L95.05,94l3.95-3.95
	c1.08-1.08,1.62-2.5,1.63-3.91h0V86.1z"/>
<path class="st2" d="M33.5,59.71V59.7v-5.58H22.32v5.63h0c0.01,1.42,0.55,2.83,1.63,3.91l3.95,3.95l3.96-3.95
	c1.08-1.08,1.62-2.5,1.63-3.91V59.71z"/>
<path class="st1" d="M70.68,114.49v0.01v5.58h11.18v-5.63h0c-0.01-1.42-0.55-2.83-1.63-3.91l-3.95-3.95l-3.96,3.95
	c-1.08,1.08-1.62,2.5-1.63,3.91V114.49z"/>
<path class="st1" d="M41.14,88.22v0.01v5.58h11.18v-5.63h0c-0.01-1.42-0.55-2.83-1.63-3.91l-3.95-3.95l-3.95,3.95
	c-1.08,1.08-1.62,2.49-1.63,3.91h0V88.22z"/>
</svg>
