<svg xmlns="http://www.w3.org/2000/svg" width="511.977" height="480" viewBox="0 0 511.977 480">
  <g id="_014-snapchat" data-name="014-snapchat" transform="translate(0 -15.988)">
    <g id="Group_9974" data-name="Group 9974">
      <path id="Path_14452" data-name="Path 14452" d="M501.94,374.42c-68.448-11.264-99.3-81.376-100.544-84.352a4.836,4.836,0,0,0-.288-.576c-3.488-7.1-4.32-12.96-2.4-17.408,3.744-8.768,18.08-13.312,27.552-16.32,2.752-.864,5.344-1.7,7.488-2.528,9.344-3.68,16-7.68,20.416-12.192,5.248-5.408,6.272-10.592,6.208-13.952-.16-8.192-6.432-15.488-16.448-19.04a29.73,29.73,0,0,0-11.136-2.112,24.8,24.8,0,0,0-10.368,2.112c-8,3.744-15.168,5.792-21.344,6.08A19.593,19.593,0,0,1,394,212.6c.192-3.2.384-6.5.608-9.888l.1-1.472c2.208-34.656,4.928-77.76-6.528-103.36a139.038,139.038,0,0,0-31.328-44.832,131.008,131.008,0,0,0-37.472-24.7,148.061,148.061,0,0,0-58.464-12.352h-1.28c-3.168.032-8.32.1-8.8.1a148.621,148.621,0,0,0-58.528,12.352,130.278,130.278,0,0,0-37.344,24.672,139.488,139.488,0,0,0-31.2,44.736c-11.456,25.568-8.736,68.672-6.56,103.3v.064c.224,3.712.48,7.584.7,11.36a20.507,20.507,0,0,1-8.384,1.568c-6.464,0-14.144-2.048-22.816-6.112a20.5,20.5,0,0,0-8.672-1.792,30.659,30.659,0,0,0-15.328,4.288C56.756,214,52.916,218.9,51.86,224.372c-.672,3.584-.64,10.72,7.3,17.952,4.384,3.968,10.784,7.648,19.072,10.912,2.176.864,4.768,1.664,7.488,2.528,9.472,3.008,23.84,7.552,27.584,16.32,1.888,4.448,1.056,10.3-2.432,17.408a4.533,4.533,0,0,0-.256.576A169.449,169.449,0,0,1,84.82,329.94a144.721,144.721,0,0,1-31.1,27.456,114.459,114.459,0,0,1-43.68,16.992A11.951,11.951,0,0,0,.02,386.868a15.162,15.162,0,0,0,1.248,5.216v.032c2.464,5.728,8.128,10.56,17.344,14.816,11.264,5.216,28.1,9.6,50.08,13.024,1.12,2.112,2.272,7.392,3.072,11.008.832,3.84,1.7,7.808,2.944,12,1.344,4.544,4.8,9.984,13.728,9.984a66.837,66.837,0,0,0,11.776-1.632,133.915,133.915,0,0,1,26.848-3.04,116.677,116.677,0,0,1,19.2,1.632c12.544,2.08,23.36,9.7,35.872,18.528,18.3,12.928,39.04,27.552,70.72,27.552q1.3,0,2.592-.1c1.024.064,2.336.1,3.68.1,31.68,0,52.416-14.624,70.72-27.52l.032-.032c12.512-8.8,23.328-16.416,35.872-18.5a116.674,116.674,0,0,1,19.2-1.632,134.546,134.546,0,0,1,26.848,2.848,64.878,64.878,0,0,0,11.776,1.44h.576c6.528,0,11.328-3.584,13.152-9.824,1.216-4.128,2.08-7.968,2.944-11.9.736-3.392,1.952-8.832,3.04-10.944,21.984-3.456,38.816-7.808,50.08-13.024,9.184-4.256,14.848-9.088,17.312-14.784a15.21,15.21,0,0,0,1.28-5.28A11.908,11.908,0,0,0,501.94,374.42Z" fill="#fff"/>
    </g>
  </g>
</svg>
