<svg xmlns="http://www.w3.org/2000/svg" xmlns:xlink="http://www.w3.org/1999/xlink" width="20" height="20" viewBox="0 0 20 20">
  <defs>
    <clipPath id="clip-path">
      <rect id="Rectangle_19431" data-name="Rectangle 19431" width="20" height="20" fill="#3c3c3b" stroke="rgba(49,183,188,0.1)" stroke-width="1"/>
    </clipPath>
  </defs>
  <g id="Mask_Group_552" data-name="Mask Group 552" opacity="0.7" clip-path="url(#clip-path)">
    <path id="phone-call" d="M.862,9.165A.833.833,0,0,0,1.7,8.332,6.672,6.672,0,0,1,8.361,1.666.833.833,0,1,0,8.361,0,8.341,8.341,0,0,0,.029,8.332.833.833,0,0,0,.862,9.165Zm2.5-.833a5,5,0,0,1,5-5A.833.833,0,1,1,8.361,5,3.333,3.333,0,0,0,5.028,8.332a.833.833,0,1,1-1.666,0ZM1.543,18.466l-.758-.874a2.583,2.583,0,0,1,0-3.647c.026-.026,2.03-1.568,2.03-1.568a2.583,2.583,0,0,1,3.567,0L7.97,13.72a10.651,10.651,0,0,0,5.775-5.785L12.412,6.352a2.583,2.583,0,0,1-.006-3.568s1.544-2,1.57-2.028a2.568,2.568,0,0,1,3.6-.038l.958.833C24.2,8.118,12.01,20.213,5.226,20a5.128,5.128,0,0,1-3.683-1.53Z" transform="translate(-0.012 0.002)" fill="#3c3c3b" stroke="rgba(49,183,188,0.1)" stroke-width="0.833"/>
  </g>
</svg>
