<svg xmlns="http://www.w3.org/2000/svg" xmlns:xlink="http://www.w3.org/1999/xlink" width="179.201" height="179.201" viewBox="0 0 179.201 179.201">
  <defs>
    <clipPath id="clip-path">
      <path id="SVGID" d="M327.737,599.583a89.6,89.6,0,1,0-.009-126.711A89.6,89.6,0,0,0,327.737,599.583Zm99.935-99.934a51.731,51.731,0,1,1-73.158.008A51.732,51.732,0,0,1,427.672,499.649Z" transform="translate(-301.492 -446.627)" fill="none" stroke="#31b7bc" stroke-width="1"/>
    </clipPath>
  </defs>
  <g id="Group_9422" data-name="Group 9422" transform="translate(-301.491 -446.627)">
    <g id="Group_9418" data-name="Group 9418" transform="translate(301.492 446.627)" clip-path="url(#clip-path)">
      <g id="Group_9417" data-name="Group 9417" transform="translate(-50.772 -50.773)">
        <line id="Line_40" data-name="Line 40" y1="130.986" x2="130.986" transform="translate(144 144)" fill="none" stroke="#31b7bc" stroke-miterlimit="10" stroke-width="1.061"/>
        <line id="Line_41" data-name="Line 41" y1="130.986" x2="130.986" transform="translate(138.24 138.24)" fill="none" stroke="#31b7bc" stroke-miterlimit="10" stroke-width="1.061"/>
        <line id="Line_42" data-name="Line 42" y1="130.986" x2="130.986" transform="translate(132.48 132.48)" fill="none" stroke="#31b7bc" stroke-miterlimit="10" stroke-width="1.061"/>
        <line id="Line_43" data-name="Line 43" y1="130.986" x2="130.986" transform="translate(126.72 126.72)" fill="none" stroke="#31b7bc" stroke-miterlimit="10" stroke-width="1.061"/>
        <line id="Line_44" data-name="Line 44" y1="130.986" x2="130.986" transform="translate(120.96 120.96)" fill="none" stroke="#31b7bc" stroke-miterlimit="10" stroke-width="1.061"/>
        <line id="Line_45" data-name="Line 45" y1="130.986" x2="130.986" transform="translate(115.2 115.2)" fill="none" stroke="#31b7bc" stroke-miterlimit="10" stroke-width="1.061"/>
        <line id="Line_46" data-name="Line 46" y1="130.986" x2="130.986" transform="translate(109.44 109.44)" fill="none" stroke="#31b7bc" stroke-miterlimit="10" stroke-width="1.061"/>
        <line id="Line_47" data-name="Line 47" y1="130.986" x2="130.986" transform="translate(103.68 103.68)" fill="none" stroke="#31b7bc" stroke-miterlimit="10" stroke-width="1.061"/>
        <line id="Line_48" data-name="Line 48" y1="130.986" x2="130.986" transform="translate(97.92 97.92)" fill="none" stroke="#31b7bc" stroke-miterlimit="10" stroke-width="1.061"/>
        <line id="Line_49" data-name="Line 49" y1="130.986" x2="130.986" transform="translate(92.16 92.16)" fill="none" stroke="#31b7bc" stroke-miterlimit="10" stroke-width="1.061"/>
        <line id="Line_50" data-name="Line 50" y1="130.986" x2="130.986" transform="translate(86.4 86.4)" fill="none" stroke="#31b7bc" stroke-miterlimit="10" stroke-width="1.061"/>
        <line id="Line_51" data-name="Line 51" y1="130.986" x2="130.986" transform="translate(80.64 80.64)" fill="none" stroke="#31b7bc" stroke-miterlimit="10" stroke-width="1.061"/>
        <line id="Line_52" data-name="Line 52" y1="130.986" x2="130.986" transform="translate(74.88 74.88)" fill="none" stroke="#31b7bc" stroke-miterlimit="10" stroke-width="1.061"/>
        <line id="Line_53" data-name="Line 53" y1="130.986" x2="130.986" transform="translate(69.12 69.12)" fill="none" stroke="#31b7bc" stroke-miterlimit="10" stroke-width="1.061"/>
        <line id="Line_54" data-name="Line 54" y1="130.986" x2="130.986" transform="translate(63.36 63.36)" fill="none" stroke="#31b7bc" stroke-miterlimit="10" stroke-width="1.061"/>
        <line id="Line_55" data-name="Line 55" y1="130.986" x2="130.986" transform="translate(57.6 57.6)" fill="none" stroke="#31b7bc" stroke-miterlimit="10" stroke-width="1.061"/>
        <line id="Line_56" data-name="Line 56" y1="130.986" x2="130.986" transform="translate(51.84 51.84)" fill="none" stroke="#31b7bc" stroke-miterlimit="10" stroke-width="1.061"/>
        <line id="Line_57" data-name="Line 57" y1="130.986" x2="130.986" transform="translate(46.08 46.08)" fill="none" stroke="#31b7bc" stroke-miterlimit="10" stroke-width="1.061"/>
        <line id="Line_58" data-name="Line 58" y1="130.986" x2="130.986" transform="translate(40.32 40.32)" fill="none" stroke="#31b7bc" stroke-miterlimit="10" stroke-width="1.061"/>
        <line id="Line_59" data-name="Line 59" y1="130.986" x2="130.986" transform="translate(34.56 34.56)" fill="none" stroke="#31b7bc" stroke-miterlimit="10" stroke-width="1.061"/>
        <line id="Line_60" data-name="Line 60" y1="130.986" x2="130.986" transform="translate(28.8 28.8)" fill="none" stroke="#31b7bc" stroke-miterlimit="10" stroke-width="1.061"/>
        <line id="Line_61" data-name="Line 61" y1="130.986" x2="130.986" transform="translate(23.04 23.04)" fill="none" stroke="#31b7bc" stroke-miterlimit="10" stroke-width="1.061"/>
        <line id="Line_62" data-name="Line 62" y1="130.986" x2="130.986" transform="translate(17.28 17.28)" fill="none" stroke="#31b7bc" stroke-miterlimit="10" stroke-width="1.061"/>
        <line id="Line_63" data-name="Line 63" y1="130.986" x2="130.986" transform="translate(11.52 11.52)" fill="none" stroke="#31b7bc" stroke-miterlimit="10" stroke-width="1.061"/>
        <line id="Line_64" data-name="Line 64" y1="130.986" x2="130.986" transform="translate(5.76 5.76)" fill="none" stroke="#31b7bc" stroke-miterlimit="10" stroke-width="1.061"/>
        <line id="Line_65" data-name="Line 65" y1="130.986" x2="130.986" fill="none" stroke="#31b7bc" stroke-miterlimit="10" stroke-width="1.061"/>
      </g>
    </g>
  </g>
</svg>
